<?xml version="1.0" encoding="utf-8" standalone="no"?>
<!DOCTYPE svg PUBLIC "-//W3C//DTD SVG 1.1//EN"
  "http://www.w3.org/Graphics/SVG/1.1/DTD/svg11.dtd">
<svg xmlns:xlink="http://www.w3.org/1999/xlink" width="460.8pt" height="345.6pt" viewBox="0 0 460.8 345.6" xmlns="http://www.w3.org/2000/svg" version="1.1">
 <metadata>
  <rdf:RDF xmlns:dc="http://purl.org/dc/elements/1.1/" xmlns:cc="http://creativecommons.org/ns#" xmlns:rdf="http://www.w3.org/1999/02/22-rdf-syntax-ns#">
   <cc:Work>
    <dc:type rdf:resource="http://purl.org/dc/dcmitype/StillImage"/>
    <dc:date>2025-04-23T23:48:49.341968</dc:date>
    <dc:format>image/svg+xml</dc:format>
    <dc:creator>
     <cc:Agent>
      <dc:title>Matplotlib v3.10.1, https://matplotlib.org/</dc:title>
     </cc:Agent>
    </dc:creator>
   </cc:Work>
  </rdf:RDF>
 </metadata>
 <defs>
  <style type="text/css">*{stroke-linejoin: round; stroke-linecap: butt}</style>
 </defs>
 <g id="figure_1">
  <g id="patch_1">
   <path d="M 0 345.6 
L 460.8 345.6 
L 460.8 0 
L 0 0 
z
" style="fill: #ffffff"/>
  </g>
  <g id="axes_1">
   <g id="patch_2">
    <path d="M 57.6 307.584 
L 414.72 307.584 
L 414.72 41.472 
L 57.6 41.472 
z
" style="fill: #ffffff"/>
   </g>
   <g id="matplotlib.axis_1">
    <g id="xtick_1">
     <g id="line2d_1">
      <path d="M 57.6 307.584 
L 57.6 41.472 
" clip-path="url(#p89e9d7b99b)" style="fill: none; stroke-dasharray: 2.96,1.28; stroke-dashoffset: 0; stroke: #b0b0b0; stroke-opacity: 0.7; stroke-width: 0.8"/>
     </g>
     <g id="line2d_2">
      <defs>
       <path id="mb98857cf97" d="M 0 0 
L 0 3.5 
" style="stroke: #000000; stroke-width: 0.8"/>
      </defs>
      <g>
       <use xlink:href="#mb98857cf97" x="57.6" y="307.584" style="stroke: #000000; stroke-width: 0.8"/>
      </g>
     </g>
     <g id="text_1">
      <!-- 0 -->
      <g transform="translate(54.41875 322.182437) scale(0.1 -0.1)">
       <defs>
        <path id="DejaVuSans-30" d="M 2034 4250 
Q 1547 4250 1301 3770 
Q 1056 3291 1056 2328 
Q 1056 1369 1301 889 
Q 1547 409 2034 409 
Q 2525 409 2770 889 
Q 3016 1369 3016 2328 
Q 3016 3291 2770 3770 
Q 2525 4250 2034 4250 
z
M 2034 4750 
Q 2819 4750 3233 4129 
Q 3647 3509 3647 2328 
Q 3647 1150 3233 529 
Q 2819 -91 2034 -91 
Q 1250 -91 836 529 
Q 422 1150 422 2328 
Q 422 3509 836 4129 
Q 1250 4750 2034 4750 
z
" transform="scale(0.015625)"/>
       </defs>
       <use xlink:href="#DejaVuSans-30"/>
      </g>
     </g>
    </g>
    <g id="xtick_2">
     <g id="line2d_3">
      <path d="M 111.221622 307.584 
L 111.221622 41.472 
" clip-path="url(#p89e9d7b99b)" style="fill: none; stroke-dasharray: 2.96,1.28; stroke-dashoffset: 0; stroke: #b0b0b0; stroke-opacity: 0.7; stroke-width: 0.8"/>
     </g>
     <g id="line2d_4">
      <g>
       <use xlink:href="#mb98857cf97" x="111.221622" y="307.584" style="stroke: #000000; stroke-width: 0.8"/>
      </g>
     </g>
     <g id="text_2">
      <!-- 500 -->
      <g transform="translate(101.677872 322.182437) scale(0.1 -0.1)">
       <defs>
        <path id="DejaVuSans-35" d="M 691 4666 
L 3169 4666 
L 3169 4134 
L 1269 4134 
L 1269 2991 
Q 1406 3038 1543 3061 
Q 1681 3084 1819 3084 
Q 2600 3084 3056 2656 
Q 3513 2228 3513 1497 
Q 3513 744 3044 326 
Q 2575 -91 1722 -91 
Q 1428 -91 1123 -41 
Q 819 9 494 109 
L 494 744 
Q 775 591 1075 516 
Q 1375 441 1709 441 
Q 2250 441 2565 725 
Q 2881 1009 2881 1497 
Q 2881 1984 2565 2268 
Q 2250 2553 1709 2553 
Q 1456 2553 1204 2497 
Q 953 2441 691 2322 
L 691 4666 
z
" transform="scale(0.015625)"/>
       </defs>
       <use xlink:href="#DejaVuSans-35"/>
       <use xlink:href="#DejaVuSans-30" transform="translate(63.623047 0)"/>
       <use xlink:href="#DejaVuSans-30" transform="translate(127.246094 0)"/>
      </g>
     </g>
    </g>
    <g id="xtick_3">
     <g id="line2d_5">
      <path d="M 164.843243 307.584 
L 164.843243 41.472 
" clip-path="url(#p89e9d7b99b)" style="fill: none; stroke-dasharray: 2.96,1.28; stroke-dashoffset: 0; stroke: #b0b0b0; stroke-opacity: 0.7; stroke-width: 0.8"/>
     </g>
     <g id="line2d_6">
      <g>
       <use xlink:href="#mb98857cf97" x="164.843243" y="307.584" style="stroke: #000000; stroke-width: 0.8"/>
      </g>
     </g>
     <g id="text_3">
      <!-- 1000 -->
      <g transform="translate(152.118243 322.182437) scale(0.1 -0.1)">
       <defs>
        <path id="DejaVuSans-31" d="M 794 531 
L 1825 531 
L 1825 4091 
L 703 3866 
L 703 4441 
L 1819 4666 
L 2450 4666 
L 2450 531 
L 3481 531 
L 3481 0 
L 794 0 
L 794 531 
z
" transform="scale(0.015625)"/>
       </defs>
       <use xlink:href="#DejaVuSans-31"/>
       <use xlink:href="#DejaVuSans-30" transform="translate(63.623047 0)"/>
       <use xlink:href="#DejaVuSans-30" transform="translate(127.246094 0)"/>
       <use xlink:href="#DejaVuSans-30" transform="translate(190.869141 0)"/>
      </g>
     </g>
    </g>
    <g id="xtick_4">
     <g id="line2d_7">
      <path d="M 218.464865 307.584 
L 218.464865 41.472 
" clip-path="url(#p89e9d7b99b)" style="fill: none; stroke-dasharray: 2.96,1.28; stroke-dashoffset: 0; stroke: #b0b0b0; stroke-opacity: 0.7; stroke-width: 0.8"/>
     </g>
     <g id="line2d_8">
      <g>
       <use xlink:href="#mb98857cf97" x="218.464865" y="307.584" style="stroke: #000000; stroke-width: 0.8"/>
      </g>
     </g>
     <g id="text_4">
      <!-- 1500 -->
      <g transform="translate(205.739865 322.182437) scale(0.1 -0.1)">
       <use xlink:href="#DejaVuSans-31"/>
       <use xlink:href="#DejaVuSans-35" transform="translate(63.623047 0)"/>
       <use xlink:href="#DejaVuSans-30" transform="translate(127.246094 0)"/>
       <use xlink:href="#DejaVuSans-30" transform="translate(190.869141 0)"/>
      </g>
     </g>
    </g>
    <g id="xtick_5">
     <g id="line2d_9">
      <path d="M 272.086486 307.584 
L 272.086486 41.472 
" clip-path="url(#p89e9d7b99b)" style="fill: none; stroke-dasharray: 2.96,1.28; stroke-dashoffset: 0; stroke: #b0b0b0; stroke-opacity: 0.7; stroke-width: 0.8"/>
     </g>
     <g id="line2d_10">
      <g>
       <use xlink:href="#mb98857cf97" x="272.086486" y="307.584" style="stroke: #000000; stroke-width: 0.8"/>
      </g>
     </g>
     <g id="text_5">
      <!-- 2000 -->
      <g transform="translate(259.361486 322.182437) scale(0.1 -0.1)">
       <defs>
        <path id="DejaVuSans-32" d="M 1228 531 
L 3431 531 
L 3431 0 
L 469 0 
L 469 531 
Q 828 903 1448 1529 
Q 2069 2156 2228 2338 
Q 2531 2678 2651 2914 
Q 2772 3150 2772 3378 
Q 2772 3750 2511 3984 
Q 2250 4219 1831 4219 
Q 1534 4219 1204 4116 
Q 875 4013 500 3803 
L 500 4441 
Q 881 4594 1212 4672 
Q 1544 4750 1819 4750 
Q 2544 4750 2975 4387 
Q 3406 4025 3406 3419 
Q 3406 3131 3298 2873 
Q 3191 2616 2906 2266 
Q 2828 2175 2409 1742 
Q 1991 1309 1228 531 
z
" transform="scale(0.015625)"/>
       </defs>
       <use xlink:href="#DejaVuSans-32"/>
       <use xlink:href="#DejaVuSans-30" transform="translate(63.623047 0)"/>
       <use xlink:href="#DejaVuSans-30" transform="translate(127.246094 0)"/>
       <use xlink:href="#DejaVuSans-30" transform="translate(190.869141 0)"/>
      </g>
     </g>
    </g>
    <g id="xtick_6">
     <g id="line2d_11">
      <path d="M 325.708108 307.584 
L 325.708108 41.472 
" clip-path="url(#p89e9d7b99b)" style="fill: none; stroke-dasharray: 2.96,1.28; stroke-dashoffset: 0; stroke: #b0b0b0; stroke-opacity: 0.7; stroke-width: 0.8"/>
     </g>
     <g id="line2d_12">
      <g>
       <use xlink:href="#mb98857cf97" x="325.708108" y="307.584" style="stroke: #000000; stroke-width: 0.8"/>
      </g>
     </g>
     <g id="text_6">
      <!-- 2500 -->
      <g transform="translate(312.983108 322.182437) scale(0.1 -0.1)">
       <use xlink:href="#DejaVuSans-32"/>
       <use xlink:href="#DejaVuSans-35" transform="translate(63.623047 0)"/>
       <use xlink:href="#DejaVuSans-30" transform="translate(127.246094 0)"/>
       <use xlink:href="#DejaVuSans-30" transform="translate(190.869141 0)"/>
      </g>
     </g>
    </g>
    <g id="xtick_7">
     <g id="line2d_13">
      <path d="M 379.32973 307.584 
L 379.32973 41.472 
" clip-path="url(#p89e9d7b99b)" style="fill: none; stroke-dasharray: 2.96,1.28; stroke-dashoffset: 0; stroke: #b0b0b0; stroke-opacity: 0.7; stroke-width: 0.8"/>
     </g>
     <g id="line2d_14">
      <g>
       <use xlink:href="#mb98857cf97" x="379.32973" y="307.584" style="stroke: #000000; stroke-width: 0.8"/>
      </g>
     </g>
     <g id="text_7">
      <!-- 3000 -->
      <g transform="translate(366.60473 322.182437) scale(0.1 -0.1)">
       <defs>
        <path id="DejaVuSans-33" d="M 2597 2516 
Q 3050 2419 3304 2112 
Q 3559 1806 3559 1356 
Q 3559 666 3084 287 
Q 2609 -91 1734 -91 
Q 1441 -91 1130 -33 
Q 819 25 488 141 
L 488 750 
Q 750 597 1062 519 
Q 1375 441 1716 441 
Q 2309 441 2620 675 
Q 2931 909 2931 1356 
Q 2931 1769 2642 2001 
Q 2353 2234 1838 2234 
L 1294 2234 
L 1294 2753 
L 1863 2753 
Q 2328 2753 2575 2939 
Q 2822 3125 2822 3475 
Q 2822 3834 2567 4026 
Q 2313 4219 1838 4219 
Q 1578 4219 1281 4162 
Q 984 4106 628 3988 
L 628 4550 
Q 988 4650 1302 4700 
Q 1616 4750 1894 4750 
Q 2613 4750 3031 4423 
Q 3450 4097 3450 3541 
Q 3450 3153 3228 2886 
Q 3006 2619 2597 2516 
z
" transform="scale(0.015625)"/>
       </defs>
       <use xlink:href="#DejaVuSans-33"/>
       <use xlink:href="#DejaVuSans-30" transform="translate(63.623047 0)"/>
       <use xlink:href="#DejaVuSans-30" transform="translate(127.246094 0)"/>
       <use xlink:href="#DejaVuSans-30" transform="translate(190.869141 0)"/>
      </g>
     </g>
    </g>
    <g id="text_8">
     <!-- Training steps -->
     <g transform="translate(201.424844 335.860562) scale(0.1 -0.1)">
      <defs>
       <path id="DejaVuSans-54" d="M -19 4666 
L 3928 4666 
L 3928 4134 
L 2272 4134 
L 2272 0 
L 1638 0 
L 1638 4134 
L -19 4134 
L -19 4666 
z
" transform="scale(0.015625)"/>
       <path id="DejaVuSans-72" d="M 2631 2963 
Q 2534 3019 2420 3045 
Q 2306 3072 2169 3072 
Q 1681 3072 1420 2755 
Q 1159 2438 1159 1844 
L 1159 0 
L 581 0 
L 581 3500 
L 1159 3500 
L 1159 2956 
Q 1341 3275 1631 3429 
Q 1922 3584 2338 3584 
Q 2397 3584 2469 3576 
Q 2541 3569 2628 3553 
L 2631 2963 
z
" transform="scale(0.015625)"/>
       <path id="DejaVuSans-61" d="M 2194 1759 
Q 1497 1759 1228 1600 
Q 959 1441 959 1056 
Q 959 750 1161 570 
Q 1363 391 1709 391 
Q 2188 391 2477 730 
Q 2766 1069 2766 1631 
L 2766 1759 
L 2194 1759 
z
M 3341 1997 
L 3341 0 
L 2766 0 
L 2766 531 
Q 2569 213 2275 61 
Q 1981 -91 1556 -91 
Q 1019 -91 701 211 
Q 384 513 384 1019 
Q 384 1609 779 1909 
Q 1175 2209 1959 2209 
L 2766 2209 
L 2766 2266 
Q 2766 2663 2505 2880 
Q 2244 3097 1772 3097 
Q 1472 3097 1187 3025 
Q 903 2953 641 2809 
L 641 3341 
Q 956 3463 1253 3523 
Q 1550 3584 1831 3584 
Q 2591 3584 2966 3190 
Q 3341 2797 3341 1997 
z
" transform="scale(0.015625)"/>
       <path id="DejaVuSans-69" d="M 603 3500 
L 1178 3500 
L 1178 0 
L 603 0 
L 603 3500 
z
M 603 4863 
L 1178 4863 
L 1178 4134 
L 603 4134 
L 603 4863 
z
" transform="scale(0.015625)"/>
       <path id="DejaVuSans-6e" d="M 3513 2113 
L 3513 0 
L 2938 0 
L 2938 2094 
Q 2938 2591 2744 2837 
Q 2550 3084 2163 3084 
Q 1697 3084 1428 2787 
Q 1159 2491 1159 1978 
L 1159 0 
L 581 0 
L 581 3500 
L 1159 3500 
L 1159 2956 
Q 1366 3272 1645 3428 
Q 1925 3584 2291 3584 
Q 2894 3584 3203 3211 
Q 3513 2838 3513 2113 
z
" transform="scale(0.015625)"/>
       <path id="DejaVuSans-67" d="M 2906 1791 
Q 2906 2416 2648 2759 
Q 2391 3103 1925 3103 
Q 1463 3103 1205 2759 
Q 947 2416 947 1791 
Q 947 1169 1205 825 
Q 1463 481 1925 481 
Q 2391 481 2648 825 
Q 2906 1169 2906 1791 
z
M 3481 434 
Q 3481 -459 3084 -895 
Q 2688 -1331 1869 -1331 
Q 1566 -1331 1297 -1286 
Q 1028 -1241 775 -1147 
L 775 -588 
Q 1028 -725 1275 -790 
Q 1522 -856 1778 -856 
Q 2344 -856 2625 -561 
Q 2906 -266 2906 331 
L 2906 616 
Q 2728 306 2450 153 
Q 2172 0 1784 0 
Q 1141 0 747 490 
Q 353 981 353 1791 
Q 353 2603 747 3093 
Q 1141 3584 1784 3584 
Q 2172 3584 2450 3431 
Q 2728 3278 2906 2969 
L 2906 3500 
L 3481 3500 
L 3481 434 
z
" transform="scale(0.015625)"/>
       <path id="DejaVuSans-20" transform="scale(0.015625)"/>
       <path id="DejaVuSans-73" d="M 2834 3397 
L 2834 2853 
Q 2591 2978 2328 3040 
Q 2066 3103 1784 3103 
Q 1356 3103 1142 2972 
Q 928 2841 928 2578 
Q 928 2378 1081 2264 
Q 1234 2150 1697 2047 
L 1894 2003 
Q 2506 1872 2764 1633 
Q 3022 1394 3022 966 
Q 3022 478 2636 193 
Q 2250 -91 1575 -91 
Q 1294 -91 989 -36 
Q 684 19 347 128 
L 347 722 
Q 666 556 975 473 
Q 1284 391 1588 391 
Q 1994 391 2212 530 
Q 2431 669 2431 922 
Q 2431 1156 2273 1281 
Q 2116 1406 1581 1522 
L 1381 1569 
Q 847 1681 609 1914 
Q 372 2147 372 2553 
Q 372 3047 722 3315 
Q 1072 3584 1716 3584 
Q 2034 3584 2315 3537 
Q 2597 3491 2834 3397 
z
" transform="scale(0.015625)"/>
       <path id="DejaVuSans-74" d="M 1172 4494 
L 1172 3500 
L 2356 3500 
L 2356 3053 
L 1172 3053 
L 1172 1153 
Q 1172 725 1289 603 
Q 1406 481 1766 481 
L 2356 481 
L 2356 0 
L 1766 0 
Q 1100 0 847 248 
Q 594 497 594 1153 
L 594 3053 
L 172 3053 
L 172 3500 
L 594 3500 
L 594 4494 
L 1172 4494 
z
" transform="scale(0.015625)"/>
       <path id="DejaVuSans-65" d="M 3597 1894 
L 3597 1613 
L 953 1613 
Q 991 1019 1311 708 
Q 1631 397 2203 397 
Q 2534 397 2845 478 
Q 3156 559 3463 722 
L 3463 178 
Q 3153 47 2828 -22 
Q 2503 -91 2169 -91 
Q 1331 -91 842 396 
Q 353 884 353 1716 
Q 353 2575 817 3079 
Q 1281 3584 2069 3584 
Q 2775 3584 3186 3129 
Q 3597 2675 3597 1894 
z
M 3022 2063 
Q 3016 2534 2758 2815 
Q 2500 3097 2075 3097 
Q 1594 3097 1305 2825 
Q 1016 2553 972 2059 
L 3022 2063 
z
" transform="scale(0.015625)"/>
       <path id="DejaVuSans-70" d="M 1159 525 
L 1159 -1331 
L 581 -1331 
L 581 3500 
L 1159 3500 
L 1159 2969 
Q 1341 3281 1617 3432 
Q 1894 3584 2278 3584 
Q 2916 3584 3314 3078 
Q 3713 2572 3713 1747 
Q 3713 922 3314 415 
Q 2916 -91 2278 -91 
Q 1894 -91 1617 61 
Q 1341 213 1159 525 
z
M 3116 1747 
Q 3116 2381 2855 2742 
Q 2594 3103 2138 3103 
Q 1681 3103 1420 2742 
Q 1159 2381 1159 1747 
Q 1159 1113 1420 752 
Q 1681 391 2138 391 
Q 2594 391 2855 752 
Q 3116 1113 3116 1747 
z
" transform="scale(0.015625)"/>
      </defs>
      <use xlink:href="#DejaVuSans-54"/>
      <use xlink:href="#DejaVuSans-72" transform="translate(46.333984 0)"/>
      <use xlink:href="#DejaVuSans-61" transform="translate(87.447266 0)"/>
      <use xlink:href="#DejaVuSans-69" transform="translate(148.726562 0)"/>
      <use xlink:href="#DejaVuSans-6e" transform="translate(176.509766 0)"/>
      <use xlink:href="#DejaVuSans-69" transform="translate(239.888672 0)"/>
      <use xlink:href="#DejaVuSans-6e" transform="translate(267.671875 0)"/>
      <use xlink:href="#DejaVuSans-67" transform="translate(331.050781 0)"/>
      <use xlink:href="#DejaVuSans-20" transform="translate(394.527344 0)"/>
      <use xlink:href="#DejaVuSans-73" transform="translate(426.314453 0)"/>
      <use xlink:href="#DejaVuSans-74" transform="translate(478.414062 0)"/>
      <use xlink:href="#DejaVuSans-65" transform="translate(517.623047 0)"/>
      <use xlink:href="#DejaVuSans-70" transform="translate(579.146484 0)"/>
      <use xlink:href="#DejaVuSans-73" transform="translate(642.623047 0)"/>
     </g>
    </g>
   </g>
   <g id="matplotlib.axis_2">
    <g id="ytick_1">
     <g id="line2d_15">
      <path d="M 57.6 307.584 
L 414.72 307.584 
" clip-path="url(#p89e9d7b99b)" style="fill: none; stroke-dasharray: 2.96,1.28; stroke-dashoffset: 0; stroke: #b0b0b0; stroke-opacity: 0.7; stroke-width: 0.8"/>
     </g>
     <g id="line2d_16">
      <defs>
       <path id="m4e3a2f634d" d="M 0 0 
L -3.5 0 
" style="stroke: #000000; stroke-width: 0.8"/>
      </defs>
      <g>
       <use xlink:href="#m4e3a2f634d" x="57.6" y="307.584" style="stroke: #000000; stroke-width: 0.8"/>
      </g>
     </g>
     <g id="text_9">
      <!-- 0.0 -->
      <g transform="translate(34.696875 311.383219) scale(0.1 -0.1)">
       <defs>
        <path id="DejaVuSans-2e" d="M 684 794 
L 1344 794 
L 1344 0 
L 684 0 
L 684 794 
z
" transform="scale(0.015625)"/>
       </defs>
       <use xlink:href="#DejaVuSans-30"/>
       <use xlink:href="#DejaVuSans-2e" transform="translate(63.623047 0)"/>
       <use xlink:href="#DejaVuSans-30" transform="translate(95.410156 0)"/>
      </g>
     </g>
    </g>
    <g id="ytick_2">
     <g id="line2d_17">
      <path d="M 57.6 252.571394 
L 414.72 252.571394 
" clip-path="url(#p89e9d7b99b)" style="fill: none; stroke-dasharray: 2.96,1.28; stroke-dashoffset: 0; stroke: #b0b0b0; stroke-opacity: 0.7; stroke-width: 0.8"/>
     </g>
     <g id="line2d_18">
      <g>
       <use xlink:href="#m4e3a2f634d" x="57.6" y="252.571394" style="stroke: #000000; stroke-width: 0.8"/>
      </g>
     </g>
     <g id="text_10">
      <!-- 0.5 -->
      <g transform="translate(34.696875 256.370613) scale(0.1 -0.1)">
       <use xlink:href="#DejaVuSans-30"/>
       <use xlink:href="#DejaVuSans-2e" transform="translate(63.623047 0)"/>
       <use xlink:href="#DejaVuSans-35" transform="translate(95.410156 0)"/>
      </g>
     </g>
    </g>
    <g id="ytick_3">
     <g id="line2d_19">
      <path d="M 57.6 197.558789 
L 414.72 197.558789 
" clip-path="url(#p89e9d7b99b)" style="fill: none; stroke-dasharray: 2.96,1.28; stroke-dashoffset: 0; stroke: #b0b0b0; stroke-opacity: 0.7; stroke-width: 0.8"/>
     </g>
     <g id="line2d_20">
      <g>
       <use xlink:href="#m4e3a2f634d" x="57.6" y="197.558789" style="stroke: #000000; stroke-width: 0.8"/>
      </g>
     </g>
     <g id="text_11">
      <!-- 1.0 -->
      <g transform="translate(34.696875 201.358008) scale(0.1 -0.1)">
       <use xlink:href="#DejaVuSans-31"/>
       <use xlink:href="#DejaVuSans-2e" transform="translate(63.623047 0)"/>
       <use xlink:href="#DejaVuSans-30" transform="translate(95.410156 0)"/>
      </g>
     </g>
    </g>
    <g id="ytick_4">
     <g id="line2d_21">
      <path d="M 57.6 142.546183 
L 414.72 142.546183 
" clip-path="url(#p89e9d7b99b)" style="fill: none; stroke-dasharray: 2.96,1.28; stroke-dashoffset: 0; stroke: #b0b0b0; stroke-opacity: 0.7; stroke-width: 0.8"/>
     </g>
     <g id="line2d_22">
      <g>
       <use xlink:href="#m4e3a2f634d" x="57.6" y="142.546183" style="stroke: #000000; stroke-width: 0.8"/>
      </g>
     </g>
     <g id="text_12">
      <!-- 1.5 -->
      <g transform="translate(34.696875 146.345402) scale(0.1 -0.1)">
       <use xlink:href="#DejaVuSans-31"/>
       <use xlink:href="#DejaVuSans-2e" transform="translate(63.623047 0)"/>
       <use xlink:href="#DejaVuSans-35" transform="translate(95.410156 0)"/>
      </g>
     </g>
    </g>
    <g id="ytick_5">
     <g id="line2d_23">
      <path d="M 57.6 87.533578 
L 414.72 87.533578 
" clip-path="url(#p89e9d7b99b)" style="fill: none; stroke-dasharray: 2.96,1.28; stroke-dashoffset: 0; stroke: #b0b0b0; stroke-opacity: 0.7; stroke-width: 0.8"/>
     </g>
     <g id="line2d_24">
      <g>
       <use xlink:href="#m4e3a2f634d" x="57.6" y="87.533578" style="stroke: #000000; stroke-width: 0.8"/>
      </g>
     </g>
     <g id="text_13">
      <!-- 2.0 -->
      <g transform="translate(34.696875 91.332797) scale(0.1 -0.1)">
       <use xlink:href="#DejaVuSans-32"/>
       <use xlink:href="#DejaVuSans-2e" transform="translate(63.623047 0)"/>
       <use xlink:href="#DejaVuSans-30" transform="translate(95.410156 0)"/>
      </g>
     </g>
    </g>
    <g id="text_14">
     <!-- Training loss -->
     <g transform="translate(28.617187 205.500656) rotate(-90) scale(0.1 -0.1)">
      <defs>
       <path id="DejaVuSans-6c" d="M 603 4863 
L 1178 4863 
L 1178 0 
L 603 0 
L 603 4863 
z
" transform="scale(0.015625)"/>
       <path id="DejaVuSans-6f" d="M 1959 3097 
Q 1497 3097 1228 2736 
Q 959 2375 959 1747 
Q 959 1119 1226 758 
Q 1494 397 1959 397 
Q 2419 397 2687 759 
Q 2956 1122 2956 1747 
Q 2956 2369 2687 2733 
Q 2419 3097 1959 3097 
z
M 1959 3584 
Q 2709 3584 3137 3096 
Q 3566 2609 3566 1747 
Q 3566 888 3137 398 
Q 2709 -91 1959 -91 
Q 1206 -91 779 398 
Q 353 888 353 1747 
Q 353 2609 779 3096 
Q 1206 3584 1959 3584 
z
" transform="scale(0.015625)"/>
      </defs>
      <use xlink:href="#DejaVuSans-54"/>
      <use xlink:href="#DejaVuSans-72" transform="translate(46.333984 0)"/>
      <use xlink:href="#DejaVuSans-61" transform="translate(87.447266 0)"/>
      <use xlink:href="#DejaVuSans-69" transform="translate(148.726562 0)"/>
      <use xlink:href="#DejaVuSans-6e" transform="translate(176.509766 0)"/>
      <use xlink:href="#DejaVuSans-69" transform="translate(239.888672 0)"/>
      <use xlink:href="#DejaVuSans-6e" transform="translate(267.671875 0)"/>
      <use xlink:href="#DejaVuSans-67" transform="translate(331.050781 0)"/>
      <use xlink:href="#DejaVuSans-20" transform="translate(394.527344 0)"/>
      <use xlink:href="#DejaVuSans-6c" transform="translate(426.314453 0)"/>
      <use xlink:href="#DejaVuSans-6f" transform="translate(454.097656 0)"/>
      <use xlink:href="#DejaVuSans-73" transform="translate(515.279297 0)"/>
      <use xlink:href="#DejaVuSans-73" transform="translate(567.378906 0)"/>
     </g>
    </g>
   </g>
   <g id="line2d_25">
    <path d="M 57.707243 55.711548 
L 57.814486 55.786004 
L 58.028973 60.99866 
L 58.350703 78.056657 
L 58.565189 92.927726 
L 58.779676 113.015073 
L 59.101405 122.297728 
L 59.744865 147.726766 
L 59.852108 147.171576 
L 60.066595 147.562899 
L 60.281081 151.107191 
L 60.602811 161.69348 
L 60.817297 170.094382 
L 61.031784 165.805295 
L 61.139027 165.450294 
L 61.24627 165.893109 
L 61.460757 169.085749 
L 61.782486 180.056285 
L 61.88973 177.976483 
L 62.104216 175.581352 
L 62.318703 178.127306 
L 62.640432 186.777697 
L 62.854919 196.607635 
L 62.962162 192.233755 
L 63.069405 192.505462 
L 63.283892 194.070697 
L 63.605622 199.116612 
L 64.034595 208.64789 
L 64.141838 208.637442 
L 64.356324 209.323613 
L 64.678054 211.246687 
L 64.999784 215.769828 
L 65.107027 215.738635 
L 65.321514 215.155763 
L 65.536 215.23333 
L 65.643243 215.407013 
L 65.964973 220.082232 
L 66.072216 222.257963 
L 66.179459 221.633559 
L 66.286703 221.848727 
L 66.501189 223.163995 
L 67.037405 229.091599 
L 67.251892 231.267804 
L 67.466378 230.211612 
L 67.573622 230.012194 
L 67.680865 230.068814 
L 67.895351 230.725295 
L 68.002595 231.230168 
L 68.324324 235.835375 
L 68.538811 234.267027 
L 68.646054 234.256354 
L 68.860541 235.397574 
L 69.396757 239.752176 
L 69.504 238.970797 
L 69.611243 239.493521 
L 69.932973 243.348874 
L 70.361946 250.358194 
L 70.576432 248.85882 
L 70.790919 248.302857 
L 70.898162 248.296041 
L 71.005405 248.403263 
L 71.327135 249.522214 
L 71.434378 249.99952 
L 71.541622 249.918634 
L 71.756108 250.80734 
L 71.863351 250.410368 
L 72.077838 251.845459 
L 72.721297 257.196202 
L 73.472 260.754773 
L 73.579243 261.578895 
L 73.900973 260.435005 
L 74.222703 261.879368 
L 74.437189 263.01073 
L 74.758919 265.757084 
L 75.080649 265.286364 
L 75.187892 265.301164 
L 75.616865 266.722286 
L 75.938595 268.638418 
L 76.367568 271.077531 
L 76.796541 274.730761 
L 76.903784 274.867267 
L 77.11827 274.604462 
L 77.332757 274.484127 
L 77.44 274.302854 
L 77.76173 275.619894 
L 77.976216 276.971442 
L 78.083459 276.825354 
L 78.190703 276.875017 
L 78.512432 277.683393 
L 79.155892 279.678942 
L 79.477622 281.68864 
L 80.013838 286.080215 
L 80.121081 285.516564 
L 80.228324 285.53931 
L 80.979027 286.118422 
L 81.193514 287.68381 
L 81.300757 287.754345 
L 81.515243 287.548612 
L 81.72973 287.96402 
L 82.373189 289.694131 
L 82.587676 289.863073 
L 82.802162 290.495841 
L 83.338378 292.791729 
L 83.445622 292.507083 
L 83.552865 292.63235 
L 83.660108 292.486159 
L 83.874595 292.969381 
L 84.303568 295.04128 
L 84.410811 294.974714 
L 84.625297 295.228845 
L 85.376 297.399937 
L 85.483243 297.330416 
L 85.69773 296.702631 
L 86.341189 297.457845 
L 86.770162 298.170292 
L 87.091892 298.423996 
L 87.306378 299.180989 
L 87.520865 299.601633 
L 87.628108 300.101149 
L 87.949838 299.140499 
L 88.271568 298.713307 
L 88.378811 298.708446 
L 88.700541 299.362293 
L 88.915027 299.839752 
L 89.66573 302.991755 
L 89.772973 302.766573 
L 90.094703 302.499407 
L 90.416432 302.432118 
L 90.952649 302.975132 
L 91.167135 303.128159 
L 91.596108 303.892376 
L 91.810595 304.64676 
L 92.025081 304.381037 
L 92.346811 304.337339 
L 92.775784 304.53845 
L 92.883027 304.702489 
L 93.097514 304.598351 
L 93.526486 304.761453 
L 94.062703 305.182001 
L 94.491676 305.125053 
L 94.920649 305.467316 
L 95.242378 305.672803 
L 95.671351 305.48512 
L 95.993081 305.565814 
L 96.100324 305.635214 
L 96.314811 305.535073 
L 96.636541 305.720643 
L 97.065514 306.179142 
L 97.172757 306.337104 
L 97.387243 306.159391 
L 98.352432 306.299997 
L 100.068324 306.500294 
L 108.111568 306.893052 
L 122.053189 307.117375 
L 125.163243 307.12854 
L 126.986378 307.111073 
L 127.308108 307.060136 
L 130.525405 306.943997 
L 130.525405 306.943997 
" clip-path="url(#p89e9d7b99b)" style="fill: none; stroke: #0000ff; stroke-width: 1.5; stroke-linecap: square"/>
   </g>
   <g id="line2d_26">
    <path d="M 57.707243 54.345734 
L 58.136216 54.177503 
L 58.779676 54.186492 
L 59.101405 54.225051 
L 60.710054 54.247084 
L 60.924541 54.309116 
L 61.460757 54.218781 
L 62.104216 54.195917 
L 64.141838 54.329448 
L 65.643243 54.277511 
L 66.179459 54.315272 
L 67.788108 54.348648 
L 68.860541 54.351679 
L 70.576432 54.333567 
L 70.790919 54.35282 
L 71.648865 54.229358 
L 73.79373 54.427913 
L 75.402378 54.409745 
L 77.547243 54.457419 
L 78.083459 54.478626 
L 78.726919 54.394175 
L 80.979027 54.543771 
L 84.732541 54.713601 
L 84.947027 54.644015 
L 86.233946 54.854512 
L 86.662919 54.902319 
L 87.199135 54.762206 
L 88.057081 54.694079 
L 88.700541 54.802278 
L 89.66573 54.888461 
L 89.880216 54.935403 
L 90.738162 54.887797 
L 90.952649 54.881791 
L 91.596108 54.755988 
L 91.810595 54.867284 
L 92.025081 54.808399 
L 92.668541 54.966766 
L 92.883027 55.036325 
L 92.99027 54.935598 
L 93.419243 55.072918 
L 94.277189 55.19283 
L 95.027892 55.136457 
L 95.242378 55.214149 
L 95.993081 55.363112 
L 96.529297 55.481402 
L 97.494486 55.272355 
L 97.816216 55.728195 
L 97.923459 55.588278 
L 98.566919 55.046736 
L 98.888649 55.045088 
L 99.317622 55.165167 
L 99.639351 55.581864 
L 99.853838 55.842168 
L 100.068324 55.526306 
L 100.390054 55.421552 
L 100.604541 55.570408 
L 101.140757 55.55784 
L 101.56973 55.614 
L 102.213189 55.622623 
L 102.534919 55.708021 
L 102.642162 55.662237 
L 103.392865 56.470728 
L 103.821838 56.36594 
L 104.250811 56.447364 
L 104.679784 56.479379 
L 104.787027 56.58578 
L 104.89427 56.357244 
L 105.53773 56.650572 
L 105.859459 56.645176 
L 106.073946 56.655028 
L 106.824649 56.872975 
L 106.931892 56.71364 
L 107.146378 56.957152 
L 107.253622 57.053701 
L 108.111568 56.456463 
L 108.540541 56.700115 
L 108.86227 56.692093 
L 109.291243 56.857105 
L 109.50573 56.740948 
L 109.827459 56.756526 
L 110.041946 56.91738 
L 110.256432 57.165449 
L 110.470919 57.298361 
L 110.685405 57.233928 
L 110.792649 57.180419 
L 111.221622 57.560563 
L 111.757838 57.368306 
L 112.294054 57.506456 
L 112.83027 57.499291 
L 113.152 57.80261 
L 113.366486 57.844183 
L 114.117189 58.129337 
L 114.438919 58.516955 
L 114.546162 58.342015 
L 114.975135 57.936136 
L 115.296865 57.892697 
L 115.511351 57.937032 
L 115.725838 58.111787 
L 116.583784 59.363891 
L 116.691027 59.323169 
L 117.012757 58.878246 
L 117.334486 58.843226 
L 117.548973 58.892407 
L 117.763459 59.203272 
L 117.870703 58.949911 
L 118.192432 59.512422 
L 118.728649 60.478005 
L 119.050378 59.802569 
L 119.586595 60.023889 
L 119.801081 60.071707 
L 119.908324 59.856775 
L 120.122811 60.174816 
L 120.444541 60.305072 
L 120.76627 60.885593 
L 120.980757 60.608302 
L 121.088 60.56194 
L 121.40973 61.087817 
L 121.624216 61.28333 
L 121.838703 61.674985 
L 121.945946 61.418451 
L 122.589405 62.02587 
L 122.803892 62.076347 
L 122.911135 62.154818 
L 123.018378 62.445873 
L 123.554595 61.976522 
L 123.661838 62.019577 
L 123.769081 61.870287 
L 123.983568 62.028499 
L 124.198054 62.695598 
L 124.519784 62.859197 
L 124.841514 63.146422 
L 125.056 63.455803 
L 125.163243 63.286581 
L 125.484973 63.506243 
L 125.806703 63.778319 
L 126.021189 64.441036 
L 126.235676 64.327496 
L 126.664649 65.176853 
L 127.200865 66.14582 
L 127.308108 66.203481 
L 127.522595 66.105151 
L 128.058811 66.329928 
L 128.166054 66.237717 
L 128.380541 67.014476 
L 128.487784 67.025972 
L 128.809514 66.776914 
L 129.34573 67.091277 
L 129.452973 67.567897 
L 129.881946 67.268806 
L 130.096432 67.618468 
L 130.525405 68.490238 
L 130.632649 68.403825 
L 130.739892 68.494506 
L 130.954378 68.802826 
L 131.061622 68.851976 
L 131.383351 69.624684 
L 131.490595 69.955477 
L 131.597838 69.909807 
L 131.812324 69.50546 
L 131.919568 69.571296 
L 132.026811 69.181701 
L 132.241297 69.776452 
L 132.884757 72.224243 
L 132.992 72.177381 
L 133.099243 72.408782 
L 133.206486 72.182329 
L 133.528216 73.3762 
L 133.635459 73.88355 
L 133.742703 73.688629 
L 133.957189 73.814292 
L 134.064432 73.709651 
L 134.386162 75.384296 
L 134.707892 74.876952 
L 134.815135 75.258034 
L 135.244108 72.985785 
L 135.458595 73.317835 
L 135.565838 72.791297 
L 135.780324 73.687068 
L 135.994811 75.277941 
L 136.423784 77.511945 
L 136.531027 77.255709 
L 136.852757 78.365935 
L 136.96 78.388913 
L 137.28173 77.933239 
L 137.603459 77.645426 
L 137.925189 79.47825 
L 138.032432 79.601643 
L 138.246919 79.356346 
L 138.461405 79.660347 
L 138.890378 80.702053 
L 139.104865 81.426725 
L 139.319351 80.999888 
L 139.533838 81.55872 
L 140.177297 84.269737 
L 140.284541 83.762067 
L 140.60627 85.21367 
L 141.142486 87.983915 
L 141.24973 87.834407 
L 141.464216 87.994478 
L 141.571459 87.928208 
L 141.785946 88.12644 
L 142.214919 88.623502 
L 142.322162 88.315424 
L 142.536649 89.132757 
L 142.643892 89.170075 
L 142.858378 89.64046 
L 143.287351 91.417679 
L 143.394595 90.825701 
L 143.609081 91.287595 
L 143.716324 91.765511 
L 143.823568 91.343334 
L 144.038054 92.506459 
L 144.57427 96.348447 
L 144.788757 96.98766 
L 145.003243 97.664158 
L 145.21773 97.529082 
L 145.432216 97.432891 
L 145.539459 98.326623 
L 145.753946 97.492964 
L 145.861189 96.820217 
L 146.182919 98.120241 
L 146.290162 98.022408 
L 146.504649 98.79168 
L 146.611892 99.909922 
L 147.040865 99.503656 
L 147.148108 99.446469 
L 147.362595 100.435606 
L 147.469838 100.259358 
L 148.327784 102.969979 
L 148.649514 105.587482 
L 148.864 105.304164 
L 149.078486 105.743215 
L 149.400216 106.812632 
L 149.507459 106.807372 
L 149.829189 108.738981 
L 150.043676 109.542392 
L 150.794378 113.901623 
L 150.901622 115.160809 
L 151.116108 113.488273 
L 151.330595 113.141755 
L 151.759568 113.104859 
L 151.974054 114.927402 
L 152.188541 114.339785 
L 152.295784 114.597549 
L 152.51027 116.101755 
L 152.939243 120.645137 
L 153.046486 120.632086 
L 153.15373 120.631317 
L 153.260973 119.729615 
L 153.368216 119.86125 
L 153.582703 121.12715 
L 154.118919 125.567161 
L 154.226162 125.16637 
L 154.333405 125.319944 
L 154.440649 124.9078 
L 154.655135 125.2342 
L 154.976865 127.273863 
L 155.084108 128.08884 
L 155.298595 126.244007 
L 155.513081 128.503621 
L 155.620324 128.645557 
L 155.834811 130.542344 
L 156.263784 135.269695 
L 156.371027 135.211055 
L 156.47827 134.916807 
L 156.8 136.060363 
L 157.014486 134.785498 
L 157.228973 134.629884 
L 157.336216 136.099519 
L 157.657946 134.800784 
L 157.872432 136.366662 
L 157.979676 136.10275 
L 158.194162 138.420144 
L 158.515892 142.311256 
L 158.837622 144.075599 
L 158.944865 143.534674 
L 159.159351 145.187172 
L 159.266595 144.995935 
L 159.373838 145.412373 
L 159.481081 146.459009 
L 159.802811 144.286159 
L 160.017297 143.340522 
L 160.339027 145.750007 
L 161.625946 157.494912 
L 161.947676 155.486734 
L 162.376649 154.118446 
L 162.698378 156.148507 
L 162.912865 156.597526 
L 163.127351 158.264773 
L 163.663568 165.161397 
L 163.878054 163.110481 
L 164.092541 164.57332 
L 164.736 171.052677 
L 164.843243 171.169587 
L 165.05773 172.688575 
L 165.164973 172.492421 
L 165.272216 172.548501 
L 165.593946 173.099579 
L 165.701189 173.107231 
L 165.808432 172.868769 
L 166.022919 173.886041 
L 166.130162 173.85476 
L 166.237405 174.379385 
L 166.451892 172.716916 
L 166.559135 172.662881 
L 166.773622 173.595287 
L 166.880865 174.34439 
L 166.988108 176.565017 
L 167.095351 176.426596 
L 167.202595 175.827098 
L 167.309838 176.424411 
L 167.417081 175.900241 
L 167.631568 178.247929 
L 167.953297 184.080605 
L 168.060541 183.916519 
L 168.275027 185.870312 
L 168.38227 185.511088 
L 169.02573 191.42172 
L 169.132973 190.404132 
L 169.347459 190.692244 
L 169.454703 190.311187 
L 169.669189 192.314054 
L 169.776432 191.491906 
L 169.990919 192.972959 
L 170.098162 193.990666 
L 170.312649 196.831131 
L 170.527135 197.176939 
L 170.741622 196.756877 
L 170.956108 197.685399 
L 171.170595 197.02961 
L 171.277838 199.244073 
L 171.814054 196.025835 
L 172.135784 199.099066 
L 172.35027 201.700615 
L 172.457514 201.322887 
L 172.564757 201.331834 
L 172.779243 202.015278 
L 173.100973 203.065111 
L 173.422703 206.643779 
L 173.637189 204.837642 
L 173.744432 204.716171 
L 173.851676 204.900705 
L 174.173405 206.383341 
L 174.387892 209.870187 
L 174.495135 209.825898 
L 174.709622 209.139616 
L 174.816865 209.515845 
L 175.031351 211.651264 
L 175.460324 217.185518 
L 175.674811 216.734594 
L 175.782054 216.608685 
L 175.889297 216.831083 
L 176.103784 218.037201 
L 176.532757 221.86662 
L 176.64 220.81158 
L 176.747243 220.991166 
L 176.854486 222.770754 
L 177.068973 221.540739 
L 177.176216 221.382888 
L 177.283459 221.529424 
L 177.497946 222.725189 
L 177.605189 223.634969 
L 177.712432 222.673217 
L 177.819676 222.881033 
L 178.248649 225.670288 
L 178.892108 235.554248 
L 178.999351 234.013355 
L 179.106595 234.287111 
L 179.321081 233.966863 
L 179.535568 234.775528 
L 179.857297 236.561297 
L 180.071784 235.721042 
L 180.393514 236.893824 
L 180.608 237.418717 
L 180.822486 238.664494 
L 180.92973 240.075476 
L 181.251459 238.057276 
L 181.358703 238.083126 
L 181.465946 238.294306 
L 181.573189 237.869938 
L 181.680432 238.142877 
L 182.538378 244.757245 
L 183.074595 250.905679 
L 183.503568 250.04776 
L 183.610811 249.523935 
L 183.825297 250.593324 
L 183.932541 250.500519 
L 184.039784 251.227031 
L 184.147027 254.031274 
L 184.468757 252.174481 
L 184.790486 251.948458 
L 185.219459 254.223556 
L 185.433946 253.200009 
L 185.541189 253.291704 
L 185.755676 254.422803 
L 185.970162 256.214574 
L 186.184649 260.285867 
L 186.399135 259.192156 
L 186.506378 259.263672 
L 186.828108 260.716796 
L 187.149838 262.124653 
L 187.257081 263.583245 
L 187.471568 261.929071 
L 187.578811 261.995735 
L 187.793297 263.082293 
L 188.22227 267.184876 
L 188.329514 268.263307 
L 188.436757 267.934737 
L 188.544 268.221309 
L 188.651243 267.94641 
L 188.972973 269.100172 
L 189.294703 269.563189 
L 189.401946 269.57864 
L 189.509189 268.876068 
L 189.616432 268.914458 
L 189.938162 268.39265 
L 190.152649 269.016437 
L 191.010595 273.470081 
L 191.117838 273.407801 
L 191.332324 274.228834 
L 191.546811 275.817601 
L 191.654054 275.423921 
L 192.512 280.10576 
L 192.726486 281.445432 
L 192.940973 281.410241 
L 193.048216 281.271021 
L 193.155459 280.614191 
L 193.262703 280.698366 
L 193.477189 280.964966 
L 193.691676 280.880278 
L 193.798919 281.520343 
L 194.013405 281.416843 
L 194.227892 281.499003 
L 194.442378 282.115096 
L 195.193081 284.747902 
L 195.622054 285.66732 
L 195.836541 286.27684 
L 195.943784 287.24757 
L 196.15827 286.948231 
L 196.372757 287.292577 
L 196.694486 288.461913 
L 197.016216 289.939716 
L 197.123459 289.905634 
L 197.337946 290.234727 
L 197.659676 291.173344 
L 197.874162 292.157565 
L 197.981405 292.949166 
L 198.195892 292.394406 
L 198.303135 292.328929 
L 198.517622 292.621081 
L 198.946595 294.013987 
L 199.053838 294.714543 
L 199.268324 294.33258 
L 199.482811 294.692807 
L 200.019027 296.441849 
L 200.12627 296.806641 
L 200.340757 296.523049 
L 200.555243 296.665358 
L 200.76973 296.739923 
L 201.413189 297.379312 
L 201.842162 297.080647 
L 202.056649 297.400699 
L 202.485622 298.342119 
L 202.592865 298.290195 
L 203.021838 299.116624 
L 203.343568 300.118631 
L 203.558054 299.854419 
L 203.772541 299.880828 
L 204.308757 300.759533 
L 204.523243 301.126213 
L 204.844973 301.177361 
L 205.273946 301.160261 
L 205.810162 301.685174 
L 206.131892 301.795802 
L 206.668108 302.428513 
L 206.775351 302.29868 
L 207.204324 301.875478 
L 207.633297 302.363844 
L 207.955027 302.476616 
L 208.491243 302.942794 
L 208.70573 303.302591 
L 209.134703 302.987166 
L 209.563676 303.012041 
L 209.885405 303.398286 
L 210.207135 303.171969 
L 210.528865 303.298571 
L 210.957838 303.524754 
L 211.172324 303.533187 
L 211.601297 303.940593 
L 212.03027 304.316548 
L 212.566486 304.072359 
L 213.317189 304.222584 
L 213.960649 304.74784 
L 214.067892 304.86965 
L 214.604108 304.586657 
L 215.033081 304.558731 
L 215.783784 304.754317 
L 216.427243 305.012965 
L 220.073514 305.346762 
L 220.931459 305.463822 
L 221.574919 305.376084 
L 222.754595 305.645467 
L 222.969081 305.601204 
L 224.792216 305.695821 
L 225.006703 305.681739 
L 228.116757 305.876297 
L 228.652973 305.918676 
L 231.119568 306.066721 
L 231.548541 306.039527 
L 232.299243 305.994334 
L 234.551351 306.206521 
L 234.980324 306.187438 
L 237.554162 306.302767 
L 239.80627 306.360407 
L 240.128 306.381612 
L 241.414919 306.364613 
L 242.380108 306.400121 
L 243.130811 306.305585 
L 244.953946 306.438102 
L 245.811892 306.380839 
L 247.313297 306.534683 
L 247.849514 306.509763 
L 248.921946 306.452375 
L 250.423351 306.498761 
L 252.139243 306.534282 
L 261.147676 306.661539 
L 262.005622 306.697055 
L 265.973622 306.687352 
L 266.617081 306.580803 
L 266.938811 306.589114 
L 267.475027 306.623528 
L 267.904 306.641646 
L 268.654703 306.701276 
L 269.512649 306.749245 
L 270.585081 306.776272 
L 272.729946 306.79191 
L 287.636757 306.825837 
L 288.387459 306.850234 
L 289.674378 306.869104 
L 291.712 306.854792 
L 295.572757 306.860443 
L 296.00173 306.862035 
L 299.111784 306.882054 
L 301.578378 306.86614 
L 302.329081 306.902274 
L 314.876541 306.923471 
L 317.128649 306.940595 
L 318.201081 306.905131 
L 344.797405 306.920611 
L 345.869838 306.963891 
L 346.620541 306.992359 
L 348.765405 306.979253 
L 350.803027 306.97749 
L 354.663784 307.041577 
L 355.736216 307.06892 
L 355.736216 307.06892 
" clip-path="url(#p89e9d7b99b)" style="fill: none; stroke: #ff0000; stroke-width: 1.5; stroke-linecap: square"/>
   </g>
   <g id="line2d_27">
    <path d="M 57.707243 56.457335 
L 58.028973 62.181797 
L 58.565189 75.749733 
L 58.779676 83.570769 
L 59.637622 93.529901 
L 59.744865 95.406268 
L 59.959351 93.532599 
L 60.066595 93.313463 
L 60.173838 93.389703 
L 60.388324 95.096113 
L 60.817297 101.72851 
L 61.139027 99.639776 
L 61.353514 100.516591 
L 61.568 102.080978 
L 61.782486 105.487052 
L 61.996973 104.481368 
L 62.104216 104.669139 
L 62.318703 106.692588 
L 62.854919 116.792443 
L 62.962162 115.392139 
L 63.712865 121.196846 
L 64.141838 126.48673 
L 64.570811 128.301891 
L 65.107027 133.461033 
L 65.321514 132.4481 
L 65.536 132.282808 
L 65.643243 132.399947 
L 65.85773 134.747902 
L 66.072216 138.178854 
L 66.179459 139.174979 
L 66.393946 138.222678 
L 66.501189 138.320864 
L 66.715676 139.570008 
L 67.251892 144.538025 
L 67.359135 144.383865 
L 67.466378 144.603568 
L 67.680865 145.925457 
L 68.324324 152.580912 
L 68.538811 151.496067 
L 68.646054 151.672747 
L 68.860541 153.207463 
L 69.396757 160.026406 
L 69.611243 158.697876 
L 69.718486 158.884118 
L 69.932973 160.168189 
L 70.361946 165.031105 
L 70.469189 163.951036 
L 70.898162 166.421348 
L 71.327135 171.538723 
L 71.541622 174.205749 
L 71.756108 172.409004 
L 71.970595 169.985688 
L 72.077838 170.073095 
L 72.292324 171.64179 
L 72.935784 177.822222 
L 73.043027 177.949848 
L 73.364757 183.443637 
L 73.579243 188.566097 
L 73.900973 185.883282 
L 74.115459 187.090691 
L 74.329946 186.873665 
L 74.544432 187.951545 
L 74.866162 190.149905 
L 74.973405 190.153243 
L 75.080649 189.974027 
L 75.402378 193.45114 
L 75.616865 195.898426 
L 75.831351 198.715837 
L 76.260324 198.896409 
L 76.689297 202.494037 
L 77.011027 205.65711 
L 77.332757 206.009509 
L 77.44 205.902095 
L 77.76173 207.740429 
L 77.976216 210.50194 
L 78.083459 210.104655 
L 78.190703 210.150689 
L 78.405189 211.16852 
L 78.619676 212.504111 
L 79.048649 218.016389 
L 79.155892 218.092365 
L 79.370378 218.998101 
L 79.799351 221.207615 
L 80.013838 225.086243 
L 80.121081 223.220725 
L 80.228324 223.263542 
L 80.442811 224.385419 
L 80.979027 229.667933 
L 81.193514 232.752955 
L 81.515243 231.45875 
L 81.72973 232.169944 
L 82.158703 234.946383 
L 82.373189 236.822842 
L 82.480432 236.862564 
L 82.694919 238.650387 
L 83.231135 246.040422 
L 83.338378 245.217056 
L 83.445622 245.205287 
L 83.552865 245.503617 
L 83.660108 245.256495 
L 83.767351 245.432991 
L 83.981838 246.839139 
L 84.410811 250.739681 
L 84.518054 250.72698 
L 84.839784 252.584442 
L 85.161514 254.26096 
L 85.483243 256.736226 
L 85.804973 254.584879 
L 85.912216 254.56094 
L 86.019459 254.815486 
L 86.233946 254.697888 
L 86.341189 254.839185 
L 86.770162 256.091889 
L 86.877405 256.258208 
L 87.413622 262.000207 
L 87.735351 266.764164 
L 87.949838 266.989763 
L 88.057081 266.962135 
L 88.164324 266.790691 
L 88.271568 266.96301 
L 88.486054 267.515539 
L 88.593297 267.901644 
L 88.700541 269.631303 
L 89.129514 266.507234 
L 89.236757 265.815078 
L 89.66573 270.794414 
L 89.880216 268.987639 
L 90.094703 269.614469 
L 90.523676 272.327842 
L 90.738162 275.247141 
L 90.952649 273.887195 
L 91.059892 273.843757 
L 91.274378 274.459277 
L 91.917838 277.302345 
L 92.025081 277.1431 
L 92.239568 277.802231 
L 92.561297 279.874588 
L 92.99027 282.698455 
L 93.097514 282.576849 
L 93.419243 283.446329 
L 93.955459 285.243782 
L 94.062703 284.236328 
L 94.277189 284.696802 
L 95.027892 286.752205 
L 95.242378 285.994076 
L 95.349622 285.94006 
L 95.456865 285.609329 
L 95.778595 285.974427 
L 96.100324 286.551663 
L 96.314811 287.51434 
L 96.529297 288.294837 
L 96.636541 287.869957 
L 96.851027 288.74358 
L 97.387243 291.529458 
L 97.494486 291.70673 
L 97.708973 292.534748 
L 97.816216 292.574636 
L 98.352432 293.578305 
L 98.566919 293.199422 
L 98.674162 292.839093 
L 99.103135 294.74727 
L 99.424865 296.413556 
L 100.175568 294.513706 
L 100.282811 294.448659 
L 100.711784 294.956035 
L 101.033514 296.098933 
L 101.462486 297.758305 
L 101.56973 297.916413 
L 101.891459 297.001315 
L 102.105946 296.793195 
L 102.320432 296.853126 
L 103.178378 298.879111 
L 103.392865 299.11085 
L 103.607351 300.018277 
L 103.821838 298.783756 
L 104.143568 299.014981 
L 104.572541 299.534363 
L 104.787027 300.114453 
L 105.001514 299.808247 
L 105.216 299.490658 
L 105.430486 299.468409 
L 105.752216 299.841665 
L 106.288432 301.746673 
L 106.824649 303.827917 
L 106.931892 303.75089 
L 107.253622 303.32909 
L 107.575351 303.367932 
L 107.897081 303.636684 
L 108.004324 303.990994 
L 108.111568 303.872828 
L 108.433297 304.091553 
L 108.647784 304.101565 
L 108.86227 304.442108 
L 109.076757 304.756574 
L 109.291243 304.799025 
L 109.720216 305.528326 
L 110.149189 306.394377 
L 110.470919 306.527181 
L 110.578162 306.426064 
L 111.007135 306.804822 
L 111.221622 307.054929 
L 111.650595 306.690652 
L 112.079568 306.781291 
L 112.294054 306.803996 
L 112.723027 306.885505 
L 113.044757 307.16814 
L 113.259243 307.474379 
L 113.47373 307.242292 
L 114.224432 307.409772 
L 114.438919 307.415901 
L 115.511351 307.339594 
L 119.264865 307.467001 
L 123.983568 307.474608 
L 124.305297 307.480149 
L 125.484973 307.449947 
L 127.629838 307.509885 
L 167.631568 307.538588 
L 327.424 307.561133 
L 330.855784 307.559125 
L 342.438054 307.554648 
L 349.194378 307.556168 
L 355.736216 307.5618 
L 355.736216 307.5618 
" clip-path="url(#p89e9d7b99b)" style="fill: none; stroke: #008000; stroke-width: 1.5; stroke-linecap: square"/>
   </g>
   <g id="line2d_28">
    <path d="M 57.707243 56.538865 
L 58.243459 67.116711 
L 58.565189 74.5972 
L 58.779676 81.394908 
L 59.744865 90.370817 
L 59.959351 88.155257 
L 60.173838 87.852134 
L 60.388324 88.95506 
L 60.817297 93.135133 
L 61.139027 90.636581 
L 61.24627 91.208423 
L 61.353514 90.9153 
L 61.460757 91.026064 
L 61.675243 92.395472 
L 61.782486 93.592493 
L 61.996973 91.728381 
L 62.104216 91.883584 
L 62.318703 93.241218 
L 62.640432 96.68554 
L 62.854919 99.931429 
L 62.962162 97.692698 
L 63.283892 99.589071 
L 63.391135 99.227347 
L 64.141838 101.656877 
L 64.678054 102.603804 
L 64.785297 102.447522 
L 64.999784 102.652989 
L 65.107027 103.432784 
L 65.536 103.010017 
L 65.643243 102.808078 
L 66.072216 103.447725 
L 66.179459 104.138084 
L 66.501189 102.903746 
L 66.822919 102.476638 
L 67.037405 103.034093 
L 67.251892 104.375825 
L 67.573622 102.712857 
L 67.788108 102.428114 
L 68.002595 102.885143 
L 68.109838 103.082294 
L 68.217081 103.622704 
L 68.431568 103.021518 
L 68.538811 103.196557 
L 68.753297 104.286616 
L 69.289514 108.553113 
L 69.396757 108.470313 
L 69.504 108.787554 
L 69.82573 107.976044 
L 70.361946 107.568102 
L 70.469189 106.565627 
L 70.898162 108.435162 
L 71.219892 109.976367 
L 71.541622 111.859656 
L 71.756108 110.51554 
L 72.185081 109.025376 
L 72.506811 108.61315 
L 72.721297 109.973334 
L 73.043027 110.261902 
L 73.579243 113.479493 
L 73.79373 112.77334 
L 74.008216 112.714962 
L 74.222703 112.777999 
L 74.651676 113.545449 
L 74.866162 113.075296 
L 75.080649 112.843351 
L 75.402378 114.133104 
L 75.509622 114.056051 
L 76.045838 113.290305 
L 76.260324 113.368462 
L 76.582054 114.159389 
L 76.796541 114.138137 
L 76.903784 113.545724 
L 77.44 116.935329 
L 77.547243 116.651003 
L 77.868973 117.068092 
L 77.976216 116.95823 
L 78.405189 117.702694 
L 78.619676 117.619894 
L 78.941405 116.183818 
L 79.048649 117.660658 
L 79.799351 117.245976 
L 80.013838 116.971662 
L 80.335568 117.307453 
L 80.979027 119.651757 
L 81.193514 120.550997 
L 81.300757 120.545872 
L 81.72973 119.266789 
L 82.158703 117.977702 
L 82.373189 118.366843 
L 82.480432 117.99741 
L 83.231135 121.534266 
L 83.338378 120.828857 
L 83.552865 121.484387 
L 83.660108 121.368638 
L 84.089081 122.987253 
L 84.303568 123.233941 
L 84.410811 122.093373 
L 84.518054 122.303327 
L 84.839784 124.323329 
L 85.376 122.299968 
L 85.483243 122.809912 
L 85.69773 122.458444 
L 85.912216 122.924046 
L 86.019459 123.245416 
L 86.448432 122.024293 
L 86.555676 123.496545 
L 86.662919 123.444877 
L 86.877405 123.500716 
L 87.091892 122.46257 
L 87.413622 122.494231 
L 87.520865 122.732349 
L 87.628108 123.77845 
L 87.842595 123.657231 
L 88.057081 123.969612 
L 88.164324 123.731617 
L 88.271568 123.933793 
L 88.486054 124.539496 
L 88.593297 124.676697 
L 88.700541 123.797389 
L 89.129514 124.98195 
L 89.558486 126.024318 
L 89.66573 126.82953 
L 89.772973 126.750931 
L 90.094703 127.120738 
L 90.416432 127.659468 
L 90.738162 126.880773 
L 90.845405 128.3617 
L 91.596108 127.030444 
L 91.810595 127.917335 
L 91.917838 127.522601 
L 92.132324 127.683233 
L 92.775784 128.524736 
L 92.883027 129.375527 
L 92.99027 128.356706 
L 93.097514 128.418405 
L 93.955459 130.740199 
L 94.062703 130.679296 
L 94.169946 130.783161 
L 94.277189 131.458401 
L 95.027892 128.790907 
L 95.135135 130.007128 
L 95.349622 129.178641 
L 95.564108 128.156496 
L 95.778595 128.740799 
L 96.207568 131.057701 
L 96.314811 131.737549 
L 96.422054 131.440987 
L 96.529297 131.774465 
L 96.636541 131.664584 
L 97.065514 134.123756 
L 97.172757 134.773514 
L 97.387243 133.690601 
L 97.494486 133.001748 
L 97.60173 133.324143 
L 97.708973 133.223265 
L 98.030703 132.505894 
L 98.245189 132.26097 
L 98.352432 132.574395 
L 98.674162 131.782818 
L 99.317622 134.534997 
L 99.424865 133.216837 
L 99.853838 135.219187 
L 100.390054 137.286829 
L 100.497297 136.664422 
L 100.711784 136.828806 
L 101.033514 136.48221 
L 101.248 136.158222 
L 101.462486 135.360795 
L 101.56973 137.47194 
L 101.784216 136.859289 
L 102.105946 136.666288 
L 102.320432 136.565042 
L 102.427676 136.50098 
L 102.534919 136.21094 
L 102.642162 137.64352 
L 102.856649 136.787031 
L 103.071135 136.611067 
L 103.285622 136.680209 
L 103.392865 136.795932 
L 103.607351 138.204766 
L 103.821838 137.123201 
L 104.036324 137.748138 
L 104.465297 140.046692 
L 104.679784 141.629157 
L 104.787027 140.846557 
L 105.108757 141.010668 
L 105.53773 141.710837 
L 105.752216 141.755173 
L 105.859459 141.576606 
L 106.073946 142.008126 
L 106.824649 143.911441 
L 106.931892 144.759581 
L 107.146378 144.319861 
L 107.253622 144.436611 
L 107.575351 143.123422 
L 107.897081 142.70467 
L 108.004324 143.913051 
L 108.218811 143.216357 
L 108.326054 143.112814 
L 108.433297 144.050196 
L 108.647784 143.30363 
L 108.755027 143.298153 
L 108.86227 143.466968 
L 108.969514 143.854829 
L 109.076757 142.370539 
L 109.720216 145.648182 
L 110.363676 150.482923 
L 110.470919 151.118381 
L 110.685405 150.179245 
L 110.792649 150.556864 
L 111.114378 149.381716 
L 111.221622 151.247073 
L 111.757838 150.474999 
L 111.865081 150.847037 
L 111.972324 150.809779 
L 112.186811 151.663665 
L 112.401297 152.986971 
L 112.723027 153.949276 
L 112.83027 154.351687 
L 112.937514 154.164356 
L 113.044757 154.809098 
L 113.152 154.341956 
L 113.366486 156.644483 
L 113.580973 157.067194 
L 114.117189 158.709705 
L 114.438919 160.477669 
L 114.760649 159.152792 
L 114.975135 158.952449 
L 115.189622 158.916841 
L 115.404108 161.95044 
L 115.511351 161.957265 
L 115.618595 161.811891 
L 115.725838 161.955553 
L 115.940324 162.832933 
L 116.369297 165.475807 
L 116.583784 167.227507 
L 116.79827 165.97779 
L 116.905514 166.10776 
L 117.227243 167.274297 
L 117.763459 169.54077 
L 117.977946 169.740431 
L 118.085189 169.905215 
L 118.299676 171.033903 
L 118.621405 174.255776 
L 118.728649 173.733888 
L 119.801081 181.121089 
L 119.908324 180.686133 
L 120.122811 180.172478 
L 120.230054 180.337042 
L 120.337297 180.16526 
L 120.444541 180.356938 
L 120.76627 182.459881 
L 120.873514 183.688754 
L 121.088 182.868328 
L 121.302486 183.470675 
L 121.40973 183.493423 
L 121.624216 184.301141 
L 121.838703 185.934727 
L 121.945946 185.605459 
L 122.374919 186.732702 
L 123.018378 192.218929 
L 123.447351 190.437885 
L 123.554595 190.487404 
L 123.661838 190.665422 
L 123.983568 191.798737 
L 124.090811 194.305995 
L 124.412541 192.394419 
L 124.519784 192.304813 
L 124.73427 192.544487 
L 125.056 195.264384 
L 125.163243 195.047786 
L 125.37773 196.453199 
L 125.806703 201.997085 
L 126.128432 206.332165 
L 126.235676 204.751669 
L 126.557405 206.059242 
L 127.093622 209.131338 
L 127.308108 210.724359 
L 127.629838 209.966356 
L 128.166054 210.532354 
L 128.380541 212.041553 
L 128.487784 211.787569 
L 128.809514 213.978043 
L 129.34573 219.478934 
L 129.452973 219.381947 
L 129.560216 219.633737 
L 129.667459 219.27332 
L 129.774703 219.369949 
L 129.989189 220.489807 
L 130.525405 224.251558 
L 130.847135 225.898884 
L 131.168865 225.060695 
L 131.383351 224.989876 
L 131.490595 225.047416 
L 131.597838 225.805822 
L 131.812324 224.35688 
L 131.919568 224.379444 
L 132.026811 224.851239 
L 132.134054 224.672898 
L 132.241297 224.818146 
L 132.455784 225.86366 
L 132.67027 227.135602 
L 132.884757 227.841552 
L 132.992 227.160948 
L 133.31373 228.504516 
L 133.957189 233.980823 
L 134.386162 236.38941 
L 134.600649 236.898154 
L 134.707892 237.439347 
L 134.815135 239.123721 
L 135.244108 235.757195 
L 135.351351 235.938237 
L 135.458595 235.856143 
L 135.673081 236.405549 
L 135.780324 236.630657 
L 135.887568 237.463292 
L 135.994811 237.395622 
L 136.102054 237.474745 
L 136.316541 238.129126 
L 136.63827 239.884788 
L 136.852757 242.601966 
L 136.96 241.381669 
L 137.174486 242.379242 
L 138.032432 248.578208 
L 138.139676 248.281167 
L 138.354162 248.186555 
L 138.783135 248.23424 
L 138.997622 248.677299 
L 139.104865 248.764018 
L 139.319351 247.996301 
L 139.533838 248.985691 
L 139.962811 253.480966 
L 140.177297 256.391621 
L 140.391784 255.906282 
L 140.60627 256.583136 
L 141.356973 259.729739 
L 141.571459 260.264378 
L 142.107676 263.154221 
L 142.214919 263.702537 
L 142.429405 261.978975 
L 142.858378 260.751807 
L 142.965622 260.943254 
L 143.180108 262.117947 
L 143.394595 263.328409 
L 143.501838 263.139126 
L 143.609081 263.201042 
L 143.716324 263.402746 
L 143.823568 263.265325 
L 144.038054 264.135777 
L 144.252541 265.806994 
L 144.359784 267.021847 
L 144.467027 266.798343 
L 145.432216 273.537105 
L 145.539459 273.750119 
L 145.861189 272.119129 
L 145.968432 272.187047 
L 146.075676 272.160347 
L 146.182919 271.657578 
L 146.504649 273.225319 
L 146.719135 274.771993 
L 146.933622 274.966797 
L 147.040865 274.919063 
L 147.577081 276.581759 
L 148.220541 274.588117 
L 148.649514 276.507354 
L 148.756757 276.547485 
L 149.078486 275.574167 
L 149.18573 275.65782 
L 149.400216 276.357937 
L 150.901622 285.982365 
L 151.116108 285.257746 
L 151.223351 285.237773 
L 151.545081 285.694527 
L 151.759568 286.130165 
L 152.081297 287.51493 
L 152.188541 287.616357 
L 152.51027 288.580678 
L 152.939243 290.682368 
L 153.046486 290.439846 
L 153.15373 290.150713 
L 153.368216 289.426244 
L 153.475459 289.494412 
L 153.689946 290.172409 
L 154.011676 292.289132 
L 154.118919 293.686772 
L 154.440649 292.604728 
L 154.655135 292.824018 
L 154.976865 293.720779 
L 155.084108 294.133603 
L 155.298595 293.197555 
L 155.834811 295.572879 
L 156.156541 298.756852 
L 156.263784 297.394378 
L 156.47827 297.742224 
L 156.8 298.702249 
L 157.12173 299.492309 
L 157.336216 300.268437 
L 157.443459 300.223289 
L 157.657946 300.080717 
L 157.872432 300.470358 
L 157.979676 300.510818 
L 158.301405 301.12754 
L 158.515892 301.589638 
L 158.944865 301.75326 
L 159.373838 302.906099 
L 159.481081 302.810804 
L 159.802811 302.998773 
L 160.017297 303.180604 
L 160.553514 304.381075 
L 160.982486 303.935225 
L 161.196973 303.839724 
L 161.625946 304.312661 
L 161.733189 304.185588 
L 161.947676 304.087265 
L 162.162162 304.174447 
L 162.376649 304.419358 
L 162.591135 304.962915 
L 162.805622 304.613534 
L 163.127351 304.809079 
L 163.556324 305.35471 
L 163.663568 305.65077 
L 163.878054 305.346106 
L 164.199784 305.343714 
L 165.808432 305.858539 
L 166.022919 305.778233 
L 166.773622 305.95994 
L 167.095351 306.040746 
L 167.524324 305.938412 
L 168.704 306.090305 
L 169.132973 306.189201 
L 169.776432 306.193904 
L 170.419892 306.305286 
L 173.208216 306.507553 
L 173.637189 306.542456 
L 174.924108 306.615871 
L 178.677622 306.779919 
L 179.642811 306.785213 
L 184.25427 306.886939 
L 193.584432 307.078336 
L 194.227892 307.067877 
L 196.48 307.076472 
L 200.019027 307.143189 
L 203.236324 307.144822 
L 205.702919 307.171046 
L 210.850595 307.19599 
L 213.424432 307.237483 
L 222.969081 307.235078 
L 228.009514 307.263731 
L 231.012324 307.259866 
L 231.977514 307.240888 
L 234.336865 307.276228 
L 235.087568 307.28429 
L 238.948324 307.29313 
L 242.594595 307.288932 
L 244.524973 307.300523 
L 252.139243 307.302242 
L 258.037622 307.328347 
L 259.217297 307.301025 
L 260.718703 307.303547 
L 265.651892 307.3351 
L 306.189838 307.359371 
L 309.943351 307.353534 
L 315.412757 307.356499 
L 342.759784 307.366899 
L 344.690162 307.35464 
L 346.835027 307.341042 
L 348.979892 307.373498 
L 353.055135 307.351391 
L 358.524541 307.37019 
L 363.672216 307.366731 
L 369.034378 307.36702 
L 376.112432 307.361792 
L 381.260108 307.361689 
L 389.732324 307.361392 
L 391.662703 307.372589 
L 405.926054 307.367624 
L 413.647568 307.372622 
L 414.72 307.37528 
L 414.72 307.37528 
" clip-path="url(#p89e9d7b99b)" style="fill: none; stroke: #bf00bf; stroke-width: 1.5; stroke-linecap: square"/>
   </g>
   <g id="line2d_29">
    <path d="M 57.707243 54.378496 
L 58.136216 54.161335 
L 58.565189 54.161133 
L 58.886919 54.203157 
L 79.370378 54.235253 
L 80.657297 54.225097 
L 82.051459 54.233381 
L 84.839784 54.238616 
L 96.636541 54.247905 
L 106.502919 54.2442 
L 110.041946 54.245317 
L 123.661838 54.242526 
L 175.782054 54.246371 
L 241.843892 54.246044 
L 287.42227 54.247066 
L 323.241514 54.24743 
L 356.594162 54.246525 
L 414.72 54.248027 
L 414.72 54.248027 
" clip-path="url(#p89e9d7b99b)" style="fill: none; stroke: #000000; stroke-width: 1.5; stroke-linecap: square"/>
   </g>
   <g id="patch_3">
    <path d="M 57.6 307.584 
L 57.6 41.472 
" style="fill: none; stroke: #000000; stroke-width: 0.8; stroke-linejoin: miter; stroke-linecap: square"/>
   </g>
   <g id="patch_4">
    <path d="M 414.72 307.584 
L 414.72 41.472 
" style="fill: none; stroke: #000000; stroke-width: 0.8; stroke-linejoin: miter; stroke-linecap: square"/>
   </g>
   <g id="patch_5">
    <path d="M 57.6 307.584 
L 414.72 307.584 
" style="fill: none; stroke: #000000; stroke-width: 0.8; stroke-linejoin: miter; stroke-linecap: square"/>
   </g>
   <g id="patch_6">
    <path d="M 57.6 41.472 
L 414.72 41.472 
" style="fill: none; stroke: #000000; stroke-width: 0.8; stroke-linejoin: miter; stroke-linecap: square"/>
   </g>
   <g id="text_15">
    <!-- AlexNet learning curves -->
    <g transform="translate(164.489062 35.472) scale(0.12 -0.12)">
     <defs>
      <path id="DejaVuSans-41" d="M 2188 4044 
L 1331 1722 
L 3047 1722 
L 2188 4044 
z
M 1831 4666 
L 2547 4666 
L 4325 0 
L 3669 0 
L 3244 1197 
L 1141 1197 
L 716 0 
L 50 0 
L 1831 4666 
z
" transform="scale(0.015625)"/>
      <path id="DejaVuSans-78" d="M 3513 3500 
L 2247 1797 
L 3578 0 
L 2900 0 
L 1881 1375 
L 863 0 
L 184 0 
L 1544 1831 
L 300 3500 
L 978 3500 
L 1906 2253 
L 2834 3500 
L 3513 3500 
z
" transform="scale(0.015625)"/>
      <path id="DejaVuSans-4e" d="M 628 4666 
L 1478 4666 
L 3547 763 
L 3547 4666 
L 4159 4666 
L 4159 0 
L 3309 0 
L 1241 3903 
L 1241 0 
L 628 0 
L 628 4666 
z
" transform="scale(0.015625)"/>
      <path id="DejaVuSans-63" d="M 3122 3366 
L 3122 2828 
Q 2878 2963 2633 3030 
Q 2388 3097 2138 3097 
Q 1578 3097 1268 2742 
Q 959 2388 959 1747 
Q 959 1106 1268 751 
Q 1578 397 2138 397 
Q 2388 397 2633 464 
Q 2878 531 3122 666 
L 3122 134 
Q 2881 22 2623 -34 
Q 2366 -91 2075 -91 
Q 1284 -91 818 406 
Q 353 903 353 1747 
Q 353 2603 823 3093 
Q 1294 3584 2113 3584 
Q 2378 3584 2631 3529 
Q 2884 3475 3122 3366 
z
" transform="scale(0.015625)"/>
      <path id="DejaVuSans-75" d="M 544 1381 
L 544 3500 
L 1119 3500 
L 1119 1403 
Q 1119 906 1312 657 
Q 1506 409 1894 409 
Q 2359 409 2629 706 
Q 2900 1003 2900 1516 
L 2900 3500 
L 3475 3500 
L 3475 0 
L 2900 0 
L 2900 538 
Q 2691 219 2414 64 
Q 2138 -91 1772 -91 
Q 1169 -91 856 284 
Q 544 659 544 1381 
z
M 1991 3584 
L 1991 3584 
z
" transform="scale(0.015625)"/>
      <path id="DejaVuSans-76" d="M 191 3500 
L 800 3500 
L 1894 563 
L 2988 3500 
L 3597 3500 
L 2284 0 
L 1503 0 
L 191 3500 
z
" transform="scale(0.015625)"/>
     </defs>
     <use xlink:href="#DejaVuSans-41"/>
     <use xlink:href="#DejaVuSans-6c" transform="translate(68.408203 0)"/>
     <use xlink:href="#DejaVuSans-65" transform="translate(96.191406 0)"/>
     <use xlink:href="#DejaVuSans-78" transform="translate(155.964844 0)"/>
     <use xlink:href="#DejaVuSans-4e" transform="translate(215.144531 0)"/>
     <use xlink:href="#DejaVuSans-65" transform="translate(289.949219 0)"/>
     <use xlink:href="#DejaVuSans-74" transform="translate(351.472656 0)"/>
     <use xlink:href="#DejaVuSans-20" transform="translate(390.681641 0)"/>
     <use xlink:href="#DejaVuSans-6c" transform="translate(422.46875 0)"/>
     <use xlink:href="#DejaVuSans-65" transform="translate(450.251953 0)"/>
     <use xlink:href="#DejaVuSans-61" transform="translate(511.775391 0)"/>
     <use xlink:href="#DejaVuSans-72" transform="translate(573.054688 0)"/>
     <use xlink:href="#DejaVuSans-6e" transform="translate(612.417969 0)"/>
     <use xlink:href="#DejaVuSans-69" transform="translate(675.796875 0)"/>
     <use xlink:href="#DejaVuSans-6e" transform="translate(703.580078 0)"/>
     <use xlink:href="#DejaVuSans-67" transform="translate(766.958984 0)"/>
     <use xlink:href="#DejaVuSans-20" transform="translate(830.435547 0)"/>
     <use xlink:href="#DejaVuSans-63" transform="translate(862.222656 0)"/>
     <use xlink:href="#DejaVuSans-75" transform="translate(917.203125 0)"/>
     <use xlink:href="#DejaVuSans-72" transform="translate(980.582031 0)"/>
     <use xlink:href="#DejaVuSans-76" transform="translate(1021.695312 0)"/>
     <use xlink:href="#DejaVuSans-65" transform="translate(1080.875 0)"/>
     <use xlink:href="#DejaVuSans-73" transform="translate(1142.398438 0)"/>
    </g>
   </g>
   <g id="legend_1">
    <g id="patch_7">
     <path d="M 303.46375 302.584 
L 407.72 302.584 
Q 409.72 302.584 409.72 300.584 
L 409.72 228.193375 
Q 409.72 226.193375 407.72 226.193375 
L 303.46375 226.193375 
Q 301.46375 226.193375 301.46375 228.193375 
L 301.46375 300.584 
Q 301.46375 302.584 303.46375 302.584 
z
" style="fill: #ffffff; opacity: 0.8; stroke: #cccccc; stroke-linejoin: miter"/>
    </g>
    <g id="line2d_30">
     <path d="M 305.46375 234.291812 
L 315.46375 234.291812 
L 325.46375 234.291812 
" style="fill: none; stroke: #0000ff; stroke-width: 1.5; stroke-linecap: square"/>
    </g>
    <g id="text_16">
     <!-- true labels -->
     <g transform="translate(333.46375 237.791812) scale(0.1 -0.1)">
      <defs>
       <path id="DejaVuSans-62" d="M 3116 1747 
Q 3116 2381 2855 2742 
Q 2594 3103 2138 3103 
Q 1681 3103 1420 2742 
Q 1159 2381 1159 1747 
Q 1159 1113 1420 752 
Q 1681 391 2138 391 
Q 2594 391 2855 752 
Q 3116 1113 3116 1747 
z
M 1159 2969 
Q 1341 3281 1617 3432 
Q 1894 3584 2278 3584 
Q 2916 3584 3314 3078 
Q 3713 2572 3713 1747 
Q 3713 922 3314 415 
Q 2916 -91 2278 -91 
Q 1894 -91 1617 61 
Q 1341 213 1159 525 
L 1159 0 
L 581 0 
L 581 4863 
L 1159 4863 
L 1159 2969 
z
" transform="scale(0.015625)"/>
      </defs>
      <use xlink:href="#DejaVuSans-74"/>
      <use xlink:href="#DejaVuSans-72" transform="translate(39.208984 0)"/>
      <use xlink:href="#DejaVuSans-75" transform="translate(80.322266 0)"/>
      <use xlink:href="#DejaVuSans-65" transform="translate(143.701172 0)"/>
      <use xlink:href="#DejaVuSans-20" transform="translate(205.224609 0)"/>
      <use xlink:href="#DejaVuSans-6c" transform="translate(237.011719 0)"/>
      <use xlink:href="#DejaVuSans-61" transform="translate(264.794922 0)"/>
      <use xlink:href="#DejaVuSans-62" transform="translate(326.074219 0)"/>
      <use xlink:href="#DejaVuSans-65" transform="translate(389.550781 0)"/>
      <use xlink:href="#DejaVuSans-6c" transform="translate(451.074219 0)"/>
      <use xlink:href="#DejaVuSans-73" transform="translate(478.857422 0)"/>
     </g>
    </g>
    <g id="line2d_31">
     <path d="M 305.46375 248.969937 
L 315.46375 248.969937 
L 325.46375 248.969937 
" style="fill: none; stroke: #ff0000; stroke-width: 1.5; stroke-linecap: square"/>
    </g>
    <g id="text_17">
     <!-- random labels -->
     <g transform="translate(333.46375 252.469937) scale(0.1 -0.1)">
      <defs>
       <path id="DejaVuSans-64" d="M 2906 2969 
L 2906 4863 
L 3481 4863 
L 3481 0 
L 2906 0 
L 2906 525 
Q 2725 213 2448 61 
Q 2172 -91 1784 -91 
Q 1150 -91 751 415 
Q 353 922 353 1747 
Q 353 2572 751 3078 
Q 1150 3584 1784 3584 
Q 2172 3584 2448 3432 
Q 2725 3281 2906 2969 
z
M 947 1747 
Q 947 1113 1208 752 
Q 1469 391 1925 391 
Q 2381 391 2643 752 
Q 2906 1113 2906 1747 
Q 2906 2381 2643 2742 
Q 2381 3103 1925 3103 
Q 1469 3103 1208 2742 
Q 947 2381 947 1747 
z
" transform="scale(0.015625)"/>
       <path id="DejaVuSans-6d" d="M 3328 2828 
Q 3544 3216 3844 3400 
Q 4144 3584 4550 3584 
Q 5097 3584 5394 3201 
Q 5691 2819 5691 2113 
L 5691 0 
L 5113 0 
L 5113 2094 
Q 5113 2597 4934 2840 
Q 4756 3084 4391 3084 
Q 3944 3084 3684 2787 
Q 3425 2491 3425 1978 
L 3425 0 
L 2847 0 
L 2847 2094 
Q 2847 2600 2669 2842 
Q 2491 3084 2119 3084 
Q 1678 3084 1418 2786 
Q 1159 2488 1159 1978 
L 1159 0 
L 581 0 
L 581 3500 
L 1159 3500 
L 1159 2956 
Q 1356 3278 1631 3431 
Q 1906 3584 2284 3584 
Q 2666 3584 2933 3390 
Q 3200 3197 3328 2828 
z
" transform="scale(0.015625)"/>
      </defs>
      <use xlink:href="#DejaVuSans-72"/>
      <use xlink:href="#DejaVuSans-61" transform="translate(41.113281 0)"/>
      <use xlink:href="#DejaVuSans-6e" transform="translate(102.392578 0)"/>
      <use xlink:href="#DejaVuSans-64" transform="translate(165.771484 0)"/>
      <use xlink:href="#DejaVuSans-6f" transform="translate(229.248047 0)"/>
      <use xlink:href="#DejaVuSans-6d" transform="translate(290.429688 0)"/>
      <use xlink:href="#DejaVuSans-20" transform="translate(387.841797 0)"/>
      <use xlink:href="#DejaVuSans-6c" transform="translate(419.628906 0)"/>
      <use xlink:href="#DejaVuSans-61" transform="translate(447.412109 0)"/>
      <use xlink:href="#DejaVuSans-62" transform="translate(508.691406 0)"/>
      <use xlink:href="#DejaVuSans-65" transform="translate(572.167969 0)"/>
      <use xlink:href="#DejaVuSans-6c" transform="translate(633.691406 0)"/>
      <use xlink:href="#DejaVuSans-73" transform="translate(661.474609 0)"/>
     </g>
    </g>
    <g id="line2d_32">
     <path d="M 305.46375 263.648062 
L 315.46375 263.648062 
L 325.46375 263.648062 
" style="fill: none; stroke: #008000; stroke-width: 1.5; stroke-linecap: square"/>
    </g>
    <g id="text_18">
     <!-- shuffled pixels -->
     <g transform="translate(333.46375 267.148062) scale(0.1 -0.1)">
      <defs>
       <path id="DejaVuSans-68" d="M 3513 2113 
L 3513 0 
L 2938 0 
L 2938 2094 
Q 2938 2591 2744 2837 
Q 2550 3084 2163 3084 
Q 1697 3084 1428 2787 
Q 1159 2491 1159 1978 
L 1159 0 
L 581 0 
L 581 4863 
L 1159 4863 
L 1159 2956 
Q 1366 3272 1645 3428 
Q 1925 3584 2291 3584 
Q 2894 3584 3203 3211 
Q 3513 2838 3513 2113 
z
" transform="scale(0.015625)"/>
       <path id="DejaVuSans-66" d="M 2375 4863 
L 2375 4384 
L 1825 4384 
Q 1516 4384 1395 4259 
Q 1275 4134 1275 3809 
L 1275 3500 
L 2222 3500 
L 2222 3053 
L 1275 3053 
L 1275 0 
L 697 0 
L 697 3053 
L 147 3053 
L 147 3500 
L 697 3500 
L 697 3744 
Q 697 4328 969 4595 
Q 1241 4863 1831 4863 
L 2375 4863 
z
" transform="scale(0.015625)"/>
      </defs>
      <use xlink:href="#DejaVuSans-73"/>
      <use xlink:href="#DejaVuSans-68" transform="translate(52.099609 0)"/>
      <use xlink:href="#DejaVuSans-75" transform="translate(115.478516 0)"/>
      <use xlink:href="#DejaVuSans-66" transform="translate(178.857422 0)"/>
      <use xlink:href="#DejaVuSans-66" transform="translate(214.0625 0)"/>
      <use xlink:href="#DejaVuSans-6c" transform="translate(249.267578 0)"/>
      <use xlink:href="#DejaVuSans-65" transform="translate(277.050781 0)"/>
      <use xlink:href="#DejaVuSans-64" transform="translate(338.574219 0)"/>
      <use xlink:href="#DejaVuSans-20" transform="translate(402.050781 0)"/>
      <use xlink:href="#DejaVuSans-70" transform="translate(433.837891 0)"/>
      <use xlink:href="#DejaVuSans-69" transform="translate(497.314453 0)"/>
      <use xlink:href="#DejaVuSans-78" transform="translate(525.097656 0)"/>
      <use xlink:href="#DejaVuSans-65" transform="translate(581.152344 0)"/>
      <use xlink:href="#DejaVuSans-6c" transform="translate(642.675781 0)"/>
      <use xlink:href="#DejaVuSans-73" transform="translate(670.458984 0)"/>
     </g>
    </g>
    <g id="line2d_33">
     <path d="M 305.46375 278.326188 
L 315.46375 278.326188 
L 325.46375 278.326188 
" style="fill: none; stroke: #bf00bf; stroke-width: 1.5; stroke-linecap: square"/>
    </g>
    <g id="text_19">
     <!-- random pixels -->
     <g transform="translate(333.46375 281.826188) scale(0.1 -0.1)">
      <use xlink:href="#DejaVuSans-72"/>
      <use xlink:href="#DejaVuSans-61" transform="translate(41.113281 0)"/>
      <use xlink:href="#DejaVuSans-6e" transform="translate(102.392578 0)"/>
      <use xlink:href="#DejaVuSans-64" transform="translate(165.771484 0)"/>
      <use xlink:href="#DejaVuSans-6f" transform="translate(229.248047 0)"/>
      <use xlink:href="#DejaVuSans-6d" transform="translate(290.429688 0)"/>
      <use xlink:href="#DejaVuSans-20" transform="translate(387.841797 0)"/>
      <use xlink:href="#DejaVuSans-70" transform="translate(419.628906 0)"/>
      <use xlink:href="#DejaVuSans-69" transform="translate(483.105469 0)"/>
      <use xlink:href="#DejaVuSans-78" transform="translate(510.888672 0)"/>
      <use xlink:href="#DejaVuSans-65" transform="translate(566.943359 0)"/>
      <use xlink:href="#DejaVuSans-6c" transform="translate(628.466797 0)"/>
      <use xlink:href="#DejaVuSans-73" transform="translate(656.25 0)"/>
     </g>
    </g>
    <g id="line2d_34">
     <path d="M 305.46375 293.004312 
L 315.46375 293.004312 
L 325.46375 293.004312 
" style="fill: none; stroke: #000000; stroke-width: 1.5; stroke-linecap: square"/>
    </g>
    <g id="text_20">
     <!-- gaussian -->
     <g transform="translate(333.46375 296.504312) scale(0.1 -0.1)">
      <use xlink:href="#DejaVuSans-67"/>
      <use xlink:href="#DejaVuSans-61" transform="translate(63.476562 0)"/>
      <use xlink:href="#DejaVuSans-75" transform="translate(124.755859 0)"/>
      <use xlink:href="#DejaVuSans-73" transform="translate(188.134766 0)"/>
      <use xlink:href="#DejaVuSans-73" transform="translate(240.234375 0)"/>
      <use xlink:href="#DejaVuSans-69" transform="translate(292.333984 0)"/>
      <use xlink:href="#DejaVuSans-61" transform="translate(320.117188 0)"/>
      <use xlink:href="#DejaVuSans-6e" transform="translate(381.396484 0)"/>
     </g>
    </g>
   </g>
  </g>
 </g>
 <defs>
  <clipPath id="p89e9d7b99b">
   <rect x="57.6" y="41.472" width="357.12" height="266.112"/>
  </clipPath>
 </defs>
</svg>
