<?xml version="1.0" encoding="utf-8" standalone="no"?>
<!DOCTYPE svg PUBLIC "-//W3C//DTD SVG 1.1//EN"
  "http://www.w3.org/Graphics/SVG/1.1/DTD/svg11.dtd">
<svg xmlns:xlink="http://www.w3.org/1999/xlink" width="460.8pt" height="345.6pt" viewBox="0 0 460.8 345.6" xmlns="http://www.w3.org/2000/svg" version="1.1">
 <metadata>
  <rdf:RDF xmlns:dc="http://purl.org/dc/elements/1.1/" xmlns:cc="http://creativecommons.org/ns#" xmlns:rdf="http://www.w3.org/1999/02/22-rdf-syntax-ns#">
   <cc:Work>
    <dc:type rdf:resource="http://purl.org/dc/dcmitype/StillImage"/>
    <dc:date>2025-04-23T23:57:02.892871</dc:date>
    <dc:format>image/svg+xml</dc:format>
    <dc:creator>
     <cc:Agent>
      <dc:title>Matplotlib v3.10.1, https://matplotlib.org/</dc:title>
     </cc:Agent>
    </dc:creator>
   </cc:Work>
  </rdf:RDF>
 </metadata>
 <defs>
  <style type="text/css">*{stroke-linejoin: round; stroke-linecap: butt}</style>
 </defs>
 <g id="figure_1">
  <g id="patch_1">
   <path d="M 0 345.6 
L 460.8 345.6 
L 460.8 0 
L 0 0 
z
" style="fill: #ffffff"/>
  </g>
  <g id="axes_1">
   <g id="patch_2">
    <path d="M 57.6 307.584 
L 414.72 307.584 
L 414.72 41.472 
L 57.6 41.472 
z
" style="fill: #ffffff"/>
   </g>
   <g id="matplotlib.axis_1">
    <g id="xtick_1">
     <g id="line2d_1">
      <path d="M 57.6 307.584 
L 57.6 41.472 
" clip-path="url(#pf6431c2107)" style="fill: none; stroke-dasharray: 2.96,1.28; stroke-dashoffset: 0; stroke: #b0b0b0; stroke-opacity: 0.7; stroke-width: 0.8"/>
     </g>
     <g id="line2d_2">
      <defs>
       <path id="m223d2df46a" d="M 0 0 
L 0 3.5 
" style="stroke: #000000; stroke-width: 0.8"/>
      </defs>
      <g>
       <use xlink:href="#m223d2df46a" x="57.6" y="307.584" style="stroke: #000000; stroke-width: 0.8"/>
      </g>
     </g>
     <g id="text_1">
      <!-- 0 -->
      <g transform="translate(54.41875 322.182437) scale(0.1 -0.1)">
       <defs>
        <path id="DejaVuSans-30" d="M 2034 4250 
Q 1547 4250 1301 3770 
Q 1056 3291 1056 2328 
Q 1056 1369 1301 889 
Q 1547 409 2034 409 
Q 2525 409 2770 889 
Q 3016 1369 3016 2328 
Q 3016 3291 2770 3770 
Q 2525 4250 2034 4250 
z
M 2034 4750 
Q 2819 4750 3233 4129 
Q 3647 3509 3647 2328 
Q 3647 1150 3233 529 
Q 2819 -91 2034 -91 
Q 1250 -91 836 529 
Q 422 1150 422 2328 
Q 422 3509 836 4129 
Q 1250 4750 2034 4750 
z
" transform="scale(0.015625)"/>
       </defs>
       <use xlink:href="#DejaVuSans-30"/>
      </g>
     </g>
    </g>
    <g id="xtick_2">
     <g id="line2d_3">
      <path d="M 100.220838 307.584 
L 100.220838 41.472 
" clip-path="url(#pf6431c2107)" style="fill: none; stroke-dasharray: 2.96,1.28; stroke-dashoffset: 0; stroke: #b0b0b0; stroke-opacity: 0.7; stroke-width: 0.8"/>
     </g>
     <g id="line2d_4">
      <g>
       <use xlink:href="#m223d2df46a" x="100.220838" y="307.584" style="stroke: #000000; stroke-width: 0.8"/>
      </g>
     </g>
     <g id="text_2">
      <!-- 50 -->
      <g transform="translate(93.858338 322.182437) scale(0.1 -0.1)">
       <defs>
        <path id="DejaVuSans-35" d="M 691 4666 
L 3169 4666 
L 3169 4134 
L 1269 4134 
L 1269 2991 
Q 1406 3038 1543 3061 
Q 1681 3084 1819 3084 
Q 2600 3084 3056 2656 
Q 3513 2228 3513 1497 
Q 3513 744 3044 326 
Q 2575 -91 1722 -91 
Q 1428 -91 1123 -41 
Q 819 9 494 109 
L 494 744 
Q 775 591 1075 516 
Q 1375 441 1709 441 
Q 2250 441 2565 725 
Q 2881 1009 2881 1497 
Q 2881 1984 2565 2268 
Q 2250 2553 1709 2553 
Q 1456 2553 1204 2497 
Q 953 2441 691 2322 
L 691 4666 
z
" transform="scale(0.015625)"/>
       </defs>
       <use xlink:href="#DejaVuSans-35"/>
       <use xlink:href="#DejaVuSans-30" transform="translate(63.623047 0)"/>
      </g>
     </g>
    </g>
    <g id="xtick_3">
     <g id="line2d_5">
      <path d="M 142.841676 307.584 
L 142.841676 41.472 
" clip-path="url(#pf6431c2107)" style="fill: none; stroke-dasharray: 2.96,1.28; stroke-dashoffset: 0; stroke: #b0b0b0; stroke-opacity: 0.7; stroke-width: 0.8"/>
     </g>
     <g id="line2d_6">
      <g>
       <use xlink:href="#m223d2df46a" x="142.841676" y="307.584" style="stroke: #000000; stroke-width: 0.8"/>
      </g>
     </g>
     <g id="text_3">
      <!-- 100 -->
      <g transform="translate(133.297926 322.182437) scale(0.1 -0.1)">
       <defs>
        <path id="DejaVuSans-31" d="M 794 531 
L 1825 531 
L 1825 4091 
L 703 3866 
L 703 4441 
L 1819 4666 
L 2450 4666 
L 2450 531 
L 3481 531 
L 3481 0 
L 794 0 
L 794 531 
z
" transform="scale(0.015625)"/>
       </defs>
       <use xlink:href="#DejaVuSans-31"/>
       <use xlink:href="#DejaVuSans-30" transform="translate(63.623047 0)"/>
       <use xlink:href="#DejaVuSans-30" transform="translate(127.246094 0)"/>
      </g>
     </g>
    </g>
    <g id="xtick_4">
     <g id="line2d_7">
      <path d="M 185.462513 307.584 
L 185.462513 41.472 
" clip-path="url(#pf6431c2107)" style="fill: none; stroke-dasharray: 2.96,1.28; stroke-dashoffset: 0; stroke: #b0b0b0; stroke-opacity: 0.7; stroke-width: 0.8"/>
     </g>
     <g id="line2d_8">
      <g>
       <use xlink:href="#m223d2df46a" x="185.462513" y="307.584" style="stroke: #000000; stroke-width: 0.8"/>
      </g>
     </g>
     <g id="text_4">
      <!-- 150 -->
      <g transform="translate(175.918763 322.182437) scale(0.1 -0.1)">
       <use xlink:href="#DejaVuSans-31"/>
       <use xlink:href="#DejaVuSans-35" transform="translate(63.623047 0)"/>
       <use xlink:href="#DejaVuSans-30" transform="translate(127.246094 0)"/>
      </g>
     </g>
    </g>
    <g id="xtick_5">
     <g id="line2d_9">
      <path d="M 228.083351 307.584 
L 228.083351 41.472 
" clip-path="url(#pf6431c2107)" style="fill: none; stroke-dasharray: 2.96,1.28; stroke-dashoffset: 0; stroke: #b0b0b0; stroke-opacity: 0.7; stroke-width: 0.8"/>
     </g>
     <g id="line2d_10">
      <g>
       <use xlink:href="#m223d2df46a" x="228.083351" y="307.584" style="stroke: #000000; stroke-width: 0.8"/>
      </g>
     </g>
     <g id="text_5">
      <!-- 200 -->
      <g transform="translate(218.539601 322.182437) scale(0.1 -0.1)">
       <defs>
        <path id="DejaVuSans-32" d="M 1228 531 
L 3431 531 
L 3431 0 
L 469 0 
L 469 531 
Q 828 903 1448 1529 
Q 2069 2156 2228 2338 
Q 2531 2678 2651 2914 
Q 2772 3150 2772 3378 
Q 2772 3750 2511 3984 
Q 2250 4219 1831 4219 
Q 1534 4219 1204 4116 
Q 875 4013 500 3803 
L 500 4441 
Q 881 4594 1212 4672 
Q 1544 4750 1819 4750 
Q 2544 4750 2975 4387 
Q 3406 4025 3406 3419 
Q 3406 3131 3298 2873 
Q 3191 2616 2906 2266 
Q 2828 2175 2409 1742 
Q 1991 1309 1228 531 
z
" transform="scale(0.015625)"/>
       </defs>
       <use xlink:href="#DejaVuSans-32"/>
       <use xlink:href="#DejaVuSans-30" transform="translate(63.623047 0)"/>
       <use xlink:href="#DejaVuSans-30" transform="translate(127.246094 0)"/>
      </g>
     </g>
    </g>
    <g id="xtick_6">
     <g id="line2d_11">
      <path d="M 270.704189 307.584 
L 270.704189 41.472 
" clip-path="url(#pf6431c2107)" style="fill: none; stroke-dasharray: 2.96,1.28; stroke-dashoffset: 0; stroke: #b0b0b0; stroke-opacity: 0.7; stroke-width: 0.8"/>
     </g>
     <g id="line2d_12">
      <g>
       <use xlink:href="#m223d2df46a" x="270.704189" y="307.584" style="stroke: #000000; stroke-width: 0.8"/>
      </g>
     </g>
     <g id="text_6">
      <!-- 250 -->
      <g transform="translate(261.160439 322.182437) scale(0.1 -0.1)">
       <use xlink:href="#DejaVuSans-32"/>
       <use xlink:href="#DejaVuSans-35" transform="translate(63.623047 0)"/>
       <use xlink:href="#DejaVuSans-30" transform="translate(127.246094 0)"/>
      </g>
     </g>
    </g>
    <g id="xtick_7">
     <g id="line2d_13">
      <path d="M 313.325027 307.584 
L 313.325027 41.472 
" clip-path="url(#pf6431c2107)" style="fill: none; stroke-dasharray: 2.96,1.28; stroke-dashoffset: 0; stroke: #b0b0b0; stroke-opacity: 0.7; stroke-width: 0.8"/>
     </g>
     <g id="line2d_14">
      <g>
       <use xlink:href="#m223d2df46a" x="313.325027" y="307.584" style="stroke: #000000; stroke-width: 0.8"/>
      </g>
     </g>
     <g id="text_7">
      <!-- 300 -->
      <g transform="translate(303.781277 322.182437) scale(0.1 -0.1)">
       <defs>
        <path id="DejaVuSans-33" d="M 2597 2516 
Q 3050 2419 3304 2112 
Q 3559 1806 3559 1356 
Q 3559 666 3084 287 
Q 2609 -91 1734 -91 
Q 1441 -91 1130 -33 
Q 819 25 488 141 
L 488 750 
Q 750 597 1062 519 
Q 1375 441 1716 441 
Q 2309 441 2620 675 
Q 2931 909 2931 1356 
Q 2931 1769 2642 2001 
Q 2353 2234 1838 2234 
L 1294 2234 
L 1294 2753 
L 1863 2753 
Q 2328 2753 2575 2939 
Q 2822 3125 2822 3475 
Q 2822 3834 2567 4026 
Q 2313 4219 1838 4219 
Q 1578 4219 1281 4162 
Q 984 4106 628 3988 
L 628 4550 
Q 988 4650 1302 4700 
Q 1616 4750 1894 4750 
Q 2613 4750 3031 4423 
Q 3450 4097 3450 3541 
Q 3450 3153 3228 2886 
Q 3006 2619 2597 2516 
z
" transform="scale(0.015625)"/>
       </defs>
       <use xlink:href="#DejaVuSans-33"/>
       <use xlink:href="#DejaVuSans-30" transform="translate(63.623047 0)"/>
       <use xlink:href="#DejaVuSans-30" transform="translate(127.246094 0)"/>
      </g>
     </g>
    </g>
    <g id="xtick_8">
     <g id="line2d_15">
      <path d="M 355.945865 307.584 
L 355.945865 41.472 
" clip-path="url(#pf6431c2107)" style="fill: none; stroke-dasharray: 2.96,1.28; stroke-dashoffset: 0; stroke: #b0b0b0; stroke-opacity: 0.7; stroke-width: 0.8"/>
     </g>
     <g id="line2d_16">
      <g>
       <use xlink:href="#m223d2df46a" x="355.945865" y="307.584" style="stroke: #000000; stroke-width: 0.8"/>
      </g>
     </g>
     <g id="text_8">
      <!-- 350 -->
      <g transform="translate(346.402115 322.182437) scale(0.1 -0.1)">
       <use xlink:href="#DejaVuSans-33"/>
       <use xlink:href="#DejaVuSans-35" transform="translate(63.623047 0)"/>
       <use xlink:href="#DejaVuSans-30" transform="translate(127.246094 0)"/>
      </g>
     </g>
    </g>
    <g id="xtick_9">
     <g id="line2d_17">
      <path d="M 398.566702 307.584 
L 398.566702 41.472 
" clip-path="url(#pf6431c2107)" style="fill: none; stroke-dasharray: 2.96,1.28; stroke-dashoffset: 0; stroke: #b0b0b0; stroke-opacity: 0.7; stroke-width: 0.8"/>
     </g>
     <g id="line2d_18">
      <g>
       <use xlink:href="#m223d2df46a" x="398.566702" y="307.584" style="stroke: #000000; stroke-width: 0.8"/>
      </g>
     </g>
     <g id="text_9">
      <!-- 400 -->
      <g transform="translate(389.022952 322.182437) scale(0.1 -0.1)">
       <defs>
        <path id="DejaVuSans-34" d="M 2419 4116 
L 825 1625 
L 2419 1625 
L 2419 4116 
z
M 2253 4666 
L 3047 4666 
L 3047 1625 
L 3713 1625 
L 3713 1100 
L 3047 1100 
L 3047 0 
L 2419 0 
L 2419 1100 
L 313 1100 
L 313 1709 
L 2253 4666 
z
" transform="scale(0.015625)"/>
       </defs>
       <use xlink:href="#DejaVuSans-34"/>
       <use xlink:href="#DejaVuSans-30" transform="translate(63.623047 0)"/>
       <use xlink:href="#DejaVuSans-30" transform="translate(127.246094 0)"/>
      </g>
     </g>
    </g>
    <g id="text_10">
     <!-- Training steps -->
     <g transform="translate(201.424844 335.860562) scale(0.1 -0.1)">
      <defs>
       <path id="DejaVuSans-54" d="M -19 4666 
L 3928 4666 
L 3928 4134 
L 2272 4134 
L 2272 0 
L 1638 0 
L 1638 4134 
L -19 4134 
L -19 4666 
z
" transform="scale(0.015625)"/>
       <path id="DejaVuSans-72" d="M 2631 2963 
Q 2534 3019 2420 3045 
Q 2306 3072 2169 3072 
Q 1681 3072 1420 2755 
Q 1159 2438 1159 1844 
L 1159 0 
L 581 0 
L 581 3500 
L 1159 3500 
L 1159 2956 
Q 1341 3275 1631 3429 
Q 1922 3584 2338 3584 
Q 2397 3584 2469 3576 
Q 2541 3569 2628 3553 
L 2631 2963 
z
" transform="scale(0.015625)"/>
       <path id="DejaVuSans-61" d="M 2194 1759 
Q 1497 1759 1228 1600 
Q 959 1441 959 1056 
Q 959 750 1161 570 
Q 1363 391 1709 391 
Q 2188 391 2477 730 
Q 2766 1069 2766 1631 
L 2766 1759 
L 2194 1759 
z
M 3341 1997 
L 3341 0 
L 2766 0 
L 2766 531 
Q 2569 213 2275 61 
Q 1981 -91 1556 -91 
Q 1019 -91 701 211 
Q 384 513 384 1019 
Q 384 1609 779 1909 
Q 1175 2209 1959 2209 
L 2766 2209 
L 2766 2266 
Q 2766 2663 2505 2880 
Q 2244 3097 1772 3097 
Q 1472 3097 1187 3025 
Q 903 2953 641 2809 
L 641 3341 
Q 956 3463 1253 3523 
Q 1550 3584 1831 3584 
Q 2591 3584 2966 3190 
Q 3341 2797 3341 1997 
z
" transform="scale(0.015625)"/>
       <path id="DejaVuSans-69" d="M 603 3500 
L 1178 3500 
L 1178 0 
L 603 0 
L 603 3500 
z
M 603 4863 
L 1178 4863 
L 1178 4134 
L 603 4134 
L 603 4863 
z
" transform="scale(0.015625)"/>
       <path id="DejaVuSans-6e" d="M 3513 2113 
L 3513 0 
L 2938 0 
L 2938 2094 
Q 2938 2591 2744 2837 
Q 2550 3084 2163 3084 
Q 1697 3084 1428 2787 
Q 1159 2491 1159 1978 
L 1159 0 
L 581 0 
L 581 3500 
L 1159 3500 
L 1159 2956 
Q 1366 3272 1645 3428 
Q 1925 3584 2291 3584 
Q 2894 3584 3203 3211 
Q 3513 2838 3513 2113 
z
" transform="scale(0.015625)"/>
       <path id="DejaVuSans-67" d="M 2906 1791 
Q 2906 2416 2648 2759 
Q 2391 3103 1925 3103 
Q 1463 3103 1205 2759 
Q 947 2416 947 1791 
Q 947 1169 1205 825 
Q 1463 481 1925 481 
Q 2391 481 2648 825 
Q 2906 1169 2906 1791 
z
M 3481 434 
Q 3481 -459 3084 -895 
Q 2688 -1331 1869 -1331 
Q 1566 -1331 1297 -1286 
Q 1028 -1241 775 -1147 
L 775 -588 
Q 1028 -725 1275 -790 
Q 1522 -856 1778 -856 
Q 2344 -856 2625 -561 
Q 2906 -266 2906 331 
L 2906 616 
Q 2728 306 2450 153 
Q 2172 0 1784 0 
Q 1141 0 747 490 
Q 353 981 353 1791 
Q 353 2603 747 3093 
Q 1141 3584 1784 3584 
Q 2172 3584 2450 3431 
Q 2728 3278 2906 2969 
L 2906 3500 
L 3481 3500 
L 3481 434 
z
" transform="scale(0.015625)"/>
       <path id="DejaVuSans-20" transform="scale(0.015625)"/>
       <path id="DejaVuSans-73" d="M 2834 3397 
L 2834 2853 
Q 2591 2978 2328 3040 
Q 2066 3103 1784 3103 
Q 1356 3103 1142 2972 
Q 928 2841 928 2578 
Q 928 2378 1081 2264 
Q 1234 2150 1697 2047 
L 1894 2003 
Q 2506 1872 2764 1633 
Q 3022 1394 3022 966 
Q 3022 478 2636 193 
Q 2250 -91 1575 -91 
Q 1294 -91 989 -36 
Q 684 19 347 128 
L 347 722 
Q 666 556 975 473 
Q 1284 391 1588 391 
Q 1994 391 2212 530 
Q 2431 669 2431 922 
Q 2431 1156 2273 1281 
Q 2116 1406 1581 1522 
L 1381 1569 
Q 847 1681 609 1914 
Q 372 2147 372 2553 
Q 372 3047 722 3315 
Q 1072 3584 1716 3584 
Q 2034 3584 2315 3537 
Q 2597 3491 2834 3397 
z
" transform="scale(0.015625)"/>
       <path id="DejaVuSans-74" d="M 1172 4494 
L 1172 3500 
L 2356 3500 
L 2356 3053 
L 1172 3053 
L 1172 1153 
Q 1172 725 1289 603 
Q 1406 481 1766 481 
L 2356 481 
L 2356 0 
L 1766 0 
Q 1100 0 847 248 
Q 594 497 594 1153 
L 594 3053 
L 172 3053 
L 172 3500 
L 594 3500 
L 594 4494 
L 1172 4494 
z
" transform="scale(0.015625)"/>
       <path id="DejaVuSans-65" d="M 3597 1894 
L 3597 1613 
L 953 1613 
Q 991 1019 1311 708 
Q 1631 397 2203 397 
Q 2534 397 2845 478 
Q 3156 559 3463 722 
L 3463 178 
Q 3153 47 2828 -22 
Q 2503 -91 2169 -91 
Q 1331 -91 842 396 
Q 353 884 353 1716 
Q 353 2575 817 3079 
Q 1281 3584 2069 3584 
Q 2775 3584 3186 3129 
Q 3597 2675 3597 1894 
z
M 3022 2063 
Q 3016 2534 2758 2815 
Q 2500 3097 2075 3097 
Q 1594 3097 1305 2825 
Q 1016 2553 972 2059 
L 3022 2063 
z
" transform="scale(0.015625)"/>
       <path id="DejaVuSans-70" d="M 1159 525 
L 1159 -1331 
L 581 -1331 
L 581 3500 
L 1159 3500 
L 1159 2969 
Q 1341 3281 1617 3432 
Q 1894 3584 2278 3584 
Q 2916 3584 3314 3078 
Q 3713 2572 3713 1747 
Q 3713 922 3314 415 
Q 2916 -91 2278 -91 
Q 1894 -91 1617 61 
Q 1341 213 1159 525 
z
M 3116 1747 
Q 3116 2381 2855 2742 
Q 2594 3103 2138 3103 
Q 1681 3103 1420 2742 
Q 1159 2381 1159 1747 
Q 1159 1113 1420 752 
Q 1681 391 2138 391 
Q 2594 391 2855 752 
Q 3116 1113 3116 1747 
z
" transform="scale(0.015625)"/>
      </defs>
      <use xlink:href="#DejaVuSans-54"/>
      <use xlink:href="#DejaVuSans-72" transform="translate(46.333984 0)"/>
      <use xlink:href="#DejaVuSans-61" transform="translate(87.447266 0)"/>
      <use xlink:href="#DejaVuSans-69" transform="translate(148.726562 0)"/>
      <use xlink:href="#DejaVuSans-6e" transform="translate(176.509766 0)"/>
      <use xlink:href="#DejaVuSans-69" transform="translate(239.888672 0)"/>
      <use xlink:href="#DejaVuSans-6e" transform="translate(267.671875 0)"/>
      <use xlink:href="#DejaVuSans-67" transform="translate(331.050781 0)"/>
      <use xlink:href="#DejaVuSans-20" transform="translate(394.527344 0)"/>
      <use xlink:href="#DejaVuSans-73" transform="translate(426.314453 0)"/>
      <use xlink:href="#DejaVuSans-74" transform="translate(478.414062 0)"/>
      <use xlink:href="#DejaVuSans-65" transform="translate(517.623047 0)"/>
      <use xlink:href="#DejaVuSans-70" transform="translate(579.146484 0)"/>
      <use xlink:href="#DejaVuSans-73" transform="translate(642.623047 0)"/>
     </g>
    </g>
   </g>
   <g id="matplotlib.axis_2">
    <g id="ytick_1">
     <g id="line2d_19">
      <path d="M 57.6 307.584 
L 414.72 307.584 
" clip-path="url(#pf6431c2107)" style="fill: none; stroke-dasharray: 2.96,1.28; stroke-dashoffset: 0; stroke: #b0b0b0; stroke-opacity: 0.7; stroke-width: 0.8"/>
     </g>
     <g id="line2d_20">
      <defs>
       <path id="m81f5f6eb24" d="M 0 0 
L -3.5 0 
" style="stroke: #000000; stroke-width: 0.8"/>
      </defs>
      <g>
       <use xlink:href="#m81f5f6eb24" x="57.6" y="307.584" style="stroke: #000000; stroke-width: 0.8"/>
      </g>
     </g>
     <g id="text_11">
      <!-- 0.0 -->
      <g transform="translate(34.696875 311.383219) scale(0.1 -0.1)">
       <defs>
        <path id="DejaVuSans-2e" d="M 684 794 
L 1344 794 
L 1344 0 
L 684 0 
L 684 794 
z
" transform="scale(0.015625)"/>
       </defs>
       <use xlink:href="#DejaVuSans-30"/>
       <use xlink:href="#DejaVuSans-2e" transform="translate(63.623047 0)"/>
       <use xlink:href="#DejaVuSans-30" transform="translate(95.410156 0)"/>
      </g>
     </g>
    </g>
    <g id="ytick_2">
     <g id="line2d_21">
      <path d="M 57.6 256.70424 
L 414.72 256.70424 
" clip-path="url(#pf6431c2107)" style="fill: none; stroke-dasharray: 2.96,1.28; stroke-dashoffset: 0; stroke: #b0b0b0; stroke-opacity: 0.7; stroke-width: 0.8"/>
     </g>
     <g id="line2d_22">
      <g>
       <use xlink:href="#m81f5f6eb24" x="57.6" y="256.70424" style="stroke: #000000; stroke-width: 0.8"/>
      </g>
     </g>
     <g id="text_12">
      <!-- 0.2 -->
      <g transform="translate(34.696875 260.503459) scale(0.1 -0.1)">
       <use xlink:href="#DejaVuSans-30"/>
       <use xlink:href="#DejaVuSans-2e" transform="translate(63.623047 0)"/>
       <use xlink:href="#DejaVuSans-32" transform="translate(95.410156 0)"/>
      </g>
     </g>
    </g>
    <g id="ytick_3">
     <g id="line2d_23">
      <path d="M 57.6 205.82448 
L 414.72 205.82448 
" clip-path="url(#pf6431c2107)" style="fill: none; stroke-dasharray: 2.96,1.28; stroke-dashoffset: 0; stroke: #b0b0b0; stroke-opacity: 0.7; stroke-width: 0.8"/>
     </g>
     <g id="line2d_24">
      <g>
       <use xlink:href="#m81f5f6eb24" x="57.6" y="205.82448" style="stroke: #000000; stroke-width: 0.8"/>
      </g>
     </g>
     <g id="text_13">
      <!-- 0.4 -->
      <g transform="translate(34.696875 209.623699) scale(0.1 -0.1)">
       <use xlink:href="#DejaVuSans-30"/>
       <use xlink:href="#DejaVuSans-2e" transform="translate(63.623047 0)"/>
       <use xlink:href="#DejaVuSans-34" transform="translate(95.410156 0)"/>
      </g>
     </g>
    </g>
    <g id="ytick_4">
     <g id="line2d_25">
      <path d="M 57.6 154.944721 
L 414.72 154.944721 
" clip-path="url(#pf6431c2107)" style="fill: none; stroke-dasharray: 2.96,1.28; stroke-dashoffset: 0; stroke: #b0b0b0; stroke-opacity: 0.7; stroke-width: 0.8"/>
     </g>
     <g id="line2d_26">
      <g>
       <use xlink:href="#m81f5f6eb24" x="57.6" y="154.944721" style="stroke: #000000; stroke-width: 0.8"/>
      </g>
     </g>
     <g id="text_14">
      <!-- 0.6 -->
      <g transform="translate(34.696875 158.743939) scale(0.1 -0.1)">
       <defs>
        <path id="DejaVuSans-36" d="M 2113 2584 
Q 1688 2584 1439 2293 
Q 1191 2003 1191 1497 
Q 1191 994 1439 701 
Q 1688 409 2113 409 
Q 2538 409 2786 701 
Q 3034 994 3034 1497 
Q 3034 2003 2786 2293 
Q 2538 2584 2113 2584 
z
M 3366 4563 
L 3366 3988 
Q 3128 4100 2886 4159 
Q 2644 4219 2406 4219 
Q 1781 4219 1451 3797 
Q 1122 3375 1075 2522 
Q 1259 2794 1537 2939 
Q 1816 3084 2150 3084 
Q 2853 3084 3261 2657 
Q 3669 2231 3669 1497 
Q 3669 778 3244 343 
Q 2819 -91 2113 -91 
Q 1303 -91 875 529 
Q 447 1150 447 2328 
Q 447 3434 972 4092 
Q 1497 4750 2381 4750 
Q 2619 4750 2861 4703 
Q 3103 4656 3366 4563 
z
" transform="scale(0.015625)"/>
       </defs>
       <use xlink:href="#DejaVuSans-30"/>
       <use xlink:href="#DejaVuSans-2e" transform="translate(63.623047 0)"/>
       <use xlink:href="#DejaVuSans-36" transform="translate(95.410156 0)"/>
      </g>
     </g>
    </g>
    <g id="ytick_5">
     <g id="line2d_27">
      <path d="M 57.6 104.064961 
L 414.72 104.064961 
" clip-path="url(#pf6431c2107)" style="fill: none; stroke-dasharray: 2.96,1.28; stroke-dashoffset: 0; stroke: #b0b0b0; stroke-opacity: 0.7; stroke-width: 0.8"/>
     </g>
     <g id="line2d_28">
      <g>
       <use xlink:href="#m81f5f6eb24" x="57.6" y="104.064961" style="stroke: #000000; stroke-width: 0.8"/>
      </g>
     </g>
     <g id="text_15">
      <!-- 0.8 -->
      <g transform="translate(34.696875 107.86418) scale(0.1 -0.1)">
       <defs>
        <path id="DejaVuSans-38" d="M 2034 2216 
Q 1584 2216 1326 1975 
Q 1069 1734 1069 1313 
Q 1069 891 1326 650 
Q 1584 409 2034 409 
Q 2484 409 2743 651 
Q 3003 894 3003 1313 
Q 3003 1734 2745 1975 
Q 2488 2216 2034 2216 
z
M 1403 2484 
Q 997 2584 770 2862 
Q 544 3141 544 3541 
Q 544 4100 942 4425 
Q 1341 4750 2034 4750 
Q 2731 4750 3128 4425 
Q 3525 4100 3525 3541 
Q 3525 3141 3298 2862 
Q 3072 2584 2669 2484 
Q 3125 2378 3379 2068 
Q 3634 1759 3634 1313 
Q 3634 634 3220 271 
Q 2806 -91 2034 -91 
Q 1263 -91 848 271 
Q 434 634 434 1313 
Q 434 1759 690 2068 
Q 947 2378 1403 2484 
z
M 1172 3481 
Q 1172 3119 1398 2916 
Q 1625 2713 2034 2713 
Q 2441 2713 2670 2916 
Q 2900 3119 2900 3481 
Q 2900 3844 2670 4047 
Q 2441 4250 2034 4250 
Q 1625 4250 1398 4047 
Q 1172 3844 1172 3481 
z
" transform="scale(0.015625)"/>
       </defs>
       <use xlink:href="#DejaVuSans-30"/>
       <use xlink:href="#DejaVuSans-2e" transform="translate(63.623047 0)"/>
       <use xlink:href="#DejaVuSans-38" transform="translate(95.410156 0)"/>
      </g>
     </g>
    </g>
    <g id="ytick_6">
     <g id="line2d_29">
      <path d="M 57.6 53.185201 
L 414.72 53.185201 
" clip-path="url(#pf6431c2107)" style="fill: none; stroke-dasharray: 2.96,1.28; stroke-dashoffset: 0; stroke: #b0b0b0; stroke-opacity: 0.7; stroke-width: 0.8"/>
     </g>
     <g id="line2d_30">
      <g>
       <use xlink:href="#m81f5f6eb24" x="57.6" y="53.185201" style="stroke: #000000; stroke-width: 0.8"/>
      </g>
     </g>
     <g id="text_16">
      <!-- 1.0 -->
      <g transform="translate(34.696875 56.98442) scale(0.1 -0.1)">
       <use xlink:href="#DejaVuSans-31"/>
       <use xlink:href="#DejaVuSans-2e" transform="translate(63.623047 0)"/>
       <use xlink:href="#DejaVuSans-30" transform="translate(95.410156 0)"/>
      </g>
     </g>
    </g>
    <g id="text_17">
     <!-- Accuracy -->
     <g transform="translate(28.617187 197.356125) rotate(-90) scale(0.1 -0.1)">
      <defs>
       <path id="DejaVuSans-41" d="M 2188 4044 
L 1331 1722 
L 3047 1722 
L 2188 4044 
z
M 1831 4666 
L 2547 4666 
L 4325 0 
L 3669 0 
L 3244 1197 
L 1141 1197 
L 716 0 
L 50 0 
L 1831 4666 
z
" transform="scale(0.015625)"/>
       <path id="DejaVuSans-63" d="M 3122 3366 
L 3122 2828 
Q 2878 2963 2633 3030 
Q 2388 3097 2138 3097 
Q 1578 3097 1268 2742 
Q 959 2388 959 1747 
Q 959 1106 1268 751 
Q 1578 397 2138 397 
Q 2388 397 2633 464 
Q 2878 531 3122 666 
L 3122 134 
Q 2881 22 2623 -34 
Q 2366 -91 2075 -91 
Q 1284 -91 818 406 
Q 353 903 353 1747 
Q 353 2603 823 3093 
Q 1294 3584 2113 3584 
Q 2378 3584 2631 3529 
Q 2884 3475 3122 3366 
z
" transform="scale(0.015625)"/>
       <path id="DejaVuSans-75" d="M 544 1381 
L 544 3500 
L 1119 3500 
L 1119 1403 
Q 1119 906 1312 657 
Q 1506 409 1894 409 
Q 2359 409 2629 706 
Q 2900 1003 2900 1516 
L 2900 3500 
L 3475 3500 
L 3475 0 
L 2900 0 
L 2900 538 
Q 2691 219 2414 64 
Q 2138 -91 1772 -91 
Q 1169 -91 856 284 
Q 544 659 544 1381 
z
M 1991 3584 
L 1991 3584 
z
" transform="scale(0.015625)"/>
       <path id="DejaVuSans-79" d="M 2059 -325 
Q 1816 -950 1584 -1140 
Q 1353 -1331 966 -1331 
L 506 -1331 
L 506 -850 
L 844 -850 
Q 1081 -850 1212 -737 
Q 1344 -625 1503 -206 
L 1606 56 
L 191 3500 
L 800 3500 
L 1894 763 
L 2988 3500 
L 3597 3500 
L 2059 -325 
z
" transform="scale(0.015625)"/>
      </defs>
      <use xlink:href="#DejaVuSans-41"/>
      <use xlink:href="#DejaVuSans-63" transform="translate(66.658203 0)"/>
      <use xlink:href="#DejaVuSans-63" transform="translate(121.638672 0)"/>
      <use xlink:href="#DejaVuSans-75" transform="translate(176.619141 0)"/>
      <use xlink:href="#DejaVuSans-72" transform="translate(239.998047 0)"/>
      <use xlink:href="#DejaVuSans-61" transform="translate(281.111328 0)"/>
      <use xlink:href="#DejaVuSans-63" transform="translate(342.390625 0)"/>
      <use xlink:href="#DejaVuSans-79" transform="translate(397.371094 0)"/>
     </g>
    </g>
   </g>
   <g id="line2d_31">
    <path d="M 57.6 287.299399 
L 58.452417 285.858627 
L 59.304834 283.77401 
L 60.15725 281.118404 
L 61.862084 274.385639 
L 63.566917 266.243168 
L 65.271751 257.273823 
L 66.124168 250.538199 
L 67.829001 241.118812 
L 68.681418 236.88787 
L 69.533835 233.28455 
L 71.238668 228.619412 
L 72.091085 226.641478 
L 75.500752 211.965824 
L 76.353169 209.095046 
L 78.910419 199.280755 
L 80.615252 190.471527 
L 82.320086 182.112934 
L 88.287003 160.634959 
L 89.13942 157.901957 
L 89.991837 156.304011 
L 91.69667 152.313801 
L 92.549087 150.67363 
L 93.401504 148.048241 
L 95.958754 141.520779 
L 96.811171 139.756435 
L 98.516004 137.7351 
L 99.368421 137.000013 
L 101.925671 131.652903 
L 102.778088 130.045068 
L 105.335338 127.283351 
L 106.187755 126.527734 
L 108.745005 120.479666 
L 110.449839 116.717483 
L 113.859506 112.836841 
L 116.416756 109.31838 
L 117.269173 108.477973 
L 118.12159 108.22626 
L 119.826423 107.443001 
L 120.67884 106.57799 
L 122.383673 104.3367 
L 123.23609 103.12243 
L 124.088507 101.702621 
L 124.940924 101.356506 
L 126.645757 100.206217 
L 127.498174 99.861932 
L 130.055424 96.561051 
L 132.612675 94.689763 
L 134.317508 93.111103 
L 136.022342 90.284204 
L 136.874758 89.010558 
L 137.727175 88.373745 
L 139.432009 86.428526 
L 140.284425 85.631016 
L 141.136842 85.54306 
L 142.841676 83.838832 
L 143.694092 83.131175 
L 144.546509 83.200079 
L 147.103759 82.424792 
L 147.956176 81.688219 
L 150.513426 78.769754 
L 151.365843 78.661745 
L 153.070677 77.322055 
L 153.923093 76.850778 
L 154.77551 75.710079 
L 156.480344 74.047392 
L 157.33276 73.465526 
L 158.185177 73.434627 
L 159.890011 73.675739 
L 160.742427 73.908199 
L 163.299678 72.25614 
L 165.004511 71.433342 
L 166.709345 71.520035 
L 167.561762 71.651518 
L 168.414178 70.781309 
L 170.971429 69.254288 
L 171.823845 69.407936 
L 174.381096 68.865433 
L 175.233512 68.239201 
L 176.938346 66.668986 
L 177.790763 66.009177 
L 178.643179 65.786894 
L 181.20043 64.431199 
L 182.052846 64.175181 
L 183.75768 63.291628 
L 184.610097 63.007867 
L 187.167347 63.366885 
L 188.019764 63.590623 
L 190.577014 61.989781 
L 191.429431 61.577344 
L 192.281847 61.316489 
L 193.986681 61.271372 
L 194.839098 61.385193 
L 196.543931 60.683635 
L 198.248765 60.224385 
L 199.101182 60.28508 
L 200.806015 60.208412 
L 201.658432 60.366687 
L 203.363265 60.092737 
L 205.068099 59.62396 
L 205.920516 59.694752 
L 210.182599 59.037685 
L 212.73985 58.309936 
L 215.2971 57.980827 
L 216.149517 57.569025 
L 217.85435 57.111384 
L 218.706767 56.951115 
L 219.559184 57.035708 
L 221.264017 56.769699 
L 222.116434 56.776824 
L 222.968851 56.457045 
L 225.526101 56.075752 
L 230.640602 56.404396 
L 234.902685 56.285507 
L 235.755102 56.30077 
L 236.607519 55.99468 
L 239.164769 55.701525 
L 240.017186 55.895486 
L 242.574436 55.980078 
L 245.984103 55.541207 
L 247.688937 55.473126 
L 250.246187 55.007805 
L 252.803437 54.428102 
L 255.360687 54.132552 
L 256.213104 54.128779 
L 257.917938 53.782447 
L 259.622771 53.659122 
L 262.180021 53.75721 
L 263.032438 53.848446 
L 277.523523 53.228946 
L 283.49044 53.189174 
L 315.02986 53.185201 
L 397.714286 53.185201 
L 397.714286 53.185201 
" clip-path="url(#pf6431c2107)" style="fill: none; stroke: #ff0000; stroke-opacity: 0.5; stroke-linecap: square"/>
   </g>
   <g id="line2d_32">
    <path d="M 57.6 287.006826 
L 59.304834 277.267166 
L 61.009667 268.585932 
L 63.566917 256.991495 
L 65.271751 249.842056 
L 66.124168 243.946555 
L 66.976584 240.119192 
L 67.829001 237.286356 
L 69.533835 230.091428 
L 70.386251 226.228594 
L 71.238668 221.60159 
L 74.648335 207.935798 
L 78.058002 192.278467 
L 78.910419 188.618979 
L 79.762836 186.060806 
L 80.615252 183.044957 
L 81.467669 178.82316 
L 83.172503 173.525633 
L 84.024919 171.241739 
L 84.877336 167.537885 
L 87.434586 160.582131 
L 88.287003 159.229866 
L 89.13942 157.530867 
L 94.253921 145.693913 
L 95.958754 142.742097 
L 96.811171 140.40847 
L 97.663588 139.129094 
L 98.516004 138.819826 
L 100.220838 136.322208 
L 101.073255 134.74666 
L 102.778088 132.262659 
L 103.630505 131.056278 
L 104.482922 130.063901 
L 105.335338 128.887355 
L 106.187755 127.436357 
L 107.892589 125.137411 
L 109.597422 122.129897 
L 110.449839 120.919363 
L 111.302256 120.246526 
L 112.154672 119.083702 
L 113.007089 118.485586 
L 113.859506 118.687409 
L 114.711923 117.88532 
L 116.416756 116.683199 
L 117.269173 116.498143 
L 118.12159 116.468309 
L 118.974006 116.56234 
L 119.826423 116.452814 
L 120.67884 116.490473 
L 124.088507 114.783881 
L 129.203008 110.545019 
L 130.907841 108.233854 
L 133.465091 108.211025 
L 135.169925 108.659904 
L 136.874758 108.620607 
L 138.579592 108.519888 
L 140.284425 108.849884 
L 141.136842 108.931244 
L 143.694092 108.236494 
L 144.546509 107.833667 
L 146.251343 106.408465 
L 147.103759 106.342765 
L 147.956176 106.416039 
L 149.66101 105.754121 
L 150.513426 105.547287 
L 151.365843 105.130824 
L 152.21826 104.584503 
L 153.070677 104.34267 
L 153.923093 104.49183 
L 154.77551 104.291983 
L 155.627927 104.464309 
L 156.480344 104.766533 
L 158.185177 104.770455 
L 159.037594 105.290778 
L 160.742427 105.549002 
L 161.594844 105.682099 
L 162.447261 105.302987 
L 163.299678 105.608102 
L 165.004511 105.803247 
L 165.856928 105.919701 
L 170.119012 104.79416 
L 170.971429 104.238125 
L 171.823845 103.991628 
L 172.676262 104.167713 
L 174.381096 103.531995 
L 175.233512 103.52976 
L 176.938346 103.25207 
L 177.790763 103.2139 
L 178.643179 102.971605 
L 179.495596 103.355111 
L 180.348013 103.320844 
L 182.052846 103.823378 
L 182.905263 103.69773 
L 184.610097 103.856113 
L 185.462513 103.719566 
L 186.31493 103.711655 
L 188.019764 103.388578 
L 188.87218 103.385639 
L 189.724597 102.801774 
L 190.577014 102.401366 
L 193.134264 102.93624 
L 194.839098 103.532265 
L 195.691515 103.665102 
L 196.543931 103.54433 
L 197.396348 103.754382 
L 199.101182 103.678275 
L 199.953598 103.870249 
L 200.806015 103.934524 
L 201.658432 103.870722 
L 205.068099 103.012713 
L 205.920516 102.809108 
L 209.330183 103.102803 
L 210.182599 102.900229 
L 211.035016 102.814176 
L 212.73985 102.412486 
L 213.592266 102.472665 
L 216.149517 101.930507 
L 217.85435 101.868449 
L 218.706767 101.67818 
L 224.673684 102.587723 
L 227.230934 102.620583 
L 228.935768 102.450357 
L 234.050269 100.86128 
L 234.902685 100.620719 
L 235.755102 100.639433 
L 236.607519 100.8491 
L 237.459936 100.82047 
L 240.017186 101.487997 
L 242.574436 101.935758 
L 243.426853 101.7468 
L 245.131686 102.053418 
L 246.83652 102.106283 
L 248.541353 101.847085 
L 251.098604 101.045478 
L 253.655854 100.532932 
L 254.508271 100.389505 
L 256.213104 99.714587 
L 259.622771 99.127572 
L 263.884855 99.446071 
L 264.737272 99.424698 
L 267.294522 98.967242 
L 270.704189 98.489358 
L 271.556606 98.155816 
L 276.671106 97.397573 
L 283.49044 96.98165 
L 308.210526 97.269805 
L 320.996778 97.167901 
L 367.879699 97.14885 
L 388.337701 97.199527 
L 397.714286 97.166435 
L 397.714286 97.166435 
" clip-path="url(#pf6431c2107)" style="fill: none; stroke: #ff0000; stroke-width: 2; stroke-linecap: square"/>
   </g>
   <g id="line2d_33">
    <path d="M 57.6 264.687449 
L 59.304834 223.439956 
L 61.009667 191.689566 
L 61.862084 178.912094 
L 62.714501 167.95247 
L 63.566917 158.625218 
L 64.419334 150.744862 
L 66.124168 137.321327 
L 67.829001 126.982032 
L 68.681418 122.62918 
L 69.533835 119.373783 
L 70.386251 116.837159 
L 71.238668 114.901709 
L 72.091085 114.011201 
L 72.943502 112.383025 
L 74.648335 107.87735 
L 75.500752 105.83666 
L 76.353169 104.249041 
L 78.058002 102.451284 
L 78.910419 101.853596 
L 80.615252 98.460806 
L 82.320086 95.435728 
L 84.024919 93.742914 
L 85.729753 92.281275 
L 86.58217 91.148946 
L 88.287003 88.543427 
L 89.13942 87.375497 
L 92.549087 84.793205 
L 93.401504 84.184118 
L 95.958754 81.183076 
L 96.811171 80.583297 
L 99.368421 79.725704 
L 100.220838 78.906535 
L 103.630505 74.836818 
L 104.482922 74.738209 
L 106.187755 74.80761 
L 107.892589 73.670906 
L 109.597422 72.226578 
L 110.449839 71.702491 
L 113.859506 70.446773 
L 115.564339 68.57169 
L 116.416756 67.587549 
L 117.269173 66.818624 
L 118.974006 65.684927 
L 119.826423 65.198168 
L 120.67884 65.286998 
L 122.383673 64.068673 
L 123.23609 63.403451 
L 124.088507 63.037422 
L 124.940924 62.525659 
L 125.79334 62.167821 
L 127.498174 61.662391 
L 129.203008 60.535135 
L 130.055424 59.945498 
L 131.760258 59.214164 
L 132.612675 59.012517 
L 134.317508 58.850965 
L 136.022342 58.321907 
L 136.874758 57.999381 
L 139.432009 57.40616 
L 140.284425 57.387547 
L 141.136842 57.07435 
L 143.694092 56.412309 
L 145.398926 56.053465 
L 147.956176 55.720992 
L 151.365843 55.045496 
L 154.77551 54.28599 
L 159.037594 53.749766 
L 166.709345 53.353851 
L 187.167347 53.194222 
L 297.129108 53.185201 
L 397.714286 53.185201 
L 397.714286 53.185201 
" clip-path="url(#pf6431c2107)" style="fill: none; stroke: #0000ff; stroke-opacity: 0.5; stroke-linecap: square"/>
   </g>
   <g id="line2d_34">
    <path d="M 57.6 261.099947 
L 58.452417 233.775103 
L 59.304834 210.920426 
L 60.15725 192.130003 
L 61.009667 176.997919 
L 61.862084 165.118263 
L 62.714501 156.08512 
L 63.566917 149.492579 
L 64.419334 144.934725 
L 65.271751 142.005646 
L 66.124168 140.521137 
L 66.976584 136.642645 
L 67.829001 136.064379 
L 68.681418 134.946441 
L 70.386251 130.353145 
L 71.238668 128.449394 
L 72.091085 125.769977 
L 73.795918 121.752346 
L 75.500752 119.517683 
L 76.353169 117.513329 
L 77.205585 116.30084 
L 78.058002 116.02659 
L 78.910419 115.552464 
L 79.762836 114.473148 
L 80.615252 113.053198 
L 81.467669 112.911342 
L 82.320086 110.742284 
L 83.172503 109.397189 
L 84.024919 110.452895 
L 84.877336 108.330862 
L 85.729753 108.193632 
L 86.58217 108.782555 
L 87.434586 107.632162 
L 89.13942 108.891947 
L 90.844253 108.778392 
L 93.401504 107.129618 
L 94.253921 107.432276 
L 95.106337 108.024871 
L 95.958754 106.825853 
L 96.811171 105.852777 
L 97.663588 105.361094 
L 99.368421 102.99531 
L 100.220838 102.859216 
L 101.073255 101.772259 
L 101.925671 102.755828 
L 102.778088 102.898041 
L 103.630505 102.183142 
L 104.482922 103.531263 
L 105.335338 103.398359 
L 106.187755 103.044012 
L 107.040172 102.46009 
L 107.892589 101.225494 
L 108.745005 100.524828 
L 110.449839 99.694823 
L 112.154672 98.228985 
L 113.007089 98.22356 
L 113.859506 98.67743 
L 114.711923 98.17506 
L 115.564339 97.225979 
L 116.416756 97.331237 
L 117.269173 96.907383 
L 118.12159 97.363817 
L 118.974006 97.99648 
L 120.67884 98.675657 
L 121.531257 98.627264 
L 122.383673 98.393486 
L 124.088507 96.287228 
L 124.940924 96.785985 
L 125.79334 97.63373 
L 128.350591 98.181439 
L 129.203008 97.978604 
L 130.055424 97.58366 
L 130.907841 96.831314 
L 131.760258 96.971388 
L 132.612675 96.930876 
L 134.317508 97.472505 
L 135.169925 96.880151 
L 139.432009 92.994045 
L 140.284425 93.09381 
L 141.136842 93.540743 
L 141.989259 93.556643 
L 143.694092 91.783348 
L 144.546509 91.10552 
L 145.398926 91.066319 
L 146.251343 90.793534 
L 147.103759 90.99237 
L 147.956176 91.652159 
L 148.808593 91.528535 
L 152.21826 90.404256 
L 153.070677 90.050661 
L 153.923093 89.892172 
L 155.627927 89.88958 
L 156.480344 89.551326 
L 157.33276 89.055345 
L 159.037594 87.889466 
L 159.890011 87.591897 
L 160.742427 87.663119 
L 161.594844 87.892521 
L 163.299678 87.623118 
L 164.152095 87.527516 
L 165.856928 87.186468 
L 174.381096 85.981909 
L 177.790763 85.811587 
L 180.348013 85.607008 
L 185.462513 85.482102 
L 188.87218 85.532876 
L 194.839098 85.542791 
L 203.363265 85.485773 
L 217.001933 85.643182 
L 223.821267 85.457124 
L 240.869603 85.454619 
L 247.688937 85.456363 
L 251.95102 85.367372 
L 257.065521 85.300794 
L 263.884855 85.415216 
L 270.704189 85.416238 
L 292.867025 85.285935 
L 300.538776 85.244615 
L 327.816112 85.246455 
L 331.225779 85.242678 
L 333.783029 85.216082 
L 338.045113 85.25771 
L 340.602363 85.185631 
L 344.01203 85.200239 
L 348.274114 85.170068 
L 359.355532 85.427965 
L 371.289366 85.280202 
L 377.256284 85.436609 
L 396.009452 85.366385 
L 397.714286 85.457678 
L 397.714286 85.457678 
" clip-path="url(#pf6431c2107)" style="fill: none; stroke: #0000ff; stroke-width: 2; stroke-linecap: square"/>
   </g>
   <g id="patch_3">
    <path d="M 57.6 307.584 
L 57.6 41.472 
" style="fill: none; stroke: #000000; stroke-width: 0.8; stroke-linejoin: miter; stroke-linecap: square"/>
   </g>
   <g id="patch_4">
    <path d="M 414.72 307.584 
L 414.72 41.472 
" style="fill: none; stroke: #000000; stroke-width: 0.8; stroke-linejoin: miter; stroke-linecap: square"/>
   </g>
   <g id="patch_5">
    <path d="M 57.6 307.584 
L 414.72 307.584 
" style="fill: none; stroke: #000000; stroke-width: 0.8; stroke-linejoin: miter; stroke-linecap: square"/>
   </g>
   <g id="patch_6">
    <path d="M 57.6 41.472 
L 414.72 41.472 
" style="fill: none; stroke: #000000; stroke-width: 0.8; stroke-linejoin: miter; stroke-linecap: square"/>
   </g>
   <g id="text_18">
    <!-- Inception learning and validation curves -->
    <g transform="translate(115.423125 35.472) scale(0.12 -0.12)">
     <defs>
      <path id="DejaVuSans-49" d="M 628 4666 
L 1259 4666 
L 1259 0 
L 628 0 
L 628 4666 
z
" transform="scale(0.015625)"/>
      <path id="DejaVuSans-6f" d="M 1959 3097 
Q 1497 3097 1228 2736 
Q 959 2375 959 1747 
Q 959 1119 1226 758 
Q 1494 397 1959 397 
Q 2419 397 2687 759 
Q 2956 1122 2956 1747 
Q 2956 2369 2687 2733 
Q 2419 3097 1959 3097 
z
M 1959 3584 
Q 2709 3584 3137 3096 
Q 3566 2609 3566 1747 
Q 3566 888 3137 398 
Q 2709 -91 1959 -91 
Q 1206 -91 779 398 
Q 353 888 353 1747 
Q 353 2609 779 3096 
Q 1206 3584 1959 3584 
z
" transform="scale(0.015625)"/>
      <path id="DejaVuSans-6c" d="M 603 4863 
L 1178 4863 
L 1178 0 
L 603 0 
L 603 4863 
z
" transform="scale(0.015625)"/>
      <path id="DejaVuSans-64" d="M 2906 2969 
L 2906 4863 
L 3481 4863 
L 3481 0 
L 2906 0 
L 2906 525 
Q 2725 213 2448 61 
Q 2172 -91 1784 -91 
Q 1150 -91 751 415 
Q 353 922 353 1747 
Q 353 2572 751 3078 
Q 1150 3584 1784 3584 
Q 2172 3584 2448 3432 
Q 2725 3281 2906 2969 
z
M 947 1747 
Q 947 1113 1208 752 
Q 1469 391 1925 391 
Q 2381 391 2643 752 
Q 2906 1113 2906 1747 
Q 2906 2381 2643 2742 
Q 2381 3103 1925 3103 
Q 1469 3103 1208 2742 
Q 947 2381 947 1747 
z
" transform="scale(0.015625)"/>
      <path id="DejaVuSans-76" d="M 191 3500 
L 800 3500 
L 1894 563 
L 2988 3500 
L 3597 3500 
L 2284 0 
L 1503 0 
L 191 3500 
z
" transform="scale(0.015625)"/>
     </defs>
     <use xlink:href="#DejaVuSans-49"/>
     <use xlink:href="#DejaVuSans-6e" transform="translate(29.492188 0)"/>
     <use xlink:href="#DejaVuSans-63" transform="translate(92.871094 0)"/>
     <use xlink:href="#DejaVuSans-65" transform="translate(147.851562 0)"/>
     <use xlink:href="#DejaVuSans-70" transform="translate(209.375 0)"/>
     <use xlink:href="#DejaVuSans-74" transform="translate(272.851562 0)"/>
     <use xlink:href="#DejaVuSans-69" transform="translate(312.060547 0)"/>
     <use xlink:href="#DejaVuSans-6f" transform="translate(339.84375 0)"/>
     <use xlink:href="#DejaVuSans-6e" transform="translate(401.025391 0)"/>
     <use xlink:href="#DejaVuSans-20" transform="translate(464.404297 0)"/>
     <use xlink:href="#DejaVuSans-6c" transform="translate(496.191406 0)"/>
     <use xlink:href="#DejaVuSans-65" transform="translate(523.974609 0)"/>
     <use xlink:href="#DejaVuSans-61" transform="translate(585.498047 0)"/>
     <use xlink:href="#DejaVuSans-72" transform="translate(646.777344 0)"/>
     <use xlink:href="#DejaVuSans-6e" transform="translate(686.140625 0)"/>
     <use xlink:href="#DejaVuSans-69" transform="translate(749.519531 0)"/>
     <use xlink:href="#DejaVuSans-6e" transform="translate(777.302734 0)"/>
     <use xlink:href="#DejaVuSans-67" transform="translate(840.681641 0)"/>
     <use xlink:href="#DejaVuSans-20" transform="translate(904.158203 0)"/>
     <use xlink:href="#DejaVuSans-61" transform="translate(935.945312 0)"/>
     <use xlink:href="#DejaVuSans-6e" transform="translate(997.224609 0)"/>
     <use xlink:href="#DejaVuSans-64" transform="translate(1060.603516 0)"/>
     <use xlink:href="#DejaVuSans-20" transform="translate(1124.080078 0)"/>
     <use xlink:href="#DejaVuSans-76" transform="translate(1155.867188 0)"/>
     <use xlink:href="#DejaVuSans-61" transform="translate(1215.046875 0)"/>
     <use xlink:href="#DejaVuSans-6c" transform="translate(1276.326172 0)"/>
     <use xlink:href="#DejaVuSans-69" transform="translate(1304.109375 0)"/>
     <use xlink:href="#DejaVuSans-64" transform="translate(1331.892578 0)"/>
     <use xlink:href="#DejaVuSans-61" transform="translate(1395.369141 0)"/>
     <use xlink:href="#DejaVuSans-74" transform="translate(1456.648438 0)"/>
     <use xlink:href="#DejaVuSans-69" transform="translate(1495.857422 0)"/>
     <use xlink:href="#DejaVuSans-6f" transform="translate(1523.640625 0)"/>
     <use xlink:href="#DejaVuSans-6e" transform="translate(1584.822266 0)"/>
     <use xlink:href="#DejaVuSans-20" transform="translate(1648.201172 0)"/>
     <use xlink:href="#DejaVuSans-63" transform="translate(1679.988281 0)"/>
     <use xlink:href="#DejaVuSans-75" transform="translate(1734.96875 0)"/>
     <use xlink:href="#DejaVuSans-72" transform="translate(1798.347656 0)"/>
     <use xlink:href="#DejaVuSans-76" transform="translate(1839.460938 0)"/>
     <use xlink:href="#DejaVuSans-65" transform="translate(1898.640625 0)"/>
     <use xlink:href="#DejaVuSans-73" transform="translate(1960.164062 0)"/>
    </g>
   </g>
   <g id="legend_1">
    <g id="patch_7">
     <path d="M 259.835625 302.584 
L 407.72 302.584 
Q 409.72 302.584 409.72 300.584 
L 409.72 242.8715 
Q 409.72 240.8715 407.72 240.8715 
L 259.835625 240.8715 
Q 257.835625 240.8715 257.835625 242.8715 
L 257.835625 300.584 
Q 257.835625 302.584 259.835625 302.584 
z
" style="fill: #ffffff; opacity: 0.8; stroke: #cccccc; stroke-linejoin: miter"/>
    </g>
    <g id="line2d_35">
     <path d="M 261.835625 248.969937 
L 271.835625 248.969937 
L 281.835625 248.969937 
" style="fill: none; stroke: #ff0000; stroke-opacity: 0.5; stroke-linecap: square"/>
    </g>
    <g id="text_19">
     <!-- train(Inception w/o BN) -->
     <g transform="translate(289.835625 252.469937) scale(0.1 -0.1)">
      <defs>
       <path id="DejaVuSans-28" d="M 1984 4856 
Q 1566 4138 1362 3434 
Q 1159 2731 1159 2009 
Q 1159 1288 1364 580 
Q 1569 -128 1984 -844 
L 1484 -844 
Q 1016 -109 783 600 
Q 550 1309 550 2009 
Q 550 2706 781 3412 
Q 1013 4119 1484 4856 
L 1984 4856 
z
" transform="scale(0.015625)"/>
       <path id="DejaVuSans-77" d="M 269 3500 
L 844 3500 
L 1563 769 
L 2278 3500 
L 2956 3500 
L 3675 769 
L 4391 3500 
L 4966 3500 
L 4050 0 
L 3372 0 
L 2619 2869 
L 1863 0 
L 1184 0 
L 269 3500 
z
" transform="scale(0.015625)"/>
       <path id="DejaVuSans-2f" d="M 1625 4666 
L 2156 4666 
L 531 -594 
L 0 -594 
L 1625 4666 
z
" transform="scale(0.015625)"/>
       <path id="DejaVuSans-42" d="M 1259 2228 
L 1259 519 
L 2272 519 
Q 2781 519 3026 730 
Q 3272 941 3272 1375 
Q 3272 1813 3026 2020 
Q 2781 2228 2272 2228 
L 1259 2228 
z
M 1259 4147 
L 1259 2741 
L 2194 2741 
Q 2656 2741 2882 2914 
Q 3109 3088 3109 3444 
Q 3109 3797 2882 3972 
Q 2656 4147 2194 4147 
L 1259 4147 
z
M 628 4666 
L 2241 4666 
Q 2963 4666 3353 4366 
Q 3744 4066 3744 3513 
Q 3744 3084 3544 2831 
Q 3344 2578 2956 2516 
Q 3422 2416 3680 2098 
Q 3938 1781 3938 1306 
Q 3938 681 3513 340 
Q 3088 0 2303 0 
L 628 0 
L 628 4666 
z
" transform="scale(0.015625)"/>
       <path id="DejaVuSans-4e" d="M 628 4666 
L 1478 4666 
L 3547 763 
L 3547 4666 
L 4159 4666 
L 4159 0 
L 3309 0 
L 1241 3903 
L 1241 0 
L 628 0 
L 628 4666 
z
" transform="scale(0.015625)"/>
       <path id="DejaVuSans-29" d="M 513 4856 
L 1013 4856 
Q 1481 4119 1714 3412 
Q 1947 2706 1947 2009 
Q 1947 1309 1714 600 
Q 1481 -109 1013 -844 
L 513 -844 
Q 928 -128 1133 580 
Q 1338 1288 1338 2009 
Q 1338 2731 1133 3434 
Q 928 4138 513 4856 
z
" transform="scale(0.015625)"/>
      </defs>
      <use xlink:href="#DejaVuSans-74"/>
      <use xlink:href="#DejaVuSans-72" transform="translate(39.208984 0)"/>
      <use xlink:href="#DejaVuSans-61" transform="translate(80.322266 0)"/>
      <use xlink:href="#DejaVuSans-69" transform="translate(141.601562 0)"/>
      <use xlink:href="#DejaVuSans-6e" transform="translate(169.384766 0)"/>
      <use xlink:href="#DejaVuSans-28" transform="translate(232.763672 0)"/>
      <use xlink:href="#DejaVuSans-49" transform="translate(271.777344 0)"/>
      <use xlink:href="#DejaVuSans-6e" transform="translate(301.269531 0)"/>
      <use xlink:href="#DejaVuSans-63" transform="translate(364.648438 0)"/>
      <use xlink:href="#DejaVuSans-65" transform="translate(419.628906 0)"/>
      <use xlink:href="#DejaVuSans-70" transform="translate(481.152344 0)"/>
      <use xlink:href="#DejaVuSans-74" transform="translate(544.628906 0)"/>
      <use xlink:href="#DejaVuSans-69" transform="translate(583.837891 0)"/>
      <use xlink:href="#DejaVuSans-6f" transform="translate(611.621094 0)"/>
      <use xlink:href="#DejaVuSans-6e" transform="translate(672.802734 0)"/>
      <use xlink:href="#DejaVuSans-20" transform="translate(736.181641 0)"/>
      <use xlink:href="#DejaVuSans-77" transform="translate(767.96875 0)"/>
      <use xlink:href="#DejaVuSans-2f" transform="translate(849.755859 0)"/>
      <use xlink:href="#DejaVuSans-6f" transform="translate(883.447266 0)"/>
      <use xlink:href="#DejaVuSans-20" transform="translate(944.628906 0)"/>
      <use xlink:href="#DejaVuSans-42" transform="translate(976.416016 0)"/>
      <use xlink:href="#DejaVuSans-4e" transform="translate(1045.019531 0)"/>
      <use xlink:href="#DejaVuSans-29" transform="translate(1119.824219 0)"/>
     </g>
    </g>
    <g id="line2d_36">
     <path d="M 261.835625 263.648062 
L 271.835625 263.648062 
L 281.835625 263.648062 
" style="fill: none; stroke: #ff0000; stroke-width: 2; stroke-linecap: square"/>
    </g>
    <g id="text_20">
     <!-- test(Inception w/o BN) -->
     <g transform="translate(289.835625 267.148062) scale(0.1 -0.1)">
      <use xlink:href="#DejaVuSans-74"/>
      <use xlink:href="#DejaVuSans-65" transform="translate(39.208984 0)"/>
      <use xlink:href="#DejaVuSans-73" transform="translate(100.732422 0)"/>
      <use xlink:href="#DejaVuSans-74" transform="translate(152.832031 0)"/>
      <use xlink:href="#DejaVuSans-28" transform="translate(192.041016 0)"/>
      <use xlink:href="#DejaVuSans-49" transform="translate(231.054688 0)"/>
      <use xlink:href="#DejaVuSans-6e" transform="translate(260.546875 0)"/>
      <use xlink:href="#DejaVuSans-63" transform="translate(323.925781 0)"/>
      <use xlink:href="#DejaVuSans-65" transform="translate(378.90625 0)"/>
      <use xlink:href="#DejaVuSans-70" transform="translate(440.429688 0)"/>
      <use xlink:href="#DejaVuSans-74" transform="translate(503.90625 0)"/>
      <use xlink:href="#DejaVuSans-69" transform="translate(543.115234 0)"/>
      <use xlink:href="#DejaVuSans-6f" transform="translate(570.898438 0)"/>
      <use xlink:href="#DejaVuSans-6e" transform="translate(632.080078 0)"/>
      <use xlink:href="#DejaVuSans-20" transform="translate(695.458984 0)"/>
      <use xlink:href="#DejaVuSans-77" transform="translate(727.246094 0)"/>
      <use xlink:href="#DejaVuSans-2f" transform="translate(809.033203 0)"/>
      <use xlink:href="#DejaVuSans-6f" transform="translate(842.724609 0)"/>
      <use xlink:href="#DejaVuSans-20" transform="translate(903.90625 0)"/>
      <use xlink:href="#DejaVuSans-42" transform="translate(935.693359 0)"/>
      <use xlink:href="#DejaVuSans-4e" transform="translate(1004.296875 0)"/>
      <use xlink:href="#DejaVuSans-29" transform="translate(1079.101562 0)"/>
     </g>
    </g>
    <g id="line2d_37">
     <path d="M 261.835625 278.326187 
L 271.835625 278.326187 
L 281.835625 278.326187 
" style="fill: none; stroke: #0000ff; stroke-opacity: 0.5; stroke-linecap: square"/>
    </g>
    <g id="text_21">
     <!-- train(Inception) -->
     <g transform="translate(289.835625 281.826187) scale(0.1 -0.1)">
      <use xlink:href="#DejaVuSans-74"/>
      <use xlink:href="#DejaVuSans-72" transform="translate(39.208984 0)"/>
      <use xlink:href="#DejaVuSans-61" transform="translate(80.322266 0)"/>
      <use xlink:href="#DejaVuSans-69" transform="translate(141.601562 0)"/>
      <use xlink:href="#DejaVuSans-6e" transform="translate(169.384766 0)"/>
      <use xlink:href="#DejaVuSans-28" transform="translate(232.763672 0)"/>
      <use xlink:href="#DejaVuSans-49" transform="translate(271.777344 0)"/>
      <use xlink:href="#DejaVuSans-6e" transform="translate(301.269531 0)"/>
      <use xlink:href="#DejaVuSans-63" transform="translate(364.648438 0)"/>
      <use xlink:href="#DejaVuSans-65" transform="translate(419.628906 0)"/>
      <use xlink:href="#DejaVuSans-70" transform="translate(481.152344 0)"/>
      <use xlink:href="#DejaVuSans-74" transform="translate(544.628906 0)"/>
      <use xlink:href="#DejaVuSans-69" transform="translate(583.837891 0)"/>
      <use xlink:href="#DejaVuSans-6f" transform="translate(611.621094 0)"/>
      <use xlink:href="#DejaVuSans-6e" transform="translate(672.802734 0)"/>
      <use xlink:href="#DejaVuSans-29" transform="translate(736.181641 0)"/>
     </g>
    </g>
    <g id="line2d_38">
     <path d="M 261.835625 293.004312 
L 271.835625 293.004312 
L 281.835625 293.004312 
" style="fill: none; stroke: #0000ff; stroke-width: 2; stroke-linecap: square"/>
    </g>
    <g id="text_22">
     <!-- test(Inception) -->
     <g transform="translate(289.835625 296.504312) scale(0.1 -0.1)">
      <use xlink:href="#DejaVuSans-74"/>
      <use xlink:href="#DejaVuSans-65" transform="translate(39.208984 0)"/>
      <use xlink:href="#DejaVuSans-73" transform="translate(100.732422 0)"/>
      <use xlink:href="#DejaVuSans-74" transform="translate(152.832031 0)"/>
      <use xlink:href="#DejaVuSans-28" transform="translate(192.041016 0)"/>
      <use xlink:href="#DejaVuSans-49" transform="translate(231.054688 0)"/>
      <use xlink:href="#DejaVuSans-6e" transform="translate(260.546875 0)"/>
      <use xlink:href="#DejaVuSans-63" transform="translate(323.925781 0)"/>
      <use xlink:href="#DejaVuSans-65" transform="translate(378.90625 0)"/>
      <use xlink:href="#DejaVuSans-70" transform="translate(440.429688 0)"/>
      <use xlink:href="#DejaVuSans-74" transform="translate(503.90625 0)"/>
      <use xlink:href="#DejaVuSans-69" transform="translate(543.115234 0)"/>
      <use xlink:href="#DejaVuSans-6f" transform="translate(570.898438 0)"/>
      <use xlink:href="#DejaVuSans-6e" transform="translate(632.080078 0)"/>
      <use xlink:href="#DejaVuSans-29" transform="translate(695.458984 0)"/>
     </g>
    </g>
   </g>
  </g>
 </g>
 <defs>
  <clipPath id="pf6431c2107">
   <rect x="57.6" y="41.472" width="357.12" height="266.112"/>
  </clipPath>
 </defs>
</svg>
