<?xml version="1.0" encoding="utf-8" standalone="no"?>
<!DOCTYPE svg PUBLIC "-//W3C//DTD SVG 1.1//EN"
  "http://www.w3.org/Graphics/SVG/1.1/DTD/svg11.dtd">
<svg xmlns:xlink="http://www.w3.org/1999/xlink" width="460.8pt" height="345.6pt" viewBox="0 0 460.8 345.6" xmlns="http://www.w3.org/2000/svg" version="1.1">
 <metadata>
  <rdf:RDF xmlns:dc="http://purl.org/dc/elements/1.1/" xmlns:cc="http://creativecommons.org/ns#" xmlns:rdf="http://www.w3.org/1999/02/22-rdf-syntax-ns#">
   <cc:Work>
    <dc:type rdf:resource="http://purl.org/dc/dcmitype/StillImage"/>
    <dc:date>2025-04-23T23:57:38.827941</dc:date>
    <dc:format>image/svg+xml</dc:format>
    <dc:creator>
     <cc:Agent>
      <dc:title>Matplotlib v3.10.1, https://matplotlib.org/</dc:title>
     </cc:Agent>
    </dc:creator>
   </cc:Work>
  </rdf:RDF>
 </metadata>
 <defs>
  <style type="text/css">*{stroke-linejoin: round; stroke-linecap: butt}</style>
 </defs>
 <g id="figure_1">
  <g id="patch_1">
   <path d="M 0 345.6 
L 460.8 345.6 
L 460.8 0 
L 0 0 
z
" style="fill: #ffffff"/>
  </g>
  <g id="axes_1">
   <g id="patch_2">
    <path d="M 57.6 307.584 
L 414.72 307.584 
L 414.72 41.472 
L 57.6 41.472 
z
" style="fill: #ffffff"/>
   </g>
   <g id="matplotlib.axis_1">
    <g id="xtick_1">
     <g id="line2d_1">
      <path d="M 57.6 307.584 
L 57.6 41.472 
" clip-path="url(#p99ac271d16)" style="fill: none; stroke-dasharray: 2.96,1.28; stroke-dashoffset: 0; stroke: #b0b0b0; stroke-opacity: 0.7; stroke-width: 0.8"/>
     </g>
     <g id="line2d_2">
      <defs>
       <path id="meb331b51ba" d="M 0 0 
L 0 3.5 
" style="stroke: #000000; stroke-width: 0.8"/>
      </defs>
      <g>
       <use xlink:href="#meb331b51ba" x="57.6" y="307.584" style="stroke: #000000; stroke-width: 0.8"/>
      </g>
     </g>
     <g id="text_1">
      <!-- 0 -->
      <g transform="translate(54.41875 322.182437) scale(0.1 -0.1)">
       <defs>
        <path id="DejaVuSans-30" d="M 2034 4250 
Q 1547 4250 1301 3770 
Q 1056 3291 1056 2328 
Q 1056 1369 1301 889 
Q 1547 409 2034 409 
Q 2525 409 2770 889 
Q 3016 1369 3016 2328 
Q 3016 3291 2770 3770 
Q 2525 4250 2034 4250 
z
M 2034 4750 
Q 2819 4750 3233 4129 
Q 3647 3509 3647 2328 
Q 3647 1150 3233 529 
Q 2819 -91 2034 -91 
Q 1250 -91 836 529 
Q 422 1150 422 2328 
Q 422 3509 836 4129 
Q 1250 4750 2034 4750 
z
" transform="scale(0.015625)"/>
       </defs>
       <use xlink:href="#DejaVuSans-30"/>
      </g>
     </g>
    </g>
    <g id="xtick_2">
     <g id="line2d_3">
      <path d="M 133.180952 307.584 
L 133.180952 41.472 
" clip-path="url(#p99ac271d16)" style="fill: none; stroke-dasharray: 2.96,1.28; stroke-dashoffset: 0; stroke: #b0b0b0; stroke-opacity: 0.7; stroke-width: 0.8"/>
     </g>
     <g id="line2d_4">
      <g>
       <use xlink:href="#meb331b51ba" x="133.180952" y="307.584" style="stroke: #000000; stroke-width: 0.8"/>
      </g>
     </g>
     <g id="text_2">
      <!-- 100 -->
      <g transform="translate(123.637202 322.182437) scale(0.1 -0.1)">
       <defs>
        <path id="DejaVuSans-31" d="M 794 531 
L 1825 531 
L 1825 4091 
L 703 3866 
L 703 4441 
L 1819 4666 
L 2450 4666 
L 2450 531 
L 3481 531 
L 3481 0 
L 794 0 
L 794 531 
z
" transform="scale(0.015625)"/>
       </defs>
       <use xlink:href="#DejaVuSans-31"/>
       <use xlink:href="#DejaVuSans-30" transform="translate(63.623047 0)"/>
       <use xlink:href="#DejaVuSans-30" transform="translate(127.246094 0)"/>
      </g>
     </g>
    </g>
    <g id="xtick_3">
     <g id="line2d_5">
      <path d="M 208.761905 307.584 
L 208.761905 41.472 
" clip-path="url(#p99ac271d16)" style="fill: none; stroke-dasharray: 2.96,1.28; stroke-dashoffset: 0; stroke: #b0b0b0; stroke-opacity: 0.7; stroke-width: 0.8"/>
     </g>
     <g id="line2d_6">
      <g>
       <use xlink:href="#meb331b51ba" x="208.761905" y="307.584" style="stroke: #000000; stroke-width: 0.8"/>
      </g>
     </g>
     <g id="text_3">
      <!-- 200 -->
      <g transform="translate(199.218155 322.182437) scale(0.1 -0.1)">
       <defs>
        <path id="DejaVuSans-32" d="M 1228 531 
L 3431 531 
L 3431 0 
L 469 0 
L 469 531 
Q 828 903 1448 1529 
Q 2069 2156 2228 2338 
Q 2531 2678 2651 2914 
Q 2772 3150 2772 3378 
Q 2772 3750 2511 3984 
Q 2250 4219 1831 4219 
Q 1534 4219 1204 4116 
Q 875 4013 500 3803 
L 500 4441 
Q 881 4594 1212 4672 
Q 1544 4750 1819 4750 
Q 2544 4750 2975 4387 
Q 3406 4025 3406 3419 
Q 3406 3131 3298 2873 
Q 3191 2616 2906 2266 
Q 2828 2175 2409 1742 
Q 1991 1309 1228 531 
z
" transform="scale(0.015625)"/>
       </defs>
       <use xlink:href="#DejaVuSans-32"/>
       <use xlink:href="#DejaVuSans-30" transform="translate(63.623047 0)"/>
       <use xlink:href="#DejaVuSans-30" transform="translate(127.246094 0)"/>
      </g>
     </g>
    </g>
    <g id="xtick_4">
     <g id="line2d_7">
      <path d="M 284.342857 307.584 
L 284.342857 41.472 
" clip-path="url(#p99ac271d16)" style="fill: none; stroke-dasharray: 2.96,1.28; stroke-dashoffset: 0; stroke: #b0b0b0; stroke-opacity: 0.7; stroke-width: 0.8"/>
     </g>
     <g id="line2d_8">
      <g>
       <use xlink:href="#meb331b51ba" x="284.342857" y="307.584" style="stroke: #000000; stroke-width: 0.8"/>
      </g>
     </g>
     <g id="text_4">
      <!-- 300 -->
      <g transform="translate(274.799107 322.182437) scale(0.1 -0.1)">
       <defs>
        <path id="DejaVuSans-33" d="M 2597 2516 
Q 3050 2419 3304 2112 
Q 3559 1806 3559 1356 
Q 3559 666 3084 287 
Q 2609 -91 1734 -91 
Q 1441 -91 1130 -33 
Q 819 25 488 141 
L 488 750 
Q 750 597 1062 519 
Q 1375 441 1716 441 
Q 2309 441 2620 675 
Q 2931 909 2931 1356 
Q 2931 1769 2642 2001 
Q 2353 2234 1838 2234 
L 1294 2234 
L 1294 2753 
L 1863 2753 
Q 2328 2753 2575 2939 
Q 2822 3125 2822 3475 
Q 2822 3834 2567 4026 
Q 2313 4219 1838 4219 
Q 1578 4219 1281 4162 
Q 984 4106 628 3988 
L 628 4550 
Q 988 4650 1302 4700 
Q 1616 4750 1894 4750 
Q 2613 4750 3031 4423 
Q 3450 4097 3450 3541 
Q 3450 3153 3228 2886 
Q 3006 2619 2597 2516 
z
" transform="scale(0.015625)"/>
       </defs>
       <use xlink:href="#DejaVuSans-33"/>
       <use xlink:href="#DejaVuSans-30" transform="translate(63.623047 0)"/>
       <use xlink:href="#DejaVuSans-30" transform="translate(127.246094 0)"/>
      </g>
     </g>
    </g>
    <g id="xtick_5">
     <g id="line2d_9">
      <path d="M 359.92381 307.584 
L 359.92381 41.472 
" clip-path="url(#p99ac271d16)" style="fill: none; stroke-dasharray: 2.96,1.28; stroke-dashoffset: 0; stroke: #b0b0b0; stroke-opacity: 0.7; stroke-width: 0.8"/>
     </g>
     <g id="line2d_10">
      <g>
       <use xlink:href="#meb331b51ba" x="359.92381" y="307.584" style="stroke: #000000; stroke-width: 0.8"/>
      </g>
     </g>
     <g id="text_5">
      <!-- 400 -->
      <g transform="translate(350.38006 322.182437) scale(0.1 -0.1)">
       <defs>
        <path id="DejaVuSans-34" d="M 2419 4116 
L 825 1625 
L 2419 1625 
L 2419 4116 
z
M 2253 4666 
L 3047 4666 
L 3047 1625 
L 3713 1625 
L 3713 1100 
L 3047 1100 
L 3047 0 
L 2419 0 
L 2419 1100 
L 313 1100 
L 313 1709 
L 2253 4666 
z
" transform="scale(0.015625)"/>
       </defs>
       <use xlink:href="#DejaVuSans-34"/>
       <use xlink:href="#DejaVuSans-30" transform="translate(63.623047 0)"/>
       <use xlink:href="#DejaVuSans-30" transform="translate(127.246094 0)"/>
      </g>
     </g>
    </g>
    <g id="text_6">
     <!-- Training steps -->
     <g transform="translate(201.424844 335.860562) scale(0.1 -0.1)">
      <defs>
       <path id="DejaVuSans-54" d="M -19 4666 
L 3928 4666 
L 3928 4134 
L 2272 4134 
L 2272 0 
L 1638 0 
L 1638 4134 
L -19 4134 
L -19 4666 
z
" transform="scale(0.015625)"/>
       <path id="DejaVuSans-72" d="M 2631 2963 
Q 2534 3019 2420 3045 
Q 2306 3072 2169 3072 
Q 1681 3072 1420 2755 
Q 1159 2438 1159 1844 
L 1159 0 
L 581 0 
L 581 3500 
L 1159 3500 
L 1159 2956 
Q 1341 3275 1631 3429 
Q 1922 3584 2338 3584 
Q 2397 3584 2469 3576 
Q 2541 3569 2628 3553 
L 2631 2963 
z
" transform="scale(0.015625)"/>
       <path id="DejaVuSans-61" d="M 2194 1759 
Q 1497 1759 1228 1600 
Q 959 1441 959 1056 
Q 959 750 1161 570 
Q 1363 391 1709 391 
Q 2188 391 2477 730 
Q 2766 1069 2766 1631 
L 2766 1759 
L 2194 1759 
z
M 3341 1997 
L 3341 0 
L 2766 0 
L 2766 531 
Q 2569 213 2275 61 
Q 1981 -91 1556 -91 
Q 1019 -91 701 211 
Q 384 513 384 1019 
Q 384 1609 779 1909 
Q 1175 2209 1959 2209 
L 2766 2209 
L 2766 2266 
Q 2766 2663 2505 2880 
Q 2244 3097 1772 3097 
Q 1472 3097 1187 3025 
Q 903 2953 641 2809 
L 641 3341 
Q 956 3463 1253 3523 
Q 1550 3584 1831 3584 
Q 2591 3584 2966 3190 
Q 3341 2797 3341 1997 
z
" transform="scale(0.015625)"/>
       <path id="DejaVuSans-69" d="M 603 3500 
L 1178 3500 
L 1178 0 
L 603 0 
L 603 3500 
z
M 603 4863 
L 1178 4863 
L 1178 4134 
L 603 4134 
L 603 4863 
z
" transform="scale(0.015625)"/>
       <path id="DejaVuSans-6e" d="M 3513 2113 
L 3513 0 
L 2938 0 
L 2938 2094 
Q 2938 2591 2744 2837 
Q 2550 3084 2163 3084 
Q 1697 3084 1428 2787 
Q 1159 2491 1159 1978 
L 1159 0 
L 581 0 
L 581 3500 
L 1159 3500 
L 1159 2956 
Q 1366 3272 1645 3428 
Q 1925 3584 2291 3584 
Q 2894 3584 3203 3211 
Q 3513 2838 3513 2113 
z
" transform="scale(0.015625)"/>
       <path id="DejaVuSans-67" d="M 2906 1791 
Q 2906 2416 2648 2759 
Q 2391 3103 1925 3103 
Q 1463 3103 1205 2759 
Q 947 2416 947 1791 
Q 947 1169 1205 825 
Q 1463 481 1925 481 
Q 2391 481 2648 825 
Q 2906 1169 2906 1791 
z
M 3481 434 
Q 3481 -459 3084 -895 
Q 2688 -1331 1869 -1331 
Q 1566 -1331 1297 -1286 
Q 1028 -1241 775 -1147 
L 775 -588 
Q 1028 -725 1275 -790 
Q 1522 -856 1778 -856 
Q 2344 -856 2625 -561 
Q 2906 -266 2906 331 
L 2906 616 
Q 2728 306 2450 153 
Q 2172 0 1784 0 
Q 1141 0 747 490 
Q 353 981 353 1791 
Q 353 2603 747 3093 
Q 1141 3584 1784 3584 
Q 2172 3584 2450 3431 
Q 2728 3278 2906 2969 
L 2906 3500 
L 3481 3500 
L 3481 434 
z
" transform="scale(0.015625)"/>
       <path id="DejaVuSans-20" transform="scale(0.015625)"/>
       <path id="DejaVuSans-73" d="M 2834 3397 
L 2834 2853 
Q 2591 2978 2328 3040 
Q 2066 3103 1784 3103 
Q 1356 3103 1142 2972 
Q 928 2841 928 2578 
Q 928 2378 1081 2264 
Q 1234 2150 1697 2047 
L 1894 2003 
Q 2506 1872 2764 1633 
Q 3022 1394 3022 966 
Q 3022 478 2636 193 
Q 2250 -91 1575 -91 
Q 1294 -91 989 -36 
Q 684 19 347 128 
L 347 722 
Q 666 556 975 473 
Q 1284 391 1588 391 
Q 1994 391 2212 530 
Q 2431 669 2431 922 
Q 2431 1156 2273 1281 
Q 2116 1406 1581 1522 
L 1381 1569 
Q 847 1681 609 1914 
Q 372 2147 372 2553 
Q 372 3047 722 3315 
Q 1072 3584 1716 3584 
Q 2034 3584 2315 3537 
Q 2597 3491 2834 3397 
z
" transform="scale(0.015625)"/>
       <path id="DejaVuSans-74" d="M 1172 4494 
L 1172 3500 
L 2356 3500 
L 2356 3053 
L 1172 3053 
L 1172 1153 
Q 1172 725 1289 603 
Q 1406 481 1766 481 
L 2356 481 
L 2356 0 
L 1766 0 
Q 1100 0 847 248 
Q 594 497 594 1153 
L 594 3053 
L 172 3053 
L 172 3500 
L 594 3500 
L 594 4494 
L 1172 4494 
z
" transform="scale(0.015625)"/>
       <path id="DejaVuSans-65" d="M 3597 1894 
L 3597 1613 
L 953 1613 
Q 991 1019 1311 708 
Q 1631 397 2203 397 
Q 2534 397 2845 478 
Q 3156 559 3463 722 
L 3463 178 
Q 3153 47 2828 -22 
Q 2503 -91 2169 -91 
Q 1331 -91 842 396 
Q 353 884 353 1716 
Q 353 2575 817 3079 
Q 1281 3584 2069 3584 
Q 2775 3584 3186 3129 
Q 3597 2675 3597 1894 
z
M 3022 2063 
Q 3016 2534 2758 2815 
Q 2500 3097 2075 3097 
Q 1594 3097 1305 2825 
Q 1016 2553 972 2059 
L 3022 2063 
z
" transform="scale(0.015625)"/>
       <path id="DejaVuSans-70" d="M 1159 525 
L 1159 -1331 
L 581 -1331 
L 581 3500 
L 1159 3500 
L 1159 2969 
Q 1341 3281 1617 3432 
Q 1894 3584 2278 3584 
Q 2916 3584 3314 3078 
Q 3713 2572 3713 1747 
Q 3713 922 3314 415 
Q 2916 -91 2278 -91 
Q 1894 -91 1617 61 
Q 1341 213 1159 525 
z
M 3116 1747 
Q 3116 2381 2855 2742 
Q 2594 3103 2138 3103 
Q 1681 3103 1420 2742 
Q 1159 2381 1159 1747 
Q 1159 1113 1420 752 
Q 1681 391 2138 391 
Q 2594 391 2855 752 
Q 3116 1113 3116 1747 
z
" transform="scale(0.015625)"/>
      </defs>
      <use xlink:href="#DejaVuSans-54"/>
      <use xlink:href="#DejaVuSans-72" transform="translate(46.333984 0)"/>
      <use xlink:href="#DejaVuSans-61" transform="translate(87.447266 0)"/>
      <use xlink:href="#DejaVuSans-69" transform="translate(148.726562 0)"/>
      <use xlink:href="#DejaVuSans-6e" transform="translate(176.509766 0)"/>
      <use xlink:href="#DejaVuSans-69" transform="translate(239.888672 0)"/>
      <use xlink:href="#DejaVuSans-6e" transform="translate(267.671875 0)"/>
      <use xlink:href="#DejaVuSans-67" transform="translate(331.050781 0)"/>
      <use xlink:href="#DejaVuSans-20" transform="translate(394.527344 0)"/>
      <use xlink:href="#DejaVuSans-73" transform="translate(426.314453 0)"/>
      <use xlink:href="#DejaVuSans-74" transform="translate(478.414062 0)"/>
      <use xlink:href="#DejaVuSans-65" transform="translate(517.623047 0)"/>
      <use xlink:href="#DejaVuSans-70" transform="translate(579.146484 0)"/>
      <use xlink:href="#DejaVuSans-73" transform="translate(642.623047 0)"/>
     </g>
    </g>
   </g>
   <g id="matplotlib.axis_2">
    <g id="ytick_1">
     <g id="line2d_11">
      <path d="M 57.6 307.584 
L 414.72 307.584 
" clip-path="url(#p99ac271d16)" style="fill: none; stroke-dasharray: 2.96,1.28; stroke-dashoffset: 0; stroke: #b0b0b0; stroke-opacity: 0.7; stroke-width: 0.8"/>
     </g>
     <g id="line2d_12">
      <defs>
       <path id="m69cee3105c" d="M 0 0 
L -3.5 0 
" style="stroke: #000000; stroke-width: 0.8"/>
      </defs>
      <g>
       <use xlink:href="#m69cee3105c" x="57.6" y="307.584" style="stroke: #000000; stroke-width: 0.8"/>
      </g>
     </g>
     <g id="text_7">
      <!-- 0.0 -->
      <g transform="translate(34.696875 311.383219) scale(0.1 -0.1)">
       <defs>
        <path id="DejaVuSans-2e" d="M 684 794 
L 1344 794 
L 1344 0 
L 684 0 
L 684 794 
z
" transform="scale(0.015625)"/>
       </defs>
       <use xlink:href="#DejaVuSans-30"/>
       <use xlink:href="#DejaVuSans-2e" transform="translate(63.623047 0)"/>
       <use xlink:href="#DejaVuSans-30" transform="translate(95.410156 0)"/>
      </g>
     </g>
    </g>
    <g id="ytick_2">
     <g id="line2d_13">
      <path d="M 57.6 253.537575 
L 414.72 253.537575 
" clip-path="url(#p99ac271d16)" style="fill: none; stroke-dasharray: 2.96,1.28; stroke-dashoffset: 0; stroke: #b0b0b0; stroke-opacity: 0.7; stroke-width: 0.8"/>
     </g>
     <g id="line2d_14">
      <g>
       <use xlink:href="#m69cee3105c" x="57.6" y="253.537575" style="stroke: #000000; stroke-width: 0.8"/>
      </g>
     </g>
     <g id="text_8">
      <!-- 0.5 -->
      <g transform="translate(34.696875 257.336794) scale(0.1 -0.1)">
       <defs>
        <path id="DejaVuSans-35" d="M 691 4666 
L 3169 4666 
L 3169 4134 
L 1269 4134 
L 1269 2991 
Q 1406 3038 1543 3061 
Q 1681 3084 1819 3084 
Q 2600 3084 3056 2656 
Q 3513 2228 3513 1497 
Q 3513 744 3044 326 
Q 2575 -91 1722 -91 
Q 1428 -91 1123 -41 
Q 819 9 494 109 
L 494 744 
Q 775 591 1075 516 
Q 1375 441 1709 441 
Q 2250 441 2565 725 
Q 2881 1009 2881 1497 
Q 2881 1984 2565 2268 
Q 2250 2553 1709 2553 
Q 1456 2553 1204 2497 
Q 953 2441 691 2322 
L 691 4666 
z
" transform="scale(0.015625)"/>
       </defs>
       <use xlink:href="#DejaVuSans-30"/>
       <use xlink:href="#DejaVuSans-2e" transform="translate(63.623047 0)"/>
       <use xlink:href="#DejaVuSans-35" transform="translate(95.410156 0)"/>
      </g>
     </g>
    </g>
    <g id="ytick_3">
     <g id="line2d_15">
      <path d="M 57.6 199.491151 
L 414.72 199.491151 
" clip-path="url(#p99ac271d16)" style="fill: none; stroke-dasharray: 2.96,1.28; stroke-dashoffset: 0; stroke: #b0b0b0; stroke-opacity: 0.7; stroke-width: 0.8"/>
     </g>
     <g id="line2d_16">
      <g>
       <use xlink:href="#m69cee3105c" x="57.6" y="199.491151" style="stroke: #000000; stroke-width: 0.8"/>
      </g>
     </g>
     <g id="text_9">
      <!-- 1.0 -->
      <g transform="translate(34.696875 203.29037) scale(0.1 -0.1)">
       <use xlink:href="#DejaVuSans-31"/>
       <use xlink:href="#DejaVuSans-2e" transform="translate(63.623047 0)"/>
       <use xlink:href="#DejaVuSans-30" transform="translate(95.410156 0)"/>
      </g>
     </g>
    </g>
    <g id="ytick_4">
     <g id="line2d_17">
      <path d="M 57.6 145.444726 
L 414.72 145.444726 
" clip-path="url(#p99ac271d16)" style="fill: none; stroke-dasharray: 2.96,1.28; stroke-dashoffset: 0; stroke: #b0b0b0; stroke-opacity: 0.7; stroke-width: 0.8"/>
     </g>
     <g id="line2d_18">
      <g>
       <use xlink:href="#m69cee3105c" x="57.6" y="145.444726" style="stroke: #000000; stroke-width: 0.8"/>
      </g>
     </g>
     <g id="text_10">
      <!-- 1.5 -->
      <g transform="translate(34.696875 149.243945) scale(0.1 -0.1)">
       <use xlink:href="#DejaVuSans-31"/>
       <use xlink:href="#DejaVuSans-2e" transform="translate(63.623047 0)"/>
       <use xlink:href="#DejaVuSans-35" transform="translate(95.410156 0)"/>
      </g>
     </g>
    </g>
    <g id="ytick_5">
     <g id="line2d_19">
      <path d="M 57.6 91.398302 
L 414.72 91.398302 
" clip-path="url(#p99ac271d16)" style="fill: none; stroke-dasharray: 2.96,1.28; stroke-dashoffset: 0; stroke: #b0b0b0; stroke-opacity: 0.7; stroke-width: 0.8"/>
     </g>
     <g id="line2d_20">
      <g>
       <use xlink:href="#m69cee3105c" x="57.6" y="91.398302" style="stroke: #000000; stroke-width: 0.8"/>
      </g>
     </g>
     <g id="text_11">
      <!-- 2.0 -->
      <g transform="translate(34.696875 95.19752) scale(0.1 -0.1)">
       <use xlink:href="#DejaVuSans-32"/>
       <use xlink:href="#DejaVuSans-2e" transform="translate(63.623047 0)"/>
       <use xlink:href="#DejaVuSans-30" transform="translate(95.410156 0)"/>
      </g>
     </g>
    </g>
    <g id="text_12">
     <!-- Accuracy -->
     <g transform="translate(28.617187 197.356125) rotate(-90) scale(0.1 -0.1)">
      <defs>
       <path id="DejaVuSans-41" d="M 2188 4044 
L 1331 1722 
L 3047 1722 
L 2188 4044 
z
M 1831 4666 
L 2547 4666 
L 4325 0 
L 3669 0 
L 3244 1197 
L 1141 1197 
L 716 0 
L 50 0 
L 1831 4666 
z
" transform="scale(0.015625)"/>
       <path id="DejaVuSans-63" d="M 3122 3366 
L 3122 2828 
Q 2878 2963 2633 3030 
Q 2388 3097 2138 3097 
Q 1578 3097 1268 2742 
Q 959 2388 959 1747 
Q 959 1106 1268 751 
Q 1578 397 2138 397 
Q 2388 397 2633 464 
Q 2878 531 3122 666 
L 3122 134 
Q 2881 22 2623 -34 
Q 2366 -91 2075 -91 
Q 1284 -91 818 406 
Q 353 903 353 1747 
Q 353 2603 823 3093 
Q 1294 3584 2113 3584 
Q 2378 3584 2631 3529 
Q 2884 3475 3122 3366 
z
" transform="scale(0.015625)"/>
       <path id="DejaVuSans-75" d="M 544 1381 
L 544 3500 
L 1119 3500 
L 1119 1403 
Q 1119 906 1312 657 
Q 1506 409 1894 409 
Q 2359 409 2629 706 
Q 2900 1003 2900 1516 
L 2900 3500 
L 3475 3500 
L 3475 0 
L 2900 0 
L 2900 538 
Q 2691 219 2414 64 
Q 2138 -91 1772 -91 
Q 1169 -91 856 284 
Q 544 659 544 1381 
z
M 1991 3584 
L 1991 3584 
z
" transform="scale(0.015625)"/>
       <path id="DejaVuSans-79" d="M 2059 -325 
Q 1816 -950 1584 -1140 
Q 1353 -1331 966 -1331 
L 506 -1331 
L 506 -850 
L 844 -850 
Q 1081 -850 1212 -737 
Q 1344 -625 1503 -206 
L 1606 56 
L 191 3500 
L 800 3500 
L 1894 763 
L 2988 3500 
L 3597 3500 
L 2059 -325 
z
" transform="scale(0.015625)"/>
      </defs>
      <use xlink:href="#DejaVuSans-41"/>
      <use xlink:href="#DejaVuSans-63" transform="translate(66.658203 0)"/>
      <use xlink:href="#DejaVuSans-63" transform="translate(121.638672 0)"/>
      <use xlink:href="#DejaVuSans-75" transform="translate(176.619141 0)"/>
      <use xlink:href="#DejaVuSans-72" transform="translate(239.998047 0)"/>
      <use xlink:href="#DejaVuSans-61" transform="translate(281.111328 0)"/>
      <use xlink:href="#DejaVuSans-63" transform="translate(342.390625 0)"/>
      <use xlink:href="#DejaVuSans-79" transform="translate(397.371094 0)"/>
     </g>
    </g>
   </g>
   <g id="line2d_21">
    <path d="M 57.6 60.627835 
L 58.35581 58.103541 
L 59.111619 57.05745 
L 59.867429 57.344005 
L 60.623238 58.81765 
L 61.379048 61.33283 
L 62.134857 64.743989 
L 63.646476 73.672018 
L 64.402286 78.897777 
L 65.158095 90.9752 
L 68.181333 104.404316 
L 70.448762 111.340592 
L 71.204571 114.213166 
L 71.960381 118.112499 
L 72.71619 124.631116 
L 73.472 124.700893 
L 74.22781 125.054086 
L 74.983619 125.588811 
L 75.739429 126.796672 
L 76.495238 128.559912 
L 78.762667 142.732722 
L 79.518476 148.652598 
L 80.274286 155.803239 
L 81.030095 154.809011 
L 81.785905 154.719027 
L 82.541714 155.363832 
L 83.297524 156.761787 
L 84.053333 159.560442 
L 84.809143 163.140228 
L 86.320762 171.237773 
L 87.832381 182.481129 
L 88.58819 180.110841 
L 89.344 178.897526 
L 90.09981 179.129793 
L 90.855619 180.35075 
L 91.611429 182.399491 
L 92.367238 185.084078 
L 93.123048 188.270067 
L 93.878857 192.378925 
L 94.634667 197.381808 
L 95.390476 200.89414 
L 96.146286 197.768844 
L 96.902095 195.875699 
L 97.657905 195.056131 
L 98.413714 194.558527 
L 99.169524 195.52508 
L 99.925333 197.616834 
L 100.681143 200.805732 
L 102.192762 213.550678 
L 102.948571 214.55239 
L 103.704381 213.062577 
L 105.216 212.199071 
L 105.97181 212.981803 
L 106.727619 214.66727 
L 107.483429 217.524296 
L 108.239238 221.832456 
L 108.995048 227.255407 
L 109.750857 233.607183 
L 110.506667 232.028029 
L 111.262476 228.625767 
L 112.018286 226.385046 
L 112.774095 224.972886 
L 113.529905 225.37076 
L 114.285714 226.734626 
L 115.041524 229.214518 
L 115.797333 232.667752 
L 117.308952 241.560736 
L 118.064762 239.309562 
L 118.820571 237.915487 
L 119.576381 236.980639 
L 120.33219 237.710138 
L 121.088 239.221339 
L 121.84381 241.509551 
L 122.599619 244.750932 
L 123.355429 247.482939 
L 124.111238 251.121045 
L 124.867048 255.631135 
L 125.622857 252.411734 
L 126.378667 252.517647 
L 127.134476 252.984188 
L 127.890286 253.875329 
L 128.646095 255.376538 
L 129.401905 256.554963 
L 130.157714 258.167941 
L 131.669333 262.114932 
L 132.425143 265.554367 
L 133.180952 265.619602 
L 133.936762 264.705703 
L 134.692571 263.324123 
L 135.448381 263.050442 
L 136.20419 263.183419 
L 136.96 263.845452 
L 137.71581 264.333376 
L 138.471619 266.362985 
L 139.983238 271.886935 
L 140.739048 273.27 
L 141.494857 272.453517 
L 142.250667 272.070053 
L 143.762286 272.021968 
L 144.518095 272.968763 
L 145.273905 274.255899 
L 147.541333 279.082065 
L 148.297143 277.217608 
L 149.052952 276.043622 
L 149.808762 276.356256 
L 150.564571 276.795035 
L 151.320381 277.743652 
L 152.832 280.173299 
L 153.58781 281.650191 
L 155.099429 285.560298 
L 155.855238 284.881266 
L 156.611048 284.453544 
L 157.366857 284.323173 
L 158.122667 284.403984 
L 158.878476 284.124239 
L 159.634286 284.264236 
L 160.390095 284.650502 
L 161.145905 285.287288 
L 161.901714 286.565269 
L 162.657524 288.363112 
L 163.413333 288.893168 
L 164.169143 288.736423 
L 164.924952 288.295797 
L 165.680762 288.370856 
L 166.436571 288.663128 
L 167.192381 289.141764 
L 167.94819 290.073614 
L 169.45981 292.756815 
L 170.215619 294.33537 
L 170.971429 294.271542 
L 172.483048 292.270294 
L 173.238857 291.505603 
L 173.994667 291.685086 
L 174.750476 292.129038 
L 176.262095 293.690317 
L 177.773714 295.540371 
L 178.529524 295.148566 
L 179.285333 294.312421 
L 180.041143 294.282081 
L 180.796952 294.366987 
L 181.552762 294.641931 
L 182.308571 295.081326 
L 183.064381 295.317923 
L 184.576 297.06622 
L 185.33181 298.084999 
L 186.087619 297.155448 
L 186.843429 296.938387 
L 187.599238 296.975716 
L 188.355048 297.191701 
L 189.110857 297.252869 
L 190.622476 297.991293 
L 192.134095 299.13801 
L 192.889905 300.078431 
L 193.645714 299.618892 
L 194.401524 299.571606 
L 195.157333 299.662307 
L 196.668952 299.523855 
L 197.424762 299.607498 
L 198.936381 300.947282 
L 200.448 302.302062 
L 201.20381 302.597293 
L 203.471238 301.171158 
L 204.982857 301.087145 
L 207.250286 301.395204 
L 208.006095 301.700039 
L 208.761905 301.28977 
L 210.273524 301.113518 
L 211.029333 301.286525 
L 212.540952 302.064692 
L 213.296762 302.470001 
L 214.808381 303.760126 
L 215.56419 304.493484 
L 216.32 303.59916 
L 218.587429 304.057356 
L 219.343238 303.876766 
L 221.610667 303.996689 
L 223.122286 304.481554 
L 223.878095 304.438243 
L 225.389714 304.477589 
L 227.657143 304.717939 
L 229.924571 305.486785 
L 231.43619 305.97229 
L 232.94781 306.062035 
L 233.703619 306.017701 
L 235.215238 306.370809 
L 237.482667 306.53059 
L 238.238476 306.535367 
L 238.994286 306.654263 
L 239.750095 306.475931 
L 242.017524 306.415072 
L 244.284952 306.609017 
L 247.30819 306.972332 
L 251.843048 307.179462 
L 253.354667 307.431037 
L 258.645333 307.277262 
L 260.912762 307.445933 
L 261.668571 307.582933 
L 263.936 307.208074 
L 266.203429 307.076573 
L 272.249905 307.206143 
L 274.517333 307.509552 
L 276.028952 307.80743 
L 276.784762 307.559143 
L 285.098667 307.53518 
L 332.714667 307.579831 
L 397.714286 307.581481 
L 397.714286 307.581481 
" clip-path="url(#p99ac271d16)" style="fill: none; stroke: #ff0000; stroke-opacity: 0.5; stroke-linecap: square"/>
   </g>
   <g id="line2d_22">
    <path d="M 57.6 54.176211 
L 59.111619 61.556628 
L 61.379048 74.39768 
L 64.402286 92.981356 
L 65.158095 100.256594 
L 65.913905 104.719081 
L 69.692952 123.092461 
L 70.448762 125.578064 
L 71.204571 127.650003 
L 72.71619 133.260942 
L 74.983619 144.985491 
L 75.739429 147.844274 
L 76.495238 151.153343 
L 77.251048 153.660433 
L 78.006857 156.572677 
L 78.762667 160.73132 
L 81.030095 168.921649 
L 81.785905 172.895959 
L 84.053333 179.900815 
L 84.809143 181.105847 
L 85.564952 182.720521 
L 87.076571 186.898127 
L 87.832381 189.483492 
L 89.344 193.464067 
L 90.09981 195.313715 
L 90.855619 196.469709 
L 91.611429 198.065775 
L 92.367238 200.710886 
L 93.123048 202.266246 
L 93.878857 202.67012 
L 95.390476 205.782275 
L 96.902095 208.756394 
L 98.413714 211.648609 
L 99.169524 212.491925 
L 99.925333 213.831576 
L 100.681143 215.435521 
L 101.436952 216.53947 
L 103.704381 220.718052 
L 104.46019 221.825496 
L 105.216 222.552546 
L 105.97181 223.732949 
L 106.727619 224.231493 
L 107.483429 224.033565 
L 109.750857 226.071759 
L 110.506667 226.020351 
L 111.262476 226.216252 
L 112.018286 226.03625 
L 112.774095 226.434517 
L 113.529905 226.506514 
L 114.285714 227.344592 
L 115.797333 228.076066 
L 116.553143 228.71041 
L 117.308952 229.610414 
L 118.820571 230.721492 
L 121.088 232.646975 
L 121.84381 233.892237 
L 122.599619 234.644089 
L 124.111238 234.899645 
L 125.622857 234.250317 
L 126.378667 234.066492 
L 127.134476 234.176919 
L 128.646095 234.037767 
L 129.401905 233.950932 
L 130.157714 234.042812 
L 131.669333 233.412733 
L 132.425143 232.814515 
L 133.180952 231.997991 
L 133.936762 231.690202 
L 134.692571 231.630849 
L 135.448381 231.894567 
L 136.20419 232.584153 
L 137.71581 232.140197 
L 139.983238 231.530972 
L 140.739048 231.773191 
L 141.494857 232.390957 
L 142.250667 232.328389 
L 143.006476 231.830456 
L 143.762286 231.808711 
L 144.518095 230.88819 
L 145.273905 229.216562 
L 146.785524 227.230278 
L 147.541333 225.790453 
L 148.297143 225.488908 
L 149.808762 224.294883 
L 150.564571 224.371351 
L 151.320381 222.895552 
L 152.832 221.631375 
L 154.343619 221.076231 
L 155.099429 221.052772 
L 155.855238 220.655565 
L 156.611048 219.919205 
L 157.366857 219.366957 
L 158.122667 218.994609 
L 158.878476 218.321428 
L 159.634286 218.616221 
L 160.390095 219.531029 
L 161.145905 219.314153 
L 161.901714 218.540792 
L 162.657524 218.248582 
L 163.413333 217.734297 
L 164.924952 217.409338 
L 165.680762 216.772082 
L 166.436571 216.390172 
L 167.192381 215.482363 
L 167.94819 213.830262 
L 168.704 212.682923 
L 170.971429 208.271238 
L 172.483048 206.923855 
L 173.994667 206.365997 
L 175.506286 204.162065 
L 176.262095 202.434534 
L 177.017905 201.685098 
L 177.773714 201.861007 
L 178.529524 201.435805 
L 179.285333 201.790501 
L 180.041143 201.721663 
L 180.796952 200.712756 
L 181.552762 200.493584 
L 182.308571 199.17639 
L 183.064381 198.537759 
L 183.82019 197.752439 
L 184.576 196.70327 
L 186.087619 196.129698 
L 186.843429 195.099574 
L 187.599238 193.232686 
L 188.355048 190.689876 
L 189.110857 188.862707 
L 190.622476 188.511003 
L 191.378286 188.680561 
L 192.134095 188.48248 
L 192.889905 189.01429 
L 193.645714 189.209536 
L 195.913143 189.14044 
L 196.668952 189.679223 
L 198.180571 190.290543 
L 198.936381 187.758064 
L 199.69219 186.629877 
L 200.448 185.162994 
L 201.959619 180.658454 
L 203.471238 176.873133 
L 204.982857 174.709683 
L 205.738667 172.992166 
L 206.494476 172.373815 
L 207.250286 172.605544 
L 208.006095 172.651858 
L 208.761905 172.500629 
L 209.517714 171.603 
L 210.273524 171.83941 
L 211.029333 174.140266 
L 211.785143 173.664858 
L 212.540952 172.828671 
L 213.296762 171.072173 
L 214.052571 171.688643 
L 214.808381 171.158908 
L 215.56419 169.944066 
L 216.32 168.059263 
L 217.07581 167.042491 
L 217.831619 163.580419 
L 218.587429 162.244751 
L 219.343238 161.621836 
L 220.099048 161.372321 
L 221.610667 159.930304 
L 222.366476 160.507355 
L 223.122286 159.117443 
L 223.878095 158.635173 
L 225.389714 160.318358 
L 226.901333 160.208944 
L 228.412952 160.854393 
L 229.168762 160.471793 
L 230.680381 158.13342 
L 231.43619 157.627496 
L 232.192 155.648942 
L 232.94781 156.022374 
L 233.703619 155.523348 
L 234.459429 154.456512 
L 235.215238 152.932106 
L 235.971048 152.238562 
L 236.726857 151.91544 
L 237.482667 150.167543 
L 238.238476 148.995896 
L 238.994286 147.502025 
L 239.750095 146.52519 
L 240.505905 145.958411 
L 242.773333 143.748743 
L 243.529143 142.68273 
L 244.284952 140.978125 
L 245.796571 139.256318 
L 247.30819 138.874411 
L 248.81981 137.14894 
L 251.087238 135.750058 
L 253.354667 133.317104 
L 255.622095 132.807565 
L 258.645333 130.08788 
L 263.936 126.763251 
L 266.203429 125.624213 
L 270.738286 123.552606 
L 276.784762 121.255545 
L 287.366095 118.086629 
L 291.145143 117.158621 
L 296.43581 115.924696 
L 307.017143 113.848873 
L 322.889143 111.38186 
L 331.203048 110.332402 
L 351.609905 108.222254 
L 354.633143 107.974298 
L 359.168 107.559206 
L 359.168 107.559206 
" clip-path="url(#p99ac271d16)" style="fill: none; stroke: #ff0000; stroke-width: 2; stroke-linecap: square"/>
   </g>
   <g id="line2d_23">
    <path d="M 57.6 78.034646 
L 59.111619 115.672846 
L 60.623238 144.307248 
L 62.134857 165.689524 
L 63.646476 181.571349 
L 64.402286 187.99699 
L 65.158095 203.271627 
L 65.913905 205.194693 
L 67.425524 210.043957 
L 68.181333 212.666499 
L 70.448762 219.11874 
L 71.204571 223.322707 
L 72.71619 235.382696 
L 73.472 232.442973 
L 74.22781 230.646303 
L 74.983619 228.544292 
L 75.739429 227.462653 
L 76.495238 227.280817 
L 77.251048 229.470845 
L 78.006857 232.805041 
L 78.762667 237.245662 
L 79.518476 242.795287 
L 80.274286 246.258877 
L 81.030095 242.10883 
L 81.785905 239.310619 
L 82.541714 237.746288 
L 83.297524 237.421724 
L 84.053333 239.089543 
L 84.809143 242.032428 
L 85.564952 246.216032 
L 86.320762 251.489179 
L 87.076571 257.585236 
L 87.832381 257.268262 
L 88.58819 253.844471 
L 89.344 250.940081 
L 90.09981 250.193382 
L 90.855619 250.688964 
L 91.611429 252.22366 
L 92.367238 254.6199 
L 93.123048 257.865769 
L 93.878857 262.317995 
L 94.634667 267.924531 
L 95.390476 267.713311 
L 96.146286 264.37627 
L 96.902095 262.19725 
L 97.657905 261.058981 
L 98.413714 260.950285 
L 99.169524 261.312882 
L 99.925333 262.725638 
L 100.681143 265.23012 
L 101.436952 268.95975 
L 102.192762 274.328038 
L 102.948571 270.830692 
L 103.704381 270.033383 
L 104.46019 270.031833 
L 105.216 270.285413 
L 105.97181 271.277718 
L 106.727619 273.053272 
L 107.483429 275.93637 
L 108.239238 280.069364 
L 108.995048 285.130818 
L 109.750857 291.003405 
L 110.506667 286.957865 
L 111.262476 285.452165 
L 112.018286 284.331377 
L 112.774095 283.638291 
L 113.529905 283.298413 
L 114.285714 283.977289 
L 115.041524 285.295819 
L 115.797333 287.156635 
L 116.553143 289.430672 
L 117.308952 292.090611 
L 118.064762 290.849956 
L 118.820571 290.051531 
L 119.576381 289.442072 
L 120.33219 289.6638 
L 121.088 290.421224 
L 122.599619 292.957095 
L 124.111238 296.779699 
L 124.867048 299.096699 
L 125.622857 297.33456 
L 126.378667 296.668155 
L 127.134476 296.3651 
L 127.890286 296.370138 
L 128.646095 296.493935 
L 129.401905 297.012902 
L 130.157714 297.707999 
L 130.913524 298.579702 
L 131.669333 299.744135 
L 132.425143 301.245889 
L 133.180952 301.317168 
L 133.936762 300.51386 
L 135.448381 299.549377 
L 136.20419 299.315611 
L 136.96 299.299318 
L 137.71581 299.717802 
L 138.471619 300.34427 
L 139.227429 301.273038 
L 139.983238 302.491467 
L 140.739048 301.567649 
L 141.494857 301.361218 
L 142.250667 301.325855 
L 143.006476 301.455055 
L 144.518095 302.51829 
L 145.273905 303.291083 
L 146.785524 305.388834 
L 147.541333 306.716084 
L 148.297143 305.392153 
L 149.808762 304.904164 
L 150.564571 304.873665 
L 152.07619 305.134803 
L 153.58781 305.747938 
L 155.099429 306.716904 
L 156.611048 306.221046 
L 158.122667 306.006295 
L 159.634286 306.065519 
L 161.145905 306.35944 
L 162.657524 307.018189 
L 164.169143 306.566565 
L 165.680762 306.348273 
L 167.192381 306.370633 
L 168.704 306.661835 
L 170.971429 307.446281 
L 172.483048 306.688479 
L 173.994667 306.217734 
L 175.506286 306.059647 
L 177.017905 306.206425 
L 177.773714 306.39785 
L 178.529524 306.007781 
L 180.041143 306.150603 
L 181.552762 306.500371 
L 183.064381 307.050092 
L 184.576 307.806365 
L 185.33181 308.260437 
L 186.087619 307.498626 
L 199.69219 307.530097 
L 210.273524 307.52532 
L 250.331429 307.546653 
L 397.714286 307.527521 
L 397.714286 307.527521 
" clip-path="url(#p99ac271d16)" style="fill: none; stroke: #0000ff; stroke-opacity: 0.5; stroke-linecap: square"/>
   </g>
   <g id="line2d_24">
    <path d="M 57.6 73.521376 
L 58.35581 99.927317 
L 59.111619 122.296401 
L 59.867429 140.983902 
L 60.623238 156.345097 
L 61.379048 168.735261 
L 62.134857 178.50967 
L 62.890667 186.023598 
L 63.646476 191.632321 
L 65.158095 199.539103 
L 65.913905 205.171866 
L 66.669714 205.319884 
L 67.425524 205.93327 
L 69.692952 213.233275 
L 70.448762 216.830202 
L 71.960381 221.837267 
L 73.472 224.384595 
L 74.22781 227.49334 
L 74.983619 228.522933 
L 75.739429 228.676459 
L 76.495238 229.475417 
L 77.251048 230.882009 
L 78.006857 232.890785 
L 78.762667 233.346393 
L 79.518476 236.091963 
L 80.274286 237.538721 
L 81.030095 235.344757 
L 81.785905 238.446739 
L 82.541714 238.327965 
L 83.297524 236.944334 
L 84.053333 238.456193 
L 85.564952 235.315032 
L 87.076571 234.259631 
L 87.832381 234.930506 
L 88.58819 235.299386 
L 89.344 235.464037 
L 90.09981 235.25951 
L 90.855619 234.404129 
L 92.367238 237.31089 
L 93.123048 238.148709 
L 93.878857 239.8156 
L 94.634667 242.058888 
L 95.390476 242.006899 
L 96.146286 243.480212 
L 96.902095 241.73268 
L 97.657905 240.96421 
L 98.413714 241.628133 
L 99.169524 238.724365 
L 99.925333 238.309504 
L 100.681143 238.296878 
L 101.436952 238.775646 
L 102.192762 240.706337 
L 102.948571 241.303152 
L 103.704381 241.235853 
L 104.46019 241.628682 
L 105.216 242.764386 
L 105.97181 243.357241 
L 106.727619 243.59939 
L 107.483429 242.589504 
L 108.239238 242.80291 
L 108.995048 244.110142 
L 109.750857 242.931195 
L 110.506667 243.025054 
L 111.262476 241.850674 
L 112.018286 240.35582 
L 112.774095 239.713422 
L 113.529905 238.833898 
L 115.041524 238.644747 
L 115.797333 240.772053 
L 116.553143 242.32529 
L 117.308952 240.220601 
L 118.064762 237.646588 
L 119.576381 236.28654 
L 120.33219 234.900297 
L 121.84381 233.858077 
L 122.599619 234.275525 
L 123.355429 233.236473 
L 125.622857 231.074484 
L 126.378667 232.303023 
L 128.646095 236.879819 
L 129.401905 237.699006 
L 130.157714 238.904857 
L 130.913524 237.920326 
L 131.669333 236.373217 
L 132.425143 236.175468 
L 133.180952 237.830226 
L 134.692571 239.244161 
L 135.448381 238.48678 
L 136.20419 238.372011 
L 136.96 237.470396 
L 137.71581 235.521185 
L 138.471619 235.303387 
L 139.227429 235.433117 
L 139.983238 235.835823 
L 141.494857 237.022993 
L 142.250667 237.355542 
L 143.006476 237.284378 
L 143.762286 236.74472 
L 144.518095 236.503259 
L 145.273905 237.10413 
L 146.785524 239.362793 
L 147.541333 240.181242 
L 148.297143 240.485751 
L 149.052952 240.326941 
L 149.808762 239.81736 
L 151.320381 240.167495 
L 152.07619 240.073745 
L 153.58781 240.84194 
L 155.099429 241.497581 
L 155.855238 241.732505 
L 156.611048 241.797292 
L 157.366857 242.197672 
L 158.878476 242.226539 
L 160.390095 242.655789 
L 167.192381 241.535351 
L 169.45981 241.452676 
L 172.483048 241.02189 
L 174.750476 240.840812 
L 177.017905 240.682757 
L 178.529524 240.561309 
L 180.041143 240.332697 
L 183.82019 240.299684 
L 185.33181 240.113025 
L 186.843429 240.106471 
L 189.110857 240.244843 
L 191.378286 239.9454 
L 195.157333 239.252375 
L 198.180571 239.082855 
L 199.69219 239.128931 
L 202.715429 239.369683 
L 205.738667 239.104428 
L 215.56419 238.767997 
L 218.587429 238.58285 
L 223.122286 238.324185 
L 226.901333 238.143189 
L 232.94781 237.966907 
L 238.994286 238.057327 
L 241.261714 237.919736 
L 243.529143 237.892923 
L 250.331429 237.539019 
L 251.843048 237.272849 
L 254.110476 237.119816 
L 256.377905 237.058797 
L 260.912762 237.231069 
L 264.69181 237.261172 
L 269.226667 237.17281 
L 271.494095 237.259517 
L 279.808 237.193913 
L 284.342857 237.200069 
L 288.121905 237.105601 
L 291.900952 237.067907 
L 294.92419 237.132766 
L 296.43581 237.061604 
L 306.261333 236.83463 
L 307.772952 236.867846 
L 311.552 236.852757 
L 319.110095 236.609366 
L 347.075048 236.228828 
L 349.342476 236.197446 
L 359.168 236.150971 
L 359.168 236.150971 
" clip-path="url(#p99ac271d16)" style="fill: none; stroke: #0000ff; stroke-width: 2; stroke-linecap: square"/>
   </g>
   <g id="patch_3">
    <path d="M 57.6 307.584 
L 57.6 41.472 
" style="fill: none; stroke: #000000; stroke-width: 0.8; stroke-linejoin: miter; stroke-linecap: square"/>
   </g>
   <g id="patch_4">
    <path d="M 414.72 307.584 
L 414.72 41.472 
" style="fill: none; stroke: #000000; stroke-width: 0.8; stroke-linejoin: miter; stroke-linecap: square"/>
   </g>
   <g id="patch_5">
    <path d="M 57.6 307.584 
L 414.72 307.584 
" style="fill: none; stroke: #000000; stroke-width: 0.8; stroke-linejoin: miter; stroke-linecap: square"/>
   </g>
   <g id="patch_6">
    <path d="M 57.6 41.472 
L 414.72 41.472 
" style="fill: none; stroke: #000000; stroke-width: 0.8; stroke-linejoin: miter; stroke-linecap: square"/>
   </g>
   <g id="text_13">
    <!-- Inception learning and validation curves -->
    <g transform="translate(115.423125 35.472) scale(0.12 -0.12)">
     <defs>
      <path id="DejaVuSans-49" d="M 628 4666 
L 1259 4666 
L 1259 0 
L 628 0 
L 628 4666 
z
" transform="scale(0.015625)"/>
      <path id="DejaVuSans-6f" d="M 1959 3097 
Q 1497 3097 1228 2736 
Q 959 2375 959 1747 
Q 959 1119 1226 758 
Q 1494 397 1959 397 
Q 2419 397 2687 759 
Q 2956 1122 2956 1747 
Q 2956 2369 2687 2733 
Q 2419 3097 1959 3097 
z
M 1959 3584 
Q 2709 3584 3137 3096 
Q 3566 2609 3566 1747 
Q 3566 888 3137 398 
Q 2709 -91 1959 -91 
Q 1206 -91 779 398 
Q 353 888 353 1747 
Q 353 2609 779 3096 
Q 1206 3584 1959 3584 
z
" transform="scale(0.015625)"/>
      <path id="DejaVuSans-6c" d="M 603 4863 
L 1178 4863 
L 1178 0 
L 603 0 
L 603 4863 
z
" transform="scale(0.015625)"/>
      <path id="DejaVuSans-64" d="M 2906 2969 
L 2906 4863 
L 3481 4863 
L 3481 0 
L 2906 0 
L 2906 525 
Q 2725 213 2448 61 
Q 2172 -91 1784 -91 
Q 1150 -91 751 415 
Q 353 922 353 1747 
Q 353 2572 751 3078 
Q 1150 3584 1784 3584 
Q 2172 3584 2448 3432 
Q 2725 3281 2906 2969 
z
M 947 1747 
Q 947 1113 1208 752 
Q 1469 391 1925 391 
Q 2381 391 2643 752 
Q 2906 1113 2906 1747 
Q 2906 2381 2643 2742 
Q 2381 3103 1925 3103 
Q 1469 3103 1208 2742 
Q 947 2381 947 1747 
z
" transform="scale(0.015625)"/>
      <path id="DejaVuSans-76" d="M 191 3500 
L 800 3500 
L 1894 563 
L 2988 3500 
L 3597 3500 
L 2284 0 
L 1503 0 
L 191 3500 
z
" transform="scale(0.015625)"/>
     </defs>
     <use xlink:href="#DejaVuSans-49"/>
     <use xlink:href="#DejaVuSans-6e" transform="translate(29.492188 0)"/>
     <use xlink:href="#DejaVuSans-63" transform="translate(92.871094 0)"/>
     <use xlink:href="#DejaVuSans-65" transform="translate(147.851562 0)"/>
     <use xlink:href="#DejaVuSans-70" transform="translate(209.375 0)"/>
     <use xlink:href="#DejaVuSans-74" transform="translate(272.851562 0)"/>
     <use xlink:href="#DejaVuSans-69" transform="translate(312.060547 0)"/>
     <use xlink:href="#DejaVuSans-6f" transform="translate(339.84375 0)"/>
     <use xlink:href="#DejaVuSans-6e" transform="translate(401.025391 0)"/>
     <use xlink:href="#DejaVuSans-20" transform="translate(464.404297 0)"/>
     <use xlink:href="#DejaVuSans-6c" transform="translate(496.191406 0)"/>
     <use xlink:href="#DejaVuSans-65" transform="translate(523.974609 0)"/>
     <use xlink:href="#DejaVuSans-61" transform="translate(585.498047 0)"/>
     <use xlink:href="#DejaVuSans-72" transform="translate(646.777344 0)"/>
     <use xlink:href="#DejaVuSans-6e" transform="translate(686.140625 0)"/>
     <use xlink:href="#DejaVuSans-69" transform="translate(749.519531 0)"/>
     <use xlink:href="#DejaVuSans-6e" transform="translate(777.302734 0)"/>
     <use xlink:href="#DejaVuSans-67" transform="translate(840.681641 0)"/>
     <use xlink:href="#DejaVuSans-20" transform="translate(904.158203 0)"/>
     <use xlink:href="#DejaVuSans-61" transform="translate(935.945312 0)"/>
     <use xlink:href="#DejaVuSans-6e" transform="translate(997.224609 0)"/>
     <use xlink:href="#DejaVuSans-64" transform="translate(1060.603516 0)"/>
     <use xlink:href="#DejaVuSans-20" transform="translate(1124.080078 0)"/>
     <use xlink:href="#DejaVuSans-76" transform="translate(1155.867188 0)"/>
     <use xlink:href="#DejaVuSans-61" transform="translate(1215.046875 0)"/>
     <use xlink:href="#DejaVuSans-6c" transform="translate(1276.326172 0)"/>
     <use xlink:href="#DejaVuSans-69" transform="translate(1304.109375 0)"/>
     <use xlink:href="#DejaVuSans-64" transform="translate(1331.892578 0)"/>
     <use xlink:href="#DejaVuSans-61" transform="translate(1395.369141 0)"/>
     <use xlink:href="#DejaVuSans-74" transform="translate(1456.648438 0)"/>
     <use xlink:href="#DejaVuSans-69" transform="translate(1495.857422 0)"/>
     <use xlink:href="#DejaVuSans-6f" transform="translate(1523.640625 0)"/>
     <use xlink:href="#DejaVuSans-6e" transform="translate(1584.822266 0)"/>
     <use xlink:href="#DejaVuSans-20" transform="translate(1648.201172 0)"/>
     <use xlink:href="#DejaVuSans-63" transform="translate(1679.988281 0)"/>
     <use xlink:href="#DejaVuSans-75" transform="translate(1734.96875 0)"/>
     <use xlink:href="#DejaVuSans-72" transform="translate(1798.347656 0)"/>
     <use xlink:href="#DejaVuSans-76" transform="translate(1839.460938 0)"/>
     <use xlink:href="#DejaVuSans-65" transform="translate(1898.640625 0)"/>
     <use xlink:href="#DejaVuSans-73" transform="translate(1960.164062 0)"/>
    </g>
   </g>
   <g id="legend_1">
    <g id="patch_7">
     <path d="M 259.835625 302.584 
L 407.72 302.584 
Q 409.72 302.584 409.72 300.584 
L 409.72 242.8715 
Q 409.72 240.8715 407.72 240.8715 
L 259.835625 240.8715 
Q 257.835625 240.8715 257.835625 242.8715 
L 257.835625 300.584 
Q 257.835625 302.584 259.835625 302.584 
z
" style="fill: #ffffff; opacity: 0.8; stroke: #cccccc; stroke-linejoin: miter"/>
    </g>
    <g id="line2d_25">
     <path d="M 261.835625 248.969937 
L 271.835625 248.969937 
L 281.835625 248.969937 
" style="fill: none; stroke: #ff0000; stroke-opacity: 0.5; stroke-linecap: square"/>
    </g>
    <g id="text_14">
     <!-- train(Inception w/o BN) -->
     <g transform="translate(289.835625 252.469937) scale(0.1 -0.1)">
      <defs>
       <path id="DejaVuSans-28" d="M 1984 4856 
Q 1566 4138 1362 3434 
Q 1159 2731 1159 2009 
Q 1159 1288 1364 580 
Q 1569 -128 1984 -844 
L 1484 -844 
Q 1016 -109 783 600 
Q 550 1309 550 2009 
Q 550 2706 781 3412 
Q 1013 4119 1484 4856 
L 1984 4856 
z
" transform="scale(0.015625)"/>
       <path id="DejaVuSans-77" d="M 269 3500 
L 844 3500 
L 1563 769 
L 2278 3500 
L 2956 3500 
L 3675 769 
L 4391 3500 
L 4966 3500 
L 4050 0 
L 3372 0 
L 2619 2869 
L 1863 0 
L 1184 0 
L 269 3500 
z
" transform="scale(0.015625)"/>
       <path id="DejaVuSans-2f" d="M 1625 4666 
L 2156 4666 
L 531 -594 
L 0 -594 
L 1625 4666 
z
" transform="scale(0.015625)"/>
       <path id="DejaVuSans-42" d="M 1259 2228 
L 1259 519 
L 2272 519 
Q 2781 519 3026 730 
Q 3272 941 3272 1375 
Q 3272 1813 3026 2020 
Q 2781 2228 2272 2228 
L 1259 2228 
z
M 1259 4147 
L 1259 2741 
L 2194 2741 
Q 2656 2741 2882 2914 
Q 3109 3088 3109 3444 
Q 3109 3797 2882 3972 
Q 2656 4147 2194 4147 
L 1259 4147 
z
M 628 4666 
L 2241 4666 
Q 2963 4666 3353 4366 
Q 3744 4066 3744 3513 
Q 3744 3084 3544 2831 
Q 3344 2578 2956 2516 
Q 3422 2416 3680 2098 
Q 3938 1781 3938 1306 
Q 3938 681 3513 340 
Q 3088 0 2303 0 
L 628 0 
L 628 4666 
z
" transform="scale(0.015625)"/>
       <path id="DejaVuSans-4e" d="M 628 4666 
L 1478 4666 
L 3547 763 
L 3547 4666 
L 4159 4666 
L 4159 0 
L 3309 0 
L 1241 3903 
L 1241 0 
L 628 0 
L 628 4666 
z
" transform="scale(0.015625)"/>
       <path id="DejaVuSans-29" d="M 513 4856 
L 1013 4856 
Q 1481 4119 1714 3412 
Q 1947 2706 1947 2009 
Q 1947 1309 1714 600 
Q 1481 -109 1013 -844 
L 513 -844 
Q 928 -128 1133 580 
Q 1338 1288 1338 2009 
Q 1338 2731 1133 3434 
Q 928 4138 513 4856 
z
" transform="scale(0.015625)"/>
      </defs>
      <use xlink:href="#DejaVuSans-74"/>
      <use xlink:href="#DejaVuSans-72" transform="translate(39.208984 0)"/>
      <use xlink:href="#DejaVuSans-61" transform="translate(80.322266 0)"/>
      <use xlink:href="#DejaVuSans-69" transform="translate(141.601562 0)"/>
      <use xlink:href="#DejaVuSans-6e" transform="translate(169.384766 0)"/>
      <use xlink:href="#DejaVuSans-28" transform="translate(232.763672 0)"/>
      <use xlink:href="#DejaVuSans-49" transform="translate(271.777344 0)"/>
      <use xlink:href="#DejaVuSans-6e" transform="translate(301.269531 0)"/>
      <use xlink:href="#DejaVuSans-63" transform="translate(364.648438 0)"/>
      <use xlink:href="#DejaVuSans-65" transform="translate(419.628906 0)"/>
      <use xlink:href="#DejaVuSans-70" transform="translate(481.152344 0)"/>
      <use xlink:href="#DejaVuSans-74" transform="translate(544.628906 0)"/>
      <use xlink:href="#DejaVuSans-69" transform="translate(583.837891 0)"/>
      <use xlink:href="#DejaVuSans-6f" transform="translate(611.621094 0)"/>
      <use xlink:href="#DejaVuSans-6e" transform="translate(672.802734 0)"/>
      <use xlink:href="#DejaVuSans-20" transform="translate(736.181641 0)"/>
      <use xlink:href="#DejaVuSans-77" transform="translate(767.96875 0)"/>
      <use xlink:href="#DejaVuSans-2f" transform="translate(849.755859 0)"/>
      <use xlink:href="#DejaVuSans-6f" transform="translate(883.447266 0)"/>
      <use xlink:href="#DejaVuSans-20" transform="translate(944.628906 0)"/>
      <use xlink:href="#DejaVuSans-42" transform="translate(976.416016 0)"/>
      <use xlink:href="#DejaVuSans-4e" transform="translate(1045.019531 0)"/>
      <use xlink:href="#DejaVuSans-29" transform="translate(1119.824219 0)"/>
     </g>
    </g>
    <g id="line2d_26">
     <path d="M 261.835625 263.648062 
L 271.835625 263.648062 
L 281.835625 263.648062 
" style="fill: none; stroke: #ff0000; stroke-width: 2; stroke-linecap: square"/>
    </g>
    <g id="text_15">
     <!-- test(Inception w/o BN) -->
     <g transform="translate(289.835625 267.148062) scale(0.1 -0.1)">
      <use xlink:href="#DejaVuSans-74"/>
      <use xlink:href="#DejaVuSans-65" transform="translate(39.208984 0)"/>
      <use xlink:href="#DejaVuSans-73" transform="translate(100.732422 0)"/>
      <use xlink:href="#DejaVuSans-74" transform="translate(152.832031 0)"/>
      <use xlink:href="#DejaVuSans-28" transform="translate(192.041016 0)"/>
      <use xlink:href="#DejaVuSans-49" transform="translate(231.054688 0)"/>
      <use xlink:href="#DejaVuSans-6e" transform="translate(260.546875 0)"/>
      <use xlink:href="#DejaVuSans-63" transform="translate(323.925781 0)"/>
      <use xlink:href="#DejaVuSans-65" transform="translate(378.90625 0)"/>
      <use xlink:href="#DejaVuSans-70" transform="translate(440.429688 0)"/>
      <use xlink:href="#DejaVuSans-74" transform="translate(503.90625 0)"/>
      <use xlink:href="#DejaVuSans-69" transform="translate(543.115234 0)"/>
      <use xlink:href="#DejaVuSans-6f" transform="translate(570.898438 0)"/>
      <use xlink:href="#DejaVuSans-6e" transform="translate(632.080078 0)"/>
      <use xlink:href="#DejaVuSans-20" transform="translate(695.458984 0)"/>
      <use xlink:href="#DejaVuSans-77" transform="translate(727.246094 0)"/>
      <use xlink:href="#DejaVuSans-2f" transform="translate(809.033203 0)"/>
      <use xlink:href="#DejaVuSans-6f" transform="translate(842.724609 0)"/>
      <use xlink:href="#DejaVuSans-20" transform="translate(903.90625 0)"/>
      <use xlink:href="#DejaVuSans-42" transform="translate(935.693359 0)"/>
      <use xlink:href="#DejaVuSans-4e" transform="translate(1004.296875 0)"/>
      <use xlink:href="#DejaVuSans-29" transform="translate(1079.101562 0)"/>
     </g>
    </g>
    <g id="line2d_27">
     <path d="M 261.835625 278.326187 
L 271.835625 278.326187 
L 281.835625 278.326187 
" style="fill: none; stroke: #0000ff; stroke-opacity: 0.5; stroke-linecap: square"/>
    </g>
    <g id="text_16">
     <!-- train(Inception) -->
     <g transform="translate(289.835625 281.826187) scale(0.1 -0.1)">
      <use xlink:href="#DejaVuSans-74"/>
      <use xlink:href="#DejaVuSans-72" transform="translate(39.208984 0)"/>
      <use xlink:href="#DejaVuSans-61" transform="translate(80.322266 0)"/>
      <use xlink:href="#DejaVuSans-69" transform="translate(141.601562 0)"/>
      <use xlink:href="#DejaVuSans-6e" transform="translate(169.384766 0)"/>
      <use xlink:href="#DejaVuSans-28" transform="translate(232.763672 0)"/>
      <use xlink:href="#DejaVuSans-49" transform="translate(271.777344 0)"/>
      <use xlink:href="#DejaVuSans-6e" transform="translate(301.269531 0)"/>
      <use xlink:href="#DejaVuSans-63" transform="translate(364.648438 0)"/>
      <use xlink:href="#DejaVuSans-65" transform="translate(419.628906 0)"/>
      <use xlink:href="#DejaVuSans-70" transform="translate(481.152344 0)"/>
      <use xlink:href="#DejaVuSans-74" transform="translate(544.628906 0)"/>
      <use xlink:href="#DejaVuSans-69" transform="translate(583.837891 0)"/>
      <use xlink:href="#DejaVuSans-6f" transform="translate(611.621094 0)"/>
      <use xlink:href="#DejaVuSans-6e" transform="translate(672.802734 0)"/>
      <use xlink:href="#DejaVuSans-29" transform="translate(736.181641 0)"/>
     </g>
    </g>
    <g id="line2d_28">
     <path d="M 261.835625 293.004312 
L 271.835625 293.004312 
L 281.835625 293.004312 
" style="fill: none; stroke: #0000ff; stroke-width: 2; stroke-linecap: square"/>
    </g>
    <g id="text_17">
     <!-- test(Inception) -->
     <g transform="translate(289.835625 296.504312) scale(0.1 -0.1)">
      <use xlink:href="#DejaVuSans-74"/>
      <use xlink:href="#DejaVuSans-65" transform="translate(39.208984 0)"/>
      <use xlink:href="#DejaVuSans-73" transform="translate(100.732422 0)"/>
      <use xlink:href="#DejaVuSans-74" transform="translate(152.832031 0)"/>
      <use xlink:href="#DejaVuSans-28" transform="translate(192.041016 0)"/>
      <use xlink:href="#DejaVuSans-49" transform="translate(231.054688 0)"/>
      <use xlink:href="#DejaVuSans-6e" transform="translate(260.546875 0)"/>
      <use xlink:href="#DejaVuSans-63" transform="translate(323.925781 0)"/>
      <use xlink:href="#DejaVuSans-65" transform="translate(378.90625 0)"/>
      <use xlink:href="#DejaVuSans-70" transform="translate(440.429688 0)"/>
      <use xlink:href="#DejaVuSans-74" transform="translate(503.90625 0)"/>
      <use xlink:href="#DejaVuSans-69" transform="translate(543.115234 0)"/>
      <use xlink:href="#DejaVuSans-6f" transform="translate(570.898438 0)"/>
      <use xlink:href="#DejaVuSans-6e" transform="translate(632.080078 0)"/>
      <use xlink:href="#DejaVuSans-29" transform="translate(695.458984 0)"/>
     </g>
    </g>
   </g>
  </g>
 </g>
 <defs>
  <clipPath id="p99ac271d16">
   <rect x="57.6" y="41.472" width="357.12" height="266.112"/>
  </clipPath>
 </defs>
</svg>
