<?xml version="1.0" encoding="utf-8" standalone="no"?>
<!DOCTYPE svg PUBLIC "-//W3C//DTD SVG 1.1//EN"
  "http://www.w3.org/Graphics/SVG/1.1/DTD/svg11.dtd">
<svg xmlns:xlink="http://www.w3.org/1999/xlink" width="460.8pt" height="345.6pt" viewBox="0 0 460.8 345.6" xmlns="http://www.w3.org/2000/svg" version="1.1">
 <metadata>
  <rdf:RDF xmlns:dc="http://purl.org/dc/elements/1.1/" xmlns:cc="http://creativecommons.org/ns#" xmlns:rdf="http://www.w3.org/1999/02/22-rdf-syntax-ns#">
   <cc:Work>
    <dc:type rdf:resource="http://purl.org/dc/dcmitype/StillImage"/>
    <dc:date>2025-04-23T23:53:04.478603</dc:date>
    <dc:format>image/svg+xml</dc:format>
    <dc:creator>
     <cc:Agent>
      <dc:title>Matplotlib v3.10.1, https://matplotlib.org/</dc:title>
     </cc:Agent>
    </dc:creator>
   </cc:Work>
  </rdf:RDF>
 </metadata>
 <defs>
  <style type="text/css">*{stroke-linejoin: round; stroke-linecap: butt}</style>
 </defs>
 <g id="figure_1">
  <g id="patch_1">
   <path d="M 0 345.6 
L 460.8 345.6 
L 460.8 0 
L 0 0 
z
" style="fill: #ffffff"/>
  </g>
  <g id="axes_1">
   <g id="patch_2">
    <path d="M 57.6 307.584 
L 414.72 307.584 
L 414.72 41.472 
L 57.6 41.472 
z
" style="fill: #ffffff"/>
   </g>
   <g id="matplotlib.axis_1">
    <g id="xtick_1">
     <g id="line2d_1">
      <path d="M 57.6 307.584 
L 57.6 41.472 
" clip-path="url(#p681f790f55)" style="fill: none; stroke-dasharray: 2.96,1.28; stroke-dashoffset: 0; stroke: #b0b0b0; stroke-opacity: 0.7; stroke-width: 0.8"/>
     </g>
     <g id="line2d_2">
      <defs>
       <path id="m94e055e197" d="M 0 0 
L 0 3.5 
" style="stroke: #000000; stroke-width: 0.8"/>
      </defs>
      <g>
       <use xlink:href="#m94e055e197" x="57.6" y="307.584" style="stroke: #000000; stroke-width: 0.8"/>
      </g>
     </g>
     <g id="text_1">
      <!-- 0 -->
      <g transform="translate(54.41875 322.182437) scale(0.1 -0.1)">
       <defs>
        <path id="DejaVuSans-30" d="M 2034 4250 
Q 1547 4250 1301 3770 
Q 1056 3291 1056 2328 
Q 1056 1369 1301 889 
Q 1547 409 2034 409 
Q 2525 409 2770 889 
Q 3016 1369 3016 2328 
Q 3016 3291 2770 3770 
Q 2525 4250 2034 4250 
z
M 2034 4750 
Q 2819 4750 3233 4129 
Q 3647 3509 3647 2328 
Q 3647 1150 3233 529 
Q 2819 -91 2034 -91 
Q 1250 -91 836 529 
Q 422 1150 422 2328 
Q 422 3509 836 4129 
Q 1250 4750 2034 4750 
z
" transform="scale(0.015625)"/>
       </defs>
       <use xlink:href="#DejaVuSans-30"/>
      </g>
     </g>
    </g>
    <g id="xtick_2">
     <g id="line2d_3">
      <path d="M 106.520548 307.584 
L 106.520548 41.472 
" clip-path="url(#p681f790f55)" style="fill: none; stroke-dasharray: 2.96,1.28; stroke-dashoffset: 0; stroke: #b0b0b0; stroke-opacity: 0.7; stroke-width: 0.8"/>
     </g>
     <g id="line2d_4">
      <g>
       <use xlink:href="#m94e055e197" x="106.520548" y="307.584" style="stroke: #000000; stroke-width: 0.8"/>
      </g>
     </g>
     <g id="text_2">
      <!-- 100 -->
      <g transform="translate(96.976798 322.182437) scale(0.1 -0.1)">
       <defs>
        <path id="DejaVuSans-31" d="M 794 531 
L 1825 531 
L 1825 4091 
L 703 3866 
L 703 4441 
L 1819 4666 
L 2450 4666 
L 2450 531 
L 3481 531 
L 3481 0 
L 794 0 
L 794 531 
z
" transform="scale(0.015625)"/>
       </defs>
       <use xlink:href="#DejaVuSans-31"/>
       <use xlink:href="#DejaVuSans-30" transform="translate(63.623047 0)"/>
       <use xlink:href="#DejaVuSans-30" transform="translate(127.246094 0)"/>
      </g>
     </g>
    </g>
    <g id="xtick_3">
     <g id="line2d_5">
      <path d="M 155.441096 307.584 
L 155.441096 41.472 
" clip-path="url(#p681f790f55)" style="fill: none; stroke-dasharray: 2.96,1.28; stroke-dashoffset: 0; stroke: #b0b0b0; stroke-opacity: 0.7; stroke-width: 0.8"/>
     </g>
     <g id="line2d_6">
      <g>
       <use xlink:href="#m94e055e197" x="155.441096" y="307.584" style="stroke: #000000; stroke-width: 0.8"/>
      </g>
     </g>
     <g id="text_3">
      <!-- 200 -->
      <g transform="translate(145.897346 322.182437) scale(0.1 -0.1)">
       <defs>
        <path id="DejaVuSans-32" d="M 1228 531 
L 3431 531 
L 3431 0 
L 469 0 
L 469 531 
Q 828 903 1448 1529 
Q 2069 2156 2228 2338 
Q 2531 2678 2651 2914 
Q 2772 3150 2772 3378 
Q 2772 3750 2511 3984 
Q 2250 4219 1831 4219 
Q 1534 4219 1204 4116 
Q 875 4013 500 3803 
L 500 4441 
Q 881 4594 1212 4672 
Q 1544 4750 1819 4750 
Q 2544 4750 2975 4387 
Q 3406 4025 3406 3419 
Q 3406 3131 3298 2873 
Q 3191 2616 2906 2266 
Q 2828 2175 2409 1742 
Q 1991 1309 1228 531 
z
" transform="scale(0.015625)"/>
       </defs>
       <use xlink:href="#DejaVuSans-32"/>
       <use xlink:href="#DejaVuSans-30" transform="translate(63.623047 0)"/>
       <use xlink:href="#DejaVuSans-30" transform="translate(127.246094 0)"/>
      </g>
     </g>
    </g>
    <g id="xtick_4">
     <g id="line2d_7">
      <path d="M 204.361644 307.584 
L 204.361644 41.472 
" clip-path="url(#p681f790f55)" style="fill: none; stroke-dasharray: 2.96,1.28; stroke-dashoffset: 0; stroke: #b0b0b0; stroke-opacity: 0.7; stroke-width: 0.8"/>
     </g>
     <g id="line2d_8">
      <g>
       <use xlink:href="#m94e055e197" x="204.361644" y="307.584" style="stroke: #000000; stroke-width: 0.8"/>
      </g>
     </g>
     <g id="text_4">
      <!-- 300 -->
      <g transform="translate(194.817894 322.182437) scale(0.1 -0.1)">
       <defs>
        <path id="DejaVuSans-33" d="M 2597 2516 
Q 3050 2419 3304 2112 
Q 3559 1806 3559 1356 
Q 3559 666 3084 287 
Q 2609 -91 1734 -91 
Q 1441 -91 1130 -33 
Q 819 25 488 141 
L 488 750 
Q 750 597 1062 519 
Q 1375 441 1716 441 
Q 2309 441 2620 675 
Q 2931 909 2931 1356 
Q 2931 1769 2642 2001 
Q 2353 2234 1838 2234 
L 1294 2234 
L 1294 2753 
L 1863 2753 
Q 2328 2753 2575 2939 
Q 2822 3125 2822 3475 
Q 2822 3834 2567 4026 
Q 2313 4219 1838 4219 
Q 1578 4219 1281 4162 
Q 984 4106 628 3988 
L 628 4550 
Q 988 4650 1302 4700 
Q 1616 4750 1894 4750 
Q 2613 4750 3031 4423 
Q 3450 4097 3450 3541 
Q 3450 3153 3228 2886 
Q 3006 2619 2597 2516 
z
" transform="scale(0.015625)"/>
       </defs>
       <use xlink:href="#DejaVuSans-33"/>
       <use xlink:href="#DejaVuSans-30" transform="translate(63.623047 0)"/>
       <use xlink:href="#DejaVuSans-30" transform="translate(127.246094 0)"/>
      </g>
     </g>
    </g>
    <g id="xtick_5">
     <g id="line2d_9">
      <path d="M 253.282192 307.584 
L 253.282192 41.472 
" clip-path="url(#p681f790f55)" style="fill: none; stroke-dasharray: 2.96,1.28; stroke-dashoffset: 0; stroke: #b0b0b0; stroke-opacity: 0.7; stroke-width: 0.8"/>
     </g>
     <g id="line2d_10">
      <g>
       <use xlink:href="#m94e055e197" x="253.282192" y="307.584" style="stroke: #000000; stroke-width: 0.8"/>
      </g>
     </g>
     <g id="text_5">
      <!-- 400 -->
      <g transform="translate(243.738442 322.182437) scale(0.1 -0.1)">
       <defs>
        <path id="DejaVuSans-34" d="M 2419 4116 
L 825 1625 
L 2419 1625 
L 2419 4116 
z
M 2253 4666 
L 3047 4666 
L 3047 1625 
L 3713 1625 
L 3713 1100 
L 3047 1100 
L 3047 0 
L 2419 0 
L 2419 1100 
L 313 1100 
L 313 1709 
L 2253 4666 
z
" transform="scale(0.015625)"/>
       </defs>
       <use xlink:href="#DejaVuSans-34"/>
       <use xlink:href="#DejaVuSans-30" transform="translate(63.623047 0)"/>
       <use xlink:href="#DejaVuSans-30" transform="translate(127.246094 0)"/>
      </g>
     </g>
    </g>
    <g id="xtick_6">
     <g id="line2d_11">
      <path d="M 302.20274 307.584 
L 302.20274 41.472 
" clip-path="url(#p681f790f55)" style="fill: none; stroke-dasharray: 2.96,1.28; stroke-dashoffset: 0; stroke: #b0b0b0; stroke-opacity: 0.7; stroke-width: 0.8"/>
     </g>
     <g id="line2d_12">
      <g>
       <use xlink:href="#m94e055e197" x="302.20274" y="307.584" style="stroke: #000000; stroke-width: 0.8"/>
      </g>
     </g>
     <g id="text_6">
      <!-- 500 -->
      <g transform="translate(292.65899 322.182437) scale(0.1 -0.1)">
       <defs>
        <path id="DejaVuSans-35" d="M 691 4666 
L 3169 4666 
L 3169 4134 
L 1269 4134 
L 1269 2991 
Q 1406 3038 1543 3061 
Q 1681 3084 1819 3084 
Q 2600 3084 3056 2656 
Q 3513 2228 3513 1497 
Q 3513 744 3044 326 
Q 2575 -91 1722 -91 
Q 1428 -91 1123 -41 
Q 819 9 494 109 
L 494 744 
Q 775 591 1075 516 
Q 1375 441 1709 441 
Q 2250 441 2565 725 
Q 2881 1009 2881 1497 
Q 2881 1984 2565 2268 
Q 2250 2553 1709 2553 
Q 1456 2553 1204 2497 
Q 953 2441 691 2322 
L 691 4666 
z
" transform="scale(0.015625)"/>
       </defs>
       <use xlink:href="#DejaVuSans-35"/>
       <use xlink:href="#DejaVuSans-30" transform="translate(63.623047 0)"/>
       <use xlink:href="#DejaVuSans-30" transform="translate(127.246094 0)"/>
      </g>
     </g>
    </g>
    <g id="xtick_7">
     <g id="line2d_13">
      <path d="M 351.123288 307.584 
L 351.123288 41.472 
" clip-path="url(#p681f790f55)" style="fill: none; stroke-dasharray: 2.96,1.28; stroke-dashoffset: 0; stroke: #b0b0b0; stroke-opacity: 0.7; stroke-width: 0.8"/>
     </g>
     <g id="line2d_14">
      <g>
       <use xlink:href="#m94e055e197" x="351.123288" y="307.584" style="stroke: #000000; stroke-width: 0.8"/>
      </g>
     </g>
     <g id="text_7">
      <!-- 600 -->
      <g transform="translate(341.579538 322.182437) scale(0.1 -0.1)">
       <defs>
        <path id="DejaVuSans-36" d="M 2113 2584 
Q 1688 2584 1439 2293 
Q 1191 2003 1191 1497 
Q 1191 994 1439 701 
Q 1688 409 2113 409 
Q 2538 409 2786 701 
Q 3034 994 3034 1497 
Q 3034 2003 2786 2293 
Q 2538 2584 2113 2584 
z
M 3366 4563 
L 3366 3988 
Q 3128 4100 2886 4159 
Q 2644 4219 2406 4219 
Q 1781 4219 1451 3797 
Q 1122 3375 1075 2522 
Q 1259 2794 1537 2939 
Q 1816 3084 2150 3084 
Q 2853 3084 3261 2657 
Q 3669 2231 3669 1497 
Q 3669 778 3244 343 
Q 2819 -91 2113 -91 
Q 1303 -91 875 529 
Q 447 1150 447 2328 
Q 447 3434 972 4092 
Q 1497 4750 2381 4750 
Q 2619 4750 2861 4703 
Q 3103 4656 3366 4563 
z
" transform="scale(0.015625)"/>
       </defs>
       <use xlink:href="#DejaVuSans-36"/>
       <use xlink:href="#DejaVuSans-30" transform="translate(63.623047 0)"/>
       <use xlink:href="#DejaVuSans-30" transform="translate(127.246094 0)"/>
      </g>
     </g>
    </g>
    <g id="xtick_8">
     <g id="line2d_15">
      <path d="M 400.043836 307.584 
L 400.043836 41.472 
" clip-path="url(#p681f790f55)" style="fill: none; stroke-dasharray: 2.96,1.28; stroke-dashoffset: 0; stroke: #b0b0b0; stroke-opacity: 0.7; stroke-width: 0.8"/>
     </g>
     <g id="line2d_16">
      <g>
       <use xlink:href="#m94e055e197" x="400.043836" y="307.584" style="stroke: #000000; stroke-width: 0.8"/>
      </g>
     </g>
     <g id="text_8">
      <!-- 700 -->
      <g transform="translate(390.500086 322.182437) scale(0.1 -0.1)">
       <defs>
        <path id="DejaVuSans-37" d="M 525 4666 
L 3525 4666 
L 3525 4397 
L 1831 0 
L 1172 0 
L 2766 4134 
L 525 4134 
L 525 4666 
z
" transform="scale(0.015625)"/>
       </defs>
       <use xlink:href="#DejaVuSans-37"/>
       <use xlink:href="#DejaVuSans-30" transform="translate(63.623047 0)"/>
       <use xlink:href="#DejaVuSans-30" transform="translate(127.246094 0)"/>
      </g>
     </g>
    </g>
    <g id="text_9">
     <!-- Training steps -->
     <g transform="translate(201.424844 335.860562) scale(0.1 -0.1)">
      <defs>
       <path id="DejaVuSans-54" d="M -19 4666 
L 3928 4666 
L 3928 4134 
L 2272 4134 
L 2272 0 
L 1638 0 
L 1638 4134 
L -19 4134 
L -19 4666 
z
" transform="scale(0.015625)"/>
       <path id="DejaVuSans-72" d="M 2631 2963 
Q 2534 3019 2420 3045 
Q 2306 3072 2169 3072 
Q 1681 3072 1420 2755 
Q 1159 2438 1159 1844 
L 1159 0 
L 581 0 
L 581 3500 
L 1159 3500 
L 1159 2956 
Q 1341 3275 1631 3429 
Q 1922 3584 2338 3584 
Q 2397 3584 2469 3576 
Q 2541 3569 2628 3553 
L 2631 2963 
z
" transform="scale(0.015625)"/>
       <path id="DejaVuSans-61" d="M 2194 1759 
Q 1497 1759 1228 1600 
Q 959 1441 959 1056 
Q 959 750 1161 570 
Q 1363 391 1709 391 
Q 2188 391 2477 730 
Q 2766 1069 2766 1631 
L 2766 1759 
L 2194 1759 
z
M 3341 1997 
L 3341 0 
L 2766 0 
L 2766 531 
Q 2569 213 2275 61 
Q 1981 -91 1556 -91 
Q 1019 -91 701 211 
Q 384 513 384 1019 
Q 384 1609 779 1909 
Q 1175 2209 1959 2209 
L 2766 2209 
L 2766 2266 
Q 2766 2663 2505 2880 
Q 2244 3097 1772 3097 
Q 1472 3097 1187 3025 
Q 903 2953 641 2809 
L 641 3341 
Q 956 3463 1253 3523 
Q 1550 3584 1831 3584 
Q 2591 3584 2966 3190 
Q 3341 2797 3341 1997 
z
" transform="scale(0.015625)"/>
       <path id="DejaVuSans-69" d="M 603 3500 
L 1178 3500 
L 1178 0 
L 603 0 
L 603 3500 
z
M 603 4863 
L 1178 4863 
L 1178 4134 
L 603 4134 
L 603 4863 
z
" transform="scale(0.015625)"/>
       <path id="DejaVuSans-6e" d="M 3513 2113 
L 3513 0 
L 2938 0 
L 2938 2094 
Q 2938 2591 2744 2837 
Q 2550 3084 2163 3084 
Q 1697 3084 1428 2787 
Q 1159 2491 1159 1978 
L 1159 0 
L 581 0 
L 581 3500 
L 1159 3500 
L 1159 2956 
Q 1366 3272 1645 3428 
Q 1925 3584 2291 3584 
Q 2894 3584 3203 3211 
Q 3513 2838 3513 2113 
z
" transform="scale(0.015625)"/>
       <path id="DejaVuSans-67" d="M 2906 1791 
Q 2906 2416 2648 2759 
Q 2391 3103 1925 3103 
Q 1463 3103 1205 2759 
Q 947 2416 947 1791 
Q 947 1169 1205 825 
Q 1463 481 1925 481 
Q 2391 481 2648 825 
Q 2906 1169 2906 1791 
z
M 3481 434 
Q 3481 -459 3084 -895 
Q 2688 -1331 1869 -1331 
Q 1566 -1331 1297 -1286 
Q 1028 -1241 775 -1147 
L 775 -588 
Q 1028 -725 1275 -790 
Q 1522 -856 1778 -856 
Q 2344 -856 2625 -561 
Q 2906 -266 2906 331 
L 2906 616 
Q 2728 306 2450 153 
Q 2172 0 1784 0 
Q 1141 0 747 490 
Q 353 981 353 1791 
Q 353 2603 747 3093 
Q 1141 3584 1784 3584 
Q 2172 3584 2450 3431 
Q 2728 3278 2906 2969 
L 2906 3500 
L 3481 3500 
L 3481 434 
z
" transform="scale(0.015625)"/>
       <path id="DejaVuSans-20" transform="scale(0.015625)"/>
       <path id="DejaVuSans-73" d="M 2834 3397 
L 2834 2853 
Q 2591 2978 2328 3040 
Q 2066 3103 1784 3103 
Q 1356 3103 1142 2972 
Q 928 2841 928 2578 
Q 928 2378 1081 2264 
Q 1234 2150 1697 2047 
L 1894 2003 
Q 2506 1872 2764 1633 
Q 3022 1394 3022 966 
Q 3022 478 2636 193 
Q 2250 -91 1575 -91 
Q 1294 -91 989 -36 
Q 684 19 347 128 
L 347 722 
Q 666 556 975 473 
Q 1284 391 1588 391 
Q 1994 391 2212 530 
Q 2431 669 2431 922 
Q 2431 1156 2273 1281 
Q 2116 1406 1581 1522 
L 1381 1569 
Q 847 1681 609 1914 
Q 372 2147 372 2553 
Q 372 3047 722 3315 
Q 1072 3584 1716 3584 
Q 2034 3584 2315 3537 
Q 2597 3491 2834 3397 
z
" transform="scale(0.015625)"/>
       <path id="DejaVuSans-74" d="M 1172 4494 
L 1172 3500 
L 2356 3500 
L 2356 3053 
L 1172 3053 
L 1172 1153 
Q 1172 725 1289 603 
Q 1406 481 1766 481 
L 2356 481 
L 2356 0 
L 1766 0 
Q 1100 0 847 248 
Q 594 497 594 1153 
L 594 3053 
L 172 3053 
L 172 3500 
L 594 3500 
L 594 4494 
L 1172 4494 
z
" transform="scale(0.015625)"/>
       <path id="DejaVuSans-65" d="M 3597 1894 
L 3597 1613 
L 953 1613 
Q 991 1019 1311 708 
Q 1631 397 2203 397 
Q 2534 397 2845 478 
Q 3156 559 3463 722 
L 3463 178 
Q 3153 47 2828 -22 
Q 2503 -91 2169 -91 
Q 1331 -91 842 396 
Q 353 884 353 1716 
Q 353 2575 817 3079 
Q 1281 3584 2069 3584 
Q 2775 3584 3186 3129 
Q 3597 2675 3597 1894 
z
M 3022 2063 
Q 3016 2534 2758 2815 
Q 2500 3097 2075 3097 
Q 1594 3097 1305 2825 
Q 1016 2553 972 2059 
L 3022 2063 
z
" transform="scale(0.015625)"/>
       <path id="DejaVuSans-70" d="M 1159 525 
L 1159 -1331 
L 581 -1331 
L 581 3500 
L 1159 3500 
L 1159 2969 
Q 1341 3281 1617 3432 
Q 1894 3584 2278 3584 
Q 2916 3584 3314 3078 
Q 3713 2572 3713 1747 
Q 3713 922 3314 415 
Q 2916 -91 2278 -91 
Q 1894 -91 1617 61 
Q 1341 213 1159 525 
z
M 3116 1747 
Q 3116 2381 2855 2742 
Q 2594 3103 2138 3103 
Q 1681 3103 1420 2742 
Q 1159 2381 1159 1747 
Q 1159 1113 1420 752 
Q 1681 391 2138 391 
Q 2594 391 2855 752 
Q 3116 1113 3116 1747 
z
" transform="scale(0.015625)"/>
      </defs>
      <use xlink:href="#DejaVuSans-54"/>
      <use xlink:href="#DejaVuSans-72" transform="translate(46.333984 0)"/>
      <use xlink:href="#DejaVuSans-61" transform="translate(87.447266 0)"/>
      <use xlink:href="#DejaVuSans-69" transform="translate(148.726562 0)"/>
      <use xlink:href="#DejaVuSans-6e" transform="translate(176.509766 0)"/>
      <use xlink:href="#DejaVuSans-69" transform="translate(239.888672 0)"/>
      <use xlink:href="#DejaVuSans-6e" transform="translate(267.671875 0)"/>
      <use xlink:href="#DejaVuSans-67" transform="translate(331.050781 0)"/>
      <use xlink:href="#DejaVuSans-20" transform="translate(394.527344 0)"/>
      <use xlink:href="#DejaVuSans-73" transform="translate(426.314453 0)"/>
      <use xlink:href="#DejaVuSans-74" transform="translate(478.414062 0)"/>
      <use xlink:href="#DejaVuSans-65" transform="translate(517.623047 0)"/>
      <use xlink:href="#DejaVuSans-70" transform="translate(579.146484 0)"/>
      <use xlink:href="#DejaVuSans-73" transform="translate(642.623047 0)"/>
     </g>
    </g>
   </g>
   <g id="matplotlib.axis_2">
    <g id="ytick_1">
     <g id="line2d_17">
      <path d="M 57.6 307.584 
L 414.72 307.584 
" clip-path="url(#p681f790f55)" style="fill: none; stroke-dasharray: 2.96,1.28; stroke-dashoffset: 0; stroke: #b0b0b0; stroke-opacity: 0.7; stroke-width: 0.8"/>
     </g>
     <g id="line2d_18">
      <defs>
       <path id="m78b064a86a" d="M 0 0 
L -3.5 0 
" style="stroke: #000000; stroke-width: 0.8"/>
      </defs>
      <g>
       <use xlink:href="#m78b064a86a" x="57.6" y="307.584" style="stroke: #000000; stroke-width: 0.8"/>
      </g>
     </g>
     <g id="text_10">
      <!-- 0.0 -->
      <g transform="translate(34.696875 311.383219) scale(0.1 -0.1)">
       <defs>
        <path id="DejaVuSans-2e" d="M 684 794 
L 1344 794 
L 1344 0 
L 684 0 
L 684 794 
z
" transform="scale(0.015625)"/>
       </defs>
       <use xlink:href="#DejaVuSans-30"/>
       <use xlink:href="#DejaVuSans-2e" transform="translate(63.623047 0)"/>
       <use xlink:href="#DejaVuSans-30" transform="translate(95.410156 0)"/>
      </g>
     </g>
    </g>
    <g id="ytick_2">
     <g id="line2d_19">
      <path d="M 57.6 254.122749 
L 414.72 254.122749 
" clip-path="url(#p681f790f55)" style="fill: none; stroke-dasharray: 2.96,1.28; stroke-dashoffset: 0; stroke: #b0b0b0; stroke-opacity: 0.7; stroke-width: 0.8"/>
     </g>
     <g id="line2d_20">
      <g>
       <use xlink:href="#m78b064a86a" x="57.6" y="254.122749" style="stroke: #000000; stroke-width: 0.8"/>
      </g>
     </g>
     <g id="text_11">
      <!-- 0.5 -->
      <g transform="translate(34.696875 257.921967) scale(0.1 -0.1)">
       <use xlink:href="#DejaVuSans-30"/>
       <use xlink:href="#DejaVuSans-2e" transform="translate(63.623047 0)"/>
       <use xlink:href="#DejaVuSans-35" transform="translate(95.410156 0)"/>
      </g>
     </g>
    </g>
    <g id="ytick_3">
     <g id="line2d_21">
      <path d="M 57.6 200.661497 
L 414.72 200.661497 
" clip-path="url(#p681f790f55)" style="fill: none; stroke-dasharray: 2.96,1.28; stroke-dashoffset: 0; stroke: #b0b0b0; stroke-opacity: 0.7; stroke-width: 0.8"/>
     </g>
     <g id="line2d_22">
      <g>
       <use xlink:href="#m78b064a86a" x="57.6" y="200.661497" style="stroke: #000000; stroke-width: 0.8"/>
      </g>
     </g>
     <g id="text_12">
      <!-- 1.0 -->
      <g transform="translate(34.696875 204.460716) scale(0.1 -0.1)">
       <use xlink:href="#DejaVuSans-31"/>
       <use xlink:href="#DejaVuSans-2e" transform="translate(63.623047 0)"/>
       <use xlink:href="#DejaVuSans-30" transform="translate(95.410156 0)"/>
      </g>
     </g>
    </g>
    <g id="ytick_4">
     <g id="line2d_23">
      <path d="M 57.6 147.200246 
L 414.72 147.200246 
" clip-path="url(#p681f790f55)" style="fill: none; stroke-dasharray: 2.96,1.28; stroke-dashoffset: 0; stroke: #b0b0b0; stroke-opacity: 0.7; stroke-width: 0.8"/>
     </g>
     <g id="line2d_24">
      <g>
       <use xlink:href="#m78b064a86a" x="57.6" y="147.200246" style="stroke: #000000; stroke-width: 0.8"/>
      </g>
     </g>
     <g id="text_13">
      <!-- 1.5 -->
      <g transform="translate(34.696875 150.999464) scale(0.1 -0.1)">
       <use xlink:href="#DejaVuSans-31"/>
       <use xlink:href="#DejaVuSans-2e" transform="translate(63.623047 0)"/>
       <use xlink:href="#DejaVuSans-35" transform="translate(95.410156 0)"/>
      </g>
     </g>
    </g>
    <g id="ytick_5">
     <g id="line2d_25">
      <path d="M 57.6 93.738994 
L 414.72 93.738994 
" clip-path="url(#p681f790f55)" style="fill: none; stroke-dasharray: 2.96,1.28; stroke-dashoffset: 0; stroke: #b0b0b0; stroke-opacity: 0.7; stroke-width: 0.8"/>
     </g>
     <g id="line2d_26">
      <g>
       <use xlink:href="#m78b064a86a" x="57.6" y="93.738994" style="stroke: #000000; stroke-width: 0.8"/>
      </g>
     </g>
     <g id="text_14">
      <!-- 2.0 -->
      <g transform="translate(34.696875 97.538213) scale(0.1 -0.1)">
       <use xlink:href="#DejaVuSans-32"/>
       <use xlink:href="#DejaVuSans-2e" transform="translate(63.623047 0)"/>
       <use xlink:href="#DejaVuSans-30" transform="translate(95.410156 0)"/>
      </g>
     </g>
    </g>
    <g id="text_15">
     <!-- Training loss -->
     <g transform="translate(28.617187 205.500656) rotate(-90) scale(0.1 -0.1)">
      <defs>
       <path id="DejaVuSans-6c" d="M 603 4863 
L 1178 4863 
L 1178 0 
L 603 0 
L 603 4863 
z
" transform="scale(0.015625)"/>
       <path id="DejaVuSans-6f" d="M 1959 3097 
Q 1497 3097 1228 2736 
Q 959 2375 959 1747 
Q 959 1119 1226 758 
Q 1494 397 1959 397 
Q 2419 397 2687 759 
Q 2956 1122 2956 1747 
Q 2956 2369 2687 2733 
Q 2419 3097 1959 3097 
z
M 1959 3584 
Q 2709 3584 3137 3096 
Q 3566 2609 3566 1747 
Q 3566 888 3137 398 
Q 2709 -91 1959 -91 
Q 1206 -91 779 398 
Q 353 888 353 1747 
Q 353 2609 779 3096 
Q 1206 3584 1959 3584 
z
" transform="scale(0.015625)"/>
      </defs>
      <use xlink:href="#DejaVuSans-54"/>
      <use xlink:href="#DejaVuSans-72" transform="translate(46.333984 0)"/>
      <use xlink:href="#DejaVuSans-61" transform="translate(87.447266 0)"/>
      <use xlink:href="#DejaVuSans-69" transform="translate(148.726562 0)"/>
      <use xlink:href="#DejaVuSans-6e" transform="translate(176.509766 0)"/>
      <use xlink:href="#DejaVuSans-69" transform="translate(239.888672 0)"/>
      <use xlink:href="#DejaVuSans-6e" transform="translate(267.671875 0)"/>
      <use xlink:href="#DejaVuSans-67" transform="translate(331.050781 0)"/>
      <use xlink:href="#DejaVuSans-20" transform="translate(394.527344 0)"/>
      <use xlink:href="#DejaVuSans-6c" transform="translate(426.314453 0)"/>
      <use xlink:href="#DejaVuSans-6f" transform="translate(454.097656 0)"/>
      <use xlink:href="#DejaVuSans-73" transform="translate(515.279297 0)"/>
      <use xlink:href="#DejaVuSans-73" transform="translate(567.378906 0)"/>
     </g>
    </g>
   </g>
   <g id="line2d_27">
    <path d="M 58.089205 96.241852 
L 59.556822 129.903317 
L 61.024438 157.48015 
L 62.002849 172.933464 
L 62.492055 187.499216 
L 65.427288 206.057621 
L 66.894904 216.443817 
L 67.38411 221.531582 
L 67.873315 218.922961 
L 68.362521 217.825207 
L 68.851726 216.345283 
L 69.340932 216.869257 
L 69.830137 218.473691 
L 70.319342 221.066474 
L 70.808548 224.549679 
L 72.276164 237.545147 
L 73.254575 232.474078 
L 73.743781 232.038967 
L 74.232986 232.622099 
L 74.722192 233.418788 
L 75.211397 235.481812 
L 75.700603 238.741989 
L 76.679014 248.138992 
L 77.168219 243.596373 
L 77.657425 242.343448 
L 78.14663 241.480418 
L 79.125041 244.616949 
L 79.614247 246.526991 
L 80.103452 249.324977 
L 80.592658 253.214745 
L 81.571068 263.638764 
L 82.060274 259.347289 
L 82.549479 259.40867 
L 83.038685 259.668127 
L 84.017096 260.617343 
L 84.506301 262.094264 
L 84.995507 264.221966 
L 85.484712 265.479626 
L 85.973918 267.338218 
L 86.463123 269.687629 
L 86.952329 268.731773 
L 87.441534 268.278084 
L 88.419945 267.813306 
L 88.909151 267.674078 
L 89.398356 268.382187 
L 90.865973 272.256207 
L 91.355178 274.173698 
L 91.844384 274.22233 
L 92.333589 274.47146 
L 93.312 275.64715 
L 94.290411 277.192998 
L 94.779616 277.424769 
L 96.247233 281.530223 
L 96.736438 281.260281 
L 97.225644 281.162318 
L 97.714849 281.280612 
L 98.204055 281.584307 
L 99.671671 283.037793 
L 100.650082 285.370795 
L 101.139288 287.020619 
L 101.628493 287.03401 
L 102.117699 286.73664 
L 102.606904 286.674338 
L 103.09611 286.754963 
L 104.074521 287.331976 
L 105.052932 288.165815 
L 105.542137 288.87078 
L 106.031342 289.909506 
L 106.520548 290.038564 
L 107.009753 289.921506 
L 107.498959 289.991225 
L 107.988164 290.266496 
L 108.966575 291.315589 
L 109.944986 292.838696 
L 110.434192 293.688485 
L 110.923397 294.233331 
L 111.412603 294.571518 
L 111.901808 293.960489 
L 112.391014 293.892035 
L 112.880219 294.028292 
L 113.369425 294.354347 
L 114.347836 295.395341 
L 115.815452 297.401994 
L 116.304658 297.538596 
L 117.283068 297.187333 
L 118.261479 297.746107 
L 119.23989 298.693105 
L 120.707507 300.640462 
L 121.196712 299.941605 
L 121.685918 300.129576 
L 122.664329 300.273824 
L 123.64274 300.712773 
L 124.621151 301.441487 
L 125.599562 302.495458 
L 126.088767 302.527353 
L 126.577973 302.074191 
L 127.067178 302.015283 
L 127.556384 301.834071 
L 128.534795 301.801273 
L 129.513205 302.105506 
L 130.491616 302.82307 
L 130.980822 302.606267 
L 131.959233 302.829637 
L 133.426849 303.620331 
L 134.40526 304.507317 
L 135.383671 305.735541 
L 137.829699 305.048363 
L 139.297315 304.871116 
L 140.275726 305.031545 
L 140.764932 305.230727 
L 141.743342 305.071587 
L 142.721753 305.105062 
L 143.700164 305.456717 
L 145.167781 306.472846 
L 145.656986 305.90148 
L 148.103014 306.030723 
L 148.592219 306.09596 
L 155.441096 306.280825 
L 165.225205 306.55115 
L 165.225205 306.55115 
" clip-path="url(#p681f790f55)" style="fill: none; stroke: #0000ff; stroke-width: 1.5; stroke-linecap: square"/>
   </g>
   <g id="line2d_28">
    <path d="M 58.089205 55.105506 
L 59.067616 55.339097 
L 60.046027 55.832694 
L 61.513644 56.936337 
L 62.002849 57.37268 
L 62.492055 58.57298 
L 62.98126 58.653033 
L 63.959671 59.193664 
L 64.938082 59.975521 
L 66.405699 61.476839 
L 66.894904 62.048989 
L 67.38411 61.226835 
L 68.851726 60.831689 
L 70.319342 60.745664 
L 71.786959 60.837824 
L 72.276164 61.202508 
L 73.743781 60.616303 
L 75.211397 60.425963 
L 76.189808 60.512871 
L 76.679014 60.627676 
L 77.168219 60.328964 
L 78.14663 60.425666 
L 80.592658 61.270796 
L 81.571068 61.819979 
L 82.060274 61.434605 
L 84.995507 61.328164 
L 88.909151 61.215866 
L 89.887562 61.295985 
L 90.865973 61.31464 
L 92.822795 61.374863 
L 98.69326 61.280965 
L 100.650082 61.298416 
L 106.031342 61.493313 
L 107.009753 61.45643 
L 110.923397 61.479451 
L 111.901808 61.517439 
L 115.326247 61.475598 
L 116.793863 61.46996 
L 118.261479 61.469412 
L 120.707507 61.381578 
L 121.196712 61.514456 
L 122.175123 61.448367 
L 123.153534 61.424932 
L 125.599562 61.398192 
L 127.067178 61.44371 
L 130.491616 61.624883 
L 131.470027 61.558154 
L 132.937644 61.509242 
L 133.916055 61.500943 
L 136.851288 61.78559 
L 137.340493 61.849873 
L 138.318904 61.755666 
L 138.80811 61.669549 
L 142.232548 61.850331 
L 145.167781 61.825099 
L 146.146192 61.959182 
L 150.059836 62.052035 
L 150.549041 62.126223 
L 153.484274 61.550205 
L 153.973479 61.699702 
L 156.908712 61.834841 
L 159.843945 62.311037 
L 160.333151 62.170315 
L 162.289973 62.228742 
L 165.225205 62.319606 
L 166.203616 62.321153 
L 170.606466 62.664646 
L 171.095671 62.526326 
L 174.030904 62.693661 
L 175.498521 62.734448 
L 176.966137 62.869106 
L 179.90137 62.797974 
L 180.390575 62.737893 
L 181.368986 62.908702 
L 181.858192 62.795839 
L 182.836603 62.921086 
L 187.239452 63.807266 
L 189.196274 63.923031 
L 189.685479 63.995319 
L 192.131507 63.876758 
L 194.088329 63.704447 
L 194.577534 63.976363 
L 198.491178 63.900362 
L 198.980384 63.961172 
L 199.469589 64.176591 
L 201.426411 64.343254 
L 202.404822 64.479913 
L 202.894027 64.604619 
L 203.383233 64.489634 
L 203.872438 64.601562 
L 204.361644 65.009084 
L 207.296877 65.108055 
L 208.275288 65.375798 
L 209.253699 65.742247 
L 210.23211 65.294101 
L 211.210521 65.126632 
L 212.678137 65.084874 
L 213.656548 65.811967 
L 215.124164 65.743675 
L 216.102575 66.145329 
L 218.548603 67.532905 
L 219.037808 67.383356 
L 219.527014 67.093477 
L 220.505425 67.480369 
L 221.973041 68.681508 
L 222.951452 69.421795 
L 223.929863 69.915101 
L 224.419068 70.05575 
L 225.397479 69.844553 
L 226.37589 69.926008 
L 228.821918 70.813548 
L 229.311123 71.145052 
L 229.800329 71.341632 
L 230.289534 71.714314 
L 230.77874 71.472636 
L 231.267945 71.423273 
L 232.246356 71.740475 
L 233.224767 72.335896 
L 233.713973 72.887467 
L 234.203178 72.540741 
L 234.692384 72.507386 
L 235.670795 72.598545 
L 236.16 72.4757 
L 236.649205 72.741415 
L 237.138411 73.236011 
L 238.116822 74.662839 
L 238.606027 74.828285 
L 239.584438 75.853978 
L 240.073644 75.954623 
L 240.562849 76.619965 
L 241.052055 77.613429 
L 241.54126 77.502543 
L 242.030466 77.742957 
L 242.519671 78.269747 
L 243.008877 79.041885 
L 243.498082 79.450628 
L 244.476493 79.608821 
L 244.965699 79.5643 
L 245.454904 79.694646 
L 246.433315 80.685985 
L 246.922521 80.622805 
L 247.411726 80.827377 
L 247.900932 81.369393 
L 248.390137 83.434361 
L 248.879342 83.544678 
L 250.346959 84.250437 
L 250.836164 83.807659 
L 251.32537 84.425937 
L 251.814575 84.830024 
L 252.303781 85.063281 
L 252.792986 85.661892 
L 253.282192 87.357308 
L 253.771397 87.359109 
L 254.260603 87.639907 
L 256.217425 89.657012 
L 256.70663 90.861603 
L 257.195836 91.001024 
L 258.174247 93.571765 
L 258.663452 93.939174 
L 259.152658 94.625732 
L 260.620274 97.30409 
L 261.109479 97.953282 
L 261.598685 98.905207 
L 262.08789 100.461116 
L 263.066301 102.439367 
L 263.555507 101.611464 
L 264.044712 101.348135 
L 264.533918 101.4958 
L 266.49074 102.959875 
L 267.469151 107.010166 
L 267.958356 107.46041 
L 268.447562 106.817364 
L 268.936767 106.992745 
L 269.425973 107.802324 
L 269.915178 109.082533 
L 271.872 115.579979 
L 272.361205 118.051285 
L 272.850411 118.60687 
L 273.339616 118.753652 
L 273.828822 118.358379 
L 274.318027 118.569003 
L 274.807233 119.29608 
L 275.785644 122.007734 
L 276.764055 124.817095 
L 277.25326 125.841659 
L 277.742466 126.252392 
L 278.231671 127.03869 
L 278.720877 127.58145 
L 279.210082 127.402349 
L 279.699288 128.021398 
L 280.188493 129.364908 
L 281.166904 133.425048 
L 282.145315 137.636563 
L 282.634521 138.011652 
L 283.123726 138.057378 
L 283.612932 139.139917 
L 284.591342 139.950769 
L 285.080548 140.932926 
L 285.569753 142.603883 
L 286.548164 147.130128 
L 287.03737 149.553724 
L 287.526575 151.304327 
L 288.015781 151.20894 
L 288.504986 151.256851 
L 289.483397 153.660769 
L 289.972603 153.992992 
L 290.461808 154.927295 
L 290.951014 156.411435 
L 292.41863 162.341556 
L 292.907836 162.540288 
L 293.397041 162.335623 
L 293.886247 162.902059 
L 294.375452 164.443741 
L 294.864658 164.520796 
L 295.353863 166.006499 
L 296.332274 170.725254 
L 297.310685 176.362315 
L 297.79989 176.91009 
L 298.289096 177.244554 
L 298.778301 177.143148 
L 299.267507 177.319311 
L 300.245918 179.794617 
L 300.735123 180.701655 
L 301.224329 182.065718 
L 301.713534 184.05808 
L 302.20274 188.366445 
L 303.181151 186.431346 
L 304.159562 184.627166 
L 305.137973 187.90026 
L 305.627178 188.097192 
L 306.116384 190.230765 
L 306.605589 193.091941 
L 307.094795 197.45533 
L 307.584 197.37597 
L 308.073205 197.763531 
L 309.540822 200.001803 
L 310.030027 201.398286 
L 311.497644 209.260578 
L 311.986849 209.295014 
L 312.476055 208.532401 
L 312.96526 208.456764 
L 313.454466 208.889653 
L 314.432877 210.080525 
L 314.922082 210.487264 
L 316.389699 219.9253 
L 316.878904 220.175192 
L 317.36811 219.005854 
L 317.857315 218.54672 
L 318.346521 218.819043 
L 318.835726 219.568004 
L 319.814137 221.901438 
L 320.303342 223.190981 
L 320.792548 225.70378 
L 321.281753 229.005605 
L 321.770959 228.082489 
L 322.260164 228.121885 
L 322.74937 228.786743 
L 323.238575 230.07766 
L 324.216986 234.039002 
L 325.684603 241.139998 
L 326.173808 244.548301 
L 327.152219 242.807532 
L 327.641425 243.160463 
L 328.13063 244.102888 
L 329.109041 247.265791 
L 330.576658 252.794742 
L 331.065863 254.221995 
L 332.044274 255.173196 
L 333.51189 256.957195 
L 334.001096 257.890321 
L 335.957918 262.825339 
L 336.447123 262.468335 
L 337.425534 263.327903 
L 337.91474 263.119978 
L 338.893151 265.079493 
L 339.871562 267.870814 
L 340.849973 271.207846 
L 342.317589 271.80411 
L 342.806795 272.362938 
L 343.296 272.310756 
L 343.785205 273.184747 
L 344.763616 276.074818 
L 345.742027 279.738236 
L 346.231233 280.654215 
L 346.720438 280.461225 
L 347.209644 280.10469 
L 347.698849 281.002099 
L 348.188055 281.440852 
L 348.67726 284.520645 
L 349.655671 282.689645 
L 350.144877 282.161867 
L 351.123288 281.495744 
L 352.101699 279.7638 
L 352.590904 279.024812 
L 353.569315 280.630378 
L 354.058521 281.628428 
L 354.547726 282.916634 
L 355.036932 284.720284 
L 355.526137 286.965292 
L 356.015342 288.532194 
L 356.504548 289.50843 
L 357.482959 292.277546 
L 357.972164 293.942688 
L 358.46137 291.65917 
L 358.950575 292.126657 
L 359.439781 292.420064 
L 360.418192 294.212292 
L 360.907397 294.698549 
L 361.885808 294.882538 
L 363.353425 295.444167 
L 363.84263 295.918108 
L 365.310247 298.421486 
L 365.799452 298.398821 
L 366.777863 297.791143 
L 367.267068 297.696587 
L 368.245479 297.800345 
L 368.734685 297.937091 
L 369.713096 299.2032 
L 370.202301 299.840321 
L 370.691507 299.558003 
L 371.669918 299.863097 
L 372.648329 300.503033 
L 374.115945 301.696723 
L 375.094356 303.312433 
L 375.583562 303.253043 
L 376.561973 302.258187 
L 377.540384 301.675586 
L 378.518795 301.459067 
L 379.497205 301.553015 
L 379.986411 301.804959 
L 380.475616 301.676842 
L 380.964822 301.724526 
L 381.943233 302.323552 
L 382.921644 303.212851 
L 384.38926 304.997572 
L 384.878466 305.670788 
L 385.367671 304.616786 
L 386.835288 304.695913 
L 388.302904 304.782046 
L 389.770521 304.905974 
L 390.259726 304.829585 
L 391.238137 304.970198 
L 391.727342 304.975708 
L 392.216548 305.231655 
L 393.684164 305.11247 
L 395.640986 305.099911 
L 396.130192 305.139653 
L 409.827945 305.45252 
L 414.72 305.640256 
L 414.72 305.640256 
" clip-path="url(#p681f790f55)" style="fill: none; stroke: #ff0000; stroke-width: 1.5; stroke-linecap: square"/>
   </g>
   <g id="line2d_29">
    <path d="M 58.089205 75.156848 
L 59.067616 88.5262 
L 60.046027 98.540872 
L 61.024438 106.007511 
L 62.002849 111.732763 
L 62.492055 119.957663 
L 62.98126 119.198402 
L 63.470466 119.725635 
L 63.959671 120.815155 
L 64.938082 124.168344 
L 65.916493 128.307624 
L 66.894904 134.520208 
L 67.38411 140.181717 
L 67.873315 139.43549 
L 68.362521 139.251329 
L 68.851726 139.50285 
L 69.340932 139.557023 
L 70.319342 142.37593 
L 70.808548 144.757016 
L 71.786959 151.30755 
L 72.276164 152.586966 
L 72.76537 152.280295 
L 73.254575 151.576146 
L 73.743781 151.976744 
L 74.232986 153.321591 
L 74.722192 155.401569 
L 75.700603 161.274464 
L 76.189808 164.802656 
L 76.679014 169.359394 
L 77.168219 170.43083 
L 77.657425 168.851636 
L 78.14663 168.091123 
L 78.635836 167.944159 
L 79.125041 168.278772 
L 79.614247 169.306516 
L 80.103452 169.976767 
L 80.592658 172.479216 
L 81.571068 180.079824 
L 82.060274 185.013167 
L 82.549479 181.878654 
L 83.52789 178.995045 
L 84.017096 178.589789 
L 84.506301 179.364397 
L 84.995507 181.07078 
L 85.973918 186.55902 
L 86.952329 194.116517 
L 87.441534 190.482755 
L 87.93074 188.362401 
L 88.419945 187.336538 
L 88.909151 187.248483 
L 89.398356 187.91975 
L 89.887562 191.433969 
L 90.376767 193.650386 
L 90.865973 198.660351 
L 91.355178 204.946486 
L 91.844384 204.936544 
L 92.333589 203.562897 
L 92.822795 202.716837 
L 93.312 203.531194 
L 93.801205 204.565528 
L 94.290411 206.286857 
L 94.779616 209.241391 
L 95.758027 217.89045 
L 96.247233 223.183457 
L 96.736438 220.804943 
L 97.225644 219.31033 
L 97.714849 218.557338 
L 98.204055 218.956736 
L 98.69326 220.067323 
L 99.671671 223.562366 
L 100.160877 228.53439 
L 100.650082 232.259615 
L 101.139288 236.844249 
L 101.628493 238.313638 
L 102.117699 236.632972 
L 102.606904 235.495638 
L 103.09611 234.695708 
L 103.585315 235.170649 
L 104.074521 236.083903 
L 104.563726 237.253203 
L 105.052932 239.338083 
L 106.031342 245.475608 
L 106.520548 246.135335 
L 107.498959 245.099743 
L 107.988164 245.428757 
L 108.47737 246.621654 
L 108.966575 248.432383 
L 109.944986 253.304489 
L 110.923397 262.254498 
L 111.412603 262.518431 
L 111.901808 260.923339 
L 112.391014 260.01486 
L 112.880219 259.549272 
L 113.369425 259.354056 
L 113.85863 260.192804 
L 114.347836 261.589414 
L 114.837041 263.704597 
L 116.304658 271.984274 
L 116.793863 269.394369 
L 117.772274 267.853861 
L 118.261479 268.212986 
L 118.750685 269.27369 
L 119.23989 270.908855 
L 120.218301 275.342391 
L 120.707507 278.854366 
L 121.196712 278.21046 
L 121.685918 277.162811 
L 122.175123 276.618795 
L 122.664329 276.54839 
L 123.153534 276.916984 
L 123.64274 277.617216 
L 124.131945 279.541264 
L 124.621151 281.92624 
L 125.599562 288.863038 
L 126.088767 288.552475 
L 127.067178 284.287387 
L 128.045589 283.198181 
L 128.534795 283.656343 
L 129.024 284.63844 
L 129.513205 286.1102 
L 130.491616 290.337497 
L 130.980822 290.011318 
L 131.470027 289.050296 
L 131.959233 288.916185 
L 132.448438 289.280124 
L 132.937644 290.075548 
L 133.426849 291.255711 
L 133.916055 292.76822 
L 134.894466 297.714615 
L 135.383671 300.89352 
L 136.851288 296.91558 
L 137.340493 296.012572 
L 137.829699 295.885317 
L 138.318904 295.884758 
L 138.80811 296.33518 
L 139.297315 297.194697 
L 139.786521 298.419064 
L 140.275726 299.998622 
L 140.764932 298.814094 
L 141.743342 298.233107 
L 142.232548 298.448533 
L 142.721753 298.979225 
L 143.210959 299.817273 
L 144.18937 302.34707 
L 144.678575 304.046569 
L 145.167781 307.797983 
L 145.656986 305.839309 
L 146.146192 304.754226 
L 146.635397 303.194003 
L 147.613808 299.66522 
L 148.103014 298.263261 
L 148.592219 297.363632 
L 149.57063 294.37516 
L 150.549041 293.495827 
L 155.441096 293.216052 
L 160.333151 293.678048 
L 165.225205 295.024032 
L 170.11726 297.396219 
L 175.009315 300.936826 
L 179.90137 305.788066 
L 179.90137 305.788066 
" clip-path="url(#p681f790f55)" style="fill: none; stroke: #008000; stroke-width: 1.5; stroke-linecap: square"/>
   </g>
   <g id="line2d_30">
    <path d="M 58.089205 75.373571 
L 59.067616 87.100278 
L 60.046027 95.331286 
L 61.024438 100.833916 
L 62.002849 104.375492 
L 62.492055 109.151878 
L 62.98126 108.385882 
L 63.470466 108.20012 
L 63.959671 108.298652 
L 64.448877 108.620944 
L 65.916493 109.982722 
L 66.894904 113.016486 
L 67.38411 115.804662 
L 67.873315 115.005941 
L 68.362521 114.665018 
L 69.340932 114.724225 
L 70.808548 118.154342 
L 71.297753 119.993703 
L 71.786959 122.273224 
L 72.276164 122.416567 
L 73.254575 121.717276 
L 73.743781 121.860135 
L 74.232986 122.570752 
L 74.722192 123.690162 
L 75.700603 126.999099 
L 76.189808 128.69993 
L 76.679014 131.275121 
L 77.168219 131.283219 
L 77.657425 130.666922 
L 78.14663 130.428024 
L 78.635836 130.494207 
L 79.125041 130.861973 
L 79.614247 131.052252 
L 80.103452 131.920925 
L 80.592658 133.029789 
L 81.081863 134.546504 
L 82.060274 138.415891 
L 82.549479 136.445215 
L 83.038685 135.156855 
L 84.017096 133.821113 
L 84.506301 133.672256 
L 84.995507 134.01268 
L 85.484712 134.815413 
L 85.973918 136.009348 
L 86.463123 137.54826 
L 86.952329 139.80091 
L 87.441534 137.733516 
L 87.93074 136.31327 
L 88.419945 135.581565 
L 88.909151 135.35449 
L 89.398356 135.661108 
L 89.887562 136.58085 
L 90.376767 137.864607 
L 90.865973 140.068255 
L 91.355178 142.919251 
L 91.844384 141.909633 
L 92.333589 141.290723 
L 92.822795 141.017576 
L 93.312 140.911237 
L 93.801205 141.26546 
L 94.290411 142.212876 
L 94.779616 143.751314 
L 95.758027 148.133591 
L 96.247233 150.861614 
L 96.736438 148.560562 
L 97.225644 147.620548 
L 97.714849 147.296239 
L 98.204055 147.320112 
L 98.69326 147.715535 
L 99.671671 149.404169 
L 101.139288 154.43056 
L 101.628493 154.106037 
L 102.117699 153.484657 
L 103.09611 152.809735 
L 103.585315 153.139948 
L 105.052932 154.765518 
L 106.031342 156.699052 
L 106.520548 155.814623 
L 107.009753 155.980634 
L 107.498959 156.395676 
L 107.988164 156.377167 
L 108.47737 156.819916 
L 108.966575 157.490581 
L 109.944986 159.468647 
L 110.923397 162.582292 
L 111.412603 162.90521 
L 111.901808 162.387904 
L 112.391014 162.240221 
L 112.880219 162.362083 
L 113.85863 162.968634 
L 114.347836 163.734251 
L 114.837041 164.125702 
L 115.326247 164.940896 
L 116.304658 167.303562 
L 116.793863 167.039933 
L 117.283068 166.649509 
L 117.772274 166.998919 
L 118.261479 167.02923 
L 118.750685 167.647291 
L 119.729096 169.930305 
L 121.196712 174.265912 
L 121.685918 173.376837 
L 122.175123 173.130901 
L 122.664329 173.37053 
L 123.64274 174.535066 
L 124.131945 175.180771 
L 124.621151 176.794297 
L 125.110356 177.533216 
L 125.599562 178.798313 
L 126.088767 180.527854 
L 126.577973 179.802615 
L 127.067178 179.303078 
L 127.556384 179.034164 
L 128.045589 178.266672 
L 128.534795 179.291322 
L 129.513205 182.954864 
L 130.491616 187.556725 
L 130.980822 187.741621 
L 131.470027 187.295924 
L 131.959233 188.321802 
L 132.937644 191.830053 
L 133.916055 195.836685 
L 134.40526 197.31107 
L 134.894466 198.069657 
L 135.383671 200.709353 
L 135.872877 202.044305 
L 137.340493 201.232981 
L 137.829699 202.984035 
L 138.318904 203.297928 
L 138.80811 203.867967 
L 139.786521 206.184965 
L 140.764932 208.799222 
L 141.254137 209.327725 
L 141.743342 208.350281 
L 142.232548 208.32186 
L 142.721753 208.899261 
L 144.18937 211.878101 
L 144.678575 215.45519 
L 145.656986 219.788743 
L 146.146192 218.69595 
L 146.635397 218.041204 
L 147.613808 217.415169 
L 148.103014 218.461783 
L 148.592219 219.094214 
L 149.081425 220.30317 
L 149.57063 222.17652 
L 150.549041 226.681209 
L 151.038247 225.226165 
L 152.016658 226.231197 
L 152.505863 226.704618 
L 152.995068 227.79925 
L 153.973479 231.33667 
L 154.462685 233.50747 
L 154.95189 236.713005 
L 155.441096 236.963534 
L 155.930301 236.297756 
L 156.419507 236.171807 
L 156.908712 236.481801 
L 157.887123 237.669523 
L 159.35474 244.579444 
L 159.843945 247.877172 
L 160.333151 249.682655 
L 161.311562 246.824653 
L 161.800767 246.247354 
L 162.289973 247.142077 
L 162.779178 246.984221 
L 163.268384 247.442276 
L 163.757589 248.443401 
L 165.225205 252.682122 
L 165.714411 250.689669 
L 166.203616 250.667813 
L 166.692822 251.152334 
L 167.182027 252.22427 
L 168.160438 255.35103 
L 169.138849 261.441407 
L 169.628055 265.493381 
L 170.11726 266.5285 
L 170.606466 265.787383 
L 171.095671 265.338826 
L 171.584877 265.136794 
L 172.074082 264.188278 
L 172.563288 264.082096 
L 173.052493 264.91758 
L 173.541699 266.291357 
L 174.52011 270.188727 
L 175.009315 269.608824 
L 175.498521 270.033855 
L 175.987726 269.713905 
L 176.476932 270.251054 
L 176.966137 271.284072 
L 177.944548 274.530417 
L 178.433753 276.538 
L 179.412164 283.062495 
L 179.90137 283.16497 
L 180.879781 280.491397 
L 181.858192 278.767245 
L 182.347397 279.172638 
L 182.836603 279.74597 
L 183.325808 280.519784 
L 183.815014 281.794378 
L 184.304219 283.485286 
L 184.793425 283.930396 
L 185.28263 282.480091 
L 186.261041 281.771143 
L 186.750247 282.307748 
L 187.239452 283.30463 
L 187.728658 284.723755 
L 188.707068 288.567725 
L 189.196274 290.621204 
L 189.685479 289.589833 
L 190.174685 288.871772 
L 190.66389 288.636224 
L 191.153096 288.74822 
L 191.642301 289.126464 
L 192.131507 289.717306 
L 192.620712 290.60932 
L 193.109918 291.925985 
L 194.088329 295.700735 
L 194.577534 295.683039 
L 195.555945 293.835344 
L 196.534356 293.653983 
L 197.023562 293.925535 
L 197.512767 294.544416 
L 198.001973 295.439902 
L 198.980384 297.945606 
L 199.469589 298.568239 
L 199.958795 297.667163 
L 200.448 297.2063 
L 200.937205 297.05482 
L 201.426411 297.168048 
L 201.915616 297.538816 
L 202.404822 298.128621 
L 203.383233 300.426662 
L 203.872438 302.043259 
L 204.361644 301.075235 
L 204.850849 300.61583 
L 205.340055 300.340961 
L 205.82926 300.243974 
L 206.318466 300.492192 
L 207.296877 301.692882 
L 208.275288 303.735296 
L 208.764493 305.094741 
L 209.253699 303.533703 
L 209.742904 303.232188 
L 210.23211 303.440284 
L 210.721315 303.904261 
L 211.210521 303.736117 
L 212.188932 302.857206 
L 213.167342 302.246571 
L 214.145753 300.919398 
L 214.634959 300.426971 
L 219.037808 300.135629 
L 223.929863 300.11061 
L 228.821918 300.417147 
L 233.713973 301.120477 
L 238.606027 302.285835 
L 243.498082 303.978456 
L 243.498082 303.978456 
" clip-path="url(#p681f790f55)" style="fill: none; stroke: #bf00bf; stroke-width: 1.5; stroke-linecap: square"/>
   </g>
   <g id="line2d_31">
    <path d="M 58.089205 56.314888 
L 60.046027 58.046624 
L 62.002849 59.806296 
L 62.492055 61.553511 
L 63.470466 60.69061 
L 64.448877 60.13695 
L 65.427288 59.766957 
L 65.916493 59.718588 
L 66.894904 59.873397 
L 67.38411 61.208895 
L 68.362521 59.78022 
L 68.851726 59.322764 
L 69.830137 58.812369 
L 70.319342 58.714101 
L 70.808548 58.902315 
L 71.297753 59.302451 
L 71.786959 59.891847 
L 72.276164 60.035754 
L 72.76537 59.765981 
L 73.254575 59.300083 
L 73.743781 59.436716 
L 74.232986 59.81189 
L 75.211397 61.147059 
L 76.679014 63.835161 
L 77.168219 63.047884 
L 77.657425 63.096281 
L 78.635836 63.655681 
L 79.614247 64.579261 
L 80.103452 64.428127 
L 80.592658 65.040034 
L 82.060274 68.201569 
L 82.549479 68.272403 
L 83.038685 68.960399 
L 83.52789 68.811854 
L 84.017096 68.782389 
L 84.506301 69.417624 
L 85.973918 72.309964 
L 86.952329 75.42209 
L 87.441534 74.578316 
L 87.93074 74.548437 
L 88.419945 74.927569 
L 89.398356 76.027481 
L 89.887562 77.858655 
L 90.376767 78.149001 
L 90.865973 79.245595 
L 91.355178 81.242638 
L 91.844384 84.169603 
L 92.822795 85.208008 
L 93.312 86.614115 
L 93.801205 86.69056 
L 94.290411 87.788723 
L 95.268822 92.931584 
L 96.736438 101.893206 
L 97.714849 101.487989 
L 98.204055 102.607302 
L 99.671671 108.394206 
L 100.160877 112.223696 
L 100.650082 113.925074 
L 101.139288 116.631398 
L 101.628493 122.473017 
L 102.117699 122.391069 
L 103.09611 122.694973 
L 103.585315 125.475096 
L 104.563726 128.125703 
L 105.052932 131.153936 
L 106.031342 139.258821 
L 106.520548 144.201653 
L 107.009753 144.873887 
L 107.498959 144.70212 
L 107.988164 145.228878 
L 108.47737 147.425094 
L 109.944986 157.560263 
L 110.923397 170.100826 
L 111.412603 175.877121 
L 111.901808 173.863196 
L 112.391014 173.002992 
L 113.369425 172.401508 
L 113.85863 174.937807 
L 115.326247 184.88837 
L 116.304658 196.286442 
L 116.793863 193.037432 
L 117.283068 193.291551 
L 117.772274 193.954123 
L 118.261479 195.660053 
L 118.750685 198.622818 
L 119.729096 207.456751 
L 120.218301 212.571948 
L 120.707507 220.276693 
L 121.196712 223.785367 
L 121.685918 221.243348 
L 122.175123 219.938218 
L 122.664329 219.661829 
L 123.153534 220.131542 
L 123.64274 220.994665 
L 124.131945 223.89398 
L 124.621151 228.607385 
L 126.088767 245.205051 
L 127.067178 237.488222 
L 127.556384 236.782352 
L 128.045589 237.620972 
L 128.534795 239.244337 
L 129.024 242.050697 
L 130.002411 250.464956 
L 130.491616 255.730142 
L 130.980822 255.337853 
L 131.470027 252.575559 
L 131.959233 251.432917 
L 132.448438 251.546256 
L 132.937644 252.668893 
L 133.426849 254.629863 
L 133.916055 257.281331 
L 134.40526 262.033722 
L 134.894466 267.998759 
L 135.383671 275.498314 
L 135.872877 275.743523 
L 136.362082 272.393386 
L 136.851288 269.841296 
L 137.340493 268.035423 
L 137.829699 267.235811 
L 138.318904 267.468873 
L 138.80811 269.366438 
L 139.297315 272.36107 
L 140.275726 281.143749 
L 140.764932 280.739336 
L 141.254137 278.276987 
L 141.743342 276.55416 
L 142.232548 276.056741 
L 142.721753 276.667443 
L 143.210959 278.262959 
L 143.700164 280.753406 
L 144.18937 284.061718 
L 145.167781 294.458807 
L 146.635397 287.950274 
L 147.124603 286.910501 
L 147.613808 286.509376 
L 148.103014 287.647394 
L 148.592219 289.30948 
L 149.081425 291.887659 
L 150.059836 299.481914 
L 150.549041 299.181237 
L 151.038247 295.875211 
L 151.527452 293.680691 
L 152.505863 295.910948 
L 153.484274 292.486216 
L 153.973479 290.868447 
L 154.462685 290.247137 
L 154.95189 291.067951 
L 155.441096 287.536143 
L 156.419507 274.967784 
L 160.333151 270.972532 
L 165.225205 269.534546 
L 170.11726 271.427313 
L 175.009315 277.424318 
L 179.90137 288.299049 
L 184.793425 304.824991 
L 189.685479 327.77563 
L 189.685479 327.77563 
" clip-path="url(#p681f790f55)" style="fill: none; stroke: #000000; stroke-width: 1.5; stroke-linecap: square"/>
   </g>
   <g id="patch_3">
    <path d="M 57.6 307.584 
L 57.6 41.472 
" style="fill: none; stroke: #000000; stroke-width: 0.8; stroke-linejoin: miter; stroke-linecap: square"/>
   </g>
   <g id="patch_4">
    <path d="M 414.72 307.584 
L 414.72 41.472 
" style="fill: none; stroke: #000000; stroke-width: 0.8; stroke-linejoin: miter; stroke-linecap: square"/>
   </g>
   <g id="patch_5">
    <path d="M 57.6 307.584 
L 414.72 307.584 
" style="fill: none; stroke: #000000; stroke-width: 0.8; stroke-linejoin: miter; stroke-linecap: square"/>
   </g>
   <g id="patch_6">
    <path d="M 57.6 41.472 
L 414.72 41.472 
" style="fill: none; stroke: #000000; stroke-width: 0.8; stroke-linejoin: miter; stroke-linecap: square"/>
   </g>
   <g id="text_16">
    <!-- Inception learning curves -->
    <g transform="translate(160.065938 35.472) scale(0.12 -0.12)">
     <defs>
      <path id="DejaVuSans-49" d="M 628 4666 
L 1259 4666 
L 1259 0 
L 628 0 
L 628 4666 
z
" transform="scale(0.015625)"/>
      <path id="DejaVuSans-63" d="M 3122 3366 
L 3122 2828 
Q 2878 2963 2633 3030 
Q 2388 3097 2138 3097 
Q 1578 3097 1268 2742 
Q 959 2388 959 1747 
Q 959 1106 1268 751 
Q 1578 397 2138 397 
Q 2388 397 2633 464 
Q 2878 531 3122 666 
L 3122 134 
Q 2881 22 2623 -34 
Q 2366 -91 2075 -91 
Q 1284 -91 818 406 
Q 353 903 353 1747 
Q 353 2603 823 3093 
Q 1294 3584 2113 3584 
Q 2378 3584 2631 3529 
Q 2884 3475 3122 3366 
z
" transform="scale(0.015625)"/>
      <path id="DejaVuSans-75" d="M 544 1381 
L 544 3500 
L 1119 3500 
L 1119 1403 
Q 1119 906 1312 657 
Q 1506 409 1894 409 
Q 2359 409 2629 706 
Q 2900 1003 2900 1516 
L 2900 3500 
L 3475 3500 
L 3475 0 
L 2900 0 
L 2900 538 
Q 2691 219 2414 64 
Q 2138 -91 1772 -91 
Q 1169 -91 856 284 
Q 544 659 544 1381 
z
M 1991 3584 
L 1991 3584 
z
" transform="scale(0.015625)"/>
      <path id="DejaVuSans-76" d="M 191 3500 
L 800 3500 
L 1894 563 
L 2988 3500 
L 3597 3500 
L 2284 0 
L 1503 0 
L 191 3500 
z
" transform="scale(0.015625)"/>
     </defs>
     <use xlink:href="#DejaVuSans-49"/>
     <use xlink:href="#DejaVuSans-6e" transform="translate(29.492188 0)"/>
     <use xlink:href="#DejaVuSans-63" transform="translate(92.871094 0)"/>
     <use xlink:href="#DejaVuSans-65" transform="translate(147.851562 0)"/>
     <use xlink:href="#DejaVuSans-70" transform="translate(209.375 0)"/>
     <use xlink:href="#DejaVuSans-74" transform="translate(272.851562 0)"/>
     <use xlink:href="#DejaVuSans-69" transform="translate(312.060547 0)"/>
     <use xlink:href="#DejaVuSans-6f" transform="translate(339.84375 0)"/>
     <use xlink:href="#DejaVuSans-6e" transform="translate(401.025391 0)"/>
     <use xlink:href="#DejaVuSans-20" transform="translate(464.404297 0)"/>
     <use xlink:href="#DejaVuSans-6c" transform="translate(496.191406 0)"/>
     <use xlink:href="#DejaVuSans-65" transform="translate(523.974609 0)"/>
     <use xlink:href="#DejaVuSans-61" transform="translate(585.498047 0)"/>
     <use xlink:href="#DejaVuSans-72" transform="translate(646.777344 0)"/>
     <use xlink:href="#DejaVuSans-6e" transform="translate(686.140625 0)"/>
     <use xlink:href="#DejaVuSans-69" transform="translate(749.519531 0)"/>
     <use xlink:href="#DejaVuSans-6e" transform="translate(777.302734 0)"/>
     <use xlink:href="#DejaVuSans-67" transform="translate(840.681641 0)"/>
     <use xlink:href="#DejaVuSans-20" transform="translate(904.158203 0)"/>
     <use xlink:href="#DejaVuSans-63" transform="translate(935.945312 0)"/>
     <use xlink:href="#DejaVuSans-75" transform="translate(990.925781 0)"/>
     <use xlink:href="#DejaVuSans-72" transform="translate(1054.304688 0)"/>
     <use xlink:href="#DejaVuSans-76" transform="translate(1095.417969 0)"/>
     <use xlink:href="#DejaVuSans-65" transform="translate(1154.597656 0)"/>
     <use xlink:href="#DejaVuSans-73" transform="translate(1216.121094 0)"/>
    </g>
   </g>
   <g id="legend_1">
    <g id="patch_7">
     <path d="M 303.46375 122.862625 
L 407.72 122.862625 
Q 409.72 122.862625 409.72 120.862625 
L 409.72 48.472 
Q 409.72 46.472 407.72 46.472 
L 303.46375 46.472 
Q 301.46375 46.472 301.46375 48.472 
L 301.46375 120.862625 
Q 301.46375 122.862625 303.46375 122.862625 
z
" style="fill: #ffffff; opacity: 0.8; stroke: #cccccc; stroke-linejoin: miter"/>
    </g>
    <g id="line2d_32">
     <path d="M 305.46375 54.570438 
L 315.46375 54.570438 
L 325.46375 54.570438 
" style="fill: none; stroke: #0000ff; stroke-width: 1.5; stroke-linecap: square"/>
    </g>
    <g id="text_17">
     <!-- true labels -->
     <g transform="translate(333.46375 58.070438) scale(0.1 -0.1)">
      <defs>
       <path id="DejaVuSans-62" d="M 3116 1747 
Q 3116 2381 2855 2742 
Q 2594 3103 2138 3103 
Q 1681 3103 1420 2742 
Q 1159 2381 1159 1747 
Q 1159 1113 1420 752 
Q 1681 391 2138 391 
Q 2594 391 2855 752 
Q 3116 1113 3116 1747 
z
M 1159 2969 
Q 1341 3281 1617 3432 
Q 1894 3584 2278 3584 
Q 2916 3584 3314 3078 
Q 3713 2572 3713 1747 
Q 3713 922 3314 415 
Q 2916 -91 2278 -91 
Q 1894 -91 1617 61 
Q 1341 213 1159 525 
L 1159 0 
L 581 0 
L 581 4863 
L 1159 4863 
L 1159 2969 
z
" transform="scale(0.015625)"/>
      </defs>
      <use xlink:href="#DejaVuSans-74"/>
      <use xlink:href="#DejaVuSans-72" transform="translate(39.208984 0)"/>
      <use xlink:href="#DejaVuSans-75" transform="translate(80.322266 0)"/>
      <use xlink:href="#DejaVuSans-65" transform="translate(143.701172 0)"/>
      <use xlink:href="#DejaVuSans-20" transform="translate(205.224609 0)"/>
      <use xlink:href="#DejaVuSans-6c" transform="translate(237.011719 0)"/>
      <use xlink:href="#DejaVuSans-61" transform="translate(264.794922 0)"/>
      <use xlink:href="#DejaVuSans-62" transform="translate(326.074219 0)"/>
      <use xlink:href="#DejaVuSans-65" transform="translate(389.550781 0)"/>
      <use xlink:href="#DejaVuSans-6c" transform="translate(451.074219 0)"/>
      <use xlink:href="#DejaVuSans-73" transform="translate(478.857422 0)"/>
     </g>
    </g>
    <g id="line2d_33">
     <path d="M 305.46375 69.248563 
L 315.46375 69.248563 
L 325.46375 69.248563 
" style="fill: none; stroke: #ff0000; stroke-width: 1.5; stroke-linecap: square"/>
    </g>
    <g id="text_18">
     <!-- random labels -->
     <g transform="translate(333.46375 72.748563) scale(0.1 -0.1)">
      <defs>
       <path id="DejaVuSans-64" d="M 2906 2969 
L 2906 4863 
L 3481 4863 
L 3481 0 
L 2906 0 
L 2906 525 
Q 2725 213 2448 61 
Q 2172 -91 1784 -91 
Q 1150 -91 751 415 
Q 353 922 353 1747 
Q 353 2572 751 3078 
Q 1150 3584 1784 3584 
Q 2172 3584 2448 3432 
Q 2725 3281 2906 2969 
z
M 947 1747 
Q 947 1113 1208 752 
Q 1469 391 1925 391 
Q 2381 391 2643 752 
Q 2906 1113 2906 1747 
Q 2906 2381 2643 2742 
Q 2381 3103 1925 3103 
Q 1469 3103 1208 2742 
Q 947 2381 947 1747 
z
" transform="scale(0.015625)"/>
       <path id="DejaVuSans-6d" d="M 3328 2828 
Q 3544 3216 3844 3400 
Q 4144 3584 4550 3584 
Q 5097 3584 5394 3201 
Q 5691 2819 5691 2113 
L 5691 0 
L 5113 0 
L 5113 2094 
Q 5113 2597 4934 2840 
Q 4756 3084 4391 3084 
Q 3944 3084 3684 2787 
Q 3425 2491 3425 1978 
L 3425 0 
L 2847 0 
L 2847 2094 
Q 2847 2600 2669 2842 
Q 2491 3084 2119 3084 
Q 1678 3084 1418 2786 
Q 1159 2488 1159 1978 
L 1159 0 
L 581 0 
L 581 3500 
L 1159 3500 
L 1159 2956 
Q 1356 3278 1631 3431 
Q 1906 3584 2284 3584 
Q 2666 3584 2933 3390 
Q 3200 3197 3328 2828 
z
" transform="scale(0.015625)"/>
      </defs>
      <use xlink:href="#DejaVuSans-72"/>
      <use xlink:href="#DejaVuSans-61" transform="translate(41.113281 0)"/>
      <use xlink:href="#DejaVuSans-6e" transform="translate(102.392578 0)"/>
      <use xlink:href="#DejaVuSans-64" transform="translate(165.771484 0)"/>
      <use xlink:href="#DejaVuSans-6f" transform="translate(229.248047 0)"/>
      <use xlink:href="#DejaVuSans-6d" transform="translate(290.429688 0)"/>
      <use xlink:href="#DejaVuSans-20" transform="translate(387.841797 0)"/>
      <use xlink:href="#DejaVuSans-6c" transform="translate(419.628906 0)"/>
      <use xlink:href="#DejaVuSans-61" transform="translate(447.412109 0)"/>
      <use xlink:href="#DejaVuSans-62" transform="translate(508.691406 0)"/>
      <use xlink:href="#DejaVuSans-65" transform="translate(572.167969 0)"/>
      <use xlink:href="#DejaVuSans-6c" transform="translate(633.691406 0)"/>
      <use xlink:href="#DejaVuSans-73" transform="translate(661.474609 0)"/>
     </g>
    </g>
    <g id="line2d_34">
     <path d="M 305.46375 83.926688 
L 315.46375 83.926688 
L 325.46375 83.926688 
" style="fill: none; stroke: #008000; stroke-width: 1.5; stroke-linecap: square"/>
    </g>
    <g id="text_19">
     <!-- shuffled pixels -->
     <g transform="translate(333.46375 87.426688) scale(0.1 -0.1)">
      <defs>
       <path id="DejaVuSans-68" d="M 3513 2113 
L 3513 0 
L 2938 0 
L 2938 2094 
Q 2938 2591 2744 2837 
Q 2550 3084 2163 3084 
Q 1697 3084 1428 2787 
Q 1159 2491 1159 1978 
L 1159 0 
L 581 0 
L 581 4863 
L 1159 4863 
L 1159 2956 
Q 1366 3272 1645 3428 
Q 1925 3584 2291 3584 
Q 2894 3584 3203 3211 
Q 3513 2838 3513 2113 
z
" transform="scale(0.015625)"/>
       <path id="DejaVuSans-66" d="M 2375 4863 
L 2375 4384 
L 1825 4384 
Q 1516 4384 1395 4259 
Q 1275 4134 1275 3809 
L 1275 3500 
L 2222 3500 
L 2222 3053 
L 1275 3053 
L 1275 0 
L 697 0 
L 697 3053 
L 147 3053 
L 147 3500 
L 697 3500 
L 697 3744 
Q 697 4328 969 4595 
Q 1241 4863 1831 4863 
L 2375 4863 
z
" transform="scale(0.015625)"/>
       <path id="DejaVuSans-78" d="M 3513 3500 
L 2247 1797 
L 3578 0 
L 2900 0 
L 1881 1375 
L 863 0 
L 184 0 
L 1544 1831 
L 300 3500 
L 978 3500 
L 1906 2253 
L 2834 3500 
L 3513 3500 
z
" transform="scale(0.015625)"/>
      </defs>
      <use xlink:href="#DejaVuSans-73"/>
      <use xlink:href="#DejaVuSans-68" transform="translate(52.099609 0)"/>
      <use xlink:href="#DejaVuSans-75" transform="translate(115.478516 0)"/>
      <use xlink:href="#DejaVuSans-66" transform="translate(178.857422 0)"/>
      <use xlink:href="#DejaVuSans-66" transform="translate(214.0625 0)"/>
      <use xlink:href="#DejaVuSans-6c" transform="translate(249.267578 0)"/>
      <use xlink:href="#DejaVuSans-65" transform="translate(277.050781 0)"/>
      <use xlink:href="#DejaVuSans-64" transform="translate(338.574219 0)"/>
      <use xlink:href="#DejaVuSans-20" transform="translate(402.050781 0)"/>
      <use xlink:href="#DejaVuSans-70" transform="translate(433.837891 0)"/>
      <use xlink:href="#DejaVuSans-69" transform="translate(497.314453 0)"/>
      <use xlink:href="#DejaVuSans-78" transform="translate(525.097656 0)"/>
      <use xlink:href="#DejaVuSans-65" transform="translate(581.152344 0)"/>
      <use xlink:href="#DejaVuSans-6c" transform="translate(642.675781 0)"/>
      <use xlink:href="#DejaVuSans-73" transform="translate(670.458984 0)"/>
     </g>
    </g>
    <g id="line2d_35">
     <path d="M 305.46375 98.604813 
L 315.46375 98.604813 
L 325.46375 98.604813 
" style="fill: none; stroke: #bf00bf; stroke-width: 1.5; stroke-linecap: square"/>
    </g>
    <g id="text_20">
     <!-- random pixels -->
     <g transform="translate(333.46375 102.104813) scale(0.1 -0.1)">
      <use xlink:href="#DejaVuSans-72"/>
      <use xlink:href="#DejaVuSans-61" transform="translate(41.113281 0)"/>
      <use xlink:href="#DejaVuSans-6e" transform="translate(102.392578 0)"/>
      <use xlink:href="#DejaVuSans-64" transform="translate(165.771484 0)"/>
      <use xlink:href="#DejaVuSans-6f" transform="translate(229.248047 0)"/>
      <use xlink:href="#DejaVuSans-6d" transform="translate(290.429688 0)"/>
      <use xlink:href="#DejaVuSans-20" transform="translate(387.841797 0)"/>
      <use xlink:href="#DejaVuSans-70" transform="translate(419.628906 0)"/>
      <use xlink:href="#DejaVuSans-69" transform="translate(483.105469 0)"/>
      <use xlink:href="#DejaVuSans-78" transform="translate(510.888672 0)"/>
      <use xlink:href="#DejaVuSans-65" transform="translate(566.943359 0)"/>
      <use xlink:href="#DejaVuSans-6c" transform="translate(628.466797 0)"/>
      <use xlink:href="#DejaVuSans-73" transform="translate(656.25 0)"/>
     </g>
    </g>
    <g id="line2d_36">
     <path d="M 305.46375 113.282938 
L 315.46375 113.282938 
L 325.46375 113.282938 
" style="fill: none; stroke: #000000; stroke-width: 1.5; stroke-linecap: square"/>
    </g>
    <g id="text_21">
     <!-- gaussian -->
     <g transform="translate(333.46375 116.782938) scale(0.1 -0.1)">
      <use xlink:href="#DejaVuSans-67"/>
      <use xlink:href="#DejaVuSans-61" transform="translate(63.476562 0)"/>
      <use xlink:href="#DejaVuSans-75" transform="translate(124.755859 0)"/>
      <use xlink:href="#DejaVuSans-73" transform="translate(188.134766 0)"/>
      <use xlink:href="#DejaVuSans-73" transform="translate(240.234375 0)"/>
      <use xlink:href="#DejaVuSans-69" transform="translate(292.333984 0)"/>
      <use xlink:href="#DejaVuSans-61" transform="translate(320.117188 0)"/>
      <use xlink:href="#DejaVuSans-6e" transform="translate(381.396484 0)"/>
     </g>
    </g>
   </g>
  </g>
 </g>
 <defs>
  <clipPath id="p681f790f55">
   <rect x="57.6" y="41.472" width="357.12" height="266.112"/>
  </clipPath>
 </defs>
</svg>
