<?xml version="1.0" encoding="utf-8" standalone="no"?>
<!DOCTYPE svg PUBLIC "-//W3C//DTD SVG 1.1//EN"
  "http://www.w3.org/Graphics/SVG/1.1/DTD/svg11.dtd">
<svg xmlns:xlink="http://www.w3.org/1999/xlink" width="460.8pt" height="345.6pt" viewBox="0 0 460.8 345.6" xmlns="http://www.w3.org/2000/svg" version="1.1">
 <metadata>
  <rdf:RDF xmlns:dc="http://purl.org/dc/elements/1.1/" xmlns:cc="http://creativecommons.org/ns#" xmlns:rdf="http://www.w3.org/1999/02/22-rdf-syntax-ns#">
   <cc:Work>
    <dc:type rdf:resource="http://purl.org/dc/dcmitype/StillImage"/>
    <dc:date>2025-04-23T23:52:04.001391</dc:date>
    <dc:format>image/svg+xml</dc:format>
    <dc:creator>
     <cc:Agent>
      <dc:title>Matplotlib v3.10.1, https://matplotlib.org/</dc:title>
     </cc:Agent>
    </dc:creator>
   </cc:Work>
  </rdf:RDF>
 </metadata>
 <defs>
  <style type="text/css">*{stroke-linejoin: round; stroke-linecap: butt}</style>
 </defs>
 <g id="figure_1">
  <g id="patch_1">
   <path d="M 0 345.6 
L 460.8 345.6 
L 460.8 0 
L 0 0 
z
" style="fill: #ffffff"/>
  </g>
  <g id="axes_1">
   <g id="patch_2">
    <path d="M 57.6 307.584 
L 414.72 307.584 
L 414.72 41.472 
L 57.6 41.472 
z
" style="fill: #ffffff"/>
   </g>
   <g id="matplotlib.axis_1">
    <g id="xtick_1">
     <g id="line2d_1">
      <path d="M 57.6 307.584 
L 57.6 41.472 
" clip-path="url(#pa4600a777d)" style="fill: none; stroke-dasharray: 2.96,1.28; stroke-dashoffset: 0; stroke: #b0b0b0; stroke-opacity: 0.7; stroke-width: 0.8"/>
     </g>
     <g id="line2d_2">
      <defs>
       <path id="m868290ac01" d="M 0 0 
L 0 3.5 
" style="stroke: #000000; stroke-width: 0.8"/>
      </defs>
      <g>
       <use xlink:href="#m868290ac01" x="57.6" y="307.584" style="stroke: #000000; stroke-width: 0.8"/>
      </g>
     </g>
     <g id="text_1">
      <!-- 0 -->
      <g transform="translate(54.41875 322.182437) scale(0.1 -0.1)">
       <defs>
        <path id="DejaVuSans-30" d="M 2034 4250 
Q 1547 4250 1301 3770 
Q 1056 3291 1056 2328 
Q 1056 1369 1301 889 
Q 1547 409 2034 409 
Q 2525 409 2770 889 
Q 3016 1369 3016 2328 
Q 3016 3291 2770 3770 
Q 2525 4250 2034 4250 
z
M 2034 4750 
Q 2819 4750 3233 4129 
Q 3647 3509 3647 2328 
Q 3647 1150 3233 529 
Q 2819 -91 2034 -91 
Q 1250 -91 836 529 
Q 422 1150 422 2328 
Q 422 3509 836 4129 
Q 1250 4750 2034 4750 
z
" transform="scale(0.015625)"/>
       </defs>
       <use xlink:href="#DejaVuSans-30"/>
      </g>
     </g>
    </g>
    <g id="xtick_2">
     <g id="line2d_3">
      <path d="M 131.23299 307.584 
L 131.23299 41.472 
" clip-path="url(#pa4600a777d)" style="fill: none; stroke-dasharray: 2.96,1.28; stroke-dashoffset: 0; stroke: #b0b0b0; stroke-opacity: 0.7; stroke-width: 0.8"/>
     </g>
     <g id="line2d_4">
      <g>
       <use xlink:href="#m868290ac01" x="131.23299" y="307.584" style="stroke: #000000; stroke-width: 0.8"/>
      </g>
     </g>
     <g id="text_2">
      <!-- 200 -->
      <g transform="translate(121.68924 322.182437) scale(0.1 -0.1)">
       <defs>
        <path id="DejaVuSans-32" d="M 1228 531 
L 3431 531 
L 3431 0 
L 469 0 
L 469 531 
Q 828 903 1448 1529 
Q 2069 2156 2228 2338 
Q 2531 2678 2651 2914 
Q 2772 3150 2772 3378 
Q 2772 3750 2511 3984 
Q 2250 4219 1831 4219 
Q 1534 4219 1204 4116 
Q 875 4013 500 3803 
L 500 4441 
Q 881 4594 1212 4672 
Q 1544 4750 1819 4750 
Q 2544 4750 2975 4387 
Q 3406 4025 3406 3419 
Q 3406 3131 3298 2873 
Q 3191 2616 2906 2266 
Q 2828 2175 2409 1742 
Q 1991 1309 1228 531 
z
" transform="scale(0.015625)"/>
       </defs>
       <use xlink:href="#DejaVuSans-32"/>
       <use xlink:href="#DejaVuSans-30" transform="translate(63.623047 0)"/>
       <use xlink:href="#DejaVuSans-30" transform="translate(127.246094 0)"/>
      </g>
     </g>
    </g>
    <g id="xtick_3">
     <g id="line2d_5">
      <path d="M 204.865979 307.584 
L 204.865979 41.472 
" clip-path="url(#pa4600a777d)" style="fill: none; stroke-dasharray: 2.96,1.28; stroke-dashoffset: 0; stroke: #b0b0b0; stroke-opacity: 0.7; stroke-width: 0.8"/>
     </g>
     <g id="line2d_6">
      <g>
       <use xlink:href="#m868290ac01" x="204.865979" y="307.584" style="stroke: #000000; stroke-width: 0.8"/>
      </g>
     </g>
     <g id="text_3">
      <!-- 400 -->
      <g transform="translate(195.322229 322.182437) scale(0.1 -0.1)">
       <defs>
        <path id="DejaVuSans-34" d="M 2419 4116 
L 825 1625 
L 2419 1625 
L 2419 4116 
z
M 2253 4666 
L 3047 4666 
L 3047 1625 
L 3713 1625 
L 3713 1100 
L 3047 1100 
L 3047 0 
L 2419 0 
L 2419 1100 
L 313 1100 
L 313 1709 
L 2253 4666 
z
" transform="scale(0.015625)"/>
       </defs>
       <use xlink:href="#DejaVuSans-34"/>
       <use xlink:href="#DejaVuSans-30" transform="translate(63.623047 0)"/>
       <use xlink:href="#DejaVuSans-30" transform="translate(127.246094 0)"/>
      </g>
     </g>
    </g>
    <g id="xtick_4">
     <g id="line2d_7">
      <path d="M 278.498969 307.584 
L 278.498969 41.472 
" clip-path="url(#pa4600a777d)" style="fill: none; stroke-dasharray: 2.96,1.28; stroke-dashoffset: 0; stroke: #b0b0b0; stroke-opacity: 0.7; stroke-width: 0.8"/>
     </g>
     <g id="line2d_8">
      <g>
       <use xlink:href="#m868290ac01" x="278.498969" y="307.584" style="stroke: #000000; stroke-width: 0.8"/>
      </g>
     </g>
     <g id="text_4">
      <!-- 600 -->
      <g transform="translate(268.955219 322.182437) scale(0.1 -0.1)">
       <defs>
        <path id="DejaVuSans-36" d="M 2113 2584 
Q 1688 2584 1439 2293 
Q 1191 2003 1191 1497 
Q 1191 994 1439 701 
Q 1688 409 2113 409 
Q 2538 409 2786 701 
Q 3034 994 3034 1497 
Q 3034 2003 2786 2293 
Q 2538 2584 2113 2584 
z
M 3366 4563 
L 3366 3988 
Q 3128 4100 2886 4159 
Q 2644 4219 2406 4219 
Q 1781 4219 1451 3797 
Q 1122 3375 1075 2522 
Q 1259 2794 1537 2939 
Q 1816 3084 2150 3084 
Q 2853 3084 3261 2657 
Q 3669 2231 3669 1497 
Q 3669 778 3244 343 
Q 2819 -91 2113 -91 
Q 1303 -91 875 529 
Q 447 1150 447 2328 
Q 447 3434 972 4092 
Q 1497 4750 2381 4750 
Q 2619 4750 2861 4703 
Q 3103 4656 3366 4563 
z
" transform="scale(0.015625)"/>
       </defs>
       <use xlink:href="#DejaVuSans-36"/>
       <use xlink:href="#DejaVuSans-30" transform="translate(63.623047 0)"/>
       <use xlink:href="#DejaVuSans-30" transform="translate(127.246094 0)"/>
      </g>
     </g>
    </g>
    <g id="xtick_5">
     <g id="line2d_9">
      <path d="M 352.131959 307.584 
L 352.131959 41.472 
" clip-path="url(#pa4600a777d)" style="fill: none; stroke-dasharray: 2.96,1.28; stroke-dashoffset: 0; stroke: #b0b0b0; stroke-opacity: 0.7; stroke-width: 0.8"/>
     </g>
     <g id="line2d_10">
      <g>
       <use xlink:href="#m868290ac01" x="352.131959" y="307.584" style="stroke: #000000; stroke-width: 0.8"/>
      </g>
     </g>
     <g id="text_5">
      <!-- 800 -->
      <g transform="translate(342.588209 322.182437) scale(0.1 -0.1)">
       <defs>
        <path id="DejaVuSans-38" d="M 2034 2216 
Q 1584 2216 1326 1975 
Q 1069 1734 1069 1313 
Q 1069 891 1326 650 
Q 1584 409 2034 409 
Q 2484 409 2743 651 
Q 3003 894 3003 1313 
Q 3003 1734 2745 1975 
Q 2488 2216 2034 2216 
z
M 1403 2484 
Q 997 2584 770 2862 
Q 544 3141 544 3541 
Q 544 4100 942 4425 
Q 1341 4750 2034 4750 
Q 2731 4750 3128 4425 
Q 3525 4100 3525 3541 
Q 3525 3141 3298 2862 
Q 3072 2584 2669 2484 
Q 3125 2378 3379 2068 
Q 3634 1759 3634 1313 
Q 3634 634 3220 271 
Q 2806 -91 2034 -91 
Q 1263 -91 848 271 
Q 434 634 434 1313 
Q 434 1759 690 2068 
Q 947 2378 1403 2484 
z
M 1172 3481 
Q 1172 3119 1398 2916 
Q 1625 2713 2034 2713 
Q 2441 2713 2670 2916 
Q 2900 3119 2900 3481 
Q 2900 3844 2670 4047 
Q 2441 4250 2034 4250 
Q 1625 4250 1398 4047 
Q 1172 3844 1172 3481 
z
" transform="scale(0.015625)"/>
       </defs>
       <use xlink:href="#DejaVuSans-38"/>
       <use xlink:href="#DejaVuSans-30" transform="translate(63.623047 0)"/>
       <use xlink:href="#DejaVuSans-30" transform="translate(127.246094 0)"/>
      </g>
     </g>
    </g>
    <g id="text_6">
     <!-- Training steps -->
     <g transform="translate(201.424844 335.860562) scale(0.1 -0.1)">
      <defs>
       <path id="DejaVuSans-54" d="M -19 4666 
L 3928 4666 
L 3928 4134 
L 2272 4134 
L 2272 0 
L 1638 0 
L 1638 4134 
L -19 4134 
L -19 4666 
z
" transform="scale(0.015625)"/>
       <path id="DejaVuSans-72" d="M 2631 2963 
Q 2534 3019 2420 3045 
Q 2306 3072 2169 3072 
Q 1681 3072 1420 2755 
Q 1159 2438 1159 1844 
L 1159 0 
L 581 0 
L 581 3500 
L 1159 3500 
L 1159 2956 
Q 1341 3275 1631 3429 
Q 1922 3584 2338 3584 
Q 2397 3584 2469 3576 
Q 2541 3569 2628 3553 
L 2631 2963 
z
" transform="scale(0.015625)"/>
       <path id="DejaVuSans-61" d="M 2194 1759 
Q 1497 1759 1228 1600 
Q 959 1441 959 1056 
Q 959 750 1161 570 
Q 1363 391 1709 391 
Q 2188 391 2477 730 
Q 2766 1069 2766 1631 
L 2766 1759 
L 2194 1759 
z
M 3341 1997 
L 3341 0 
L 2766 0 
L 2766 531 
Q 2569 213 2275 61 
Q 1981 -91 1556 -91 
Q 1019 -91 701 211 
Q 384 513 384 1019 
Q 384 1609 779 1909 
Q 1175 2209 1959 2209 
L 2766 2209 
L 2766 2266 
Q 2766 2663 2505 2880 
Q 2244 3097 1772 3097 
Q 1472 3097 1187 3025 
Q 903 2953 641 2809 
L 641 3341 
Q 956 3463 1253 3523 
Q 1550 3584 1831 3584 
Q 2591 3584 2966 3190 
Q 3341 2797 3341 1997 
z
" transform="scale(0.015625)"/>
       <path id="DejaVuSans-69" d="M 603 3500 
L 1178 3500 
L 1178 0 
L 603 0 
L 603 3500 
z
M 603 4863 
L 1178 4863 
L 1178 4134 
L 603 4134 
L 603 4863 
z
" transform="scale(0.015625)"/>
       <path id="DejaVuSans-6e" d="M 3513 2113 
L 3513 0 
L 2938 0 
L 2938 2094 
Q 2938 2591 2744 2837 
Q 2550 3084 2163 3084 
Q 1697 3084 1428 2787 
Q 1159 2491 1159 1978 
L 1159 0 
L 581 0 
L 581 3500 
L 1159 3500 
L 1159 2956 
Q 1366 3272 1645 3428 
Q 1925 3584 2291 3584 
Q 2894 3584 3203 3211 
Q 3513 2838 3513 2113 
z
" transform="scale(0.015625)"/>
       <path id="DejaVuSans-67" d="M 2906 1791 
Q 2906 2416 2648 2759 
Q 2391 3103 1925 3103 
Q 1463 3103 1205 2759 
Q 947 2416 947 1791 
Q 947 1169 1205 825 
Q 1463 481 1925 481 
Q 2391 481 2648 825 
Q 2906 1169 2906 1791 
z
M 3481 434 
Q 3481 -459 3084 -895 
Q 2688 -1331 1869 -1331 
Q 1566 -1331 1297 -1286 
Q 1028 -1241 775 -1147 
L 775 -588 
Q 1028 -725 1275 -790 
Q 1522 -856 1778 -856 
Q 2344 -856 2625 -561 
Q 2906 -266 2906 331 
L 2906 616 
Q 2728 306 2450 153 
Q 2172 0 1784 0 
Q 1141 0 747 490 
Q 353 981 353 1791 
Q 353 2603 747 3093 
Q 1141 3584 1784 3584 
Q 2172 3584 2450 3431 
Q 2728 3278 2906 2969 
L 2906 3500 
L 3481 3500 
L 3481 434 
z
" transform="scale(0.015625)"/>
       <path id="DejaVuSans-20" transform="scale(0.015625)"/>
       <path id="DejaVuSans-73" d="M 2834 3397 
L 2834 2853 
Q 2591 2978 2328 3040 
Q 2066 3103 1784 3103 
Q 1356 3103 1142 2972 
Q 928 2841 928 2578 
Q 928 2378 1081 2264 
Q 1234 2150 1697 2047 
L 1894 2003 
Q 2506 1872 2764 1633 
Q 3022 1394 3022 966 
Q 3022 478 2636 193 
Q 2250 -91 1575 -91 
Q 1294 -91 989 -36 
Q 684 19 347 128 
L 347 722 
Q 666 556 975 473 
Q 1284 391 1588 391 
Q 1994 391 2212 530 
Q 2431 669 2431 922 
Q 2431 1156 2273 1281 
Q 2116 1406 1581 1522 
L 1381 1569 
Q 847 1681 609 1914 
Q 372 2147 372 2553 
Q 372 3047 722 3315 
Q 1072 3584 1716 3584 
Q 2034 3584 2315 3537 
Q 2597 3491 2834 3397 
z
" transform="scale(0.015625)"/>
       <path id="DejaVuSans-74" d="M 1172 4494 
L 1172 3500 
L 2356 3500 
L 2356 3053 
L 1172 3053 
L 1172 1153 
Q 1172 725 1289 603 
Q 1406 481 1766 481 
L 2356 481 
L 2356 0 
L 1766 0 
Q 1100 0 847 248 
Q 594 497 594 1153 
L 594 3053 
L 172 3053 
L 172 3500 
L 594 3500 
L 594 4494 
L 1172 4494 
z
" transform="scale(0.015625)"/>
       <path id="DejaVuSans-65" d="M 3597 1894 
L 3597 1613 
L 953 1613 
Q 991 1019 1311 708 
Q 1631 397 2203 397 
Q 2534 397 2845 478 
Q 3156 559 3463 722 
L 3463 178 
Q 3153 47 2828 -22 
Q 2503 -91 2169 -91 
Q 1331 -91 842 396 
Q 353 884 353 1716 
Q 353 2575 817 3079 
Q 1281 3584 2069 3584 
Q 2775 3584 3186 3129 
Q 3597 2675 3597 1894 
z
M 3022 2063 
Q 3016 2534 2758 2815 
Q 2500 3097 2075 3097 
Q 1594 3097 1305 2825 
Q 1016 2553 972 2059 
L 3022 2063 
z
" transform="scale(0.015625)"/>
       <path id="DejaVuSans-70" d="M 1159 525 
L 1159 -1331 
L 581 -1331 
L 581 3500 
L 1159 3500 
L 1159 2969 
Q 1341 3281 1617 3432 
Q 1894 3584 2278 3584 
Q 2916 3584 3314 3078 
Q 3713 2572 3713 1747 
Q 3713 922 3314 415 
Q 2916 -91 2278 -91 
Q 1894 -91 1617 61 
Q 1341 213 1159 525 
z
M 3116 1747 
Q 3116 2381 2855 2742 
Q 2594 3103 2138 3103 
Q 1681 3103 1420 2742 
Q 1159 2381 1159 1747 
Q 1159 1113 1420 752 
Q 1681 391 2138 391 
Q 2594 391 2855 752 
Q 3116 1113 3116 1747 
z
" transform="scale(0.015625)"/>
      </defs>
      <use xlink:href="#DejaVuSans-54"/>
      <use xlink:href="#DejaVuSans-72" transform="translate(46.333984 0)"/>
      <use xlink:href="#DejaVuSans-61" transform="translate(87.447266 0)"/>
      <use xlink:href="#DejaVuSans-69" transform="translate(148.726562 0)"/>
      <use xlink:href="#DejaVuSans-6e" transform="translate(176.509766 0)"/>
      <use xlink:href="#DejaVuSans-69" transform="translate(239.888672 0)"/>
      <use xlink:href="#DejaVuSans-6e" transform="translate(267.671875 0)"/>
      <use xlink:href="#DejaVuSans-67" transform="translate(331.050781 0)"/>
      <use xlink:href="#DejaVuSans-20" transform="translate(394.527344 0)"/>
      <use xlink:href="#DejaVuSans-73" transform="translate(426.314453 0)"/>
      <use xlink:href="#DejaVuSans-74" transform="translate(478.414062 0)"/>
      <use xlink:href="#DejaVuSans-65" transform="translate(517.623047 0)"/>
      <use xlink:href="#DejaVuSans-70" transform="translate(579.146484 0)"/>
      <use xlink:href="#DejaVuSans-73" transform="translate(642.623047 0)"/>
     </g>
    </g>
   </g>
   <g id="matplotlib.axis_2">
    <g id="ytick_1">
     <g id="line2d_11">
      <path d="M 57.6 307.584 
L 414.72 307.584 
" clip-path="url(#pa4600a777d)" style="fill: none; stroke-dasharray: 2.96,1.28; stroke-dashoffset: 0; stroke: #b0b0b0; stroke-opacity: 0.7; stroke-width: 0.8"/>
     </g>
     <g id="line2d_12">
      <defs>
       <path id="m1cdfd39b23" d="M 0 0 
L -3.5 0 
" style="stroke: #000000; stroke-width: 0.8"/>
      </defs>
      <g>
       <use xlink:href="#m1cdfd39b23" x="57.6" y="307.584" style="stroke: #000000; stroke-width: 0.8"/>
      </g>
     </g>
     <g id="text_7">
      <!-- 0.0 -->
      <g transform="translate(34.696875 311.383219) scale(0.1 -0.1)">
       <defs>
        <path id="DejaVuSans-2e" d="M 684 794 
L 1344 794 
L 1344 0 
L 684 0 
L 684 794 
z
" transform="scale(0.015625)"/>
       </defs>
       <use xlink:href="#DejaVuSans-30"/>
       <use xlink:href="#DejaVuSans-2e" transform="translate(63.623047 0)"/>
       <use xlink:href="#DejaVuSans-30" transform="translate(95.410156 0)"/>
      </g>
     </g>
    </g>
    <g id="ytick_2">
     <g id="line2d_13">
      <path d="M 57.6 252.576772 
L 414.72 252.576772 
" clip-path="url(#pa4600a777d)" style="fill: none; stroke-dasharray: 2.96,1.28; stroke-dashoffset: 0; stroke: #b0b0b0; stroke-opacity: 0.7; stroke-width: 0.8"/>
     </g>
     <g id="line2d_14">
      <g>
       <use xlink:href="#m1cdfd39b23" x="57.6" y="252.576772" style="stroke: #000000; stroke-width: 0.8"/>
      </g>
     </g>
     <g id="text_8">
      <!-- 0.5 -->
      <g transform="translate(34.696875 256.375991) scale(0.1 -0.1)">
       <defs>
        <path id="DejaVuSans-35" d="M 691 4666 
L 3169 4666 
L 3169 4134 
L 1269 4134 
L 1269 2991 
Q 1406 3038 1543 3061 
Q 1681 3084 1819 3084 
Q 2600 3084 3056 2656 
Q 3513 2228 3513 1497 
Q 3513 744 3044 326 
Q 2575 -91 1722 -91 
Q 1428 -91 1123 -41 
Q 819 9 494 109 
L 494 744 
Q 775 591 1075 516 
Q 1375 441 1709 441 
Q 2250 441 2565 725 
Q 2881 1009 2881 1497 
Q 2881 1984 2565 2268 
Q 2250 2553 1709 2553 
Q 1456 2553 1204 2497 
Q 953 2441 691 2322 
L 691 4666 
z
" transform="scale(0.015625)"/>
       </defs>
       <use xlink:href="#DejaVuSans-30"/>
       <use xlink:href="#DejaVuSans-2e" transform="translate(63.623047 0)"/>
       <use xlink:href="#DejaVuSans-35" transform="translate(95.410156 0)"/>
      </g>
     </g>
    </g>
    <g id="ytick_3">
     <g id="line2d_15">
      <path d="M 57.6 197.569544 
L 414.72 197.569544 
" clip-path="url(#pa4600a777d)" style="fill: none; stroke-dasharray: 2.96,1.28; stroke-dashoffset: 0; stroke: #b0b0b0; stroke-opacity: 0.7; stroke-width: 0.8"/>
     </g>
     <g id="line2d_16">
      <g>
       <use xlink:href="#m1cdfd39b23" x="57.6" y="197.569544" style="stroke: #000000; stroke-width: 0.8"/>
      </g>
     </g>
     <g id="text_9">
      <!-- 1.0 -->
      <g transform="translate(34.696875 201.368762) scale(0.1 -0.1)">
       <defs>
        <path id="DejaVuSans-31" d="M 794 531 
L 1825 531 
L 1825 4091 
L 703 3866 
L 703 4441 
L 1819 4666 
L 2450 4666 
L 2450 531 
L 3481 531 
L 3481 0 
L 794 0 
L 794 531 
z
" transform="scale(0.015625)"/>
       </defs>
       <use xlink:href="#DejaVuSans-31"/>
       <use xlink:href="#DejaVuSans-2e" transform="translate(63.623047 0)"/>
       <use xlink:href="#DejaVuSans-30" transform="translate(95.410156 0)"/>
      </g>
     </g>
    </g>
    <g id="ytick_4">
     <g id="line2d_17">
      <path d="M 57.6 142.562315 
L 414.72 142.562315 
" clip-path="url(#pa4600a777d)" style="fill: none; stroke-dasharray: 2.96,1.28; stroke-dashoffset: 0; stroke: #b0b0b0; stroke-opacity: 0.7; stroke-width: 0.8"/>
     </g>
     <g id="line2d_18">
      <g>
       <use xlink:href="#m1cdfd39b23" x="57.6" y="142.562315" style="stroke: #000000; stroke-width: 0.8"/>
      </g>
     </g>
     <g id="text_10">
      <!-- 1.5 -->
      <g transform="translate(34.696875 146.361534) scale(0.1 -0.1)">
       <use xlink:href="#DejaVuSans-31"/>
       <use xlink:href="#DejaVuSans-2e" transform="translate(63.623047 0)"/>
       <use xlink:href="#DejaVuSans-35" transform="translate(95.410156 0)"/>
      </g>
     </g>
    </g>
    <g id="ytick_5">
     <g id="line2d_19">
      <path d="M 57.6 87.555087 
L 414.72 87.555087 
" clip-path="url(#pa4600a777d)" style="fill: none; stroke-dasharray: 2.96,1.28; stroke-dashoffset: 0; stroke: #b0b0b0; stroke-opacity: 0.7; stroke-width: 0.8"/>
     </g>
     <g id="line2d_20">
      <g>
       <use xlink:href="#m1cdfd39b23" x="57.6" y="87.555087" style="stroke: #000000; stroke-width: 0.8"/>
      </g>
     </g>
     <g id="text_11">
      <!-- 2.0 -->
      <g transform="translate(34.696875 91.354306) scale(0.1 -0.1)">
       <use xlink:href="#DejaVuSans-32"/>
       <use xlink:href="#DejaVuSans-2e" transform="translate(63.623047 0)"/>
       <use xlink:href="#DejaVuSans-30" transform="translate(95.410156 0)"/>
      </g>
     </g>
    </g>
    <g id="text_12">
     <!-- Training loss -->
     <g transform="translate(28.617187 205.500656) rotate(-90) scale(0.1 -0.1)">
      <defs>
       <path id="DejaVuSans-6c" d="M 603 4863 
L 1178 4863 
L 1178 0 
L 603 0 
L 603 4863 
z
" transform="scale(0.015625)"/>
       <path id="DejaVuSans-6f" d="M 1959 3097 
Q 1497 3097 1228 2736 
Q 959 2375 959 1747 
Q 959 1119 1226 758 
Q 1494 397 1959 397 
Q 2419 397 2687 759 
Q 2956 1122 2956 1747 
Q 2956 2369 2687 2733 
Q 2419 3097 1959 3097 
z
M 1959 3584 
Q 2709 3584 3137 3096 
Q 3566 2609 3566 1747 
Q 3566 888 3137 398 
Q 2709 -91 1959 -91 
Q 1206 -91 779 398 
Q 353 888 353 1747 
Q 353 2609 779 3096 
Q 1206 3584 1959 3584 
z
" transform="scale(0.015625)"/>
      </defs>
      <use xlink:href="#DejaVuSans-54"/>
      <use xlink:href="#DejaVuSans-72" transform="translate(46.333984 0)"/>
      <use xlink:href="#DejaVuSans-61" transform="translate(87.447266 0)"/>
      <use xlink:href="#DejaVuSans-69" transform="translate(148.726562 0)"/>
      <use xlink:href="#DejaVuSans-6e" transform="translate(176.509766 0)"/>
      <use xlink:href="#DejaVuSans-69" transform="translate(239.888672 0)"/>
      <use xlink:href="#DejaVuSans-6e" transform="translate(267.671875 0)"/>
      <use xlink:href="#DejaVuSans-67" transform="translate(331.050781 0)"/>
      <use xlink:href="#DejaVuSans-20" transform="translate(394.527344 0)"/>
      <use xlink:href="#DejaVuSans-6c" transform="translate(426.314453 0)"/>
      <use xlink:href="#DejaVuSans-6f" transform="translate(454.097656 0)"/>
      <use xlink:href="#DejaVuSans-73" transform="translate(515.279297 0)"/>
      <use xlink:href="#DejaVuSans-73" transform="translate(567.378906 0)"/>
     </g>
    </g>
   </g>
   <g id="line2d_21">
    <path d="M 57.968165 63.794293 
L 59.80899 93.527316 
L 60.913485 111.486007 
L 61.281649 124.394285 
L 61.649814 125.916725 
L 62.017979 126.879306 
L 62.754309 130.290649 
L 63.858804 137.733469 
L 64.963299 145.376645 
L 65.331464 143.899354 
L 66.067794 142.831335 
L 66.435959 142.998361 
L 66.804124 144.158616 
L 67.172289 146.203849 
L 67.908619 152.178219 
L 68.276784 155.969004 
L 68.644948 157.802745 
L 69.013113 155.300079 
L 69.381278 154.282438 
L 69.749443 153.923826 
L 70.485773 154.912263 
L 70.853938 156.23263 
L 71.222103 158.407955 
L 71.958433 164.990689 
L 72.326598 162.394872 
L 72.694763 161.669636 
L 73.062928 161.260491 
L 73.431093 162.09421 
L 74.535588 167.625505 
L 75.271918 175.292165 
L 75.640082 180.171777 
L 76.008247 176.937054 
L 77.480907 181.403473 
L 77.849072 183.106168 
L 78.217237 183.821013 
L 78.953567 188.02634 
L 79.321732 190.709122 
L 79.689897 191.806638 
L 80.426227 191.199156 
L 80.794392 190.755434 
L 81.162557 190.112071 
L 81.898887 191.574452 
L 82.267052 191.727991 
L 83.003381 193.658048 
L 83.371546 195.148117 
L 83.739711 194.988366 
L 84.476041 195.179474 
L 85.212371 195.370395 
L 86.685031 202.433075 
L 87.053196 203.377372 
L 87.421361 202.656708 
L 87.789526 202.318462 
L 88.157691 202.315988 
L 88.894021 202.921532 
L 89.262186 203.300518 
L 89.998515 206.306783 
L 90.36668 208.157939 
L 90.734845 209.020323 
L 91.10301 208.422331 
L 91.471175 208.314235 
L 91.83934 208.585912 
L 92.207505 209.229171 
L 92.943835 211.267879 
L 93.312 212.448714 
L 93.680165 214.219327 
L 94.04833 216.610568 
L 94.416495 216.592477 
L 94.78466 215.723453 
L 95.152825 215.585139 
L 95.52099 216.111099 
L 95.889155 217.121158 
L 96.625485 220.06345 
L 97.729979 225.375828 
L 98.098144 225.895172 
L 98.466309 224.986436 
L 98.834474 225.476435 
L 99.570804 227.398267 
L 101.411629 234.291386 
L 101.779794 233.033413 
L 102.516124 234.006731 
L 102.884289 234.216589 
L 103.252454 234.846292 
L 103.620619 235.76944 
L 104.356948 238.426802 
L 105.461443 242.786021 
L 105.829608 242.691511 
L 106.197773 242.190714 
L 106.565938 240.71036 
L 106.934103 240.57257 
L 107.302268 240.888849 
L 107.670433 241.50998 
L 108.406763 243.369776 
L 108.774928 244.469823 
L 109.143093 245.109789 
L 109.511258 245.27287 
L 109.879423 245.781923 
L 111.352082 250.477062 
L 112.088412 254.517577 
L 112.456577 256.877945 
L 112.824742 256.390668 
L 113.561072 254.188695 
L 113.929237 254.642713 
L 114.297402 254.87498 
L 114.665567 255.400197 
L 115.033732 255.152616 
L 115.401897 255.27959 
L 115.770062 255.808836 
L 116.138227 256.571518 
L 116.506392 257.959613 
L 117.242722 257.842078 
L 117.610887 257.887016 
L 117.979052 258.405445 
L 118.347216 259.555168 
L 118.715381 260.19025 
L 119.451711 263.743558 
L 119.819876 266.029129 
L 120.188041 266.919465 
L 120.556206 267.073537 
L 121.660701 268.008548 
L 122.028866 267.860235 
L 123.869691 271.608139 
L 124.237856 271.250598 
L 124.974186 271.019092 
L 125.710515 270.872193 
L 127.183175 275.326366 
L 127.919505 275.416484 
L 128.28767 275.80246 
L 129.024 277.159942 
L 130.128495 279.54673 
L 130.864825 281.835358 
L 131.23299 281.891095 
L 131.601155 282.128358 
L 132.337485 283.114002 
L 134.178309 286.494847 
L 134.546474 287.70825 
L 134.914639 287.026398 
L 136.019134 287.725964 
L 137.859959 289.236689 
L 138.228124 290.281528 
L 138.596289 290.975861 
L 139.332619 290.274648 
L 139.700784 290.042656 
L 140.068948 289.987337 
L 140.805278 290.248402 
L 141.541608 290.781229 
L 141.909773 291.092063 
L 142.277938 291.769854 
L 142.646103 291.818765 
L 143.014268 291.717004 
L 143.750598 292.767344 
L 144.486928 294.289525 
L 145.591423 297.266181 
L 145.959588 296.290348 
L 147.064082 296.723759 
L 147.800412 297.574685 
L 148.904907 299.394111 
L 149.273072 300.035114 
L 149.641237 300.091433 
L 150.009402 299.962224 
L 150.377567 300.303012 
L 152.954722 301.031164 
L 153.322887 301.485959 
L 154.059216 300.806902 
L 154.795546 300.987291 
L 155.163711 301.033165 
L 155.900041 301.483036 
L 156.636371 302.233385 
L 157.372701 302.344877 
L 158.477196 302.716571 
L 159.581691 303.497497 
L 160.318021 304.306424 
L 160.686186 304.142877 
L 162.158845 304.107951 
L 162.895175 304.33053 
L 163.631505 304.902286 
L 163.99967 304.984672 
L 164.367835 304.576314 
L 168.049485 304.365527 
L 179.094433 304.47814 
L 179.094433 304.47814 
" clip-path="url(#pa4600a777d)" style="fill: none; stroke: #0000ff; stroke-width: 1.5; stroke-linecap: square"/>
   </g>
   <g id="line2d_22">
    <path d="M 57.968165 54.374984 
L 58.704495 54.142483 
L 59.80899 54.08534 
L 60.913485 54.252973 
L 61.649814 54.439312 
L 62.754309 54.544853 
L 68.276784 55.168354 
L 68.644948 55.352499 
L 70.853938 55.429237 
L 71.958433 55.734633 
L 72.326598 55.910638 
L 74.903753 56.366603 
L 76.376412 56.991121 
L 78.953567 57.608193 
L 79.321732 57.781166 
L 79.689897 58.14513 
L 81.162557 58.168713 
L 81.898887 58.496972 
L 82.267052 58.283932 
L 83.003381 58.886521 
L 83.371546 59.417721 
L 85.212371 60.375118 
L 86.316866 61.17763 
L 87.053196 61.720362 
L 87.789526 61.474824 
L 89.262186 61.324451 
L 89.998515 62.267944 
L 90.36668 62.533399 
L 90.734845 62.970311 
L 91.10301 62.793734 
L 91.471175 62.814033 
L 92.207505 63.185008 
L 93.312 64.080595 
L 94.416495 65.477964 
L 94.78466 65.238875 
L 95.152825 65.252088 
L 95.52099 65.470063 
L 96.25732 66.328742 
L 98.098144 69.084599 
L 98.466309 68.854535 
L 98.834474 68.780227 
L 99.202639 68.985624 
L 99.938969 69.984953 
L 101.779794 73.387057 
L 102.147959 73.539495 
L 102.516124 73.25242 
L 102.884289 73.123485 
L 103.252454 73.437529 
L 103.988784 74.798178 
L 105.093278 77.481943 
L 105.461443 78.035762 
L 105.829608 78.325628 
L 106.197773 78.786435 
L 106.565938 78.73488 
L 106.934103 78.923392 
L 107.302268 79.427306 
L 108.038598 81.045479 
L 108.774928 82.924232 
L 109.143093 83.238216 
L 109.511258 82.799562 
L 109.879423 82.97558 
L 110.247588 83.504641 
L 110.615753 83.226448 
L 110.983918 83.465014 
L 111.720247 85.559224 
L 112.456577 88.375623 
L 112.824742 89.169764 
L 113.192907 89.416809 
L 113.561072 89.477084 
L 114.297402 91.028705 
L 114.665567 91.192032 
L 115.033732 91.61291 
L 115.401897 92.508168 
L 116.138227 95.102285 
L 116.874557 96.130662 
L 117.242722 96.429031 
L 117.610887 96.488781 
L 118.347216 98.921454 
L 118.715381 98.593411 
L 119.083546 99.580416 
L 119.819876 102.515888 
L 120.188041 104.765231 
L 120.924371 105.474125 
L 121.292536 105.648553 
L 121.660701 105.499853 
L 122.028866 106.182363 
L 122.397031 107.148536 
L 122.765196 107.67804 
L 123.133361 107.740659 
L 123.501526 108.339612 
L 123.869691 111.503152 
L 124.237856 110.879481 
L 125.710515 109.554868 
L 126.446845 112.826735 
L 126.81501 113.430191 
L 127.183175 115.071856 
L 127.55134 117.757723 
L 127.919505 117.455652 
L 128.28767 117.59103 
L 128.655835 118.050979 
L 129.76033 120.171047 
L 130.128495 121.384317 
L 130.864825 125.394453 
L 131.23299 126.417101 
L 131.601155 125.466328 
L 131.96932 125.265144 
L 132.337485 125.610693 
L 133.073814 127.172927 
L 133.810144 128.91792 
L 134.546474 134.556092 
L 134.914639 135.268094 
L 135.282804 133.921037 
L 135.650969 133.433176 
L 136.019134 133.743388 
L 136.387299 134.636031 
L 137.123629 137.555101 
L 137.859959 140.680573 
L 138.228124 143.783963 
L 138.596289 143.260111 
L 138.964454 143.724936 
L 139.332619 143.596885 
L 139.700784 144.123982 
L 140.068948 145.401115 
L 140.805278 149.240928 
L 141.909773 155.892727 
L 142.277938 155.284829 
L 142.646103 155.667757 
L 143.014268 154.635284 
L 143.382433 155.307085 
L 143.750598 156.558945 
L 144.486928 160.445067 
L 145.591423 166.79774 
L 145.959588 167.496692 
L 146.327753 167.145644 
L 146.695918 167.832399 
L 147.064082 167.205516 
L 147.432247 167.700413 
L 147.800412 168.90291 
L 148.904907 174.564708 
L 149.273072 176.497021 
L 149.641237 176.15418 
L 150.009402 175.507872 
L 150.745732 178.521165 
L 151.850227 180.967596 
L 152.586557 184.329233 
L 153.322887 187.585663 
L 153.691052 186.945928 
L 154.059216 185.929771 
L 154.795546 188.096323 
L 155.163711 186.957555 
L 155.531876 188.354815 
L 156.268206 192.760422 
L 156.636371 195.333805 
L 157.372701 198.31155 
L 157.740866 199.212495 
L 158.109031 199.694581 
L 158.477196 200.777966 
L 158.845361 202.50601 
L 159.213526 202.977767 
L 159.949856 206.104957 
L 160.686186 210.896807 
L 161.79068 206.507116 
L 162.158845 204.579883 
L 162.52701 206.133981 
L 162.895175 206.816375 
L 163.26334 206.967397 
L 163.631505 207.326757 
L 163.99967 208.399675 
L 164.367835 212.284039 
L 164.736 211.483056 
L 165.104165 211.177068 
L 166.20866 211.056085 
L 166.94499 215.098167 
L 167.68132 219.773824 
L 168.417649 218.369504 
L 168.785814 218.373032 
L 169.153979 218.780156 
L 169.890309 220.322017 
L 170.258474 221.201308 
L 170.626639 223.187732 
L 171.362969 228.468994 
L 171.731134 228.005204 
L 172.099299 227.802785 
L 172.467464 228.08733 
L 172.835629 228.826501 
L 173.940124 232.371682 
L 174.676454 234.8102 
L 175.044619 237.139471 
L 175.412784 237.248584 
L 175.780948 237.020364 
L 176.149113 237.081655 
L 176.517278 237.5236 
L 177.253608 239.232276 
L 178.358103 242.242392 
L 178.726268 244.250243 
L 179.094433 244.125473 
L 179.462598 243.595578 
L 179.830763 243.630407 
L 180.198928 243.980618 
L 180.567093 244.726125 
L 181.303423 247.156735 
L 182.407918 251.591072 
L 182.776082 251.229743 
L 184.248742 252.918729 
L 184.616907 253.745312 
L 185.353237 256.106809 
L 186.089567 258.791083 
L 186.457732 258.41908 
L 187.194062 259.132186 
L 187.562227 259.595006 
L 187.930392 259.82503 
L 188.298557 260.337625 
L 189.034887 262.192391 
L 189.771216 264.42393 
L 190.139381 264.853671 
L 190.875711 264.971966 
L 191.612041 265.896641 
L 192.348371 267.125261 
L 193.084701 269.129075 
L 193.452866 270.247104 
L 193.821031 270.998224 
L 194.557361 270.479352 
L 194.925526 270.243887 
L 195.293691 270.502375 
L 195.661856 270.045023 
L 196.030021 270.57152 
L 196.398186 271.414812 
L 197.50268 274.939059 
L 198.23901 275.837012 
L 198.607175 276.155582 
L 198.97534 276.647451 
L 200.816165 280.331115 
L 201.18433 281.561388 
L 202.65699 277.759263 
L 204.497814 280.029537 
L 204.865979 280.749622 
L 205.234144 280.683542 
L 205.602309 280.818675 
L 206.338639 281.505519 
L 206.706804 281.955996 
L 207.074969 282.606855 
L 207.811299 285.012873 
L 208.179464 286.304653 
L 208.547629 285.347605 
L 208.915794 285.2077 
L 209.283959 285.238075 
L 210.020289 285.670636 
L 210.756619 286.315263 
L 211.124784 286.760305 
L 211.861113 288.411168 
L 212.597443 288.172384 
L 213.333773 288.33242 
L 214.070103 288.928484 
L 215.174598 290.129665 
L 215.542763 290.884332 
L 216.279093 290.645249 
L 216.647258 290.678234 
L 217.383588 291.099921 
L 218.488082 292.271394 
L 219.224412 293.216055 
L 219.592577 292.990659 
L 219.960742 293.106465 
L 220.697072 293.173831 
L 221.433402 293.572452 
L 222.537897 294.526394 
L 222.906062 294.855144 
L 223.274227 295.006308 
L 224.378722 294.635427 
L 224.746887 294.699452 
L 225.483216 295.148513 
L 226.955876 296.457963 
L 227.324041 296.267685 
L 228.060371 296.388683 
L 228.796701 296.543249 
L 229.533031 296.983715 
L 230.269361 297.656709 
L 230.637526 297.352207 
L 231.373856 297.256803 
L 233.21468 298.24981 
L 234.319175 299.198866 
L 236.528165 298.920922 
L 237.264495 299.14276 
L 237.63266 299.328692 
L 239.473485 299.432736 
L 240.577979 299.966281 
L 241.682474 300.869793 
L 243.155134 300.386156 
L 244.627794 300.400322 
L 244.995959 300.576411 
L 245.364124 301.016584 
L 246.100454 300.862163 
L 247.204948 300.853356 
L 248.677608 301.747645 
L 250.150268 301.278965 
L 251.254763 301.186332 
L 252.359258 302.053881 
L 252.727423 301.787025 
L 253.831918 301.876614 
L 255.304577 302.352425 
L 256.409072 302.880945 
L 257.145402 302.471333 
L 257.881732 302.280223 
L 258.986227 302.281337 
L 261.563381 302.662092 
L 262.667876 303.243765 
L 263.404206 303.711288 
L 263.772371 303.419098 
L 265.613196 303.404568 
L 267.085856 303.584709 
L 267.454021 303.510616 
L 271.13567 303.904594 
L 271.503835 303.836755 
L 272.240165 303.941324 
L 272.60833 303.852357 
L 274.08099 304.063108 
L 275.185485 304.150484 
L 275.921814 304.186651 
L 277.762639 304.346263 
L 278.498969 304.185969 
L 279.971629 303.788051 
L 285.862268 303.73388 
L 293.225567 303.867738 
L 293.225567 303.867738 
" clip-path="url(#pa4600a777d)" style="fill: none; stroke: #ff0000; stroke-width: 1.5; stroke-linecap: square"/>
   </g>
   <g id="line2d_23">
    <path d="M 57.968165 64.245307 
L 59.80899 93.446709 
L 60.913485 110.987614 
L 61.281649 123.71289 
L 62.754309 129.733986 
L 63.858804 137.298216 
L 64.963299 145.328874 
L 65.331464 143.60188 
L 66.067794 142.627491 
L 66.435959 142.741699 
L 66.804124 143.810213 
L 67.172289 145.777326 
L 67.908619 151.670943 
L 68.276784 155.461841 
L 68.644948 157.408126 
L 69.013113 155.011561 
L 69.381278 153.86936 
L 69.749443 153.576098 
L 70.485773 154.673292 
L 70.853938 156.085577 
L 71.222103 158.393055 
L 71.958433 165.256973 
L 72.326598 162.830014 
L 72.694763 162.188745 
L 73.062928 161.872216 
L 73.431093 162.53101 
L 74.167423 165.775925 
L 74.535588 168.11611 
L 75.271918 175.311222 
L 75.640082 179.976152 
L 76.008247 176.526766 
L 77.480907 180.458193 
L 77.849072 182.126337 
L 78.217237 182.826259 
L 78.953567 187.174935 
L 79.321732 189.996733 
L 79.689897 191.13046 
L 80.794392 190.852772 
L 81.162557 190.539706 
L 81.530722 191.004529 
L 81.898887 191.725348 
L 82.267052 192.097551 
L 82.635216 192.744068 
L 83.003381 193.663187 
L 83.371546 195.233704 
L 83.739711 194.914032 
L 84.107876 194.850506 
L 85.212371 195.041685 
L 86.685031 202.35871 
L 87.053196 203.758136 
L 87.421361 203.243307 
L 87.789526 203.030854 
L 88.157691 203.11452 
L 88.894021 203.791035 
L 89.262186 204.162805 
L 89.630351 205.259625 
L 90.36668 208.204803 
L 90.734845 209.203905 
L 91.10301 208.595074 
L 91.471175 208.490884 
L 91.83934 208.743292 
L 92.207505 209.369135 
L 92.943835 211.356715 
L 93.312 212.518999 
L 94.04833 217.222033 
L 94.416495 216.992526 
L 94.78466 216.172382 
L 95.152825 215.986373 
L 95.52099 216.461787 
L 95.889155 217.408357 
L 96.625485 220.310088 
L 97.361814 223.805666 
L 97.729979 226.201187 
L 98.098144 226.476373 
L 98.466309 226.107879 
L 98.834474 226.463603 
L 99.570804 228.180822 
L 101.411629 234.24313 
L 101.779794 233.180705 
L 102.516124 233.753024 
L 102.884289 233.660348 
L 103.252454 234.07255 
L 103.620619 234.911109 
L 104.356948 237.582077 
L 105.461443 242.186267 
L 106.197773 241.930802 
L 106.565938 240.583344 
L 106.934103 240.747093 
L 107.302268 241.479824 
L 108.038598 243.796962 
L 108.774928 246.64534 
L 109.143093 247.184159 
L 109.879423 247.872198 
L 111.720247 253.804616 
L 112.456577 257.203558 
L 113.192907 255.093576 
L 113.561072 253.755409 
L 113.929237 254.355331 
L 114.665567 255.032777 
L 115.033732 255.011656 
L 115.401897 255.340111 
L 115.770062 256.091748 
L 116.138227 257.126444 
L 116.506392 258.727206 
L 117.242722 259.508705 
L 117.610887 259.985557 
L 117.979052 260.189632 
L 118.347216 261.281109 
L 118.715381 262.00168 
L 119.451711 264.755808 
L 120.188041 268.16695 
L 120.556206 267.925523 
L 122.028866 267.533634 
L 122.397031 268.064872 
L 122.765196 268.25715 
L 123.133361 268.942477 
L 123.869691 271.21994 
L 124.237856 271.126033 
L 124.974186 271.534316 
L 125.710515 272.082148 
L 126.81501 275.733028 
L 127.183175 277.108881 
L 127.55134 276.709888 
L 127.919505 276.717107 
L 128.28767 276.98 
L 129.76033 278.943322 
L 130.864825 282.676094 
L 131.23299 282.590058 
L 132.705649 284.222171 
L 133.441979 284.930128 
L 133.810144 285.109727 
L 134.178309 285.681298 
L 134.546474 286.626316 
L 134.914639 285.654375 
L 135.282804 285.664686 
L 135.650969 285.872774 
L 136.019134 286.224517 
L 136.755464 287.326533 
L 137.859959 289.160688 
L 138.596289 291.733769 
L 140.068948 291.181448 
L 141.909773 291.397888 
L 142.277938 291.734608 
L 142.646103 291.822557 
L 143.014268 291.794065 
L 143.750598 292.760838 
L 144.486928 294.308084 
L 145.591423 297.344596 
L 146.327753 296.892259 
L 147.432247 296.856377 
L 148.168577 297.173661 
L 149.641237 298.290615 
L 150.009402 298.10138 
L 151.850227 299.387736 
L 152.586557 300.412452 
L 152.954722 301.060041 
L 153.322887 301.33412 
L 154.427381 300.870398 
L 155.531876 301.238148 
L 156.268206 301.882247 
L 156.636371 302.306035 
L 157.004536 302.257894 
L 158.477196 302.621928 
L 159.213526 303.240356 
L 159.949856 304.081238 
L 160.318021 304.583464 
L 160.686186 304.517674 
L 161.79068 303.876196 
L 162.158845 303.71819 
L 162.895175 303.740742 
L 163.26334 304.113931 
L 163.631505 304.20822 
L 163.99967 304.115783 
L 164.367835 303.73526 
L 165.840495 303.7113 
L 168.049485 304.052228 
L 175.412784 304.529458 
L 179.094433 304.856732 
L 179.094433 304.856732 
" clip-path="url(#pa4600a777d)" style="fill: none; stroke: #008000; stroke-width: 1.5; stroke-linecap: square"/>
   </g>
   <g id="line2d_24">
    <path d="M 57.968165 59.072849 
L 59.440825 69.828906 
L 60.913485 79.021997 
L 61.281649 84.036758 
L 61.649814 84.494993 
L 62.386144 84.906278 
L 62.754309 85.539938 
L 63.490639 87.808853 
L 64.595134 92.391138 
L 64.963299 94.207586 
L 65.331464 93.132716 
L 65.699629 93.140019 
L 66.067794 92.40411 
L 66.435959 92.667046 
L 66.804124 93.516803 
L 67.540454 96.66683 
L 68.644948 102.964411 
L 69.013113 102.271064 
L 69.381278 102.169994 
L 69.749443 102.588445 
L 70.117608 102.799081 
L 70.485773 102.846377 
L 70.853938 103.642415 
L 71.222103 105.22778 
L 71.958433 109.918593 
L 72.694763 110.526297 
L 73.062928 110.782655 
L 74.167423 115.703012 
L 74.535588 117.083917 
L 74.903753 119.369506 
L 75.640082 125.97154 
L 76.744577 129.225253 
L 77.112742 130.086836 
L 77.480907 131.409357 
L 77.849072 133.569282 
L 78.585402 135.838568 
L 78.953567 138.004789 
L 79.321732 141.040253 
L 79.689897 145.934703 
L 80.426227 147.373189 
L 81.162557 148.880067 
L 81.530722 150.693376 
L 81.898887 153.348549 
L 82.267052 154.658198 
L 82.635216 156.64244 
L 83.003381 159.52714 
L 83.371546 165.811933 
L 83.739711 165.501662 
L 84.107876 165.735249 
L 85.212371 167.34409 
L 85.580536 169.621542 
L 87.053196 183.453457 
L 87.421361 183.022362 
L 87.789526 183.507208 
L 88.525856 186.128541 
L 89.262186 189.07895 
L 89.630351 192.671692 
L 89.998515 197.368266 
L 90.734845 203.26627 
L 91.10301 202.370566 
L 91.471175 202.553806 
L 91.83934 203.560961 
L 92.57567 207.188913 
L 93.312 211.365375 
L 94.04833 220.799522 
L 94.416495 220.57521 
L 94.78466 219.762724 
L 95.152825 219.810245 
L 95.52099 220.692901 
L 96.25732 224.099658 
L 97.361814 230.75286 
L 97.729979 236.819422 
L 98.098144 235.510683 
L 98.466309 234.819616 
L 98.834474 234.525257 
L 99.202639 235.228669 
L 99.570804 236.598376 
L 100.307134 240.891582 
L 101.411629 249.153134 
L 101.779794 248.18511 
L 102.884289 250.024294 
L 103.252454 251.151555 
L 103.988784 254.863744 
L 105.093278 262.378441 
L 105.461443 261.291056 
L 105.829608 260.966356 
L 106.197773 261.375566 
L 106.565938 260.896 
L 106.934103 261.650407 
L 107.302268 262.965055 
L 108.038598 266.909957 
L 108.774928 271.579826 
L 109.143093 272.511301 
L 109.511258 272.085323 
L 109.879423 271.904856 
L 110.247588 272.263311 
L 110.615753 272.361516 
L 110.983918 272.995765 
L 111.720247 275.252812 
L 112.456577 278.283534 
L 113.192907 277.086593 
L 113.561072 276.289995 
L 114.297402 277.707165 
L 114.665567 278.826397 
L 115.401897 280.348717 
L 116.138227 282.710244 
L 116.506392 281.973763 
L 117.610887 280.843237 
L 117.979052 281.170401 
L 118.347216 281.685364 
L 118.715381 281.79503 
L 119.083546 282.763862 
L 120.188041 286.915013 
L 120.556206 286.998024 
L 121.292536 287.63095 
L 121.660701 288.069867 
L 122.028866 288.122549 
L 122.397031 288.706505 
L 122.765196 289.880102 
L 123.133361 290.334539 
L 123.501526 290.971481 
L 123.869691 291.351703 
L 124.606021 290.711058 
L 125.342351 290.561591 
L 125.710515 290.604856 
L 127.183175 294.853303 
L 127.55134 294.404913 
L 127.919505 294.633763 
L 128.655835 295.541427 
L 129.392165 296.882881 
L 129.76033 297.663226 
L 130.128495 297.780376 
L 130.864825 299.31296 
L 131.23299 299.390084 
L 131.601155 299.210867 
L 131.96932 299.183959 
L 132.705649 299.454193 
L 133.810144 300.186366 
L 134.546474 301.328727 
L 134.914639 301.182665 
L 135.650969 301.350181 
L 136.387299 301.691331 
L 137.491794 302.532506 
L 137.859959 302.857847 
L 138.228124 303.585934 
L 138.596289 303.184222 
L 139.700784 302.895901 
L 140.437113 303.018942 
L 141.173443 303.389779 
L 141.909773 303.920483 
L 142.277938 303.801566 
L 143.750598 304.474512 
L 145.223258 305.727697 
L 145.591423 306.061637 
L 147.064082 305.529065 
L 148.168577 305.478406 
L 149.273072 305.631159 
L 149.641237 305.872032 
L 150.009402 305.756475 
L 150.745732 305.821107 
L 151.113897 306.08165 
L 151.850227 306.025055 
L 152.586557 305.983275 
L 154.427381 305.388637 
L 160.686186 305.304074 
L 168.049485 305.429139 
L 168.049485 305.429139 
" clip-path="url(#pa4600a777d)" style="fill: none; stroke: #bf00bf; stroke-width: 1.5; stroke-linecap: square"/>
   </g>
   <g id="line2d_25">
    <path d="M 57.968165 54.173676 
L 63.490639 54.222345 
L 65.699629 54.206672 
L 66.804124 54.243086 
L 69.381278 54.349656 
L 76.376412 54.349422 
L 79.689897 54.460977 
L 91.471175 54.62757 
L 92.943835 54.659877 
L 104.725113 55.829195 
L 105.461443 56.048221 
L 106.197773 56.127265 
L 108.038598 56.52206 
L 109.511258 57.09437 
L 110.615753 57.164192 
L 111.720247 57.389148 
L 112.456577 57.634503 
L 112.824742 57.967329 
L 114.297402 57.839093 
L 115.770062 58.164984 
L 116.506392 58.425886 
L 117.610887 58.411896 
L 119.083546 58.759614 
L 119.819876 59.326906 
L 120.188041 59.696981 
L 121.292536 59.787933 
L 122.028866 59.977711 
L 123.869691 60.944629 
L 124.606021 60.997145 
L 125.710515 61.309392 
L 126.81501 62.523696 
L 127.183175 62.833228 
L 128.28767 62.790377 
L 129.76033 63.217125 
L 130.128495 63.336038 
L 130.864825 63.940219 
L 131.601155 64.057842 
L 132.337485 64.266258 
L 134.178309 65.202375 
L 134.546474 65.517106 
L 134.914639 65.667958 
L 136.019134 65.700262 
L 138.596289 66.339998 
L 138.964454 65.819598 
L 139.700784 65.699858 
L 140.437113 65.929463 
L 141.173443 66.529706 
L 141.909773 67.326619 
L 142.277938 67.346392 
L 143.014268 67.877681 
L 143.750598 67.96277 
L 144.118763 68.133111 
L 145.223258 69.130981 
L 145.591423 69.469648 
L 145.959588 69.535048 
L 146.327753 69.740959 
L 146.695918 69.758986 
L 147.064082 69.344958 
L 147.800412 69.707981 
L 149.641237 71.14533 
L 150.745732 70.620331 
L 151.113897 70.770267 
L 151.850227 70.694292 
L 152.586557 70.892886 
L 152.954722 71.071701 
L 153.322887 71.098296 
L 154.059216 70.0298 
L 154.427381 70.207912 
L 154.795546 70.1824 
L 155.163711 70.751424 
L 155.531876 70.373591 
L 155.900041 70.184163 
L 157.004536 69.986618 
L 157.740866 69.727744 
L 158.477196 69.61757 
L 158.845361 69.877181 
L 159.213526 70.333993 
L 159.581691 70.529243 
L 159.949856 70.876999 
L 160.318021 71.429225 
L 161.422515 72.128695 
L 162.158845 72.919506 
L 162.52701 72.497953 
L 163.99967 73.546371 
L 164.367835 73.180639 
L 165.840495 74.952589 
L 166.20866 75.271309 
L 166.576825 75.291182 
L 166.94499 75.621761 
L 167.313155 76.312998 
L 168.049485 76.266465 
L 168.785814 75.608886 
L 169.890309 75.116122 
L 170.626639 74.879188 
L 170.994804 74.876669 
L 171.362969 74.648583 
L 171.731134 75.337662 
L 172.099299 75.530294 
L 172.835629 76.284542 
L 174.308289 78.235808 
L 174.676454 78.180501 
L 175.044619 78.622213 
L 175.412784 78.267868 
L 176.517278 78.369825 
L 177.989938 78.481766 
L 178.358103 78.404418 
L 179.094433 78.855369 
L 179.830763 78.659964 
L 180.567093 78.997612 
L 182.407918 80.454065 
L 182.776082 80.997328 
L 183.144247 80.96134 
L 183.512412 80.714288 
L 184.248742 80.70465 
L 185.353237 81.223073 
L 186.089567 81.599934 
L 187.194062 81.670273 
L 187.562227 80.960371 
L 187.930392 81.278457 
L 189.771216 83.903604 
L 190.139381 83.525153 
L 190.507546 83.538295 
L 191.243876 84.002616 
L 191.612041 84.596663 
L 192.348371 83.997717 
L 193.452866 83.531736 
L 194.557361 81.741944 
L 194.925526 82.339113 
L 195.293691 82.469796 
L 195.661856 81.876471 
L 196.398186 82.469239 
L 197.134515 83.546228 
L 197.870845 84.973615 
L 198.607175 86.083777 
L 198.97534 85.856588 
L 199.71167 86.446677 
L 200.448 86.800369 
L 200.816165 86.846163 
L 201.18433 87.610487 
L 202.288825 85.493019 
L 202.65699 84.689876 
L 203.025155 84.945783 
L 204.129649 84.801367 
L 204.497814 84.978152 
L 204.865979 85.954121 
L 205.234144 85.768417 
L 205.970474 85.746775 
L 206.706804 85.910022 
L 207.811299 86.785674 
L 208.179464 87.389875 
L 208.547629 87.433146 
L 208.915794 87.183003 
L 209.283959 87.12179 
L 210.388454 87.389984 
L 210.756619 87.516629 
L 211.492948 88.465219 
L 211.861113 88.54606 
L 212.597443 88.48668 
L 212.965608 88.606177 
L 213.701938 89.158337 
L 214.806433 90.306131 
L 215.542763 91.776233 
L 215.910928 91.023752 
L 216.647258 91.449885 
L 218.119918 92.420386 
L 218.488082 92.553682 
L 218.856247 92.556143 
L 219.224412 93.336947 
L 219.592577 93.586423 
L 219.960742 92.724786 
L 221.801567 93.428077 
L 222.537897 93.553563 
L 222.906062 93.529964 
L 223.274227 94.533265 
L 223.642392 94.30913 
L 224.010557 93.51464 
L 224.378722 93.322964 
L 224.746887 93.369999 
L 225.851381 94.206451 
L 226.587711 95.01166 
L 226.955876 94.418684 
L 227.324041 95.321317 
L 227.692206 95.623858 
L 228.060371 96.33709 
L 229.164866 96.366622 
L 229.901196 96.724576 
L 230.269361 96.969585 
L 231.005691 95.572082 
L 231.373856 95.745358 
L 231.742021 95.795491 
L 232.478351 95.661541 
L 232.846515 95.809432 
L 233.582845 96.585564 
L 233.95101 97.162178 
L 234.319175 97.334635 
L 235.055505 98.948803 
L 235.42367 99.057893 
L 235.791835 99.682022 
L 236.16 99.972877 
L 236.528165 100.481371 
L 237.63266 102.899628 
L 238.737155 103.787562 
L 239.10532 103.844498 
L 239.841649 104.180394 
L 240.209814 103.809086 
L 241.314309 103.93841 
L 241.682474 104.490206 
L 242.418804 104.88421 
L 242.786969 104.943961 
L 243.155134 104.871686 
L 243.891464 105.67317 
L 244.259629 106.169116 
L 244.995959 106.385244 
L 245.364124 107.358736 
L 246.468619 106.112097 
L 247.204948 105.290192 
L 247.573113 105.570211 
L 247.941278 105.670915 
L 248.309443 105.227991 
L 248.677608 105.678214 
L 249.045773 107.764991 
L 249.413938 107.744742 
L 249.782103 107.930518 
L 250.518433 108.760261 
L 251.991093 111.236585 
L 252.359258 112.55687 
L 252.727423 111.64102 
L 253.463753 111.767046 
L 254.200082 112.242084 
L 255.304577 113.002985 
L 256.040907 115.33992 
L 256.409072 114.244377 
L 256.777237 114.104897 
L 257.145402 114.116466 
L 257.513567 114.419069 
L 258.618062 116.1075 
L 259.354392 117.409145 
L 259.722557 117.398279 
L 260.090722 118.581197 
L 260.458887 118.020566 
L 260.827052 117.912994 
L 261.195216 118.118245 
L 261.931546 119.215363 
L 264.140536 123.523726 
L 264.508701 124.044202 
L 264.876866 124.351785 
L 265.613196 125.443517 
L 267.085856 128.271263 
L 267.454021 128.249581 
L 268.190351 128.909088 
L 268.558515 129.676625 
L 271.13567 131.509184 
L 271.503835 131.125217 
L 271.872 130.966748 
L 272.240165 131.214034 
L 272.60833 131.234155 
L 272.976495 131.441718 
L 273.34466 132.017198 
L 273.712825 132.98424 
L 274.449155 135.7474 
L 274.81732 136.453974 
L 275.553649 138.45697 
L 275.921814 138.925607 
L 276.289979 139.651412 
L 276.658144 139.802578 
L 277.026309 140.536057 
L 278.498969 144.500392 
L 279.235299 144.91067 
L 279.603464 144.917879 
L 279.971629 145.288655 
L 280.339794 145.907463 
L 280.707959 146.169485 
L 281.076124 146.60392 
L 281.812454 148.350495 
L 282.180619 150.938205 
L 282.916948 150.638762 
L 283.653278 150.252083 
L 284.389608 151.561615 
L 284.757773 151.570678 
L 285.125938 152.017747 
L 285.494103 152.651627 
L 285.862268 154.104128 
L 286.230433 154.065599 
L 286.598598 154.277627 
L 287.334928 155.081236 
L 287.703093 155.556144 
L 288.071258 156.779687 
L 289.175753 161.607223 
L 289.543918 162.637392 
L 289.912082 162.584878 
L 290.280247 162.735563 
L 291.016577 163.407396 
L 291.752907 164.185982 
L 292.489237 166.646427 
L 292.857402 168.361112 
L 293.225567 168.607972 
L 293.593732 168.318888 
L 293.961897 168.276341 
L 294.330062 168.582808 
L 295.066392 169.896532 
L 295.802722 171.623814 
L 296.907216 176.482128 
L 297.275381 175.706422 
L 297.643546 175.434229 
L 298.011711 175.654001 
L 298.379876 176.176574 
L 299.116206 177.950709 
L 300.588866 182.813528 
L 300.957031 181.97745 
L 301.325196 182.052777 
L 301.693361 182.569883 
L 302.429691 184.832246 
L 303.166021 187.912425 
L 303.902351 191.387891 
L 304.270515 191.037725 
L 304.63868 191.048722 
L 305.006845 190.871786 
L 305.37501 190.912011 
L 305.743175 191.24575 
L 306.11134 191.98431 
L 306.84767 194.37806 
L 307.584 197.440985 
L 307.952165 197.167525 
L 308.688495 198.508033 
L 309.05666 199.422207 
L 309.424825 199.734354 
L 309.79299 200.447623 
L 310.52932 202.940433 
L 311.265649 206.33335 
L 311.633814 206.950068 
L 312.001979 206.774833 
L 312.370144 207.098418 
L 313.474639 208.846636 
L 314.210969 210.932312 
L 314.947299 213.793534 
L 315.315464 214.470395 
L 316.051794 214.132935 
L 316.419959 213.784308 
L 317.156289 214.618112 
L 317.524454 215.037011 
L 318.260784 217.422984 
L 318.628948 219.052353 
L 318.997113 219.931285 
L 319.733443 220.434982 
L 320.101608 220.737466 
L 320.469773 221.397695 
L 320.837938 222.325319 
L 321.206103 222.873744 
L 321.942433 225.294883 
L 322.678763 228.819546 
L 323.415093 228.332949 
L 324.151423 228.028433 
L 324.519588 228.29153 
L 324.887753 229.112211 
L 325.255918 229.612682 
L 325.624082 230.495645 
L 325.992247 231.689255 
L 326.360412 232.024197 
L 326.728577 232.09576 
L 327.464907 232.613932 
L 328.201237 233.302847 
L 328.937567 235.881241 
L 329.673897 238.908437 
L 330.410227 238.363319 
L 330.778392 238.361136 
L 331.514722 238.78852 
L 332.251052 239.392118 
L 333.723711 242.668284 
L 334.091876 242.653743 
L 334.460041 242.871799 
L 334.828206 243.319803 
L 335.564536 244.71731 
L 336.669031 247.422562 
L 337.037196 248.89281 
L 337.405361 249.459871 
L 338.141691 249.050923 
L 338.509856 249.037881 
L 338.878021 249.168786 
L 339.614351 249.89748 
L 340.35068 250.94952 
L 340.718845 251.934994 
L 341.08701 251.667916 
L 342.191505 253.075029 
L 342.927835 254.839056 
L 344.03233 258.293296 
L 344.400495 259.48097 
L 344.76866 259.246086 
L 345.136825 259.164927 
L 345.50499 259.285565 
L 345.873155 259.140114 
L 346.24132 259.114526 
L 346.977649 259.486675 
L 348.082144 260.414103 
L 348.450309 261.048558 
L 348.818474 260.665815 
L 349.186639 260.616119 
L 349.554804 260.124796 
L 349.922969 260.470822 
L 350.659299 261.818375 
L 352.131959 265.457469 
L 352.500124 265.520021 
L 352.868289 265.372407 
L 353.236454 265.569726 
L 353.604619 265.474199 
L 353.972784 265.825996 
L 354.709113 267.005788 
L 355.445443 268.446673 
L 356.181773 268.182914 
L 356.549938 267.952778 
L 356.918103 268.632326 
L 358.758928 270.752049 
L 359.127093 271.366804 
L 359.495258 271.27781 
L 360.599753 270.63934 
L 361.336082 271.463312 
L 361.704247 271.552785 
L 362.440577 272.572421 
L 363.176907 274.080356 
L 363.913237 274.196594 
L 364.649567 274.494149 
L 365.017732 274.456102 
L 366.122227 275.536302 
L 366.490392 275.971409 
L 366.858557 276.145186 
L 367.594887 275.881198 
L 368.699381 275.893355 
L 369.435711 276.880522 
L 369.803876 277.156525 
L 370.172041 277.952291 
L 370.540206 277.83601 
L 371.276536 278.362718 
L 373.117361 280.10539 
L 374.221856 281.485467 
L 374.958186 280.816763 
L 375.694515 280.522916 
L 376.79901 280.356325 
L 377.53534 281.274758 
L 377.903505 281.50901 
L 378.27167 281.424975 
L 379.008 281.646608 
L 379.74433 282.188242 
L 380.848825 283.306104 
L 381.21699 284.078458 
L 381.585155 283.452208 
L 381.95332 283.344862 
L 382.689649 283.545331 
L 383.794144 284.090232 
L 384.898639 284.791451 
L 385.266804 284.500875 
L 387.107629 285.077373 
L 388.212124 285.783609 
L 388.580289 286.042188 
L 388.948454 286.014113 
L 389.684784 286.277621 
L 391.525608 286.705143 
L 392.630103 287.114102 
L 394.470928 287.413008 
L 395.943588 288.375949 
L 396.311753 288.656142 
L 398.520742 288.56481 
L 399.625237 288.750186 
L 401.466062 288.535651 
L 411.038351 288.744864 
L 414.72 288.921656 
L 414.72 288.921656 
" clip-path="url(#pa4600a777d)" style="fill: none; stroke: #000000; stroke-width: 1.5; stroke-linecap: square"/>
   </g>
   <g id="patch_3">
    <path d="M 57.6 307.584 
L 57.6 41.472 
" style="fill: none; stroke: #000000; stroke-width: 0.8; stroke-linejoin: miter; stroke-linecap: square"/>
   </g>
   <g id="patch_4">
    <path d="M 414.72 307.584 
L 414.72 41.472 
" style="fill: none; stroke: #000000; stroke-width: 0.8; stroke-linejoin: miter; stroke-linecap: square"/>
   </g>
   <g id="patch_5">
    <path d="M 57.6 307.584 
L 414.72 307.584 
" style="fill: none; stroke: #000000; stroke-width: 0.8; stroke-linejoin: miter; stroke-linecap: square"/>
   </g>
   <g id="patch_6">
    <path d="M 57.6 41.472 
L 414.72 41.472 
" style="fill: none; stroke: #000000; stroke-width: 0.8; stroke-linejoin: miter; stroke-linecap: square"/>
   </g>
   <g id="text_13">
    <!-- MLP3 learning curves -->
    <g transform="translate(171.975937 35.472) scale(0.12 -0.12)">
     <defs>
      <path id="DejaVuSans-4d" d="M 628 4666 
L 1569 4666 
L 2759 1491 
L 3956 4666 
L 4897 4666 
L 4897 0 
L 4281 0 
L 4281 4097 
L 3078 897 
L 2444 897 
L 1241 4097 
L 1241 0 
L 628 0 
L 628 4666 
z
" transform="scale(0.015625)"/>
      <path id="DejaVuSans-4c" d="M 628 4666 
L 1259 4666 
L 1259 531 
L 3531 531 
L 3531 0 
L 628 0 
L 628 4666 
z
" transform="scale(0.015625)"/>
      <path id="DejaVuSans-50" d="M 1259 4147 
L 1259 2394 
L 2053 2394 
Q 2494 2394 2734 2622 
Q 2975 2850 2975 3272 
Q 2975 3691 2734 3919 
Q 2494 4147 2053 4147 
L 1259 4147 
z
M 628 4666 
L 2053 4666 
Q 2838 4666 3239 4311 
Q 3641 3956 3641 3272 
Q 3641 2581 3239 2228 
Q 2838 1875 2053 1875 
L 1259 1875 
L 1259 0 
L 628 0 
L 628 4666 
z
" transform="scale(0.015625)"/>
      <path id="DejaVuSans-33" d="M 2597 2516 
Q 3050 2419 3304 2112 
Q 3559 1806 3559 1356 
Q 3559 666 3084 287 
Q 2609 -91 1734 -91 
Q 1441 -91 1130 -33 
Q 819 25 488 141 
L 488 750 
Q 750 597 1062 519 
Q 1375 441 1716 441 
Q 2309 441 2620 675 
Q 2931 909 2931 1356 
Q 2931 1769 2642 2001 
Q 2353 2234 1838 2234 
L 1294 2234 
L 1294 2753 
L 1863 2753 
Q 2328 2753 2575 2939 
Q 2822 3125 2822 3475 
Q 2822 3834 2567 4026 
Q 2313 4219 1838 4219 
Q 1578 4219 1281 4162 
Q 984 4106 628 3988 
L 628 4550 
Q 988 4650 1302 4700 
Q 1616 4750 1894 4750 
Q 2613 4750 3031 4423 
Q 3450 4097 3450 3541 
Q 3450 3153 3228 2886 
Q 3006 2619 2597 2516 
z
" transform="scale(0.015625)"/>
      <path id="DejaVuSans-63" d="M 3122 3366 
L 3122 2828 
Q 2878 2963 2633 3030 
Q 2388 3097 2138 3097 
Q 1578 3097 1268 2742 
Q 959 2388 959 1747 
Q 959 1106 1268 751 
Q 1578 397 2138 397 
Q 2388 397 2633 464 
Q 2878 531 3122 666 
L 3122 134 
Q 2881 22 2623 -34 
Q 2366 -91 2075 -91 
Q 1284 -91 818 406 
Q 353 903 353 1747 
Q 353 2603 823 3093 
Q 1294 3584 2113 3584 
Q 2378 3584 2631 3529 
Q 2884 3475 3122 3366 
z
" transform="scale(0.015625)"/>
      <path id="DejaVuSans-75" d="M 544 1381 
L 544 3500 
L 1119 3500 
L 1119 1403 
Q 1119 906 1312 657 
Q 1506 409 1894 409 
Q 2359 409 2629 706 
Q 2900 1003 2900 1516 
L 2900 3500 
L 3475 3500 
L 3475 0 
L 2900 0 
L 2900 538 
Q 2691 219 2414 64 
Q 2138 -91 1772 -91 
Q 1169 -91 856 284 
Q 544 659 544 1381 
z
M 1991 3584 
L 1991 3584 
z
" transform="scale(0.015625)"/>
      <path id="DejaVuSans-76" d="M 191 3500 
L 800 3500 
L 1894 563 
L 2988 3500 
L 3597 3500 
L 2284 0 
L 1503 0 
L 191 3500 
z
" transform="scale(0.015625)"/>
     </defs>
     <use xlink:href="#DejaVuSans-4d"/>
     <use xlink:href="#DejaVuSans-4c" transform="translate(86.279297 0)"/>
     <use xlink:href="#DejaVuSans-50" transform="translate(141.992188 0)"/>
     <use xlink:href="#DejaVuSans-33" transform="translate(202.294922 0)"/>
     <use xlink:href="#DejaVuSans-20" transform="translate(265.917969 0)"/>
     <use xlink:href="#DejaVuSans-6c" transform="translate(297.705078 0)"/>
     <use xlink:href="#DejaVuSans-65" transform="translate(325.488281 0)"/>
     <use xlink:href="#DejaVuSans-61" transform="translate(387.011719 0)"/>
     <use xlink:href="#DejaVuSans-72" transform="translate(448.291016 0)"/>
     <use xlink:href="#DejaVuSans-6e" transform="translate(487.654297 0)"/>
     <use xlink:href="#DejaVuSans-69" transform="translate(551.033203 0)"/>
     <use xlink:href="#DejaVuSans-6e" transform="translate(578.816406 0)"/>
     <use xlink:href="#DejaVuSans-67" transform="translate(642.195312 0)"/>
     <use xlink:href="#DejaVuSans-20" transform="translate(705.671875 0)"/>
     <use xlink:href="#DejaVuSans-63" transform="translate(737.458984 0)"/>
     <use xlink:href="#DejaVuSans-75" transform="translate(792.439453 0)"/>
     <use xlink:href="#DejaVuSans-72" transform="translate(855.818359 0)"/>
     <use xlink:href="#DejaVuSans-76" transform="translate(896.931641 0)"/>
     <use xlink:href="#DejaVuSans-65" transform="translate(956.111328 0)"/>
     <use xlink:href="#DejaVuSans-73" transform="translate(1017.634766 0)"/>
    </g>
   </g>
   <g id="legend_1">
    <g id="patch_7">
     <path d="M 303.46375 122.862625 
L 407.72 122.862625 
Q 409.72 122.862625 409.72 120.862625 
L 409.72 48.472 
Q 409.72 46.472 407.72 46.472 
L 303.46375 46.472 
Q 301.46375 46.472 301.46375 48.472 
L 301.46375 120.862625 
Q 301.46375 122.862625 303.46375 122.862625 
z
" style="fill: #ffffff; opacity: 0.8; stroke: #cccccc; stroke-linejoin: miter"/>
    </g>
    <g id="line2d_26">
     <path d="M 305.46375 54.570438 
L 315.46375 54.570438 
L 325.46375 54.570438 
" style="fill: none; stroke: #0000ff; stroke-width: 1.5; stroke-linecap: square"/>
    </g>
    <g id="text_14">
     <!-- true labels -->
     <g transform="translate(333.46375 58.070438) scale(0.1 -0.1)">
      <defs>
       <path id="DejaVuSans-62" d="M 3116 1747 
Q 3116 2381 2855 2742 
Q 2594 3103 2138 3103 
Q 1681 3103 1420 2742 
Q 1159 2381 1159 1747 
Q 1159 1113 1420 752 
Q 1681 391 2138 391 
Q 2594 391 2855 752 
Q 3116 1113 3116 1747 
z
M 1159 2969 
Q 1341 3281 1617 3432 
Q 1894 3584 2278 3584 
Q 2916 3584 3314 3078 
Q 3713 2572 3713 1747 
Q 3713 922 3314 415 
Q 2916 -91 2278 -91 
Q 1894 -91 1617 61 
Q 1341 213 1159 525 
L 1159 0 
L 581 0 
L 581 4863 
L 1159 4863 
L 1159 2969 
z
" transform="scale(0.015625)"/>
      </defs>
      <use xlink:href="#DejaVuSans-74"/>
      <use xlink:href="#DejaVuSans-72" transform="translate(39.208984 0)"/>
      <use xlink:href="#DejaVuSans-75" transform="translate(80.322266 0)"/>
      <use xlink:href="#DejaVuSans-65" transform="translate(143.701172 0)"/>
      <use xlink:href="#DejaVuSans-20" transform="translate(205.224609 0)"/>
      <use xlink:href="#DejaVuSans-6c" transform="translate(237.011719 0)"/>
      <use xlink:href="#DejaVuSans-61" transform="translate(264.794922 0)"/>
      <use xlink:href="#DejaVuSans-62" transform="translate(326.074219 0)"/>
      <use xlink:href="#DejaVuSans-65" transform="translate(389.550781 0)"/>
      <use xlink:href="#DejaVuSans-6c" transform="translate(451.074219 0)"/>
      <use xlink:href="#DejaVuSans-73" transform="translate(478.857422 0)"/>
     </g>
    </g>
    <g id="line2d_27">
     <path d="M 305.46375 69.248563 
L 315.46375 69.248563 
L 325.46375 69.248563 
" style="fill: none; stroke: #ff0000; stroke-width: 1.5; stroke-linecap: square"/>
    </g>
    <g id="text_15">
     <!-- random labels -->
     <g transform="translate(333.46375 72.748563) scale(0.1 -0.1)">
      <defs>
       <path id="DejaVuSans-64" d="M 2906 2969 
L 2906 4863 
L 3481 4863 
L 3481 0 
L 2906 0 
L 2906 525 
Q 2725 213 2448 61 
Q 2172 -91 1784 -91 
Q 1150 -91 751 415 
Q 353 922 353 1747 
Q 353 2572 751 3078 
Q 1150 3584 1784 3584 
Q 2172 3584 2448 3432 
Q 2725 3281 2906 2969 
z
M 947 1747 
Q 947 1113 1208 752 
Q 1469 391 1925 391 
Q 2381 391 2643 752 
Q 2906 1113 2906 1747 
Q 2906 2381 2643 2742 
Q 2381 3103 1925 3103 
Q 1469 3103 1208 2742 
Q 947 2381 947 1747 
z
" transform="scale(0.015625)"/>
       <path id="DejaVuSans-6d" d="M 3328 2828 
Q 3544 3216 3844 3400 
Q 4144 3584 4550 3584 
Q 5097 3584 5394 3201 
Q 5691 2819 5691 2113 
L 5691 0 
L 5113 0 
L 5113 2094 
Q 5113 2597 4934 2840 
Q 4756 3084 4391 3084 
Q 3944 3084 3684 2787 
Q 3425 2491 3425 1978 
L 3425 0 
L 2847 0 
L 2847 2094 
Q 2847 2600 2669 2842 
Q 2491 3084 2119 3084 
Q 1678 3084 1418 2786 
Q 1159 2488 1159 1978 
L 1159 0 
L 581 0 
L 581 3500 
L 1159 3500 
L 1159 2956 
Q 1356 3278 1631 3431 
Q 1906 3584 2284 3584 
Q 2666 3584 2933 3390 
Q 3200 3197 3328 2828 
z
" transform="scale(0.015625)"/>
      </defs>
      <use xlink:href="#DejaVuSans-72"/>
      <use xlink:href="#DejaVuSans-61" transform="translate(41.113281 0)"/>
      <use xlink:href="#DejaVuSans-6e" transform="translate(102.392578 0)"/>
      <use xlink:href="#DejaVuSans-64" transform="translate(165.771484 0)"/>
      <use xlink:href="#DejaVuSans-6f" transform="translate(229.248047 0)"/>
      <use xlink:href="#DejaVuSans-6d" transform="translate(290.429688 0)"/>
      <use xlink:href="#DejaVuSans-20" transform="translate(387.841797 0)"/>
      <use xlink:href="#DejaVuSans-6c" transform="translate(419.628906 0)"/>
      <use xlink:href="#DejaVuSans-61" transform="translate(447.412109 0)"/>
      <use xlink:href="#DejaVuSans-62" transform="translate(508.691406 0)"/>
      <use xlink:href="#DejaVuSans-65" transform="translate(572.167969 0)"/>
      <use xlink:href="#DejaVuSans-6c" transform="translate(633.691406 0)"/>
      <use xlink:href="#DejaVuSans-73" transform="translate(661.474609 0)"/>
     </g>
    </g>
    <g id="line2d_28">
     <path d="M 305.46375 83.926688 
L 315.46375 83.926688 
L 325.46375 83.926688 
" style="fill: none; stroke: #008000; stroke-width: 1.5; stroke-linecap: square"/>
    </g>
    <g id="text_16">
     <!-- shuffled pixels -->
     <g transform="translate(333.46375 87.426688) scale(0.1 -0.1)">
      <defs>
       <path id="DejaVuSans-68" d="M 3513 2113 
L 3513 0 
L 2938 0 
L 2938 2094 
Q 2938 2591 2744 2837 
Q 2550 3084 2163 3084 
Q 1697 3084 1428 2787 
Q 1159 2491 1159 1978 
L 1159 0 
L 581 0 
L 581 4863 
L 1159 4863 
L 1159 2956 
Q 1366 3272 1645 3428 
Q 1925 3584 2291 3584 
Q 2894 3584 3203 3211 
Q 3513 2838 3513 2113 
z
" transform="scale(0.015625)"/>
       <path id="DejaVuSans-66" d="M 2375 4863 
L 2375 4384 
L 1825 4384 
Q 1516 4384 1395 4259 
Q 1275 4134 1275 3809 
L 1275 3500 
L 2222 3500 
L 2222 3053 
L 1275 3053 
L 1275 0 
L 697 0 
L 697 3053 
L 147 3053 
L 147 3500 
L 697 3500 
L 697 3744 
Q 697 4328 969 4595 
Q 1241 4863 1831 4863 
L 2375 4863 
z
" transform="scale(0.015625)"/>
       <path id="DejaVuSans-78" d="M 3513 3500 
L 2247 1797 
L 3578 0 
L 2900 0 
L 1881 1375 
L 863 0 
L 184 0 
L 1544 1831 
L 300 3500 
L 978 3500 
L 1906 2253 
L 2834 3500 
L 3513 3500 
z
" transform="scale(0.015625)"/>
      </defs>
      <use xlink:href="#DejaVuSans-73"/>
      <use xlink:href="#DejaVuSans-68" transform="translate(52.099609 0)"/>
      <use xlink:href="#DejaVuSans-75" transform="translate(115.478516 0)"/>
      <use xlink:href="#DejaVuSans-66" transform="translate(178.857422 0)"/>
      <use xlink:href="#DejaVuSans-66" transform="translate(214.0625 0)"/>
      <use xlink:href="#DejaVuSans-6c" transform="translate(249.267578 0)"/>
      <use xlink:href="#DejaVuSans-65" transform="translate(277.050781 0)"/>
      <use xlink:href="#DejaVuSans-64" transform="translate(338.574219 0)"/>
      <use xlink:href="#DejaVuSans-20" transform="translate(402.050781 0)"/>
      <use xlink:href="#DejaVuSans-70" transform="translate(433.837891 0)"/>
      <use xlink:href="#DejaVuSans-69" transform="translate(497.314453 0)"/>
      <use xlink:href="#DejaVuSans-78" transform="translate(525.097656 0)"/>
      <use xlink:href="#DejaVuSans-65" transform="translate(581.152344 0)"/>
      <use xlink:href="#DejaVuSans-6c" transform="translate(642.675781 0)"/>
      <use xlink:href="#DejaVuSans-73" transform="translate(670.458984 0)"/>
     </g>
    </g>
    <g id="line2d_29">
     <path d="M 305.46375 98.604813 
L 315.46375 98.604813 
L 325.46375 98.604813 
" style="fill: none; stroke: #bf00bf; stroke-width: 1.5; stroke-linecap: square"/>
    </g>
    <g id="text_17">
     <!-- random pixels -->
     <g transform="translate(333.46375 102.104813) scale(0.1 -0.1)">
      <use xlink:href="#DejaVuSans-72"/>
      <use xlink:href="#DejaVuSans-61" transform="translate(41.113281 0)"/>
      <use xlink:href="#DejaVuSans-6e" transform="translate(102.392578 0)"/>
      <use xlink:href="#DejaVuSans-64" transform="translate(165.771484 0)"/>
      <use xlink:href="#DejaVuSans-6f" transform="translate(229.248047 0)"/>
      <use xlink:href="#DejaVuSans-6d" transform="translate(290.429688 0)"/>
      <use xlink:href="#DejaVuSans-20" transform="translate(387.841797 0)"/>
      <use xlink:href="#DejaVuSans-70" transform="translate(419.628906 0)"/>
      <use xlink:href="#DejaVuSans-69" transform="translate(483.105469 0)"/>
      <use xlink:href="#DejaVuSans-78" transform="translate(510.888672 0)"/>
      <use xlink:href="#DejaVuSans-65" transform="translate(566.943359 0)"/>
      <use xlink:href="#DejaVuSans-6c" transform="translate(628.466797 0)"/>
      <use xlink:href="#DejaVuSans-73" transform="translate(656.25 0)"/>
     </g>
    </g>
    <g id="line2d_30">
     <path d="M 305.46375 113.282938 
L 315.46375 113.282938 
L 325.46375 113.282938 
" style="fill: none; stroke: #000000; stroke-width: 1.5; stroke-linecap: square"/>
    </g>
    <g id="text_18">
     <!-- gaussian -->
     <g transform="translate(333.46375 116.782938) scale(0.1 -0.1)">
      <use xlink:href="#DejaVuSans-67"/>
      <use xlink:href="#DejaVuSans-61" transform="translate(63.476562 0)"/>
      <use xlink:href="#DejaVuSans-75" transform="translate(124.755859 0)"/>
      <use xlink:href="#DejaVuSans-73" transform="translate(188.134766 0)"/>
      <use xlink:href="#DejaVuSans-73" transform="translate(240.234375 0)"/>
      <use xlink:href="#DejaVuSans-69" transform="translate(292.333984 0)"/>
      <use xlink:href="#DejaVuSans-61" transform="translate(320.117188 0)"/>
      <use xlink:href="#DejaVuSans-6e" transform="translate(381.396484 0)"/>
     </g>
    </g>
   </g>
  </g>
 </g>
 <defs>
  <clipPath id="pa4600a777d">
   <rect x="57.6" y="41.472" width="357.12" height="266.112"/>
  </clipPath>
 </defs>
</svg>
