<?xml version="1.0" encoding="utf-8" standalone="no"?>
<!DOCTYPE svg PUBLIC "-//W3C//DTD SVG 1.1//EN"
  "http://www.w3.org/Graphics/SVG/1.1/DTD/svg11.dtd">
<svg xmlns:xlink="http://www.w3.org/1999/xlink" width="460.8pt" height="345.6pt" viewBox="0 0 460.8 345.6" xmlns="http://www.w3.org/2000/svg" version="1.1">
 <metadata>
  <rdf:RDF xmlns:dc="http://purl.org/dc/elements/1.1/" xmlns:cc="http://creativecommons.org/ns#" xmlns:rdf="http://www.w3.org/1999/02/22-rdf-syntax-ns#">
   <cc:Work>
    <dc:type rdf:resource="http://purl.org/dc/dcmitype/StillImage"/>
    <dc:date>2025-04-24T00:00:25.293734</dc:date>
    <dc:format>image/svg+xml</dc:format>
    <dc:creator>
     <cc:Agent>
      <dc:title>Matplotlib v3.10.1, https://matplotlib.org/</dc:title>
     </cc:Agent>
    </dc:creator>
   </cc:Work>
  </rdf:RDF>
 </metadata>
 <defs>
  <style type="text/css">*{stroke-linejoin: round; stroke-linecap: butt}</style>
 </defs>
 <g id="figure_1">
  <g id="patch_1">
   <path d="M 0 345.6 
L 460.8 345.6 
L 460.8 0 
L 0 0 
z
" style="fill: #ffffff"/>
  </g>
  <g id="axes_1">
   <g id="patch_2">
    <path d="M 57.6 307.584 
L 414.72 307.584 
L 414.72 41.472 
L 57.6 41.472 
z
" style="fill: #ffffff"/>
   </g>
   <g id="matplotlib.axis_1">
    <g id="xtick_1">
     <g id="line2d_1">
      <path d="M 57.6 307.584 
L 57.6 41.472 
" clip-path="url(#pa53821d4f9)" style="fill: none; stroke-dasharray: 2.96,1.28; stroke-dashoffset: 0; stroke: #b0b0b0; stroke-opacity: 0.7; stroke-width: 0.8"/>
     </g>
     <g id="line2d_2">
      <defs>
       <path id="m418a8fccf3" d="M 0 0 
L 0 3.5 
" style="stroke: #000000; stroke-width: 0.8"/>
      </defs>
      <g>
       <use xlink:href="#m418a8fccf3" x="57.6" y="307.584" style="stroke: #000000; stroke-width: 0.8"/>
      </g>
     </g>
     <g id="text_1">
      <!-- 0 -->
      <g transform="translate(54.41875 322.182437) scale(0.1 -0.1)">
       <defs>
        <path id="DejaVuSans-30" d="M 2034 4250 
Q 1547 4250 1301 3770 
Q 1056 3291 1056 2328 
Q 1056 1369 1301 889 
Q 1547 409 2034 409 
Q 2525 409 2770 889 
Q 3016 1369 3016 2328 
Q 3016 3291 2770 3770 
Q 2525 4250 2034 4250 
z
M 2034 4750 
Q 2819 4750 3233 4129 
Q 3647 3509 3647 2328 
Q 3647 1150 3233 529 
Q 2819 -91 2034 -91 
Q 1250 -91 836 529 
Q 422 1150 422 2328 
Q 422 3509 836 4129 
Q 1250 4750 2034 4750 
z
" transform="scale(0.015625)"/>
       </defs>
       <use xlink:href="#DejaVuSans-30"/>
      </g>
     </g>
    </g>
    <g id="xtick_2">
     <g id="line2d_3">
      <path d="M 131.537888 307.584 
L 131.537888 41.472 
" clip-path="url(#pa53821d4f9)" style="fill: none; stroke-dasharray: 2.96,1.28; stroke-dashoffset: 0; stroke: #b0b0b0; stroke-opacity: 0.7; stroke-width: 0.8"/>
     </g>
     <g id="line2d_4">
      <g>
       <use xlink:href="#m418a8fccf3" x="131.537888" y="307.584" style="stroke: #000000; stroke-width: 0.8"/>
      </g>
     </g>
     <g id="text_2">
      <!-- 50 -->
      <g transform="translate(125.175388 322.182437) scale(0.1 -0.1)">
       <defs>
        <path id="DejaVuSans-35" d="M 691 4666 
L 3169 4666 
L 3169 4134 
L 1269 4134 
L 1269 2991 
Q 1406 3038 1543 3061 
Q 1681 3084 1819 3084 
Q 2600 3084 3056 2656 
Q 3513 2228 3513 1497 
Q 3513 744 3044 326 
Q 2575 -91 1722 -91 
Q 1428 -91 1123 -41 
Q 819 9 494 109 
L 494 744 
Q 775 591 1075 516 
Q 1375 441 1709 441 
Q 2250 441 2565 725 
Q 2881 1009 2881 1497 
Q 2881 1984 2565 2268 
Q 2250 2553 1709 2553 
Q 1456 2553 1204 2497 
Q 953 2441 691 2322 
L 691 4666 
z
" transform="scale(0.015625)"/>
       </defs>
       <use xlink:href="#DejaVuSans-35"/>
       <use xlink:href="#DejaVuSans-30" transform="translate(63.623047 0)"/>
      </g>
     </g>
    </g>
    <g id="xtick_3">
     <g id="line2d_5">
      <path d="M 205.475776 307.584 
L 205.475776 41.472 
" clip-path="url(#pa53821d4f9)" style="fill: none; stroke-dasharray: 2.96,1.28; stroke-dashoffset: 0; stroke: #b0b0b0; stroke-opacity: 0.7; stroke-width: 0.8"/>
     </g>
     <g id="line2d_6">
      <g>
       <use xlink:href="#m418a8fccf3" x="205.475776" y="307.584" style="stroke: #000000; stroke-width: 0.8"/>
      </g>
     </g>
     <g id="text_3">
      <!-- 100 -->
      <g transform="translate(195.932026 322.182437) scale(0.1 -0.1)">
       <defs>
        <path id="DejaVuSans-31" d="M 794 531 
L 1825 531 
L 1825 4091 
L 703 3866 
L 703 4441 
L 1819 4666 
L 2450 4666 
L 2450 531 
L 3481 531 
L 3481 0 
L 794 0 
L 794 531 
z
" transform="scale(0.015625)"/>
       </defs>
       <use xlink:href="#DejaVuSans-31"/>
       <use xlink:href="#DejaVuSans-30" transform="translate(63.623047 0)"/>
       <use xlink:href="#DejaVuSans-30" transform="translate(127.246094 0)"/>
      </g>
     </g>
    </g>
    <g id="xtick_4">
     <g id="line2d_7">
      <path d="M 279.413665 307.584 
L 279.413665 41.472 
" clip-path="url(#pa53821d4f9)" style="fill: none; stroke-dasharray: 2.96,1.28; stroke-dashoffset: 0; stroke: #b0b0b0; stroke-opacity: 0.7; stroke-width: 0.8"/>
     </g>
     <g id="line2d_8">
      <g>
       <use xlink:href="#m418a8fccf3" x="279.413665" y="307.584" style="stroke: #000000; stroke-width: 0.8"/>
      </g>
     </g>
     <g id="text_4">
      <!-- 150 -->
      <g transform="translate(269.869915 322.182437) scale(0.1 -0.1)">
       <use xlink:href="#DejaVuSans-31"/>
       <use xlink:href="#DejaVuSans-35" transform="translate(63.623047 0)"/>
       <use xlink:href="#DejaVuSans-30" transform="translate(127.246094 0)"/>
      </g>
     </g>
    </g>
    <g id="xtick_5">
     <g id="line2d_9">
      <path d="M 353.351553 307.584 
L 353.351553 41.472 
" clip-path="url(#pa53821d4f9)" style="fill: none; stroke-dasharray: 2.96,1.28; stroke-dashoffset: 0; stroke: #b0b0b0; stroke-opacity: 0.7; stroke-width: 0.8"/>
     </g>
     <g id="line2d_10">
      <g>
       <use xlink:href="#m418a8fccf3" x="353.351553" y="307.584" style="stroke: #000000; stroke-width: 0.8"/>
      </g>
     </g>
     <g id="text_5">
      <!-- 200 -->
      <g transform="translate(343.807803 322.182437) scale(0.1 -0.1)">
       <defs>
        <path id="DejaVuSans-32" d="M 1228 531 
L 3431 531 
L 3431 0 
L 469 0 
L 469 531 
Q 828 903 1448 1529 
Q 2069 2156 2228 2338 
Q 2531 2678 2651 2914 
Q 2772 3150 2772 3378 
Q 2772 3750 2511 3984 
Q 2250 4219 1831 4219 
Q 1534 4219 1204 4116 
Q 875 4013 500 3803 
L 500 4441 
Q 881 4594 1212 4672 
Q 1544 4750 1819 4750 
Q 2544 4750 2975 4387 
Q 3406 4025 3406 3419 
Q 3406 3131 3298 2873 
Q 3191 2616 2906 2266 
Q 2828 2175 2409 1742 
Q 1991 1309 1228 531 
z
" transform="scale(0.015625)"/>
       </defs>
       <use xlink:href="#DejaVuSans-32"/>
       <use xlink:href="#DejaVuSans-30" transform="translate(63.623047 0)"/>
       <use xlink:href="#DejaVuSans-30" transform="translate(127.246094 0)"/>
      </g>
     </g>
    </g>
    <g id="text_6">
     <!-- Training steps -->
     <g transform="translate(201.424844 335.860562) scale(0.1 -0.1)">
      <defs>
       <path id="DejaVuSans-54" d="M -19 4666 
L 3928 4666 
L 3928 4134 
L 2272 4134 
L 2272 0 
L 1638 0 
L 1638 4134 
L -19 4134 
L -19 4666 
z
" transform="scale(0.015625)"/>
       <path id="DejaVuSans-72" d="M 2631 2963 
Q 2534 3019 2420 3045 
Q 2306 3072 2169 3072 
Q 1681 3072 1420 2755 
Q 1159 2438 1159 1844 
L 1159 0 
L 581 0 
L 581 3500 
L 1159 3500 
L 1159 2956 
Q 1341 3275 1631 3429 
Q 1922 3584 2338 3584 
Q 2397 3584 2469 3576 
Q 2541 3569 2628 3553 
L 2631 2963 
z
" transform="scale(0.015625)"/>
       <path id="DejaVuSans-61" d="M 2194 1759 
Q 1497 1759 1228 1600 
Q 959 1441 959 1056 
Q 959 750 1161 570 
Q 1363 391 1709 391 
Q 2188 391 2477 730 
Q 2766 1069 2766 1631 
L 2766 1759 
L 2194 1759 
z
M 3341 1997 
L 3341 0 
L 2766 0 
L 2766 531 
Q 2569 213 2275 61 
Q 1981 -91 1556 -91 
Q 1019 -91 701 211 
Q 384 513 384 1019 
Q 384 1609 779 1909 
Q 1175 2209 1959 2209 
L 2766 2209 
L 2766 2266 
Q 2766 2663 2505 2880 
Q 2244 3097 1772 3097 
Q 1472 3097 1187 3025 
Q 903 2953 641 2809 
L 641 3341 
Q 956 3463 1253 3523 
Q 1550 3584 1831 3584 
Q 2591 3584 2966 3190 
Q 3341 2797 3341 1997 
z
" transform="scale(0.015625)"/>
       <path id="DejaVuSans-69" d="M 603 3500 
L 1178 3500 
L 1178 0 
L 603 0 
L 603 3500 
z
M 603 4863 
L 1178 4863 
L 1178 4134 
L 603 4134 
L 603 4863 
z
" transform="scale(0.015625)"/>
       <path id="DejaVuSans-6e" d="M 3513 2113 
L 3513 0 
L 2938 0 
L 2938 2094 
Q 2938 2591 2744 2837 
Q 2550 3084 2163 3084 
Q 1697 3084 1428 2787 
Q 1159 2491 1159 1978 
L 1159 0 
L 581 0 
L 581 3500 
L 1159 3500 
L 1159 2956 
Q 1366 3272 1645 3428 
Q 1925 3584 2291 3584 
Q 2894 3584 3203 3211 
Q 3513 2838 3513 2113 
z
" transform="scale(0.015625)"/>
       <path id="DejaVuSans-67" d="M 2906 1791 
Q 2906 2416 2648 2759 
Q 2391 3103 1925 3103 
Q 1463 3103 1205 2759 
Q 947 2416 947 1791 
Q 947 1169 1205 825 
Q 1463 481 1925 481 
Q 2391 481 2648 825 
Q 2906 1169 2906 1791 
z
M 3481 434 
Q 3481 -459 3084 -895 
Q 2688 -1331 1869 -1331 
Q 1566 -1331 1297 -1286 
Q 1028 -1241 775 -1147 
L 775 -588 
Q 1028 -725 1275 -790 
Q 1522 -856 1778 -856 
Q 2344 -856 2625 -561 
Q 2906 -266 2906 331 
L 2906 616 
Q 2728 306 2450 153 
Q 2172 0 1784 0 
Q 1141 0 747 490 
Q 353 981 353 1791 
Q 353 2603 747 3093 
Q 1141 3584 1784 3584 
Q 2172 3584 2450 3431 
Q 2728 3278 2906 2969 
L 2906 3500 
L 3481 3500 
L 3481 434 
z
" transform="scale(0.015625)"/>
       <path id="DejaVuSans-20" transform="scale(0.015625)"/>
       <path id="DejaVuSans-73" d="M 2834 3397 
L 2834 2853 
Q 2591 2978 2328 3040 
Q 2066 3103 1784 3103 
Q 1356 3103 1142 2972 
Q 928 2841 928 2578 
Q 928 2378 1081 2264 
Q 1234 2150 1697 2047 
L 1894 2003 
Q 2506 1872 2764 1633 
Q 3022 1394 3022 966 
Q 3022 478 2636 193 
Q 2250 -91 1575 -91 
Q 1294 -91 989 -36 
Q 684 19 347 128 
L 347 722 
Q 666 556 975 473 
Q 1284 391 1588 391 
Q 1994 391 2212 530 
Q 2431 669 2431 922 
Q 2431 1156 2273 1281 
Q 2116 1406 1581 1522 
L 1381 1569 
Q 847 1681 609 1914 
Q 372 2147 372 2553 
Q 372 3047 722 3315 
Q 1072 3584 1716 3584 
Q 2034 3584 2315 3537 
Q 2597 3491 2834 3397 
z
" transform="scale(0.015625)"/>
       <path id="DejaVuSans-74" d="M 1172 4494 
L 1172 3500 
L 2356 3500 
L 2356 3053 
L 1172 3053 
L 1172 1153 
Q 1172 725 1289 603 
Q 1406 481 1766 481 
L 2356 481 
L 2356 0 
L 1766 0 
Q 1100 0 847 248 
Q 594 497 594 1153 
L 594 3053 
L 172 3053 
L 172 3500 
L 594 3500 
L 594 4494 
L 1172 4494 
z
" transform="scale(0.015625)"/>
       <path id="DejaVuSans-65" d="M 3597 1894 
L 3597 1613 
L 953 1613 
Q 991 1019 1311 708 
Q 1631 397 2203 397 
Q 2534 397 2845 478 
Q 3156 559 3463 722 
L 3463 178 
Q 3153 47 2828 -22 
Q 2503 -91 2169 -91 
Q 1331 -91 842 396 
Q 353 884 353 1716 
Q 353 2575 817 3079 
Q 1281 3584 2069 3584 
Q 2775 3584 3186 3129 
Q 3597 2675 3597 1894 
z
M 3022 2063 
Q 3016 2534 2758 2815 
Q 2500 3097 2075 3097 
Q 1594 3097 1305 2825 
Q 1016 2553 972 2059 
L 3022 2063 
z
" transform="scale(0.015625)"/>
       <path id="DejaVuSans-70" d="M 1159 525 
L 1159 -1331 
L 581 -1331 
L 581 3500 
L 1159 3500 
L 1159 2969 
Q 1341 3281 1617 3432 
Q 1894 3584 2278 3584 
Q 2916 3584 3314 3078 
Q 3713 2572 3713 1747 
Q 3713 922 3314 415 
Q 2916 -91 2278 -91 
Q 1894 -91 1617 61 
Q 1341 213 1159 525 
z
M 3116 1747 
Q 3116 2381 2855 2742 
Q 2594 3103 2138 3103 
Q 1681 3103 1420 2742 
Q 1159 2381 1159 1747 
Q 1159 1113 1420 752 
Q 1681 391 2138 391 
Q 2594 391 2855 752 
Q 3116 1113 3116 1747 
z
" transform="scale(0.015625)"/>
      </defs>
      <use xlink:href="#DejaVuSans-54"/>
      <use xlink:href="#DejaVuSans-72" transform="translate(46.333984 0)"/>
      <use xlink:href="#DejaVuSans-61" transform="translate(87.447266 0)"/>
      <use xlink:href="#DejaVuSans-69" transform="translate(148.726562 0)"/>
      <use xlink:href="#DejaVuSans-6e" transform="translate(176.509766 0)"/>
      <use xlink:href="#DejaVuSans-69" transform="translate(239.888672 0)"/>
      <use xlink:href="#DejaVuSans-6e" transform="translate(267.671875 0)"/>
      <use xlink:href="#DejaVuSans-67" transform="translate(331.050781 0)"/>
      <use xlink:href="#DejaVuSans-20" transform="translate(394.527344 0)"/>
      <use xlink:href="#DejaVuSans-73" transform="translate(426.314453 0)"/>
      <use xlink:href="#DejaVuSans-74" transform="translate(478.414062 0)"/>
      <use xlink:href="#DejaVuSans-65" transform="translate(517.623047 0)"/>
      <use xlink:href="#DejaVuSans-70" transform="translate(579.146484 0)"/>
      <use xlink:href="#DejaVuSans-73" transform="translate(642.623047 0)"/>
     </g>
    </g>
   </g>
   <g id="matplotlib.axis_2">
    <g id="ytick_1">
     <g id="line2d_11">
      <path d="M 57.6 307.584 
L 414.72 307.584 
" clip-path="url(#pa53821d4f9)" style="fill: none; stroke-dasharray: 2.96,1.28; stroke-dashoffset: 0; stroke: #b0b0b0; stroke-opacity: 0.7; stroke-width: 0.8"/>
     </g>
     <g id="line2d_12">
      <defs>
       <path id="md723113c85" d="M 0 0 
L -3.5 0 
" style="stroke: #000000; stroke-width: 0.8"/>
      </defs>
      <g>
       <use xlink:href="#md723113c85" x="57.6" y="307.584" style="stroke: #000000; stroke-width: 0.8"/>
      </g>
     </g>
     <g id="text_7">
      <!-- 0.0 -->
      <g transform="translate(34.696875 311.383219) scale(0.1 -0.1)">
       <defs>
        <path id="DejaVuSans-2e" d="M 684 794 
L 1344 794 
L 1344 0 
L 684 0 
L 684 794 
z
" transform="scale(0.015625)"/>
       </defs>
       <use xlink:href="#DejaVuSans-30"/>
       <use xlink:href="#DejaVuSans-2e" transform="translate(63.623047 0)"/>
       <use xlink:href="#DejaVuSans-30" transform="translate(95.410156 0)"/>
      </g>
     </g>
    </g>
    <g id="ytick_2">
     <g id="line2d_13">
      <path d="M 57.6 256.668977 
L 414.72 256.668977 
" clip-path="url(#pa53821d4f9)" style="fill: none; stroke-dasharray: 2.96,1.28; stroke-dashoffset: 0; stroke: #b0b0b0; stroke-opacity: 0.7; stroke-width: 0.8"/>
     </g>
     <g id="line2d_14">
      <g>
       <use xlink:href="#md723113c85" x="57.6" y="256.668977" style="stroke: #000000; stroke-width: 0.8"/>
      </g>
     </g>
     <g id="text_8">
      <!-- 0.2 -->
      <g transform="translate(34.696875 260.468195) scale(0.1 -0.1)">
       <use xlink:href="#DejaVuSans-30"/>
       <use xlink:href="#DejaVuSans-2e" transform="translate(63.623047 0)"/>
       <use xlink:href="#DejaVuSans-32" transform="translate(95.410156 0)"/>
      </g>
     </g>
    </g>
    <g id="ytick_3">
     <g id="line2d_15">
      <path d="M 57.6 205.753953 
L 414.72 205.753953 
" clip-path="url(#pa53821d4f9)" style="fill: none; stroke-dasharray: 2.96,1.28; stroke-dashoffset: 0; stroke: #b0b0b0; stroke-opacity: 0.7; stroke-width: 0.8"/>
     </g>
     <g id="line2d_16">
      <g>
       <use xlink:href="#md723113c85" x="57.6" y="205.753953" style="stroke: #000000; stroke-width: 0.8"/>
      </g>
     </g>
     <g id="text_9">
      <!-- 0.4 -->
      <g transform="translate(34.696875 209.553172) scale(0.1 -0.1)">
       <defs>
        <path id="DejaVuSans-34" d="M 2419 4116 
L 825 1625 
L 2419 1625 
L 2419 4116 
z
M 2253 4666 
L 3047 4666 
L 3047 1625 
L 3713 1625 
L 3713 1100 
L 3047 1100 
L 3047 0 
L 2419 0 
L 2419 1100 
L 313 1100 
L 313 1709 
L 2253 4666 
z
" transform="scale(0.015625)"/>
       </defs>
       <use xlink:href="#DejaVuSans-30"/>
       <use xlink:href="#DejaVuSans-2e" transform="translate(63.623047 0)"/>
       <use xlink:href="#DejaVuSans-34" transform="translate(95.410156 0)"/>
      </g>
     </g>
    </g>
    <g id="ytick_4">
     <g id="line2d_17">
      <path d="M 57.6 154.83893 
L 414.72 154.83893 
" clip-path="url(#pa53821d4f9)" style="fill: none; stroke-dasharray: 2.96,1.28; stroke-dashoffset: 0; stroke: #b0b0b0; stroke-opacity: 0.7; stroke-width: 0.8"/>
     </g>
     <g id="line2d_18">
      <g>
       <use xlink:href="#md723113c85" x="57.6" y="154.83893" style="stroke: #000000; stroke-width: 0.8"/>
      </g>
     </g>
     <g id="text_10">
      <!-- 0.6 -->
      <g transform="translate(34.696875 158.638149) scale(0.1 -0.1)">
       <defs>
        <path id="DejaVuSans-36" d="M 2113 2584 
Q 1688 2584 1439 2293 
Q 1191 2003 1191 1497 
Q 1191 994 1439 701 
Q 1688 409 2113 409 
Q 2538 409 2786 701 
Q 3034 994 3034 1497 
Q 3034 2003 2786 2293 
Q 2538 2584 2113 2584 
z
M 3366 4563 
L 3366 3988 
Q 3128 4100 2886 4159 
Q 2644 4219 2406 4219 
Q 1781 4219 1451 3797 
Q 1122 3375 1075 2522 
Q 1259 2794 1537 2939 
Q 1816 3084 2150 3084 
Q 2853 3084 3261 2657 
Q 3669 2231 3669 1497 
Q 3669 778 3244 343 
Q 2819 -91 2113 -91 
Q 1303 -91 875 529 
Q 447 1150 447 2328 
Q 447 3434 972 4092 
Q 1497 4750 2381 4750 
Q 2619 4750 2861 4703 
Q 3103 4656 3366 4563 
z
" transform="scale(0.015625)"/>
       </defs>
       <use xlink:href="#DejaVuSans-30"/>
       <use xlink:href="#DejaVuSans-2e" transform="translate(63.623047 0)"/>
       <use xlink:href="#DejaVuSans-36" transform="translate(95.410156 0)"/>
      </g>
     </g>
    </g>
    <g id="ytick_5">
     <g id="line2d_19">
      <path d="M 57.6 103.923906 
L 414.72 103.923906 
" clip-path="url(#pa53821d4f9)" style="fill: none; stroke-dasharray: 2.96,1.28; stroke-dashoffset: 0; stroke: #b0b0b0; stroke-opacity: 0.7; stroke-width: 0.8"/>
     </g>
     <g id="line2d_20">
      <g>
       <use xlink:href="#md723113c85" x="57.6" y="103.923906" style="stroke: #000000; stroke-width: 0.8"/>
      </g>
     </g>
     <g id="text_11">
      <!-- 0.8 -->
      <g transform="translate(34.696875 107.723125) scale(0.1 -0.1)">
       <defs>
        <path id="DejaVuSans-38" d="M 2034 2216 
Q 1584 2216 1326 1975 
Q 1069 1734 1069 1313 
Q 1069 891 1326 650 
Q 1584 409 2034 409 
Q 2484 409 2743 651 
Q 3003 894 3003 1313 
Q 3003 1734 2745 1975 
Q 2488 2216 2034 2216 
z
M 1403 2484 
Q 997 2584 770 2862 
Q 544 3141 544 3541 
Q 544 4100 942 4425 
Q 1341 4750 2034 4750 
Q 2731 4750 3128 4425 
Q 3525 4100 3525 3541 
Q 3525 3141 3298 2862 
Q 3072 2584 2669 2484 
Q 3125 2378 3379 2068 
Q 3634 1759 3634 1313 
Q 3634 634 3220 271 
Q 2806 -91 2034 -91 
Q 1263 -91 848 271 
Q 434 634 434 1313 
Q 434 1759 690 2068 
Q 947 2378 1403 2484 
z
M 1172 3481 
Q 1172 3119 1398 2916 
Q 1625 2713 2034 2713 
Q 2441 2713 2670 2916 
Q 2900 3119 2900 3481 
Q 2900 3844 2670 4047 
Q 2441 4250 2034 4250 
Q 1625 4250 1398 4047 
Q 1172 3844 1172 3481 
z
" transform="scale(0.015625)"/>
       </defs>
       <use xlink:href="#DejaVuSans-30"/>
       <use xlink:href="#DejaVuSans-2e" transform="translate(63.623047 0)"/>
       <use xlink:href="#DejaVuSans-38" transform="translate(95.410156 0)"/>
      </g>
     </g>
    </g>
    <g id="ytick_6">
     <g id="line2d_21">
      <path d="M 57.6 53.008883 
L 414.72 53.008883 
" clip-path="url(#pa53821d4f9)" style="fill: none; stroke-dasharray: 2.96,1.28; stroke-dashoffset: 0; stroke: #b0b0b0; stroke-opacity: 0.7; stroke-width: 0.8"/>
     </g>
     <g id="line2d_22">
      <g>
       <use xlink:href="#md723113c85" x="57.6" y="53.008883" style="stroke: #000000; stroke-width: 0.8"/>
      </g>
     </g>
     <g id="text_12">
      <!-- 1.0 -->
      <g transform="translate(34.696875 56.808102) scale(0.1 -0.1)">
       <use xlink:href="#DejaVuSans-31"/>
       <use xlink:href="#DejaVuSans-2e" transform="translate(63.623047 0)"/>
       <use xlink:href="#DejaVuSans-30" transform="translate(95.410156 0)"/>
      </g>
     </g>
    </g>
    <g id="text_13">
     <!-- Training accuracy -->
     <g transform="translate(28.617187 218.402219) rotate(-90) scale(0.1 -0.1)">
      <defs>
       <path id="DejaVuSans-63" d="M 3122 3366 
L 3122 2828 
Q 2878 2963 2633 3030 
Q 2388 3097 2138 3097 
Q 1578 3097 1268 2742 
Q 959 2388 959 1747 
Q 959 1106 1268 751 
Q 1578 397 2138 397 
Q 2388 397 2633 464 
Q 2878 531 3122 666 
L 3122 134 
Q 2881 22 2623 -34 
Q 2366 -91 2075 -91 
Q 1284 -91 818 406 
Q 353 903 353 1747 
Q 353 2603 823 3093 
Q 1294 3584 2113 3584 
Q 2378 3584 2631 3529 
Q 2884 3475 3122 3366 
z
" transform="scale(0.015625)"/>
       <path id="DejaVuSans-75" d="M 544 1381 
L 544 3500 
L 1119 3500 
L 1119 1403 
Q 1119 906 1312 657 
Q 1506 409 1894 409 
Q 2359 409 2629 706 
Q 2900 1003 2900 1516 
L 2900 3500 
L 3475 3500 
L 3475 0 
L 2900 0 
L 2900 538 
Q 2691 219 2414 64 
Q 2138 -91 1772 -91 
Q 1169 -91 856 284 
Q 544 659 544 1381 
z
M 1991 3584 
L 1991 3584 
z
" transform="scale(0.015625)"/>
       <path id="DejaVuSans-79" d="M 2059 -325 
Q 1816 -950 1584 -1140 
Q 1353 -1331 966 -1331 
L 506 -1331 
L 506 -850 
L 844 -850 
Q 1081 -850 1212 -737 
Q 1344 -625 1503 -206 
L 1606 56 
L 191 3500 
L 800 3500 
L 1894 763 
L 2988 3500 
L 3597 3500 
L 2059 -325 
z
" transform="scale(0.015625)"/>
      </defs>
      <use xlink:href="#DejaVuSans-54"/>
      <use xlink:href="#DejaVuSans-72" transform="translate(46.333984 0)"/>
      <use xlink:href="#DejaVuSans-61" transform="translate(87.447266 0)"/>
      <use xlink:href="#DejaVuSans-69" transform="translate(148.726562 0)"/>
      <use xlink:href="#DejaVuSans-6e" transform="translate(176.509766 0)"/>
      <use xlink:href="#DejaVuSans-69" transform="translate(239.888672 0)"/>
      <use xlink:href="#DejaVuSans-6e" transform="translate(267.671875 0)"/>
      <use xlink:href="#DejaVuSans-67" transform="translate(331.050781 0)"/>
      <use xlink:href="#DejaVuSans-20" transform="translate(394.527344 0)"/>
      <use xlink:href="#DejaVuSans-61" transform="translate(426.314453 0)"/>
      <use xlink:href="#DejaVuSans-63" transform="translate(487.59375 0)"/>
      <use xlink:href="#DejaVuSans-63" transform="translate(542.574219 0)"/>
      <use xlink:href="#DejaVuSans-75" transform="translate(597.554688 0)"/>
      <use xlink:href="#DejaVuSans-72" transform="translate(660.933594 0)"/>
      <use xlink:href="#DejaVuSans-61" transform="translate(702.046875 0)"/>
      <use xlink:href="#DejaVuSans-63" transform="translate(763.326172 0)"/>
      <use xlink:href="#DejaVuSans-79" transform="translate(818.306641 0)"/>
     </g>
    </g>
   </g>
   <g id="line2d_23">
    <path d="M 57.6 258.617289 
L 62.036273 230.197411 
L 64.993789 212.157976 
L 67.951304 195.295376 
L 70.90882 179.996283 
L 72.387578 170.723048 
L 75.345093 160.144335 
L 81.260124 143.023888 
L 82.738882 139.448294 
L 84.21764 136.496924 
L 85.696398 134.392772 
L 87.175155 133.37473 
L 88.653913 131.325476 
L 90.132671 128.552733 
L 91.611429 126.899589 
L 93.090186 124.948427 
L 96.047702 120.46251 
L 99.005217 116.096583 
L 100.483975 114.223876 
L 101.962733 112.726517 
L 104.920248 110.595687 
L 106.399006 108.819604 
L 109.356522 106.764944 
L 110.83528 105.499378 
L 115.271553 101.15856 
L 116.750311 99.962432 
L 118.229068 99.071261 
L 119.707826 98.625593 
L 122.665342 95.892391 
L 124.144099 95.283109 
L 125.622857 94.431674 
L 127.101615 93.380421 
L 131.537888 89.77053 
L 133.016646 88.801737 
L 134.495404 88.115843 
L 135.974161 87.80222 
L 137.452919 86.883153 
L 138.931677 85.734522 
L 140.410435 85.262784 
L 141.889193 84.625237 
L 143.36795 83.768052 
L 149.282981 79.786585 
L 150.761739 79.174743 
L 152.240497 78.905935 
L 155.198012 76.810194 
L 156.67677 76.4192 
L 164.070559 72.245485 
L 165.549317 71.709609 
L 167.028075 71.452805 
L 168.506832 71.50798 
L 171.464348 70.170637 
L 172.943106 69.340824 
L 180.336894 67.515485 
L 181.815652 67.264629 
L 183.29441 67.178545 
L 184.773168 67.314313 
L 186.251925 66.676365 
L 189.209441 65.689971 
L 190.688199 65.444496 
L 193.645714 64.612027 
L 199.560745 62.616987 
L 201.039503 62.320685 
L 202.518261 62.352855 
L 203.997019 62.045591 
L 205.475776 61.867194 
L 209.91205 60.623558 
L 214.348323 59.227953 
L 217.305839 58.631638 
L 218.784596 58.556139 
L 220.263354 58.229903 
L 221.742112 58.071928 
L 230.614658 55.955939 
L 236.529689 55.378923 
L 238.008447 55.326796 
L 243.923478 54.663804 
L 246.880994 54.490141 
L 249.838509 54.547844 
L 252.796025 54.211884 
L 257.232298 53.981673 
L 263.147329 53.684013 
L 269.06236 53.475934 
L 280.892422 53.266075 
L 283.849938 53.37705 
L 283.849938 53.37705 
" clip-path="url(#pa53821d4f9)" style="fill: none; stroke: #1f77b4; stroke-width: 1.5; stroke-linecap: square"/>
   </g>
   <g id="line2d_24">
    <path d="M 57.6 265.829356 
L 62.036273 238.600086 
L 64.993789 221.69385 
L 67.951304 206.197035 
L 72.387578 184.671116 
L 73.866335 180.018088 
L 78.302609 168.562734 
L 79.781366 165.071332 
L 81.260124 161.951231 
L 82.738882 159.313287 
L 84.21764 157.260767 
L 85.696398 155.993075 
L 87.175155 155.732725 
L 88.653913 152.996778 
L 90.132671 150.496104 
L 91.611429 148.56648 
L 93.090186 147.164003 
L 94.568944 145.525661 
L 99.005217 139.909483 
L 100.483975 138.292071 
L 101.962733 136.97928 
L 103.441491 136.13641 
L 104.920248 134.430559 
L 106.399006 132.935539 
L 107.877764 131.85663 
L 109.356522 130.954202 
L 110.83528 129.862053 
L 115.271553 125.960609 
L 116.750311 124.833016 
L 118.229068 123.933236 
L 119.707826 123.409928 
L 121.186584 122.744553 
L 122.665342 121.533365 
L 124.144099 120.792071 
L 125.622857 120.247156 
L 127.101615 119.38913 
L 130.05913 117.002572 
L 133.016646 114.656955 
L 134.495404 113.748438 
L 135.974161 113.187654 
L 137.452919 112.352292 
L 140.410435 110.207851 
L 141.889193 110.233468 
L 143.36795 109.8451 
L 144.846708 109.100676 
L 149.282981 106.400097 
L 150.761739 105.804207 
L 152.240497 105.496819 
L 153.719255 104.820383 
L 155.198012 103.677556 
L 156.67677 103.317399 
L 158.155528 102.610592 
L 159.634286 101.653867 
L 161.113043 100.426666 
L 164.070559 97.726849 
L 165.549317 96.557605 
L 167.028075 95.653179 
L 168.506832 95.106219 
L 169.98559 95.024383 
L 171.464348 93.933458 
L 172.943106 93.736287 
L 175.900621 92.349321 
L 180.336894 89.756565 
L 181.815652 89.14095 
L 183.29441 88.785312 
L 184.773168 88.81702 
L 187.730683 87.144495 
L 189.209441 86.947532 
L 192.166957 85.492701 
L 196.60323 83.022303 
L 198.081988 82.429619 
L 199.560745 82.062286 
L 201.039503 82.058237 
L 202.518261 81.116512 
L 203.997019 80.322247 
L 205.475776 79.970301 
L 211.390807 77.661799 
L 212.869565 77.074616 
L 214.348323 76.629294 
L 215.827081 76.353081 
L 217.305839 76.421127 
L 218.784596 75.635514 
L 220.263354 74.984025 
L 221.742112 75.227694 
L 224.699627 73.586482 
L 229.135901 70.984893 
L 230.614658 70.333248 
L 232.093416 69.920015 
L 233.572174 69.833127 
L 235.050932 69.351008 
L 236.529689 69.011753 
L 239.487205 68.788911 
L 242.44472 68.253216 
L 245.402236 67.678979 
L 246.880994 67.550138 
L 248.359752 67.591531 
L 249.838509 67.856028 
L 251.317267 66.867152 
L 252.796025 66.374876 
L 257.232298 65.297721 
L 261.668571 63.926723 
L 264.626087 63.318563 
L 266.104845 63.243444 
L 277.934907 60.024044 
L 280.892422 59.379381 
L 283.849938 59.013133 
L 286.807453 58.414892 
L 289.764969 57.970595 
L 295.68 56.769747 
L 298.637516 56.524088 
L 303.073789 56.073721 
L 313.425093 54.468673 
L 319.340124 54.075083 
L 323.776398 53.590216 
L 326.733913 53.416512 
L 329.691429 53.435268 
L 332.648944 53.708909 
L 332.648944 53.708909 
" clip-path="url(#pa53821d4f9)" style="fill: none; stroke: #ff7f0e; stroke-width: 1.5; stroke-linecap: square"/>
   </g>
   <g id="line2d_25">
    <path d="M 57.6 271.356695 
L 60.557516 253.463946 
L 63.515031 237.212723 
L 66.472547 222.755139 
L 67.951304 216.246496 
L 69.430062 210.243304 
L 70.90882 204.764577 
L 72.387578 198.757101 
L 73.866335 194.973183 
L 76.823851 189.26726 
L 79.781366 183.593015 
L 81.260124 181.103176 
L 82.738882 179.024258 
L 84.21764 177.475029 
L 85.696398 176.630855 
L 87.175155 176.697032 
L 88.653913 173.490017 
L 90.132671 171.350006 
L 91.611429 170.178391 
L 96.047702 165.563635 
L 99.005217 162.256324 
L 100.483975 160.858075 
L 101.962733 159.775199 
L 103.441491 159.115823 
L 106.399006 155.965549 
L 107.877764 155.5119 
L 110.83528 152.867338 
L 113.792795 150.041592 
L 115.271553 148.788241 
L 116.750311 147.733177 
L 118.229068 146.943367 
L 119.707826 146.583374 
L 121.186584 145.351118 
L 122.665342 144.269391 
L 124.144099 143.381069 
L 125.622857 142.903985 
L 127.101615 142.14048 
L 130.05913 140.081813 
L 131.537888 139.022642 
L 133.016646 138.114337 
L 134.495404 137.467951 
L 135.974161 137.184514 
L 137.452919 135.745939 
L 138.931677 134.740763 
L 140.410435 134.211441 
L 141.889193 134.126817 
L 143.36795 133.548057 
L 144.846708 132.643174 
L 150.761739 128.306535 
L 153.719255 127.062833 
L 155.198012 125.85212 
L 156.67677 125.471842 
L 158.155528 124.853204 
L 159.634286 123.969534 
L 165.549317 119.823439 
L 167.028075 119.25359 
L 168.506832 119.088292 
L 169.98559 118.71293 
L 171.464348 117.667915 
L 172.943106 117.499465 
L 174.421863 117.098555 
L 175.900621 116.459194 
L 177.379379 115.523276 
L 181.815652 112.370073 
L 183.29441 111.707762 
L 184.773168 111.433578 
L 187.730683 109.134956 
L 189.209441 109.30251 
L 190.688199 108.392927 
L 193.645714 106.029983 
L 196.60323 103.429733 
L 198.081988 102.393634 
L 199.560745 101.694743 
L 201.039503 101.475763 
L 203.997019 99.437145 
L 205.475776 98.738145 
L 206.954534 98.551552 
L 208.433292 98.146636 
L 209.91205 97.528149 
L 214.348323 95.161917 
L 215.827081 94.736717 
L 217.305839 94.757809 
L 218.784596 93.148527 
L 220.263354 91.939447 
L 221.742112 90.877187 
L 229.135901 87.63482 
L 230.614658 87.172548 
L 232.093416 87.027882 
L 233.572174 87.314635 
L 235.050932 87.438649 
L 236.529689 86.908169 
L 239.487205 86.138109 
L 240.965963 85.58339 
L 242.44472 84.874614 
L 246.880994 82.397528 
L 248.359752 81.742424 
L 251.317267 80.950431 
L 252.796025 80.19872 
L 254.274783 79.69979 
L 257.232298 78.349417 
L 263.147329 75.086236 
L 264.626087 74.487653 
L 266.104845 74.147711 
L 267.583602 73.607174 
L 270.541118 72.169457 
L 273.498634 71.541016 
L 276.456149 70.481187 
L 279.413665 69.377025 
L 280.892422 69.011665 
L 282.37118 68.874191 
L 289.764969 66.53029 
L 292.722484 65.279973 
L 295.68 64.050739 
L 297.158758 63.599446 
L 298.637516 63.337421 
L 300.116273 63.38792 
L 301.595031 63.031722 
L 303.073789 63.001761 
L 306.031304 62.093279 
L 311.946335 59.941903 
L 313.425093 59.589806 
L 314.903851 59.393287 
L 320.818882 58.123317 
L 326.733913 57.033642 
L 329.691429 56.811189 
L 331.170186 56.877927 
L 332.648944 56.451925 
L 334.127702 56.157845 
L 337.085217 55.725937 
L 344.479006 54.322332 
L 347.436522 54.052428 
L 351.872795 53.762335 
L 356.309068 53.318258 
L 359.266584 53.16488 
L 362.224099 53.186371 
L 365.181615 53.434787 
L 365.181615 53.434787 
" clip-path="url(#pa53821d4f9)" style="fill: none; stroke: #2ca02c; stroke-width: 1.5; stroke-linecap: square"/>
   </g>
   <g id="line2d_26">
    <path d="M 57.6 273.644152 
L 60.557516 258.532862 
L 63.515031 245.318335 
L 66.472547 233.922225 
L 67.951304 228.881592 
L 69.430062 224.266184 
L 70.90882 220.066207 
L 72.387578 215.284228 
L 73.866335 212.269543 
L 75.345093 210.648852 
L 81.260124 199.143168 
L 82.738882 196.72978 
L 84.21764 194.725839 
L 85.696398 193.3057 
L 87.175155 192.605239 
L 88.653913 190.510487 
L 90.132671 188.724446 
L 91.611429 186.44298 
L 94.568944 185.528656 
L 97.52646 184.02769 
L 99.005217 183.23408 
L 100.483975 182.567029 
L 101.962733 182.136564 
L 103.441491 182.030408 
L 104.920248 179.95083 
L 106.399006 178.583202 
L 107.877764 178.067935 
L 109.356522 176.87599 
L 110.83528 175.528189 
L 118.229068 167.879249 
L 119.707826 166.784851 
L 121.186584 167.063951 
L 122.665342 166.074037 
L 124.144099 165.236683 
L 125.622857 164.877091 
L 127.101615 164.223196 
L 130.05913 162.523871 
L 131.537888 161.622083 
L 133.016646 160.876893 
L 134.495404 160.346948 
L 135.974161 160.12002 
L 137.452919 158.891656 
L 138.931677 157.933865 
L 140.410435 156.717131 
L 141.889193 157.02403 
L 143.36795 156.754131 
L 144.846708 156.011591 
L 146.325466 155.047683 
L 149.282981 152.815812 
L 150.761739 151.88464 
L 153.719255 150.520691 
L 155.198012 149.288791 
L 156.67677 149.477027 
L 158.155528 148.595863 
L 159.634286 147.347 
L 162.591801 143.969888 
L 164.070559 142.230613 
L 165.549317 140.682688 
L 167.028075 139.448207 
L 168.506832 138.633841 
L 169.98559 138.724637 
L 171.464348 137.482477 
L 172.943106 137.114019 
L 174.421863 136.991529 
L 175.900621 136.516087 
L 177.379379 135.766192 
L 180.336894 134.017133 
L 181.815652 133.310884 
L 183.29441 132.985885 
L 184.773168 133.13659 
L 186.251925 131.599669 
L 187.730683 130.288361 
L 189.209441 130.138396 
L 190.688199 129.507222 
L 192.166957 128.538519 
L 193.645714 127.212377 
L 198.081988 122.696702 
L 199.560745 121.630156 
L 201.039503 121.064682 
L 202.518261 119.995602 
L 203.997019 118.512188 
L 205.475776 117.703674 
L 206.954534 117.299295 
L 208.433292 116.629945 
L 214.348323 112.767973 
L 215.827081 112.371815 
L 217.305839 112.538406 
L 220.263354 110.192102 
L 223.22087 109.199446 
L 224.699627 108.257863 
L 226.178385 107.013052 
L 230.614658 102.884198 
L 232.093416 101.91752 
L 233.572174 101.47374 
L 235.050932 100.631682 
L 236.529689 99.253516 
L 238.008447 98.594045 
L 240.965963 96.699716 
L 245.402236 93.473612 
L 246.880994 92.6964 
L 248.359752 92.310792 
L 249.838509 92.462084 
L 251.317267 91.822375 
L 252.796025 90.810491 
L 254.274783 90.643042 
L 255.75354 89.769793 
L 257.232298 88.713031 
L 261.668571 85.16651 
L 263.147329 84.242611 
L 264.626087 83.633111 
L 266.104845 83.428719 
L 269.06236 81.479957 
L 270.541118 81.098999 
L 273.498634 79.57376 
L 277.934907 76.940976 
L 279.413665 76.281958 
L 280.892422 75.932988 
L 282.37118 75.974995 
L 283.849938 74.96789 
L 285.328696 74.224641 
L 286.807453 73.891972 
L 289.764969 72.695447 
L 294.201242 70.826394 
L 295.68 70.393447 
L 297.158758 70.208215 
L 298.637516 70.34343 
L 301.595031 69.499117 
L 303.073789 69.040178 
L 304.552547 68.984352 
L 306.031304 68.762601 
L 307.510062 68.422582 
L 310.467578 67.388991 
L 313.425093 66.448005 
L 314.903851 66.188239 
L 317.861366 64.707671 
L 319.340124 64.218634 
L 323.776398 61.934211 
L 326.733913 60.442493 
L 328.212671 59.83315 
L 329.691429 59.367585 
L 331.170186 59.102469 
L 332.648944 59.098138 
L 334.127702 58.701906 
L 335.60646 58.54253 
L 344.479006 56.12268 
L 345.957764 55.904227 
L 347.436522 55.824615 
L 348.91528 55.482591 
L 359.266584 54.018357 
L 362.224099 53.907669 
L 363.702857 53.973941 
L 366.660373 53.641286 
L 371.096646 53.345184 
L 375.532919 53.144059 
L 378.490435 53.160241 
L 381.44795 53.339054 
L 381.44795 53.339054 
" clip-path="url(#pa53821d4f9)" style="fill: none; stroke: #d62728; stroke-width: 1.5; stroke-linecap: square"/>
   </g>
   <g id="line2d_27">
    <path d="M 57.6 272.268182 
L 60.557516 260.937179 
L 63.515031 250.51398 
L 66.472547 241.147055 
L 69.430062 232.984878 
L 70.90882 229.401967 
L 72.387578 225.416237 
L 73.866335 223.049942 
L 75.345093 222.196533 
L 78.302609 217.694574 
L 81.260124 213.656489 
L 82.738882 211.989559 
L 84.21764 210.713876 
L 85.696398 209.957016 
L 87.175155 209.822762 
L 88.653913 207.430556 
L 90.132671 205.81612 
L 91.611429 203.565499 
L 93.090186 203.517742 
L 94.568944 203.300189 
L 96.047702 202.90195 
L 100.483975 201.312704 
L 101.962733 201.005623 
L 103.441491 201.006378 
L 104.920248 198.94643 
L 106.399006 197.792124 
L 107.877764 197.187106 
L 109.356522 196.396844 
L 110.83528 195.29549 
L 112.314037 193.853772 
L 116.750311 188.939572 
L 118.229068 187.516413 
L 119.707826 186.333914 
L 121.186584 186.85381 
L 122.665342 185.903267 
L 124.144099 185.72488 
L 125.622857 185.068002 
L 128.580373 183.089238 
L 131.537888 180.89382 
L 133.016646 180.027493 
L 134.495404 179.426509 
L 135.974161 179.158233 
L 137.452919 178.326416 
L 138.931677 177.335131 
L 140.410435 176.829747 
L 141.889193 176.644455 
L 143.36795 176.167848 
L 144.846708 175.333661 
L 149.282981 172.332652 
L 150.761739 171.63334 
L 152.240497 171.309864 
L 155.198012 168.885626 
L 156.67677 168.86734 
L 158.155528 168.510637 
L 159.634286 167.583118 
L 162.591801 164.771408 
L 164.070559 163.288874 
L 165.549317 161.969258 
L 167.028075 160.974244 
L 168.506832 160.408387 
L 169.98559 159.540415 
L 171.464348 158.192646 
L 172.943106 157.787099 
L 174.421863 157.648273 
L 175.900621 156.940044 
L 177.379379 155.778378 
L 181.815652 151.637759 
L 183.29441 150.7794 
L 184.773168 150.474149 
L 186.251925 149.011836 
L 187.730683 147.249848 
L 189.209441 147.368898 
L 190.688199 146.503745 
L 192.166957 145.176125 
L 193.645714 143.469777 
L 196.60323 139.72621 
L 198.081988 138.060858 
L 199.560745 136.840685 
L 201.039503 136.245294 
L 202.518261 134.96218 
L 203.997019 133.059579 
L 205.475776 132.074929 
L 206.954534 131.58778 
L 208.433292 130.725112 
L 214.348323 126.015335 
L 215.827081 125.510954 
L 217.305839 125.71107 
L 218.784596 123.872837 
L 220.263354 122.258465 
L 221.742112 121.1866 
L 223.22087 120.644047 
L 224.699627 119.77418 
L 226.178385 118.566801 
L 229.135901 115.745135 
L 230.614658 114.549882 
L 232.093416 113.767995 
L 233.572174 113.582973 
L 235.050932 112.820568 
L 236.529689 111.298397 
L 238.008447 111.39729 
L 239.487205 110.122818 
L 240.965963 108.595681 
L 246.880994 101.414695 
L 248.359752 100.230992 
L 249.838509 99.636244 
L 251.317267 98.849365 
L 252.796025 97.409576 
L 254.274783 96.600631 
L 257.232298 94.474263 
L 260.189814 92.330677 
L 261.668571 91.411921 
L 263.147329 90.84317 
L 264.626087 90.746076 
L 266.104845 91.281471 
L 267.583602 89.747392 
L 269.06236 88.730541 
L 270.541118 88.318968 
L 273.498634 86.677764 
L 276.456149 84.488296 
L 277.934907 83.400865 
L 279.413665 82.468544 
L 280.892422 81.819951 
L 282.37118 81.58626 
L 286.807453 79.047506 
L 289.764969 77.620103 
L 294.201242 75.119392 
L 295.68 74.483876 
L 297.158758 74.100104 
L 298.637516 74.12501 
L 301.595031 72.908707 
L 303.073789 72.754918 
L 306.031304 71.426523 
L 311.946335 68.378317 
L 313.425093 67.895507 
L 316.382609 67.428524 
L 317.861366 67.008037 
L 319.340124 67.190666 
L 322.29764 66.020143 
L 328.212671 63.568119 
L 329.691429 63.191761 
L 331.170186 63.020909 
L 332.648944 62.260038 
L 335.60646 61.07839 
L 338.563975 60.411678 
L 343.000248 59.3197 
L 344.479006 59.065283 
L 345.957764 58.963271 
L 347.436522 59.042197 
L 348.91528 58.270934 
L 350.394037 57.850593 
L 351.872795 57.565246 
L 356.309068 56.185137 
L 359.266584 55.259032 
L 362.224099 54.57281 
L 363.702857 54.381915 
L 365.181615 54.433531 
L 374.054161 53.371263 
L 377.011677 53.292028 
L 379.969193 53.51496 
L 381.44795 53.76442 
L 381.44795 53.76442 
" clip-path="url(#pa53821d4f9)" style="fill: none; stroke: #9467bd; stroke-width: 1.5; stroke-linecap: square"/>
   </g>
   <g id="line2d_28">
    <path d="M 57.6 274.019888 
L 62.036273 262.699335 
L 64.993789 255.668778 
L 67.951304 249.213961 
L 72.387578 240.10837 
L 73.866335 238.154657 
L 75.345093 237.241827 
L 79.781366 231.703778 
L 82.738882 228.470417 
L 84.21764 227.155263 
L 85.696398 226.220362 
L 87.175155 225.69244 
L 88.653913 224.835976 
L 90.132671 223.593221 
L 91.611429 222.742362 
L 94.568944 221.346317 
L 97.52646 219.682619 
L 99.005217 218.90941 
L 100.483975 218.275197 
L 101.962733 217.864281 
L 103.441491 217.736309 
L 104.920248 216.285039 
L 106.399006 215.472124 
L 107.877764 215.509606 
L 110.83528 213.954901 
L 112.314037 212.925345 
L 115.271553 210.648966 
L 118.229068 208.789141 
L 121.186584 207.460338 
L 122.665342 206.573443 
L 125.622857 205.949053 
L 127.101615 205.320465 
L 133.016646 202.149539 
L 134.495404 201.586007 
L 135.974161 201.331314 
L 137.452919 200.045057 
L 138.931677 199.191522 
L 140.410435 199.336305 
L 141.889193 199.047092 
L 143.36795 198.276259 
L 144.846708 197.044754 
L 147.804224 194.158573 
L 149.282981 192.895162 
L 150.761739 191.932924 
L 152.240497 191.375696 
L 155.198012 189.15221 
L 156.67677 189.464509 
L 158.155528 189.137376 
L 159.634286 188.378645 
L 161.113043 187.125258 
L 164.070559 184.305987 
L 165.549317 183.094715 
L 167.028075 182.301808 
L 168.506832 182.002198 
L 169.98559 180.510318 
L 171.464348 178.852114 
L 172.943106 178.82924 
L 174.421863 178.497679 
L 175.900621 177.492315 
L 177.379379 176.005005 
L 180.336894 172.508164 
L 181.815652 171.06265 
L 183.29441 170.124309 
L 184.773168 169.810055 
L 187.730683 166.317348 
L 190.688199 165.49284 
L 192.166957 164.55462 
L 193.645714 163.08694 
L 196.60323 159.764421 
L 198.081988 158.402809 
L 199.560745 157.552496 
L 201.039503 157.421272 
L 202.518261 155.769337 
L 205.475776 151.719487 
L 206.954534 152.028409 
L 208.433292 151.688653 
L 209.91205 150.675043 
L 214.348323 146.404898 
L 215.827081 145.484216 
L 217.305839 145.202179 
L 218.784596 143.714759 
L 220.263354 141.547742 
L 221.742112 142.042856 
L 223.22087 140.363022 
L 224.699627 138.089307 
L 226.178385 135.207753 
L 229.135901 128.865334 
L 230.614658 126.056295 
L 232.093416 123.835465 
L 233.572174 122.447928 
L 235.050932 122.280475 
L 236.529689 120.190807 
L 238.008447 120.074648 
L 240.965963 117.571321 
L 243.923478 114.717871 
L 245.402236 113.595745 
L 246.880994 112.989005 
L 248.359752 113.140343 
L 249.838509 114.202218 
L 251.317267 111.879143 
L 252.796025 110.208104 
L 255.75354 108.456774 
L 257.232298 107.233795 
L 261.668571 103.169511 
L 263.147329 102.262026 
L 264.626087 101.888431 
L 266.104845 102.229794 
L 267.583602 100.314632 
L 269.06236 98.905561 
L 270.541118 98.649366 
L 272.019876 97.379566 
L 273.498634 95.94533 
L 277.934907 91.195564 
L 279.413665 89.935432 
L 280.892422 89.125442 
L 282.37118 88.938794 
L 283.849938 87.914241 
L 286.807453 85.302873 
L 288.286211 84.727094 
L 291.243727 83.235747 
L 294.201242 81.709926 
L 295.68 81.2363 
L 297.158758 81.19941 
L 298.637516 81.669047 
L 300.116273 80.584971 
L 301.595031 79.809866 
L 303.073789 79.808884 
L 306.031304 77.807482 
L 311.946335 73.061713 
L 313.425093 72.170684 
L 314.903851 71.62656 
L 316.382609 71.456664 
L 319.340124 69.851296 
L 320.818882 69.526013 
L 328.212671 67.20226 
L 329.691429 67.013405 
L 331.170186 67.087881 
L 332.648944 66.04545 
L 338.563975 63.596469 
L 344.479006 60.702275 
L 345.957764 60.137686 
L 347.436522 59.756714 
L 348.91528 59.746144 
L 350.394037 59.298695 
L 351.872795 59.069835 
L 354.830311 58.098106 
L 360.745342 56.010907 
L 362.224099 55.642119 
L 372.575404 54.098501 
L 375.532919 53.75742 
L 378.490435 53.656175 
L 379.969193 53.731035 
L 382.926708 53.443063 
L 394.75677 53.101061 
L 397.714286 53.287948 
L 397.714286 53.287948 
" clip-path="url(#pa53821d4f9)" style="fill: none; stroke: #8c564b; stroke-width: 1.5; stroke-linecap: square"/>
   </g>
   <g id="line2d_29">
    <path d="M 57.6 277.832369 
L 64.993789 263.068714 
L 67.951304 257.604768 
L 70.90882 252.66835 
L 72.387578 249.665768 
L 75.345093 246.325695 
L 76.823851 245.375547 
L 79.781366 243.276065 
L 82.738882 241.604025 
L 84.21764 240.989491 
L 85.696398 240.623372 
L 87.175155 240.559158 
L 88.653913 239.997362 
L 90.132671 239.244747 
L 91.611429 238.072162 
L 93.090186 238.051482 
L 94.568944 237.777272 
L 96.047702 237.303317 
L 97.52646 236.618359 
L 103.441491 233.241108 
L 104.920248 232.851609 
L 106.399006 231.992733 
L 109.356522 231.272541 
L 110.83528 230.608313 
L 113.792795 228.603072 
L 118.229068 225.513981 
L 119.707826 224.719946 
L 121.186584 224.790372 
L 122.665342 224.032566 
L 124.144099 224.605551 
L 125.622857 223.895846 
L 127.101615 222.884644 
L 130.05913 220.316902 
L 133.016646 217.857674 
L 134.495404 216.890779 
L 135.974161 216.274066 
L 138.931677 214.355785 
L 140.410435 213.352398 
L 141.889193 213.916642 
L 143.36795 213.910826 
L 144.846708 213.407265 
L 147.804224 211.968995 
L 149.282981 211.382104 
L 150.761739 211.104968 
L 152.240497 211.251053 
L 153.719255 209.655445 
L 155.198012 208.545844 
L 158.155528 208.469857 
L 159.634286 207.655504 
L 161.113043 206.060556 
L 165.549317 200.432327 
L 167.028075 198.931162 
L 168.506832 197.924197 
L 169.98559 197.671192 
L 171.464348 196.066082 
L 172.943106 196.391378 
L 174.421863 196.118457 
L 175.900621 195.020893 
L 177.379379 193.292821 
L 180.336894 189.315695 
L 181.815652 187.69071 
L 183.29441 186.566484 
L 184.773168 186.093748 
L 186.251925 184.621801 
L 187.730683 182.493906 
L 189.209441 183.169325 
L 190.688199 182.327784 
L 192.166957 180.487259 
L 193.645714 177.943997 
L 195.124472 175.166376 
L 196.60323 172.637497 
L 198.081988 170.57105 
L 199.560745 169.235872 
L 201.039503 168.808141 
L 202.518261 166.534555 
L 203.997019 164.051652 
L 205.475776 162.729264 
L 206.954534 162.601503 
L 208.433292 162.02647 
L 209.91205 161.070157 
L 212.869565 158.686131 
L 214.348323 157.840614 
L 215.827081 157.66511 
L 217.305839 158.381167 
L 220.263354 153.088083 
L 221.742112 152.687264 
L 223.22087 151.57438 
L 224.699627 149.680502 
L 226.178385 147.252861 
L 230.614658 139.074479 
L 232.093416 137.175699 
L 233.572174 136.20937 
L 235.050932 134.98508 
L 236.529689 132.610301 
L 239.487205 130.568643 
L 240.965963 129.321111 
L 245.402236 124.291074 
L 246.880994 123.10257 
L 248.359752 122.682238 
L 249.838509 123.271186 
L 251.317267 121.569648 
L 252.796025 119.567793 
L 254.274783 118.41346 
L 255.75354 117.589201 
L 257.232298 116.396388 
L 260.189814 113.127337 
L 261.668571 111.457659 
L 263.147329 110.082472 
L 264.626087 109.225191 
L 266.104845 109.104984 
L 267.583602 107.870493 
L 269.06236 106.144497 
L 270.541118 105.090971 
L 272.019876 103.862131 
L 273.498634 102.260889 
L 277.934907 96.859661 
L 279.413665 95.512129 
L 280.892422 94.676697 
L 282.37118 94.547218 
L 283.849938 93.999389 
L 286.807453 91.512079 
L 288.286211 90.784461 
L 294.201242 87.017777 
L 295.68 86.413318 
L 297.158758 86.252312 
L 298.637516 86.63312 
L 300.116273 86.167303 
L 301.595031 85.309568 
L 303.073789 85.453876 
L 304.552547 84.542448 
L 306.031304 83.438379 
L 307.510062 82.053238 
L 311.946335 77.567112 
L 313.425093 76.397294 
L 314.903851 75.617703 
L 316.382609 75.034645 
L 317.861366 73.99086 
L 319.340124 73.758434 
L 322.29764 71.59923 
L 325.255155 69.634524 
L 326.733913 68.829685 
L 328.212671 68.274605 
L 329.691429 68.069825 
L 331.170186 68.31633 
L 332.648944 67.263149 
L 334.127702 66.60767 
L 335.60646 66.367519 
L 343.000248 63.142206 
L 344.479006 62.69557 
L 345.957764 62.458259 
L 347.436522 62.481967 
L 348.91528 61.520566 
L 350.394037 61.042332 
L 351.872795 60.767335 
L 354.830311 59.828177 
L 359.266584 58.286436 
L 360.745342 57.878018 
L 362.224099 57.610292 
L 363.702857 57.537139 
L 365.181615 56.898997 
L 372.575404 55.029792 
L 375.532919 54.409646 
L 378.490435 54.116728 
L 379.969193 54.146284 
L 382.926708 53.800515 
L 385.884224 53.557204 
L 390.320497 53.22561 
L 393.278012 53.178679 
L 396.235528 53.322141 
L 397.714286 53.478953 
L 397.714286 53.478953 
" clip-path="url(#pa53821d4f9)" style="fill: none; stroke: #e377c2; stroke-width: 1.5; stroke-linecap: square"/>
   </g>
   <g id="line2d_30">
    <path d="M 57.6 279.223236 
L 60.557516 275.814058 
L 66.472547 268.335991 
L 69.430062 264.679046 
L 70.90882 262.961208 
L 72.387578 260.903463 
L 75.345093 258.560738 
L 78.302609 257.04047 
L 82.738882 254.834787 
L 84.21764 254.231672 
L 85.696398 253.852652 
L 87.175155 253.697764 
L 88.653913 252.744198 
L 90.132671 252.021096 
L 91.611429 251.162233 
L 93.090186 251.095266 
L 94.568944 250.74542 
L 97.52646 249.563983 
L 100.483975 248.195102 
L 101.962733 247.644293 
L 104.920248 246.917281 
L 106.399006 246.264298 
L 107.877764 245.415724 
L 109.356522 245.708647 
L 110.83528 245.691506 
L 112.314037 245.179753 
L 115.271553 243.659513 
L 118.229068 242.088523 
L 119.707826 241.505827 
L 121.186584 241.322231 
L 122.665342 240.493635 
L 124.144099 240.720389 
L 125.622857 240.21325 
L 127.101615 239.477661 
L 128.580373 238.371187 
L 134.495404 233.009504 
L 135.974161 232.085973 
L 137.452919 231.97187 
L 138.931677 230.86289 
L 141.889193 230.469207 
L 143.36795 229.833584 
L 144.846708 228.699272 
L 149.282981 224.987139 
L 150.761739 224.186506 
L 152.240497 223.885299 
L 153.719255 222.458444 
L 155.198012 221.276198 
L 156.67677 222.386685 
L 158.155528 221.671237 
L 159.634286 220.314042 
L 161.113043 218.353194 
L 164.070559 213.841807 
L 165.549317 211.880203 
L 167.028075 210.41479 
L 168.506832 209.609369 
L 169.98559 208.07259 
L 171.464348 206.265498 
L 172.943106 205.628107 
L 174.421863 205.991812 
L 175.900621 205.534425 
L 177.379379 204.241717 
L 180.336894 201.045481 
L 181.815652 199.835858 
L 183.29441 199.200542 
L 184.773168 199.347841 
L 186.251925 196.525088 
L 187.730683 194.179984 
L 189.209441 194.223709 
L 190.688199 193.394929 
L 192.166957 191.698706 
L 193.645714 189.165834 
L 196.60323 183.302779 
L 198.081988 180.720385 
L 199.560745 178.83372 
L 201.039503 177.881289 
L 202.518261 176.420924 
L 203.997019 173.719931 
L 205.475776 171.424891 
L 206.954534 171.511679 
L 208.433292 171.002144 
L 209.91205 169.851671 
L 212.869565 166.633546 
L 214.348323 165.396344 
L 215.827081 164.927478 
L 217.305839 165.433432 
L 218.784596 163.272004 
L 220.263354 160.675265 
L 221.742112 160.343438 
L 223.22087 158.894934 
L 224.699627 156.674672 
L 226.178385 153.743127 
L 229.135901 147.236308 
L 230.614658 144.34056 
L 232.093416 142.157608 
L 233.572174 140.93905 
L 235.050932 140.376435 
L 236.529689 137.793013 
L 239.487205 135.309598 
L 240.965963 133.74734 
L 245.402236 128.44566 
L 246.880994 127.245592 
L 248.359752 126.841509 
L 249.838509 127.430162 
L 252.796025 122.996706 
L 255.75354 120.519442 
L 257.232298 118.798924 
L 260.189814 114.412274 
L 261.668571 112.213782 
L 263.147329 110.38025 
L 264.626087 109.211959 
L 266.104845 108.962049 
L 267.583602 107.460988 
L 269.06236 105.591573 
L 270.541118 104.668004 
L 272.019876 103.592497 
L 273.498634 102.192768 
L 277.934907 97.282995 
L 279.413665 96.045436 
L 280.892422 95.368188 
L 282.37118 95.485698 
L 283.849938 94.492373 
L 285.328696 93.0025 
L 291.243727 88.313811 
L 294.201242 85.801328 
L 295.68 84.938892 
L 297.158758 84.559707 
L 298.637516 84.805717 
L 300.116273 84.157375 
L 301.595031 83.169934 
L 303.073789 82.674168 
L 306.031304 80.577415 
L 310.467578 77.096441 
L 311.946335 76.18352 
L 313.425093 75.586071 
L 314.903851 75.429015 
L 316.382609 75.012851 
L 317.861366 74.409381 
L 319.340124 74.627394 
L 320.818882 73.723359 
L 323.776398 71.553095 
L 326.733913 69.209975 
L 328.212671 68.194544 
L 329.691429 67.405328 
L 331.170186 66.947367 
L 332.648944 65.879802 
L 334.127702 65.024243 
L 335.60646 64.583933 
L 343.000248 61.403592 
L 344.479006 61.0514 
L 345.957764 60.944233 
L 347.436522 61.140352 
L 348.91528 60.07244 
L 350.394037 59.535152 
L 353.351553 58.68963 
L 359.266584 56.85029 
L 360.745342 56.539468 
L 362.224099 56.376461 
L 363.702857 56.395273 
L 366.660373 55.685925 
L 377.011677 53.854264 
L 393.278012 53.06344 
L 396.235528 53.167586 
L 397.714286 53.286615 
L 397.714286 53.286615 
" clip-path="url(#pa53821d4f9)" style="fill: none; stroke: #7f7f7f; stroke-width: 1.5; stroke-linecap: square"/>
   </g>
   <g id="line2d_31">
    <path d="M 57.6 283.279941 
L 62.036273 279.895982 
L 69.430062 274.12956 
L 70.90882 273.042637 
L 72.387578 271.696836 
L 73.866335 270.808258 
L 75.345093 269.106611 
L 76.823851 268.983232 
L 78.302609 268.734373 
L 81.260124 267.861355 
L 84.21764 266.867503 
L 85.696398 266.472309 
L 88.653913 265.855858 
L 90.132671 265.217884 
L 91.611429 264.806147 
L 93.090186 264.575336 
L 94.568944 264.043971 
L 96.047702 263.277241 
L 97.52646 262.278137 
L 103.441491 257.707816 
L 104.920248 258.067011 
L 106.399006 257.342894 
L 107.877764 258.216959 
L 109.356522 257.499283 
L 110.83528 256.560792 
L 113.792795 253.954665 
L 116.750311 251.383092 
L 118.229068 250.390445 
L 121.186584 249.077032 
L 122.665342 248.230634 
L 124.144099 248.909547 
L 125.622857 248.696689 
L 127.101615 248.052446 
L 131.537888 245.128087 
L 133.016646 244.48582 
L 134.495404 244.200031 
L 135.974161 244.420376 
L 137.452919 242.566396 
L 138.931677 241.526966 
L 140.410435 242.000226 
L 141.889193 241.719417 
L 143.36795 240.924649 
L 147.804224 236.743142 
L 149.282981 235.657995 
L 150.761739 234.964292 
L 152.240497 234.88076 
L 153.719255 233.185309 
L 155.198012 231.679757 
L 156.67677 232.9099 
L 158.155528 232.150564 
L 159.634286 230.739539 
L 164.070559 224.710863 
L 165.549317 223.117255 
L 167.028075 222.110468 
L 168.506832 221.816393 
L 171.464348 217.982937 
L 172.943106 218.805911 
L 174.421863 218.758675 
L 175.900621 217.490153 
L 177.379379 215.480724 
L 180.336894 210.791835 
L 181.815652 208.949091 
L 183.29441 207.76632 
L 184.773168 207.560638 
L 186.251925 204.159551 
L 187.730683 201.545427 
L 190.688199 201.047001 
L 192.166957 199.738705 
L 193.645714 197.692224 
L 196.60323 193.100508 
L 198.081988 191.431781 
L 199.560745 190.668144 
L 201.039503 191.075447 
L 202.518261 188.618862 
L 203.997019 185.83244 
L 205.475776 185.818168 
L 206.954534 184.648611 
L 208.433292 183.082532 
L 209.91205 181.010669 
L 212.869565 176.403856 
L 214.348323 174.584162 
L 215.827081 173.62422 
L 217.305839 173.792119 
L 218.784596 171.819986 
L 220.263354 168.990701 
L 221.742112 168.750899 
L 223.22087 167.507345 
L 224.699627 165.492467 
L 227.657143 160.157131 
L 229.135901 157.467926 
L 230.614658 155.295439 
L 232.093416 153.976623 
L 233.572174 153.834675 
L 236.529689 148.427055 
L 238.008447 148.305369 
L 239.487205 146.606474 
L 240.965963 144.547059 
L 245.402236 137.44013 
L 246.880994 135.665219 
L 248.359752 134.750431 
L 249.838509 134.997873 
L 252.796025 129.974361 
L 254.274783 128.506515 
L 255.75354 127.661679 
L 257.232298 126.179162 
L 261.668571 120.796748 
L 263.147329 119.553689 
L 264.626087 119.093444 
L 266.104845 119.643117 
L 267.583602 117.269708 
L 269.06236 115.273616 
L 270.541118 114.707882 
L 272.019876 113.06749 
L 273.498634 111.090297 
L 277.934907 104.693422 
L 279.413665 103.029802 
L 280.892422 102.016252 
L 282.37118 101.872402 
L 283.849938 101.028196 
L 285.328696 99.187979 
L 286.807453 97.802405 
L 289.764969 95.87257 
L 294.201242 92.537867 
L 295.68 91.794584 
L 297.158758 91.558984 
L 298.637516 92.014387 
L 300.116273 90.653699 
L 301.595031 89.491091 
L 303.073789 89.004104 
L 304.552547 87.862499 
L 306.031304 86.464535 
L 310.467578 81.656753 
L 311.946335 80.287511 
L 313.425093 79.333558 
L 316.382609 78.522426 
L 317.861366 77.65176 
L 319.340124 77.460056 
L 322.29764 75.47085 
L 325.255155 73.268733 
L 326.733913 72.275615 
L 328.212671 71.493977 
L 329.691429 71.014705 
L 331.170186 70.937515 
L 332.648944 70.005782 
L 334.127702 69.249254 
L 337.085217 68.144078 
L 343.000248 65.366097 
L 344.479006 64.847097 
L 345.957764 64.571954 
L 347.436522 64.607516 
L 348.91528 63.720198 
L 350.394037 63.133994 
L 351.872795 62.793083 
L 354.830311 61.567446 
L 360.745342 58.806227 
L 362.224099 58.35096 
L 363.702857 58.089461 
L 372.575404 55.613934 
L 375.532919 54.976783 
L 378.490435 54.687939 
L 379.969193 54.743226 
L 382.926708 54.311707 
L 385.884224 53.963947 
L 388.841739 53.590005 
L 391.799255 53.394757 
L 394.75677 53.461259 
L 397.714286 53.872569 
L 397.714286 53.872569 
" clip-path="url(#pa53821d4f9)" style="fill: none; stroke: #bcbd22; stroke-width: 1.5; stroke-linecap: square"/>
   </g>
   <g id="line2d_32">
    <path d="M 57.6 280.832917 
L 59.078758 281.454403 
L 60.557516 281.89613 
L 62.036273 282.171559 
L 63.515031 282.29415 
L 64.993789 282.277365 
L 66.472547 282.134664 
L 69.430062 281.52536 
L 70.90882 281.085679 
L 72.387578 280.300788 
L 73.866335 279.722241 
L 75.345093 278.974883 
L 76.823851 278.859892 
L 78.302609 278.442429 
L 79.781366 277.779333 
L 82.738882 276.072808 
L 87.175155 273.185568 
L 88.653913 272.994878 
L 90.132671 272.367708 
L 91.611429 271.876983 
L 93.090186 271.580197 
L 96.047702 270.575471 
L 101.962733 267.744035 
L 103.441491 267.303815 
L 104.920248 267.273947 
L 106.399006 266.649605 
L 107.877764 267.323546 
L 109.356522 266.87663 
L 110.83528 266.240473 
L 112.314037 265.263759 
L 116.750311 261.763245 
L 118.229068 260.810473 
L 121.186584 259.452805 
L 122.665342 258.610712 
L 124.144099 260.27217 
L 125.622857 259.503411 
L 127.101615 258.275397 
L 130.05913 255.043334 
L 131.537888 253.445347 
L 133.016646 252.120946 
L 134.495404 251.224276 
L 135.974161 250.845882 
L 137.452919 249.09293 
L 138.931677 247.991726 
L 141.889193 248.351173 
L 143.36795 247.890859 
L 147.804224 245.167222 
L 149.282981 244.674893 
L 150.761739 244.716297 
L 152.240497 245.399002 
L 153.719255 242.893584 
L 155.198012 241.409854 
L 156.67677 242.75972 
L 158.155528 242.204601 
L 159.634286 240.589651 
L 161.113043 238.356705 
L 164.070559 233.485963 
L 165.549317 231.453564 
L 167.028075 229.978055 
L 168.506832 229.300447 
L 169.98559 227.599717 
L 171.464348 225.448993 
L 172.943106 225.766502 
L 174.421863 225.513498 
L 175.900621 224.470635 
L 180.336894 219.022153 
L 181.815652 217.795652 
L 183.29441 217.359693 
L 184.773168 217.91927 
L 186.251925 215.173893 
L 187.730683 212.735672 
L 189.209441 214.217157 
L 190.688199 213.312578 
L 192.166957 211.18213 
L 193.645714 208.253378 
L 196.60323 202.018204 
L 198.081988 199.497744 
L 199.560745 197.841331 
L 201.039503 197.300016 
L 202.518261 194.59185 
L 203.997019 191.640164 
L 205.475776 191.287137 
L 206.954534 190.729457 
L 208.433292 189.342882 
L 212.869565 182.962348 
L 214.348323 181.5183 
L 215.827081 181.031581 
L 217.305839 181.826463 
L 218.784596 178.201401 
L 220.263354 175.018454 
L 221.742112 173.333561 
L 223.22087 173.084885 
L 224.699627 171.88996 
L 226.178385 169.86489 
L 229.135901 165.007592 
L 230.614658 163.064165 
L 232.093416 161.978452 
L 233.572174 162.094727 
L 235.050932 159.779778 
L 236.529689 156.84572 
L 238.008447 156.782996 
L 239.487205 154.953735 
L 240.965963 152.54958 
L 242.44472 149.58453 
L 245.402236 143.22236 
L 246.880994 140.574806 
L 248.359752 138.795342 
L 249.838509 138.247912 
L 251.317267 137.158402 
L 252.796025 134.291524 
L 254.274783 132.758701 
L 255.75354 131.422629 
L 257.232298 129.911087 
L 261.668571 124.845926 
L 263.147329 123.758307 
L 264.626087 123.522856 
L 266.104845 124.4164 
L 267.583602 121.877298 
L 269.06236 119.722413 
L 270.541118 118.690256 
L 272.019876 117.265146 
L 273.498634 115.42499 
L 277.934907 108.996361 
L 279.413665 107.298163 
L 280.892422 106.246175 
L 282.37118 106.085704 
L 283.849938 104.875179 
L 285.328696 103.104995 
L 286.807453 100.9994 
L 291.243727 97.479289 
L 292.722484 96.185602 
L 294.201242 95.047928 
L 295.68 94.253994 
L 297.158758 94.034066 
L 298.637516 94.563355 
L 300.116273 93.810593 
L 301.595031 92.736351 
L 303.073789 92.929027 
L 304.552547 91.665816 
L 306.031304 90.10492 
L 307.510062 88.257449 
L 311.946335 82.121324 
L 313.425093 80.445749 
L 314.903851 79.220464 
L 316.382609 78.733125 
L 317.861366 77.550013 
L 319.340124 76.6586 
L 322.29764 74.523546 
L 325.255155 72.624448 
L 326.733913 71.878823 
L 328.212671 71.426402 
L 329.691429 71.39028 
L 331.170186 71.872628 
L 332.648944 70.573345 
L 334.127702 69.872072 
L 335.60646 69.419334 
L 337.085217 68.786151 
L 340.042733 67.109955 
L 344.479006 64.333156 
L 345.957764 63.719159 
L 347.436522 63.399875 
L 348.91528 62.709559 
L 360.745342 58.263727 
L 362.224099 58.021969 
L 363.702857 58.006039 
L 372.575404 55.995125 
L 377.011677 54.920382 
L 378.490435 54.700961 
L 379.969193 54.603368 
L 390.320497 53.149271 
L 393.278012 53.066225 
L 396.235528 53.335245 
L 397.714286 53.630357 
L 397.714286 53.630357 
" clip-path="url(#pa53821d4f9)" style="fill: none; stroke: #17becf; stroke-width: 1.5; stroke-linecap: square"/>
   </g>
   <g id="line2d_33">
    <path d="M 57.6 284.805938 
L 59.078758 284.782111 
L 60.557516 284.607303 
L 63.515031 283.885316 
L 66.472547 282.801116 
L 70.90882 280.848163 
L 73.866335 279.5067 
L 75.345093 278.46113 
L 78.302609 278.722249 
L 81.260124 278.479983 
L 88.653913 277.220907 
L 90.132671 276.576769 
L 91.611429 276.512229 
L 93.090186 276.075698 
L 94.568944 275.447107 
L 96.047702 274.591699 
L 97.52646 273.513197 
L 103.441491 268.685488 
L 104.920248 268.675525 
L 106.399006 267.979154 
L 107.877764 267.796855 
L 109.356522 267.921115 
L 110.83528 267.589059 
L 112.314037 266.852339 
L 116.750311 263.90097 
L 118.229068 263.155706 
L 119.707826 262.699586 
L 121.186584 261.635119 
L 122.665342 260.711363 
L 124.144099 260.220313 
L 125.622857 260.217347 
L 127.101615 259.770909 
L 128.580373 258.97553 
L 133.016646 256.246948 
L 134.495404 255.75093 
L 135.974161 255.678135 
L 137.452919 255.221835 
L 138.931677 254.224866 
L 140.410435 254.937278 
L 141.889193 254.732845 
L 143.36795 253.67119 
L 144.846708 252.04276 
L 149.282981 246.17888 
L 150.761739 244.704844 
L 153.719255 242.773555 
L 155.198012 241.211749 
L 156.67677 242.194106 
L 158.155528 241.671484 
L 159.634286 240.268654 
L 161.113043 238.34986 
L 164.070559 234.247189 
L 165.549317 232.685223 
L 167.028075 231.711962 
L 168.506832 231.545295 
L 171.464348 227.3346 
L 172.943106 227.771143 
L 174.421863 227.339769 
L 175.900621 225.954675 
L 177.379379 223.975649 
L 180.336894 219.790619 
L 181.815652 218.256757 
L 183.29441 217.453623 
L 184.773168 217.648924 
L 186.251925 215.020146 
L 187.730683 212.659272 
L 189.209441 212.861283 
L 190.688199 212.848754 
L 192.166957 211.53432 
L 193.645714 209.288589 
L 196.60323 204.048879 
L 198.081988 201.924223 
L 199.560745 200.637187 
L 201.039503 200.421023 
L 202.518261 197.725133 
L 203.997019 194.766689 
L 205.475776 193.685453 
L 206.954534 193.45496 
L 208.433292 192.19731 
L 209.91205 190.1599 
L 212.869565 185.430365 
L 214.348323 183.613132 
L 215.827081 182.618062 
L 217.305839 182.745152 
L 218.784596 180.520288 
L 220.263354 177.220295 
L 221.742112 176.75878 
L 223.22087 175.292772 
L 224.699627 172.956199 
L 226.178385 169.99601 
L 229.135901 163.50204 
L 230.614658 160.766293 
L 232.093416 158.95594 
L 233.572174 158.382083 
L 235.050932 156.668071 
L 236.529689 153.563163 
L 238.008447 153.728292 
L 239.487205 152.056062 
L 240.965963 149.790262 
L 242.44472 147.072924 
L 245.402236 141.287166 
L 246.880994 138.993887 
L 248.359752 137.684661 
L 249.838509 137.659308 
L 252.796025 131.689882 
L 254.274783 129.911154 
L 255.75354 128.673695 
L 257.232298 127.123971 
L 260.189814 123.430122 
L 261.668571 121.849853 
L 263.147329 120.886199 
L 264.626087 120.894871 
L 266.104845 122.117556 
L 267.583602 119.640149 
L 269.06236 117.463384 
L 270.541118 116.435246 
L 272.019876 114.793717 
L 273.498634 112.928264 
L 277.934907 106.814027 
L 279.413665 105.23791 
L 280.892422 104.309871 
L 282.37118 104.27692 
L 283.849938 103.423199 
L 285.328696 101.663956 
L 289.764969 97.902268 
L 294.201242 93.338427 
L 295.68 92.209252 
L 297.158758 91.609984 
L 298.637516 91.75839 
L 301.595031 89.514136 
L 303.073789 88.925117 
L 304.552547 87.955658 
L 306.031304 86.70292 
L 311.946335 80.814866 
L 313.425093 79.926054 
L 314.903851 79.569875 
L 316.382609 78.786681 
L 319.340124 76.514076 
L 320.818882 75.779328 
L 323.776398 73.928122 
L 326.733913 71.979934 
L 328.212671 71.189691 
L 329.691429 70.686697 
L 331.170186 70.57188 
L 334.127702 68.815902 
L 335.60646 68.531866 
L 338.563975 66.318646 
L 343.000248 62.848363 
L 344.479006 61.885438 
L 345.957764 61.154006 
L 347.436522 60.735566 
L 348.91528 60.525619 
L 350.394037 59.995579 
L 351.872795 59.781858 
L 354.830311 58.791698 
L 359.266584 57.296361 
L 360.745342 56.960493 
L 362.224099 56.814817 
L 363.702857 56.888762 
L 365.181615 56.095629 
L 369.617888 54.97629 
L 374.054161 54.211525 
L 377.011677 53.975908 
L 378.490435 53.99249 
L 379.969193 54.130563 
L 382.926708 53.790911 
L 385.884224 53.554151 
L 390.320497 53.179825 
L 393.278012 53.081883 
L 396.235528 53.17254 
L 397.714286 53.306623 
L 397.714286 53.306623 
" clip-path="url(#pa53821d4f9)" style="fill: none; stroke: #1f77b4; stroke-width: 1.5; stroke-linecap: square"/>
   </g>
   <g id="patch_3">
    <path d="M 57.6 307.584 
L 57.6 41.472 
" style="fill: none; stroke: #000000; stroke-width: 0.8; stroke-linejoin: miter; stroke-linecap: square"/>
   </g>
   <g id="patch_4">
    <path d="M 414.72 307.584 
L 414.72 41.472 
" style="fill: none; stroke: #000000; stroke-width: 0.8; stroke-linejoin: miter; stroke-linecap: square"/>
   </g>
   <g id="patch_5">
    <path d="M 57.6 307.584 
L 414.72 307.584 
" style="fill: none; stroke: #000000; stroke-width: 0.8; stroke-linejoin: miter; stroke-linecap: square"/>
   </g>
   <g id="patch_6">
    <path d="M 57.6 41.472 
L 414.72 41.472 
" style="fill: none; stroke: #000000; stroke-width: 0.8; stroke-linejoin: miter; stroke-linecap: square"/>
   </g>
   <g id="text_14">
    <!-- WRN learning curves per corruption level -->
    <g transform="translate(112.48125 35.472) scale(0.12 -0.12)">
     <defs>
      <path id="DejaVuSans-57" d="M 213 4666 
L 850 4666 
L 1831 722 
L 2809 4666 
L 3519 4666 
L 4500 722 
L 5478 4666 
L 6119 4666 
L 4947 0 
L 4153 0 
L 3169 4050 
L 2175 0 
L 1381 0 
L 213 4666 
z
" transform="scale(0.015625)"/>
      <path id="DejaVuSans-52" d="M 2841 2188 
Q 3044 2119 3236 1894 
Q 3428 1669 3622 1275 
L 4263 0 
L 3584 0 
L 2988 1197 
Q 2756 1666 2539 1819 
Q 2322 1972 1947 1972 
L 1259 1972 
L 1259 0 
L 628 0 
L 628 4666 
L 2053 4666 
Q 2853 4666 3247 4331 
Q 3641 3997 3641 3322 
Q 3641 2881 3436 2590 
Q 3231 2300 2841 2188 
z
M 1259 4147 
L 1259 2491 
L 2053 2491 
Q 2509 2491 2742 2702 
Q 2975 2913 2975 3322 
Q 2975 3731 2742 3939 
Q 2509 4147 2053 4147 
L 1259 4147 
z
" transform="scale(0.015625)"/>
      <path id="DejaVuSans-4e" d="M 628 4666 
L 1478 4666 
L 3547 763 
L 3547 4666 
L 4159 4666 
L 4159 0 
L 3309 0 
L 1241 3903 
L 1241 0 
L 628 0 
L 628 4666 
z
" transform="scale(0.015625)"/>
      <path id="DejaVuSans-6c" d="M 603 4863 
L 1178 4863 
L 1178 0 
L 603 0 
L 603 4863 
z
" transform="scale(0.015625)"/>
      <path id="DejaVuSans-76" d="M 191 3500 
L 800 3500 
L 1894 563 
L 2988 3500 
L 3597 3500 
L 2284 0 
L 1503 0 
L 191 3500 
z
" transform="scale(0.015625)"/>
      <path id="DejaVuSans-6f" d="M 1959 3097 
Q 1497 3097 1228 2736 
Q 959 2375 959 1747 
Q 959 1119 1226 758 
Q 1494 397 1959 397 
Q 2419 397 2687 759 
Q 2956 1122 2956 1747 
Q 2956 2369 2687 2733 
Q 2419 3097 1959 3097 
z
M 1959 3584 
Q 2709 3584 3137 3096 
Q 3566 2609 3566 1747 
Q 3566 888 3137 398 
Q 2709 -91 1959 -91 
Q 1206 -91 779 398 
Q 353 888 353 1747 
Q 353 2609 779 3096 
Q 1206 3584 1959 3584 
z
" transform="scale(0.015625)"/>
     </defs>
     <use xlink:href="#DejaVuSans-57"/>
     <use xlink:href="#DejaVuSans-52" transform="translate(98.876953 0)"/>
     <use xlink:href="#DejaVuSans-4e" transform="translate(168.359375 0)"/>
     <use xlink:href="#DejaVuSans-20" transform="translate(243.164062 0)"/>
     <use xlink:href="#DejaVuSans-6c" transform="translate(274.951172 0)"/>
     <use xlink:href="#DejaVuSans-65" transform="translate(302.734375 0)"/>
     <use xlink:href="#DejaVuSans-61" transform="translate(364.257812 0)"/>
     <use xlink:href="#DejaVuSans-72" transform="translate(425.537109 0)"/>
     <use xlink:href="#DejaVuSans-6e" transform="translate(464.900391 0)"/>
     <use xlink:href="#DejaVuSans-69" transform="translate(528.279297 0)"/>
     <use xlink:href="#DejaVuSans-6e" transform="translate(556.0625 0)"/>
     <use xlink:href="#DejaVuSans-67" transform="translate(619.441406 0)"/>
     <use xlink:href="#DejaVuSans-20" transform="translate(682.917969 0)"/>
     <use xlink:href="#DejaVuSans-63" transform="translate(714.705078 0)"/>
     <use xlink:href="#DejaVuSans-75" transform="translate(769.685547 0)"/>
     <use xlink:href="#DejaVuSans-72" transform="translate(833.064453 0)"/>
     <use xlink:href="#DejaVuSans-76" transform="translate(874.177734 0)"/>
     <use xlink:href="#DejaVuSans-65" transform="translate(933.357422 0)"/>
     <use xlink:href="#DejaVuSans-73" transform="translate(994.880859 0)"/>
     <use xlink:href="#DejaVuSans-20" transform="translate(1046.980469 0)"/>
     <use xlink:href="#DejaVuSans-70" transform="translate(1078.767578 0)"/>
     <use xlink:href="#DejaVuSans-65" transform="translate(1142.244141 0)"/>
     <use xlink:href="#DejaVuSans-72" transform="translate(1203.767578 0)"/>
     <use xlink:href="#DejaVuSans-20" transform="translate(1244.880859 0)"/>
     <use xlink:href="#DejaVuSans-63" transform="translate(1276.667969 0)"/>
     <use xlink:href="#DejaVuSans-6f" transform="translate(1331.648438 0)"/>
     <use xlink:href="#DejaVuSans-72" transform="translate(1392.830078 0)"/>
     <use xlink:href="#DejaVuSans-72" transform="translate(1432.193359 0)"/>
     <use xlink:href="#DejaVuSans-75" transform="translate(1473.306641 0)"/>
     <use xlink:href="#DejaVuSans-70" transform="translate(1536.685547 0)"/>
     <use xlink:href="#DejaVuSans-74" transform="translate(1600.162109 0)"/>
     <use xlink:href="#DejaVuSans-69" transform="translate(1639.371094 0)"/>
     <use xlink:href="#DejaVuSans-6f" transform="translate(1667.154297 0)"/>
     <use xlink:href="#DejaVuSans-6e" transform="translate(1728.335938 0)"/>
     <use xlink:href="#DejaVuSans-20" transform="translate(1791.714844 0)"/>
     <use xlink:href="#DejaVuSans-6c" transform="translate(1823.501953 0)"/>
     <use xlink:href="#DejaVuSans-65" transform="translate(1851.285156 0)"/>
     <use xlink:href="#DejaVuSans-76" transform="translate(1912.808594 0)"/>
     <use xlink:href="#DejaVuSans-65" transform="translate(1971.988281 0)"/>
     <use xlink:href="#DejaVuSans-6c" transform="translate(2033.511719 0)"/>
    </g>
   </g>
   <g id="legend_1">
    <g id="patch_7">
     <path d="M 345.08875 302.584 
L 407.72 302.584 
Q 409.72 302.584 409.72 300.584 
L 409.72 140.124625 
Q 409.72 138.124625 407.72 138.124625 
L 345.08875 138.124625 
Q 343.08875 138.124625 343.08875 140.124625 
L 343.08875 300.584 
Q 343.08875 302.584 345.08875 302.584 
z
" style="fill: #ffffff; opacity: 0.8; stroke: #cccccc; stroke-linejoin: miter"/>
    </g>
    <g id="line2d_34">
     <path d="M 347.08875 146.223062 
L 357.08875 146.223062 
L 367.08875 146.223062 
" style="fill: none; stroke: #1f77b4; stroke-width: 1.5; stroke-linecap: square"/>
    </g>
    <g id="text_15">
     <!-- p=0.0 -->
     <g transform="translate(375.08875 149.723062) scale(0.1 -0.1)">
      <defs>
       <path id="DejaVuSans-3d" d="M 678 2906 
L 4684 2906 
L 4684 2381 
L 678 2381 
L 678 2906 
z
M 678 1631 
L 4684 1631 
L 4684 1100 
L 678 1100 
L 678 1631 
z
" transform="scale(0.015625)"/>
      </defs>
      <use xlink:href="#DejaVuSans-70"/>
      <use xlink:href="#DejaVuSans-3d" transform="translate(63.476562 0)"/>
      <use xlink:href="#DejaVuSans-30" transform="translate(147.265625 0)"/>
      <use xlink:href="#DejaVuSans-2e" transform="translate(210.888672 0)"/>
      <use xlink:href="#DejaVuSans-30" transform="translate(242.675781 0)"/>
     </g>
    </g>
    <g id="line2d_35">
     <path d="M 347.08875 160.901188 
L 357.08875 160.901188 
L 367.08875 160.901188 
" style="fill: none; stroke: #ff7f0e; stroke-width: 1.5; stroke-linecap: square"/>
    </g>
    <g id="text_16">
     <!-- p=0.1 -->
     <g transform="translate(375.08875 164.401188) scale(0.1 -0.1)">
      <use xlink:href="#DejaVuSans-70"/>
      <use xlink:href="#DejaVuSans-3d" transform="translate(63.476562 0)"/>
      <use xlink:href="#DejaVuSans-30" transform="translate(147.265625 0)"/>
      <use xlink:href="#DejaVuSans-2e" transform="translate(210.888672 0)"/>
      <use xlink:href="#DejaVuSans-31" transform="translate(242.675781 0)"/>
     </g>
    </g>
    <g id="line2d_36">
     <path d="M 347.08875 175.579313 
L 357.08875 175.579313 
L 367.08875 175.579313 
" style="fill: none; stroke: #2ca02c; stroke-width: 1.5; stroke-linecap: square"/>
    </g>
    <g id="text_17">
     <!-- p=0.2 -->
     <g transform="translate(375.08875 179.079313) scale(0.1 -0.1)">
      <use xlink:href="#DejaVuSans-70"/>
      <use xlink:href="#DejaVuSans-3d" transform="translate(63.476562 0)"/>
      <use xlink:href="#DejaVuSans-30" transform="translate(147.265625 0)"/>
      <use xlink:href="#DejaVuSans-2e" transform="translate(210.888672 0)"/>
      <use xlink:href="#DejaVuSans-32" transform="translate(242.675781 0)"/>
     </g>
    </g>
    <g id="line2d_37">
     <path d="M 347.08875 190.257438 
L 357.08875 190.257438 
L 367.08875 190.257438 
" style="fill: none; stroke: #d62728; stroke-width: 1.5; stroke-linecap: square"/>
    </g>
    <g id="text_18">
     <!-- p=0.3 -->
     <g transform="translate(375.08875 193.757438) scale(0.1 -0.1)">
      <defs>
       <path id="DejaVuSans-33" d="M 2597 2516 
Q 3050 2419 3304 2112 
Q 3559 1806 3559 1356 
Q 3559 666 3084 287 
Q 2609 -91 1734 -91 
Q 1441 -91 1130 -33 
Q 819 25 488 141 
L 488 750 
Q 750 597 1062 519 
Q 1375 441 1716 441 
Q 2309 441 2620 675 
Q 2931 909 2931 1356 
Q 2931 1769 2642 2001 
Q 2353 2234 1838 2234 
L 1294 2234 
L 1294 2753 
L 1863 2753 
Q 2328 2753 2575 2939 
Q 2822 3125 2822 3475 
Q 2822 3834 2567 4026 
Q 2313 4219 1838 4219 
Q 1578 4219 1281 4162 
Q 984 4106 628 3988 
L 628 4550 
Q 988 4650 1302 4700 
Q 1616 4750 1894 4750 
Q 2613 4750 3031 4423 
Q 3450 4097 3450 3541 
Q 3450 3153 3228 2886 
Q 3006 2619 2597 2516 
z
" transform="scale(0.015625)"/>
      </defs>
      <use xlink:href="#DejaVuSans-70"/>
      <use xlink:href="#DejaVuSans-3d" transform="translate(63.476562 0)"/>
      <use xlink:href="#DejaVuSans-30" transform="translate(147.265625 0)"/>
      <use xlink:href="#DejaVuSans-2e" transform="translate(210.888672 0)"/>
      <use xlink:href="#DejaVuSans-33" transform="translate(242.675781 0)"/>
     </g>
    </g>
    <g id="line2d_38">
     <path d="M 347.08875 204.935563 
L 357.08875 204.935563 
L 367.08875 204.935563 
" style="fill: none; stroke: #9467bd; stroke-width: 1.5; stroke-linecap: square"/>
    </g>
    <g id="text_19">
     <!-- p=0.4 -->
     <g transform="translate(375.08875 208.435563) scale(0.1 -0.1)">
      <use xlink:href="#DejaVuSans-70"/>
      <use xlink:href="#DejaVuSans-3d" transform="translate(63.476562 0)"/>
      <use xlink:href="#DejaVuSans-30" transform="translate(147.265625 0)"/>
      <use xlink:href="#DejaVuSans-2e" transform="translate(210.888672 0)"/>
      <use xlink:href="#DejaVuSans-34" transform="translate(242.675781 0)"/>
     </g>
    </g>
    <g id="line2d_39">
     <path d="M 347.08875 219.613688 
L 357.08875 219.613688 
L 367.08875 219.613688 
" style="fill: none; stroke: #8c564b; stroke-width: 1.5; stroke-linecap: square"/>
    </g>
    <g id="text_20">
     <!-- p=0.5 -->
     <g transform="translate(375.08875 223.113688) scale(0.1 -0.1)">
      <use xlink:href="#DejaVuSans-70"/>
      <use xlink:href="#DejaVuSans-3d" transform="translate(63.476562 0)"/>
      <use xlink:href="#DejaVuSans-30" transform="translate(147.265625 0)"/>
      <use xlink:href="#DejaVuSans-2e" transform="translate(210.888672 0)"/>
      <use xlink:href="#DejaVuSans-35" transform="translate(242.675781 0)"/>
     </g>
    </g>
    <g id="line2d_40">
     <path d="M 347.08875 234.291812 
L 357.08875 234.291812 
L 367.08875 234.291812 
" style="fill: none; stroke: #e377c2; stroke-width: 1.5; stroke-linecap: square"/>
    </g>
    <g id="text_21">
     <!-- p=0.6 -->
     <g transform="translate(375.08875 237.791812) scale(0.1 -0.1)">
      <use xlink:href="#DejaVuSans-70"/>
      <use xlink:href="#DejaVuSans-3d" transform="translate(63.476562 0)"/>
      <use xlink:href="#DejaVuSans-30" transform="translate(147.265625 0)"/>
      <use xlink:href="#DejaVuSans-2e" transform="translate(210.888672 0)"/>
      <use xlink:href="#DejaVuSans-36" transform="translate(242.675781 0)"/>
     </g>
    </g>
    <g id="line2d_41">
     <path d="M 347.08875 248.969938 
L 357.08875 248.969938 
L 367.08875 248.969938 
" style="fill: none; stroke: #7f7f7f; stroke-width: 1.5; stroke-linecap: square"/>
    </g>
    <g id="text_22">
     <!-- p=0.7 -->
     <g transform="translate(375.08875 252.469938) scale(0.1 -0.1)">
      <defs>
       <path id="DejaVuSans-37" d="M 525 4666 
L 3525 4666 
L 3525 4397 
L 1831 0 
L 1172 0 
L 2766 4134 
L 525 4134 
L 525 4666 
z
" transform="scale(0.015625)"/>
      </defs>
      <use xlink:href="#DejaVuSans-70"/>
      <use xlink:href="#DejaVuSans-3d" transform="translate(63.476562 0)"/>
      <use xlink:href="#DejaVuSans-30" transform="translate(147.265625 0)"/>
      <use xlink:href="#DejaVuSans-2e" transform="translate(210.888672 0)"/>
      <use xlink:href="#DejaVuSans-37" transform="translate(242.675781 0)"/>
     </g>
    </g>
    <g id="line2d_42">
     <path d="M 347.08875 263.648062 
L 357.08875 263.648062 
L 367.08875 263.648062 
" style="fill: none; stroke: #bcbd22; stroke-width: 1.5; stroke-linecap: square"/>
    </g>
    <g id="text_23">
     <!-- p=0.8 -->
     <g transform="translate(375.08875 267.148062) scale(0.1 -0.1)">
      <use xlink:href="#DejaVuSans-70"/>
      <use xlink:href="#DejaVuSans-3d" transform="translate(63.476562 0)"/>
      <use xlink:href="#DejaVuSans-30" transform="translate(147.265625 0)"/>
      <use xlink:href="#DejaVuSans-2e" transform="translate(210.888672 0)"/>
      <use xlink:href="#DejaVuSans-38" transform="translate(242.675781 0)"/>
     </g>
    </g>
    <g id="line2d_43">
     <path d="M 347.08875 278.326187 
L 357.08875 278.326187 
L 367.08875 278.326187 
" style="fill: none; stroke: #17becf; stroke-width: 1.5; stroke-linecap: square"/>
    </g>
    <g id="text_24">
     <!-- p=0.9 -->
     <g transform="translate(375.08875 281.826187) scale(0.1 -0.1)">
      <defs>
       <path id="DejaVuSans-39" d="M 703 97 
L 703 672 
Q 941 559 1184 500 
Q 1428 441 1663 441 
Q 2288 441 2617 861 
Q 2947 1281 2994 2138 
Q 2813 1869 2534 1725 
Q 2256 1581 1919 1581 
Q 1219 1581 811 2004 
Q 403 2428 403 3163 
Q 403 3881 828 4315 
Q 1253 4750 1959 4750 
Q 2769 4750 3195 4129 
Q 3622 3509 3622 2328 
Q 3622 1225 3098 567 
Q 2575 -91 1691 -91 
Q 1453 -91 1209 -44 
Q 966 3 703 97 
z
M 1959 2075 
Q 2384 2075 2632 2365 
Q 2881 2656 2881 3163 
Q 2881 3666 2632 3958 
Q 2384 4250 1959 4250 
Q 1534 4250 1286 3958 
Q 1038 3666 1038 3163 
Q 1038 2656 1286 2365 
Q 1534 2075 1959 2075 
z
" transform="scale(0.015625)"/>
      </defs>
      <use xlink:href="#DejaVuSans-70"/>
      <use xlink:href="#DejaVuSans-3d" transform="translate(63.476562 0)"/>
      <use xlink:href="#DejaVuSans-30" transform="translate(147.265625 0)"/>
      <use xlink:href="#DejaVuSans-2e" transform="translate(210.888672 0)"/>
      <use xlink:href="#DejaVuSans-39" transform="translate(242.675781 0)"/>
     </g>
    </g>
    <g id="line2d_44">
     <path d="M 347.08875 293.004312 
L 357.08875 293.004312 
L 367.08875 293.004312 
" style="fill: none; stroke: #1f77b4; stroke-width: 1.5; stroke-linecap: square"/>
    </g>
    <g id="text_25">
     <!-- p=1.0 -->
     <g transform="translate(375.08875 296.504312) scale(0.1 -0.1)">
      <use xlink:href="#DejaVuSans-70"/>
      <use xlink:href="#DejaVuSans-3d" transform="translate(63.476562 0)"/>
      <use xlink:href="#DejaVuSans-31" transform="translate(147.265625 0)"/>
      <use xlink:href="#DejaVuSans-2e" transform="translate(210.888672 0)"/>
      <use xlink:href="#DejaVuSans-30" transform="translate(242.675781 0)"/>
     </g>
    </g>
   </g>
  </g>
 </g>
 <defs>
  <clipPath id="pa53821d4f9">
   <rect x="57.6" y="41.472" width="357.12" height="266.112"/>
  </clipPath>
 </defs>
</svg>
