<?xml version="1.0" encoding="utf-8" standalone="no"?>
<!DOCTYPE svg PUBLIC "-//W3C//DTD SVG 1.1//EN"
  "http://www.w3.org/Graphics/SVG/1.1/DTD/svg11.dtd">
<svg xmlns:xlink="http://www.w3.org/1999/xlink" width="460.8pt" height="345.6pt" viewBox="0 0 460.8 345.6" xmlns="http://www.w3.org/2000/svg" version="1.1">
 <metadata>
  <rdf:RDF xmlns:dc="http://purl.org/dc/elements/1.1/" xmlns:cc="http://creativecommons.org/ns#" xmlns:rdf="http://www.w3.org/1999/02/22-rdf-syntax-ns#">
   <cc:Work>
    <dc:type rdf:resource="http://purl.org/dc/dcmitype/StillImage"/>
    <dc:date>2025-04-23T23:52:24.943928</dc:date>
    <dc:format>image/svg+xml</dc:format>
    <dc:creator>
     <cc:Agent>
      <dc:title>Matplotlib v3.10.1, https://matplotlib.org/</dc:title>
     </cc:Agent>
    </dc:creator>
   </cc:Work>
  </rdf:RDF>
 </metadata>
 <defs>
  <style type="text/css">*{stroke-linejoin: round; stroke-linecap: butt}</style>
 </defs>
 <g id="figure_1">
  <g id="patch_1">
   <path d="M 0 345.6 
L 460.8 345.6 
L 460.8 0 
L 0 0 
z
" style="fill: #ffffff"/>
  </g>
  <g id="axes_1">
   <g id="patch_2">
    <path d="M 57.6 307.584 
L 414.72 307.584 
L 414.72 41.472 
L 57.6 41.472 
z
" style="fill: #ffffff"/>
   </g>
   <g id="matplotlib.axis_1">
    <g id="xtick_1">
     <g id="line2d_1">
      <path d="M 57.6 307.584 
L 57.6 41.472 
" clip-path="url(#p5434e1c146)" style="fill: none; stroke-dasharray: 2.96,1.28; stroke-dashoffset: 0; stroke: #b0b0b0; stroke-opacity: 0.7; stroke-width: 0.8"/>
     </g>
     <g id="line2d_2">
      <defs>
       <path id="m55219fb0ca" d="M 0 0 
L 0 3.5 
" style="stroke: #000000; stroke-width: 0.8"/>
      </defs>
      <g>
       <use xlink:href="#m55219fb0ca" x="57.6" y="307.584" style="stroke: #000000; stroke-width: 0.8"/>
      </g>
     </g>
     <g id="text_1">
      <!-- 0 -->
      <g transform="translate(54.41875 322.182437) scale(0.1 -0.1)">
       <defs>
        <path id="DejaVuSans-30" d="M 2034 4250 
Q 1547 4250 1301 3770 
Q 1056 3291 1056 2328 
Q 1056 1369 1301 889 
Q 1547 409 2034 409 
Q 2525 409 2770 889 
Q 3016 1369 3016 2328 
Q 3016 3291 2770 3770 
Q 2525 4250 2034 4250 
z
M 2034 4750 
Q 2819 4750 3233 4129 
Q 3647 3509 3647 2328 
Q 3647 1150 3233 529 
Q 2819 -91 2034 -91 
Q 1250 -91 836 529 
Q 422 1150 422 2328 
Q 422 3509 836 4129 
Q 1250 4750 2034 4750 
z
" transform="scale(0.015625)"/>
       </defs>
       <use xlink:href="#DejaVuSans-30"/>
      </g>
     </g>
    </g>
    <g id="xtick_2">
     <g id="line2d_3">
      <path d="M 126.276923 307.584 
L 126.276923 41.472 
" clip-path="url(#p5434e1c146)" style="fill: none; stroke-dasharray: 2.96,1.28; stroke-dashoffset: 0; stroke: #b0b0b0; stroke-opacity: 0.7; stroke-width: 0.8"/>
     </g>
     <g id="line2d_4">
      <g>
       <use xlink:href="#m55219fb0ca" x="126.276923" y="307.584" style="stroke: #000000; stroke-width: 0.8"/>
      </g>
     </g>
     <g id="text_2">
      <!-- 50 -->
      <g transform="translate(119.914423 322.182437) scale(0.1 -0.1)">
       <defs>
        <path id="DejaVuSans-35" d="M 691 4666 
L 3169 4666 
L 3169 4134 
L 1269 4134 
L 1269 2991 
Q 1406 3038 1543 3061 
Q 1681 3084 1819 3084 
Q 2600 3084 3056 2656 
Q 3513 2228 3513 1497 
Q 3513 744 3044 326 
Q 2575 -91 1722 -91 
Q 1428 -91 1123 -41 
Q 819 9 494 109 
L 494 744 
Q 775 591 1075 516 
Q 1375 441 1709 441 
Q 2250 441 2565 725 
Q 2881 1009 2881 1497 
Q 2881 1984 2565 2268 
Q 2250 2553 1709 2553 
Q 1456 2553 1204 2497 
Q 953 2441 691 2322 
L 691 4666 
z
" transform="scale(0.015625)"/>
       </defs>
       <use xlink:href="#DejaVuSans-35"/>
       <use xlink:href="#DejaVuSans-30" transform="translate(63.623047 0)"/>
      </g>
     </g>
    </g>
    <g id="xtick_3">
     <g id="line2d_5">
      <path d="M 194.953846 307.584 
L 194.953846 41.472 
" clip-path="url(#p5434e1c146)" style="fill: none; stroke-dasharray: 2.96,1.28; stroke-dashoffset: 0; stroke: #b0b0b0; stroke-opacity: 0.7; stroke-width: 0.8"/>
     </g>
     <g id="line2d_6">
      <g>
       <use xlink:href="#m55219fb0ca" x="194.953846" y="307.584" style="stroke: #000000; stroke-width: 0.8"/>
      </g>
     </g>
     <g id="text_3">
      <!-- 100 -->
      <g transform="translate(185.410096 322.182437) scale(0.1 -0.1)">
       <defs>
        <path id="DejaVuSans-31" d="M 794 531 
L 1825 531 
L 1825 4091 
L 703 3866 
L 703 4441 
L 1819 4666 
L 2450 4666 
L 2450 531 
L 3481 531 
L 3481 0 
L 794 0 
L 794 531 
z
" transform="scale(0.015625)"/>
       </defs>
       <use xlink:href="#DejaVuSans-31"/>
       <use xlink:href="#DejaVuSans-30" transform="translate(63.623047 0)"/>
       <use xlink:href="#DejaVuSans-30" transform="translate(127.246094 0)"/>
      </g>
     </g>
    </g>
    <g id="xtick_4">
     <g id="line2d_7">
      <path d="M 263.630769 307.584 
L 263.630769 41.472 
" clip-path="url(#p5434e1c146)" style="fill: none; stroke-dasharray: 2.96,1.28; stroke-dashoffset: 0; stroke: #b0b0b0; stroke-opacity: 0.7; stroke-width: 0.8"/>
     </g>
     <g id="line2d_8">
      <g>
       <use xlink:href="#m55219fb0ca" x="263.630769" y="307.584" style="stroke: #000000; stroke-width: 0.8"/>
      </g>
     </g>
     <g id="text_4">
      <!-- 150 -->
      <g transform="translate(254.087019 322.182437) scale(0.1 -0.1)">
       <use xlink:href="#DejaVuSans-31"/>
       <use xlink:href="#DejaVuSans-35" transform="translate(63.623047 0)"/>
       <use xlink:href="#DejaVuSans-30" transform="translate(127.246094 0)"/>
      </g>
     </g>
    </g>
    <g id="xtick_5">
     <g id="line2d_9">
      <path d="M 332.307692 307.584 
L 332.307692 41.472 
" clip-path="url(#p5434e1c146)" style="fill: none; stroke-dasharray: 2.96,1.28; stroke-dashoffset: 0; stroke: #b0b0b0; stroke-opacity: 0.7; stroke-width: 0.8"/>
     </g>
     <g id="line2d_10">
      <g>
       <use xlink:href="#m55219fb0ca" x="332.307692" y="307.584" style="stroke: #000000; stroke-width: 0.8"/>
      </g>
     </g>
     <g id="text_5">
      <!-- 200 -->
      <g transform="translate(322.763942 322.182437) scale(0.1 -0.1)">
       <defs>
        <path id="DejaVuSans-32" d="M 1228 531 
L 3431 531 
L 3431 0 
L 469 0 
L 469 531 
Q 828 903 1448 1529 
Q 2069 2156 2228 2338 
Q 2531 2678 2651 2914 
Q 2772 3150 2772 3378 
Q 2772 3750 2511 3984 
Q 2250 4219 1831 4219 
Q 1534 4219 1204 4116 
Q 875 4013 500 3803 
L 500 4441 
Q 881 4594 1212 4672 
Q 1544 4750 1819 4750 
Q 2544 4750 2975 4387 
Q 3406 4025 3406 3419 
Q 3406 3131 3298 2873 
Q 3191 2616 2906 2266 
Q 2828 2175 2409 1742 
Q 1991 1309 1228 531 
z
" transform="scale(0.015625)"/>
       </defs>
       <use xlink:href="#DejaVuSans-32"/>
       <use xlink:href="#DejaVuSans-30" transform="translate(63.623047 0)"/>
       <use xlink:href="#DejaVuSans-30" transform="translate(127.246094 0)"/>
      </g>
     </g>
    </g>
    <g id="xtick_6">
     <g id="line2d_11">
      <path d="M 400.984615 307.584 
L 400.984615 41.472 
" clip-path="url(#p5434e1c146)" style="fill: none; stroke-dasharray: 2.96,1.28; stroke-dashoffset: 0; stroke: #b0b0b0; stroke-opacity: 0.7; stroke-width: 0.8"/>
     </g>
     <g id="line2d_12">
      <g>
       <use xlink:href="#m55219fb0ca" x="400.984615" y="307.584" style="stroke: #000000; stroke-width: 0.8"/>
      </g>
     </g>
     <g id="text_6">
      <!-- 250 -->
      <g transform="translate(391.440865 322.182437) scale(0.1 -0.1)">
       <use xlink:href="#DejaVuSans-32"/>
       <use xlink:href="#DejaVuSans-35" transform="translate(63.623047 0)"/>
       <use xlink:href="#DejaVuSans-30" transform="translate(127.246094 0)"/>
      </g>
     </g>
    </g>
    <g id="text_7">
     <!-- Training steps -->
     <g transform="translate(201.424844 335.860562) scale(0.1 -0.1)">
      <defs>
       <path id="DejaVuSans-54" d="M -19 4666 
L 3928 4666 
L 3928 4134 
L 2272 4134 
L 2272 0 
L 1638 0 
L 1638 4134 
L -19 4134 
L -19 4666 
z
" transform="scale(0.015625)"/>
       <path id="DejaVuSans-72" d="M 2631 2963 
Q 2534 3019 2420 3045 
Q 2306 3072 2169 3072 
Q 1681 3072 1420 2755 
Q 1159 2438 1159 1844 
L 1159 0 
L 581 0 
L 581 3500 
L 1159 3500 
L 1159 2956 
Q 1341 3275 1631 3429 
Q 1922 3584 2338 3584 
Q 2397 3584 2469 3576 
Q 2541 3569 2628 3553 
L 2631 2963 
z
" transform="scale(0.015625)"/>
       <path id="DejaVuSans-61" d="M 2194 1759 
Q 1497 1759 1228 1600 
Q 959 1441 959 1056 
Q 959 750 1161 570 
Q 1363 391 1709 391 
Q 2188 391 2477 730 
Q 2766 1069 2766 1631 
L 2766 1759 
L 2194 1759 
z
M 3341 1997 
L 3341 0 
L 2766 0 
L 2766 531 
Q 2569 213 2275 61 
Q 1981 -91 1556 -91 
Q 1019 -91 701 211 
Q 384 513 384 1019 
Q 384 1609 779 1909 
Q 1175 2209 1959 2209 
L 2766 2209 
L 2766 2266 
Q 2766 2663 2505 2880 
Q 2244 3097 1772 3097 
Q 1472 3097 1187 3025 
Q 903 2953 641 2809 
L 641 3341 
Q 956 3463 1253 3523 
Q 1550 3584 1831 3584 
Q 2591 3584 2966 3190 
Q 3341 2797 3341 1997 
z
" transform="scale(0.015625)"/>
       <path id="DejaVuSans-69" d="M 603 3500 
L 1178 3500 
L 1178 0 
L 603 0 
L 603 3500 
z
M 603 4863 
L 1178 4863 
L 1178 4134 
L 603 4134 
L 603 4863 
z
" transform="scale(0.015625)"/>
       <path id="DejaVuSans-6e" d="M 3513 2113 
L 3513 0 
L 2938 0 
L 2938 2094 
Q 2938 2591 2744 2837 
Q 2550 3084 2163 3084 
Q 1697 3084 1428 2787 
Q 1159 2491 1159 1978 
L 1159 0 
L 581 0 
L 581 3500 
L 1159 3500 
L 1159 2956 
Q 1366 3272 1645 3428 
Q 1925 3584 2291 3584 
Q 2894 3584 3203 3211 
Q 3513 2838 3513 2113 
z
" transform="scale(0.015625)"/>
       <path id="DejaVuSans-67" d="M 2906 1791 
Q 2906 2416 2648 2759 
Q 2391 3103 1925 3103 
Q 1463 3103 1205 2759 
Q 947 2416 947 1791 
Q 947 1169 1205 825 
Q 1463 481 1925 481 
Q 2391 481 2648 825 
Q 2906 1169 2906 1791 
z
M 3481 434 
Q 3481 -459 3084 -895 
Q 2688 -1331 1869 -1331 
Q 1566 -1331 1297 -1286 
Q 1028 -1241 775 -1147 
L 775 -588 
Q 1028 -725 1275 -790 
Q 1522 -856 1778 -856 
Q 2344 -856 2625 -561 
Q 2906 -266 2906 331 
L 2906 616 
Q 2728 306 2450 153 
Q 2172 0 1784 0 
Q 1141 0 747 490 
Q 353 981 353 1791 
Q 353 2603 747 3093 
Q 1141 3584 1784 3584 
Q 2172 3584 2450 3431 
Q 2728 3278 2906 2969 
L 2906 3500 
L 3481 3500 
L 3481 434 
z
" transform="scale(0.015625)"/>
       <path id="DejaVuSans-20" transform="scale(0.015625)"/>
       <path id="DejaVuSans-73" d="M 2834 3397 
L 2834 2853 
Q 2591 2978 2328 3040 
Q 2066 3103 1784 3103 
Q 1356 3103 1142 2972 
Q 928 2841 928 2578 
Q 928 2378 1081 2264 
Q 1234 2150 1697 2047 
L 1894 2003 
Q 2506 1872 2764 1633 
Q 3022 1394 3022 966 
Q 3022 478 2636 193 
Q 2250 -91 1575 -91 
Q 1294 -91 989 -36 
Q 684 19 347 128 
L 347 722 
Q 666 556 975 473 
Q 1284 391 1588 391 
Q 1994 391 2212 530 
Q 2431 669 2431 922 
Q 2431 1156 2273 1281 
Q 2116 1406 1581 1522 
L 1381 1569 
Q 847 1681 609 1914 
Q 372 2147 372 2553 
Q 372 3047 722 3315 
Q 1072 3584 1716 3584 
Q 2034 3584 2315 3537 
Q 2597 3491 2834 3397 
z
" transform="scale(0.015625)"/>
       <path id="DejaVuSans-74" d="M 1172 4494 
L 1172 3500 
L 2356 3500 
L 2356 3053 
L 1172 3053 
L 1172 1153 
Q 1172 725 1289 603 
Q 1406 481 1766 481 
L 2356 481 
L 2356 0 
L 1766 0 
Q 1100 0 847 248 
Q 594 497 594 1153 
L 594 3053 
L 172 3053 
L 172 3500 
L 594 3500 
L 594 4494 
L 1172 4494 
z
" transform="scale(0.015625)"/>
       <path id="DejaVuSans-65" d="M 3597 1894 
L 3597 1613 
L 953 1613 
Q 991 1019 1311 708 
Q 1631 397 2203 397 
Q 2534 397 2845 478 
Q 3156 559 3463 722 
L 3463 178 
Q 3153 47 2828 -22 
Q 2503 -91 2169 -91 
Q 1331 -91 842 396 
Q 353 884 353 1716 
Q 353 2575 817 3079 
Q 1281 3584 2069 3584 
Q 2775 3584 3186 3129 
Q 3597 2675 3597 1894 
z
M 3022 2063 
Q 3016 2534 2758 2815 
Q 2500 3097 2075 3097 
Q 1594 3097 1305 2825 
Q 1016 2553 972 2059 
L 3022 2063 
z
" transform="scale(0.015625)"/>
       <path id="DejaVuSans-70" d="M 1159 525 
L 1159 -1331 
L 581 -1331 
L 581 3500 
L 1159 3500 
L 1159 2969 
Q 1341 3281 1617 3432 
Q 1894 3584 2278 3584 
Q 2916 3584 3314 3078 
Q 3713 2572 3713 1747 
Q 3713 922 3314 415 
Q 2916 -91 2278 -91 
Q 1894 -91 1617 61 
Q 1341 213 1159 525 
z
M 3116 1747 
Q 3116 2381 2855 2742 
Q 2594 3103 2138 3103 
Q 1681 3103 1420 2742 
Q 1159 2381 1159 1747 
Q 1159 1113 1420 752 
Q 1681 391 2138 391 
Q 2594 391 2855 752 
Q 3116 1113 3116 1747 
z
" transform="scale(0.015625)"/>
      </defs>
      <use xlink:href="#DejaVuSans-54"/>
      <use xlink:href="#DejaVuSans-72" transform="translate(46.333984 0)"/>
      <use xlink:href="#DejaVuSans-61" transform="translate(87.447266 0)"/>
      <use xlink:href="#DejaVuSans-69" transform="translate(148.726562 0)"/>
      <use xlink:href="#DejaVuSans-6e" transform="translate(176.509766 0)"/>
      <use xlink:href="#DejaVuSans-69" transform="translate(239.888672 0)"/>
      <use xlink:href="#DejaVuSans-6e" transform="translate(267.671875 0)"/>
      <use xlink:href="#DejaVuSans-67" transform="translate(331.050781 0)"/>
      <use xlink:href="#DejaVuSans-20" transform="translate(394.527344 0)"/>
      <use xlink:href="#DejaVuSans-73" transform="translate(426.314453 0)"/>
      <use xlink:href="#DejaVuSans-74" transform="translate(478.414062 0)"/>
      <use xlink:href="#DejaVuSans-65" transform="translate(517.623047 0)"/>
      <use xlink:href="#DejaVuSans-70" transform="translate(579.146484 0)"/>
      <use xlink:href="#DejaVuSans-73" transform="translate(642.623047 0)"/>
     </g>
    </g>
   </g>
   <g id="matplotlib.axis_2">
    <g id="ytick_1">
     <g id="line2d_13">
      <path d="M 57.6 307.584 
L 414.72 307.584 
" clip-path="url(#p5434e1c146)" style="fill: none; stroke-dasharray: 2.96,1.28; stroke-dashoffset: 0; stroke: #b0b0b0; stroke-opacity: 0.7; stroke-width: 0.8"/>
     </g>
     <g id="line2d_14">
      <defs>
       <path id="m6ad86f9d6d" d="M 0 0 
L -3.5 0 
" style="stroke: #000000; stroke-width: 0.8"/>
      </defs>
      <g>
       <use xlink:href="#m6ad86f9d6d" x="57.6" y="307.584" style="stroke: #000000; stroke-width: 0.8"/>
      </g>
     </g>
     <g id="text_8">
      <!-- 0.0 -->
      <g transform="translate(34.696875 311.383219) scale(0.1 -0.1)">
       <defs>
        <path id="DejaVuSans-2e" d="M 684 794 
L 1344 794 
L 1344 0 
L 684 0 
L 684 794 
z
" transform="scale(0.015625)"/>
       </defs>
       <use xlink:href="#DejaVuSans-30"/>
       <use xlink:href="#DejaVuSans-2e" transform="translate(63.623047 0)"/>
       <use xlink:href="#DejaVuSans-30" transform="translate(95.410156 0)"/>
      </g>
     </g>
    </g>
    <g id="ytick_2">
     <g id="line2d_15">
      <path d="M 57.6 252.923297 
L 414.72 252.923297 
" clip-path="url(#p5434e1c146)" style="fill: none; stroke-dasharray: 2.96,1.28; stroke-dashoffset: 0; stroke: #b0b0b0; stroke-opacity: 0.7; stroke-width: 0.8"/>
     </g>
     <g id="line2d_16">
      <g>
       <use xlink:href="#m6ad86f9d6d" x="57.6" y="252.923297" style="stroke: #000000; stroke-width: 0.8"/>
      </g>
     </g>
     <g id="text_9">
      <!-- 0.5 -->
      <g transform="translate(34.696875 256.722515) scale(0.1 -0.1)">
       <use xlink:href="#DejaVuSans-30"/>
       <use xlink:href="#DejaVuSans-2e" transform="translate(63.623047 0)"/>
       <use xlink:href="#DejaVuSans-35" transform="translate(95.410156 0)"/>
      </g>
     </g>
    </g>
    <g id="ytick_3">
     <g id="line2d_17">
      <path d="M 57.6 198.262593 
L 414.72 198.262593 
" clip-path="url(#p5434e1c146)" style="fill: none; stroke-dasharray: 2.96,1.28; stroke-dashoffset: 0; stroke: #b0b0b0; stroke-opacity: 0.7; stroke-width: 0.8"/>
     </g>
     <g id="line2d_18">
      <g>
       <use xlink:href="#m6ad86f9d6d" x="57.6" y="198.262593" style="stroke: #000000; stroke-width: 0.8"/>
      </g>
     </g>
     <g id="text_10">
      <!-- 1.0 -->
      <g transform="translate(34.696875 202.061812) scale(0.1 -0.1)">
       <use xlink:href="#DejaVuSans-31"/>
       <use xlink:href="#DejaVuSans-2e" transform="translate(63.623047 0)"/>
       <use xlink:href="#DejaVuSans-30" transform="translate(95.410156 0)"/>
      </g>
     </g>
    </g>
    <g id="ytick_4">
     <g id="line2d_19">
      <path d="M 57.6 143.60189 
L 414.72 143.60189 
" clip-path="url(#p5434e1c146)" style="fill: none; stroke-dasharray: 2.96,1.28; stroke-dashoffset: 0; stroke: #b0b0b0; stroke-opacity: 0.7; stroke-width: 0.8"/>
     </g>
     <g id="line2d_20">
      <g>
       <use xlink:href="#m6ad86f9d6d" x="57.6" y="143.60189" style="stroke: #000000; stroke-width: 0.8"/>
      </g>
     </g>
     <g id="text_11">
      <!-- 1.5 -->
      <g transform="translate(34.696875 147.401109) scale(0.1 -0.1)">
       <use xlink:href="#DejaVuSans-31"/>
       <use xlink:href="#DejaVuSans-2e" transform="translate(63.623047 0)"/>
       <use xlink:href="#DejaVuSans-35" transform="translate(95.410156 0)"/>
      </g>
     </g>
    </g>
    <g id="ytick_5">
     <g id="line2d_21">
      <path d="M 57.6 88.941187 
L 414.72 88.941187 
" clip-path="url(#p5434e1c146)" style="fill: none; stroke-dasharray: 2.96,1.28; stroke-dashoffset: 0; stroke: #b0b0b0; stroke-opacity: 0.7; stroke-width: 0.8"/>
     </g>
     <g id="line2d_22">
      <g>
       <use xlink:href="#m6ad86f9d6d" x="57.6" y="88.941187" style="stroke: #000000; stroke-width: 0.8"/>
      </g>
     </g>
     <g id="text_12">
      <!-- 2.0 -->
      <g transform="translate(34.696875 92.740406) scale(0.1 -0.1)">
       <use xlink:href="#DejaVuSans-32"/>
       <use xlink:href="#DejaVuSans-2e" transform="translate(63.623047 0)"/>
       <use xlink:href="#DejaVuSans-30" transform="translate(95.410156 0)"/>
      </g>
     </g>
    </g>
    <g id="text_13">
     <!-- Training loss -->
     <g transform="translate(28.617187 205.500656) rotate(-90) scale(0.1 -0.1)">
      <defs>
       <path id="DejaVuSans-6c" d="M 603 4863 
L 1178 4863 
L 1178 0 
L 603 0 
L 603 4863 
z
" transform="scale(0.015625)"/>
       <path id="DejaVuSans-6f" d="M 1959 3097 
Q 1497 3097 1228 2736 
Q 959 2375 959 1747 
Q 959 1119 1226 758 
Q 1494 397 1959 397 
Q 2419 397 2687 759 
Q 2956 1122 2956 1747 
Q 2956 2369 2687 2733 
Q 2419 3097 1959 3097 
z
M 1959 3584 
Q 2709 3584 3137 3096 
Q 3566 2609 3566 1747 
Q 3566 888 3137 398 
Q 2709 -91 1959 -91 
Q 1206 -91 779 398 
Q 353 888 353 1747 
Q 353 2609 779 3096 
Q 1206 3584 1959 3584 
z
" transform="scale(0.015625)"/>
      </defs>
      <use xlink:href="#DejaVuSans-54"/>
      <use xlink:href="#DejaVuSans-72" transform="translate(46.333984 0)"/>
      <use xlink:href="#DejaVuSans-61" transform="translate(87.447266 0)"/>
      <use xlink:href="#DejaVuSans-69" transform="translate(148.726562 0)"/>
      <use xlink:href="#DejaVuSans-6e" transform="translate(176.509766 0)"/>
      <use xlink:href="#DejaVuSans-69" transform="translate(239.888672 0)"/>
      <use xlink:href="#DejaVuSans-6e" transform="translate(267.671875 0)"/>
      <use xlink:href="#DejaVuSans-67" transform="translate(331.050781 0)"/>
      <use xlink:href="#DejaVuSans-20" transform="translate(394.527344 0)"/>
      <use xlink:href="#DejaVuSans-6c" transform="translate(426.314453 0)"/>
      <use xlink:href="#DejaVuSans-6f" transform="translate(454.097656 0)"/>
      <use xlink:href="#DejaVuSans-73" transform="translate(515.279297 0)"/>
      <use xlink:href="#DejaVuSans-73" transform="translate(567.378906 0)"/>
     </g>
    </g>
   </g>
   <g id="line2d_23">
    <path d="M 58.973538 82.067772 
L 61.720615 101.777114 
L 64.467692 120.088962 
L 67.214769 136.983217 
L 69.961846 152.439783 
L 71.335385 168.473535 
L 72.708923 170.924522 
L 76.829538 179.24508 
L 78.203077 183.10368 
L 83.697231 200.330391 
L 85.070769 204.761416 
L 86.444308 203.365743 
L 87.817846 203.26779 
L 89.191385 202.519221 
L 90.564923 203.675759 
L 91.938462 206.021871 
L 93.312 209.477624 
L 94.685538 213.891528 
L 96.059077 219.071538 
L 97.432615 224.916327 
L 98.806154 228.314285 
L 100.179692 225.555264 
L 101.553231 223.804345 
L 102.926769 223.744824 
L 104.300308 224.170248 
L 105.673846 225.213615 
L 107.047385 227.466736 
L 108.420923 230.958933 
L 109.794462 235.437546 
L 111.168 240.82465 
L 112.541538 238.487584 
L 113.915077 237.070149 
L 115.288615 235.951054 
L 116.662154 237.367227 
L 119.409231 241.077258 
L 120.782769 244.237705 
L 122.156308 248.488102 
L 123.529846 253.690912 
L 124.903385 259.740067 
L 126.276923 255.077111 
L 129.024 256.589884 
L 130.397538 257.385552 
L 131.771077 258.858725 
L 135.891692 265.669648 
L 137.265231 268.662807 
L 138.638769 272.20158 
L 140.012308 271.743847 
L 141.385846 271.12246 
L 145.506462 269.622419 
L 146.88 270.463026 
L 148.253538 271.547509 
L 149.627077 272.201985 
L 151.000615 273.695393 
L 152.374154 275.523019 
L 153.747692 276.74511 
L 155.121231 276.915155 
L 157.868308 277.870719 
L 160.615385 278.979348 
L 161.988923 280.297318 
L 163.362462 282.119062 
L 164.736 284.906479 
L 166.109538 286.757607 
L 170.230154 284.615564 
L 171.603692 284.304152 
L 174.350769 284.139432 
L 175.724308 284.147488 
L 178.471385 286.510969 
L 179.844923 288.137891 
L 181.218462 288.344779 
L 182.592 288.107176 
L 183.965538 288.244896 
L 185.339077 288.714376 
L 186.712615 289.495521 
L 188.086154 290.489979 
L 190.833231 292.997923 
L 192.206769 293.396716 
L 193.580308 294.824603 
L 194.953846 294.624782 
L 196.327385 294.244366 
L 197.700923 294.104358 
L 199.074462 294.221736 
L 200.448 294.591988 
L 201.821538 295.169224 
L 204.568615 296.769737 
L 207.315692 298.649925 
L 208.689231 297.910192 
L 210.062769 297.933553 
L 211.436308 298.288975 
L 214.183385 299.458736 
L 216.930462 301.045612 
L 221.051077 303.802768 
L 222.424615 303.048123 
L 225.171692 302.813523 
L 227.918769 302.987292 
L 230.665846 303.423746 
L 234.786462 304.374591 
L 236.16 304.460129 
L 241.654154 304.261892 
L 244.401231 304.546871 
L 247.148308 305.107013 
L 248.521846 305.47661 
L 249.895385 305.471924 
L 251.268923 305.248493 
L 254.016 305.16758 
L 260.883692 305.686888 
L 266.377846 305.587923 
L 267.751385 305.654028 
L 291.101538 306.000331 
L 304.836923 306.310554 
L 318.572308 306.732171 
L 318.572308 306.732171 
" clip-path="url(#p5434e1c146)" style="fill: none; stroke: #0000ff; stroke-width: 1.5; stroke-linecap: square"/>
   </g>
   <g id="line2d_24">
    <path d="M 58.973538 54.151166 
L 61.720615 54.225796 
L 65.841231 54.62122 
L 72.708923 55.59651 
L 74.082462 55.891487 
L 78.203077 55.94098 
L 83.697231 56.326242 
L 85.070769 56.670365 
L 86.444308 56.655786 
L 87.817846 56.763171 
L 90.564923 56.720718 
L 93.312 56.980093 
L 96.059077 57.602695 
L 97.432615 58.001141 
L 98.806154 58.806657 
L 100.179692 58.980187 
L 101.553231 58.941548 
L 102.926769 59.129166 
L 105.673846 58.993138 
L 107.047385 59.151679 
L 108.420923 59.51711 
L 111.168 60.722969 
L 112.541538 61.472607 
L 116.662154 62.542214 
L 118.035692 63.006325 
L 119.409231 62.999408 
L 120.782769 63.120778 
L 122.156308 63.485676 
L 123.529846 64.17615 
L 124.903385 65.108871 
L 126.276923 66.340946 
L 129.024 66.970331 
L 130.397538 67.119108 
L 131.771077 67.570197 
L 133.144615 68.209631 
L 134.518154 68.069557 
L 135.891692 68.13183 
L 137.265231 68.722445 
L 138.638769 69.796043 
L 140.012308 72.238068 
L 144.132923 73.310361 
L 145.506462 73.468376 
L 146.88 74.190807 
L 148.253538 75.176005 
L 149.627077 74.734404 
L 151.000615 75.186741 
L 152.374154 76.473674 
L 153.747692 79.472597 
L 155.121231 80.082653 
L 159.241846 82.896184 
L 160.615385 83.546421 
L 161.988923 85.195932 
L 163.362462 87.35404 
L 164.736 88.031551 
L 166.109538 89.143257 
L 167.483077 92.302287 
L 168.856615 91.973889 
L 170.230154 92.394604 
L 174.350769 95.031947 
L 175.724308 95.487903 
L 177.097846 98.036263 
L 178.471385 101.065122 
L 179.844923 102.674145 
L 181.218462 105.800924 
L 182.592 104.083267 
L 183.965538 103.932571 
L 185.339077 104.89921 
L 186.712615 106.527816 
L 189.459692 110.348755 
L 190.833231 111.888221 
L 192.206769 115.55923 
L 193.580308 120.353723 
L 194.953846 122.289222 
L 196.327385 120.587441 
L 197.700923 120.381054 
L 199.074462 121.679074 
L 200.448 124.177818 
L 201.821538 127.362198 
L 204.568615 134.245665 
L 205.942154 137.233596 
L 207.315692 142.30392 
L 208.689231 143.500123 
L 210.062769 143.015223 
L 211.436308 143.648793 
L 212.809846 145.529428 
L 214.183385 148.621545 
L 215.556923 152.639165 
L 219.677538 165.970381 
L 221.051077 169.418503 
L 222.424615 171.003931 
L 223.798154 172.355854 
L 225.171692 171.075135 
L 226.545231 171.996556 
L 227.918769 173.899616 
L 229.292308 176.715856 
L 230.665846 180.284414 
L 233.412923 188.178621 
L 234.786462 191.583273 
L 236.16 193.220821 
L 237.533538 194.110111 
L 238.907077 195.902537 
L 240.280615 197.252984 
L 241.654154 198.175568 
L 243.027692 199.913808 
L 244.401231 202.511087 
L 245.774769 205.698011 
L 248.521846 212.717863 
L 249.895385 212.353384 
L 251.268923 210.136169 
L 252.642462 211.945159 
L 254.016 213.969869 
L 255.389538 215.186876 
L 256.763077 217.69762 
L 258.136615 220.924975 
L 259.510154 224.895527 
L 262.257231 234.193149 
L 263.630769 235.485782 
L 265.004308 235.328145 
L 266.377846 234.55712 
L 267.751385 234.60262 
L 271.872 239.399761 
L 273.245538 241.808301 
L 274.619077 244.774494 
L 275.992615 248.227716 
L 277.366154 249.246649 
L 278.739692 249.613091 
L 280.113231 249.735218 
L 281.486769 249.360729 
L 282.860308 250.794389 
L 284.233846 252.534573 
L 285.607385 253.715726 
L 286.980923 256.261899 
L 288.354462 259.369944 
L 291.101538 266.931905 
L 292.475077 266.181198 
L 295.222154 265.104617 
L 296.595692 264.404645 
L 297.969231 264.439258 
L 299.342769 265.451401 
L 302.089846 268.297094 
L 303.463385 270.278802 
L 304.836923 274.53255 
L 306.210462 272.921327 
L 307.584 271.898195 
L 308.957538 271.357701 
L 310.331077 271.13768 
L 311.704615 271.121171 
L 313.078154 273.116266 
L 315.825231 277.858528 
L 317.198769 281.606623 
L 318.572308 280.175206 
L 319.945846 280.642923 
L 321.319385 281.609061 
L 322.692923 283.004341 
L 324.066462 284.746212 
L 326.813538 288.860453 
L 328.187077 291.107481 
L 330.934154 297.619106 
L 332.307692 295.726287 
L 333.681231 294.96299 
L 335.054769 294.539163 
L 336.428308 294.416701 
L 337.801846 294.56185 
L 340.548923 295.329051 
L 341.922462 295.833217 
L 344.669538 299.074155 
L 346.043077 298.268674 
L 347.416615 298.311061 
L 348.790154 298.617687 
L 350.163692 299.169875 
L 351.537231 299.92114 
L 352.910769 300.846395 
L 355.657846 303.095543 
L 357.031385 304.366563 
L 358.404923 306.284037 
L 359.778462 304.385171 
L 362.525538 304.868293 
L 363.899077 304.577135 
L 369.393231 305.076888 
L 370.766769 304.955962 
L 372.140308 304.666068 
L 373.513846 304.178971 
L 387.249231 303.466438 
L 400.984615 302.500236 
L 414.72 301.252129 
L 414.72 301.252129 
" clip-path="url(#p5434e1c146)" style="fill: none; stroke: #ff0000; stroke-width: 1.5; stroke-linecap: square"/>
   </g>
   <g id="line2d_25">
    <path d="M 58.973538 77.372235 
L 63.094154 97.716198 
L 65.841231 110.325374 
L 68.588308 121.956936 
L 69.961846 127.348565 
L 71.335385 138.207887 
L 72.708923 139.804031 
L 74.082462 140.61414 
L 75.456 142.167734 
L 76.829538 144.318359 
L 78.203077 147.047742 
L 80.950154 153.285312 
L 83.697231 159.468043 
L 85.070769 161.985493 
L 86.444308 161.153928 
L 87.817846 161.496014 
L 89.191385 161.030353 
L 90.564923 161.478348 
L 91.938462 163.003882 
L 93.312 165.606867 
L 94.685538 168.991845 
L 96.059077 172.878707 
L 97.432615 177.113262 
L 98.806154 179.73639 
L 100.179692 177.811696 
L 101.553231 177.774099 
L 102.926769 178.411764 
L 104.300308 177.778554 
L 105.673846 178.875687 
L 107.047385 181.182479 
L 108.420923 184.653103 
L 109.794462 188.939166 
L 111.168 193.764478 
L 112.541538 192.946545 
L 113.915077 193.25518 
L 115.288615 193.4143 
L 116.662154 195.369045 
L 118.035692 197.963105 
L 120.782769 202.01872 
L 122.156308 205.224119 
L 123.529846 209.476794 
L 124.903385 214.480335 
L 126.276923 213.668559 
L 127.650462 213.764698 
L 129.024 213.664004 
L 130.397538 213.156908 
L 133.144615 217.198354 
L 134.518154 217.699466 
L 135.891692 219.762259 
L 137.265231 222.305129 
L 138.638769 225.444566 
L 140.012308 229.95752 
L 141.385846 229.272322 
L 144.132923 228.170743 
L 145.506462 227.33681 
L 146.88 227.862718 
L 149.627077 231.401651 
L 151.000615 233.055145 
L 152.374154 235.383454 
L 153.747692 237.464729 
L 155.121231 236.9025 
L 156.494769 236.831128 
L 159.241846 237.167679 
L 160.615385 237.201111 
L 164.736 245.964836 
L 166.109538 249.492282 
L 167.483077 250.223598 
L 168.856615 249.40142 
L 170.230154 249.341779 
L 171.603692 249.82235 
L 172.977231 250.615331 
L 175.724308 252.536983 
L 177.097846 254.254499 
L 178.471385 257.087173 
L 179.844923 260.217996 
L 181.218462 261.619894 
L 182.592 260.448022 
L 183.965538 259.931122 
L 185.339077 260.012385 
L 186.712615 260.590788 
L 188.086154 261.490017 
L 190.833231 263.761369 
L 192.206769 266.113855 
L 193.580308 269.471035 
L 194.953846 268.502077 
L 196.327385 268.162417 
L 197.700923 268.344615 
L 199.074462 269.074667 
L 200.448 270.341112 
L 201.821538 271.976465 
L 204.568615 275.931514 
L 205.942154 277.976394 
L 207.315692 280.474891 
L 208.689231 278.624052 
L 210.062769 277.861705 
L 211.436308 277.918421 
L 212.809846 278.408868 
L 214.183385 279.317056 
L 215.556923 280.587548 
L 216.930462 282.125775 
L 221.051077 287.426405 
L 222.424615 286.041262 
L 225.171692 287.183532 
L 226.545231 287.85113 
L 227.918769 288.761535 
L 230.665846 291.005269 
L 234.786462 294.766136 
L 236.16 294.427576 
L 238.907077 294.21432 
L 240.280615 294.01961 
L 241.654154 294.104261 
L 243.027692 294.327296 
L 244.401231 294.715417 
L 247.148308 295.829013 
L 248.521846 296.475293 
L 249.895385 296.742067 
L 251.268923 296.629181 
L 252.642462 296.676955 
L 255.389538 297.215132 
L 256.763077 297.778235 
L 258.136615 298.497199 
L 259.510154 299.390489 
L 262.257231 301.665619 
L 263.630769 301.253973 
L 266.377846 301.118933 
L 270.498462 301.751105 
L 273.245538 302.557198 
L 275.992615 303.685053 
L 277.366154 303.861659 
L 281.486769 303.644243 
L 284.233846 304.038067 
L 285.607385 304.816427 
L 286.980923 305.24317 
L 288.354462 305.173098 
L 289.728 305.298347 
L 291.101538 305.031602 
L 295.222154 303.427334 
L 296.595692 303.079511 
L 297.969231 302.929811 
L 304.836923 303.041027 
L 318.572308 303.475955 
L 332.307692 304.297387 
L 346.043077 305.568117 
L 346.043077 305.568117 
" clip-path="url(#p5434e1c146)" style="fill: none; stroke: #008000; stroke-width: 1.5; stroke-linecap: square"/>
   </g>
   <g id="line2d_26">
    <path d="M 58.973538 71.477579 
L 60.347077 76.586324 
L 61.720615 80.846208 
L 63.094154 84.347916 
L 64.467692 87.182136 
L 65.841231 89.439553 
L 67.214769 91.210856 
L 68.588308 92.586731 
L 69.961846 93.657864 
L 71.335385 95.852474 
L 72.708923 95.989861 
L 74.082462 96.630939 
L 75.456 97.049901 
L 76.829538 97.633736 
L 78.203077 98.497531 
L 79.576615 99.515589 
L 80.950154 100.727305 
L 83.697231 103.543349 
L 85.070769 103.854845 
L 86.444308 103.030717 
L 87.817846 103.219401 
L 89.191385 102.87047 
L 90.564923 103.376671 
L 91.938462 104.273915 
L 93.312 105.519255 
L 94.685538 107.035625 
L 96.059077 108.751048 
L 97.432615 110.64512 
L 98.806154 111.684846 
L 100.179692 111.819704 
L 101.553231 111.763747 
L 104.300308 112.345799 
L 105.673846 112.307217 
L 107.047385 112.634351 
L 108.420923 113.488599 
L 109.794462 114.72456 
L 111.168 116.149664 
L 112.541538 116.651999 
L 115.288615 116.401686 
L 118.035692 118.320324 
L 119.409231 119.10196 
L 120.782769 119.361053 
L 122.156308 120.251872 
L 123.529846 121.776558 
L 124.903385 123.753468 
L 126.276923 124.833788 
L 129.024 126.206533 
L 130.397538 126.702273 
L 131.771077 127.353896 
L 133.144615 128.578268 
L 134.518154 129.55353 
L 135.891692 129.898928 
L 137.265231 130.887282 
L 138.638769 132.67623 
L 140.012308 135.132274 
L 141.385846 135.6138 
L 144.132923 136.781782 
L 145.506462 137.142655 
L 146.88 137.659172 
L 148.253538 139.132419 
L 149.627077 139.353673 
L 151.000615 140.196841 
L 152.374154 141.881467 
L 153.747692 145.582461 
L 155.121231 146.005536 
L 156.494769 146.92437 
L 159.241846 149.064616 
L 160.615385 149.817965 
L 161.988923 150.935284 
L 163.362462 153.302557 
L 164.736 155.043025 
L 166.109538 156.35329 
L 167.483077 159.314514 
L 168.856615 158.451848 
L 170.230154 158.438064 
L 171.603692 159.025043 
L 174.350769 160.650993 
L 175.724308 161.165584 
L 177.097846 163.662305 
L 178.471385 167.014432 
L 179.844923 169.005665 
L 181.218462 172.027011 
L 182.592 171.057435 
L 183.965538 171.253891 
L 185.339077 172.403166 
L 186.712615 174.172508 
L 189.459692 178.274485 
L 190.833231 180.05403 
L 192.206769 182.935432 
L 193.580308 187.43902 
L 194.953846 188.513953 
L 196.327385 187.153485 
L 197.700923 186.79717 
L 199.074462 187.609918 
L 200.448 189.302288 
L 201.821538 191.519438 
L 204.568615 196.510469 
L 205.942154 198.646852 
L 207.315692 203.375375 
L 208.689231 204.422484 
L 211.436308 203.927754 
L 212.809846 204.305622 
L 214.183385 205.535429 
L 215.556923 207.490551 
L 216.930462 210.014412 
L 219.677538 215.465575 
L 221.051077 217.874496 
L 222.424615 216.269351 
L 223.798154 217.619907 
L 225.171692 217.841721 
L 226.545231 219.460949 
L 227.918769 221.874943 
L 229.292308 225.021755 
L 232.039385 232.651809 
L 234.786462 240.485407 
L 236.16 239.623361 
L 237.533538 239.680391 
L 238.907077 240.598963 
L 240.280615 240.416517 
L 241.654154 241.544808 
L 243.027692 242.972116 
L 244.401231 244.691757 
L 248.521846 250.490508 
L 249.895385 250.576251 
L 251.268923 249.699241 
L 254.016 252.252092 
L 255.389538 252.541177 
L 256.763077 253.847037 
L 258.136615 255.788991 
L 259.510154 258.138295 
L 262.257231 263.603189 
L 263.630769 264.76781 
L 265.004308 264.686445 
L 266.377846 264.098841 
L 267.751385 265.323254 
L 269.124923 266.224826 
L 270.498462 266.540545 
L 271.872 267.735961 
L 273.245538 269.186187 
L 275.992615 272.536432 
L 277.366154 273.612668 
L 278.739692 273.634228 
L 280.113231 273.396944 
L 281.486769 272.794749 
L 284.233846 274.873379 
L 285.607385 275.307805 
L 286.980923 276.567645 
L 288.354462 278.19766 
L 289.728 280.111249 
L 291.101538 282.563389 
L 292.475077 281.705522 
L 296.595692 279.678059 
L 299.342769 280.851796 
L 300.716308 281.19069 
L 302.089846 282.17446 
L 303.463385 283.551526 
L 304.836923 286.114723 
L 306.210462 285.610936 
L 307.584 285.434868 
L 308.957538 285.480003 
L 311.704615 285.860463 
L 313.078154 287.368794 
L 314.451692 289.049467 
L 315.825231 290.985045 
L 317.198769 293.186446 
L 318.572308 292.309872 
L 319.945846 292.178247 
L 321.319385 292.350791 
L 322.692923 292.756389 
L 325.44 293.975078 
L 326.813538 294.673385 
L 329.560615 297.999806 
L 330.934154 299.946478 
L 332.307692 300.599003 
L 333.681231 299.344535 
L 335.054769 298.416487 
L 336.428308 297.796038 
L 337.801846 297.443654 
L 339.175385 297.336866 
L 340.548923 297.427128 
L 341.922462 297.69218 
L 343.296 298.307251 
L 344.669538 299.400145 
L 346.043077 298.552843 
L 347.416615 298.666343 
L 348.790154 299.029147 
L 350.163692 299.637131 
L 351.537231 300.472651 
L 352.910769 301.528112 
L 354.284308 302.785553 
L 355.657846 304.226019 
L 357.031385 305.831843 
L 358.404923 307.734494 
L 359.778462 305.229469 
L 362.525538 305.444608 
L 363.899077 305.324152 
L 366.646154 305.613217 
L 369.393231 305.842644 
L 372.140308 305.765145 
L 373.513846 305.567441 
L 387.249231 305.240376 
L 400.984615 304.766408 
L 414.72 304.127994 
L 414.72 304.127994 
" clip-path="url(#p5434e1c146)" style="fill: none; stroke: #bf00bf; stroke-width: 1.5; stroke-linecap: square"/>
   </g>
   <g id="line2d_27">
    <path d="M 58.973538 55.40178 
L 60.347077 54.714821 
L 61.720615 54.347428 
L 63.094154 54.259081 
L 64.467692 54.409262 
L 65.841231 54.75745 
L 68.588308 55.885775 
L 69.961846 56.584872 
L 71.335385 57.787438 
L 72.708923 58.204353 
L 75.456 58.104808 
L 76.829538 58.323858 
L 78.203077 58.897266 
L 86.444308 63.543567 
L 87.817846 64.033335 
L 89.191385 63.637993 
L 90.564923 63.378394 
L 91.938462 63.543398 
L 93.312 64.274758 
L 96.059077 66.537697 
L 97.432615 67.690052 
L 98.806154 69.184648 
L 100.179692 69.204777 
L 101.553231 69.707573 
L 102.926769 70.391759 
L 104.300308 69.523501 
L 105.673846 69.399087 
L 107.047385 70.065621 
L 108.420923 71.554099 
L 111.168 75.38071 
L 112.541538 78.106689 
L 113.915077 78.555323 
L 115.288615 78.600889 
L 116.662154 79.441712 
L 118.035692 80.667574 
L 119.409231 80.520361 
L 120.782769 80.208661 
L 122.156308 81.042367 
L 123.529846 82.876575 
L 124.903385 85.288987 
L 126.276923 87.981526 
L 127.650462 88.809085 
L 129.024 89.26904 
L 130.397538 89.181879 
L 131.771077 91.080786 
L 133.144615 93.378129 
L 134.518154 92.970937 
L 135.891692 93.775213 
L 137.265231 95.916383 
L 138.638769 99.330981 
L 140.012308 105.059063 
L 142.759385 106.994648 
L 144.132923 107.549709 
L 145.506462 107.402747 
L 146.88 108.823292 
L 148.253538 111.519332 
L 149.627077 112.070125 
L 151.000615 112.437887 
L 152.374154 114.309299 
L 153.747692 120.791992 
L 155.121231 120.800548 
L 156.494769 121.470711 
L 157.868308 122.269938 
L 159.241846 122.794 
L 160.615385 122.632845 
L 161.988923 126.17604 
L 163.362462 130.662909 
L 164.736 132.664567 
L 166.109538 135.662858 
L 167.483077 141.205966 
L 168.856615 140.562791 
L 170.230154 141.464368 
L 171.603692 143.268792 
L 172.977231 145.350365 
L 174.350769 147.16162 
L 175.724308 148.305932 
L 177.097846 152.147959 
L 178.471385 158.23829 
L 181.218462 166.785126 
L 182.592 164.626111 
L 183.965538 164.220687 
L 185.339077 165.248593 
L 186.712615 167.247391 
L 189.459692 172.097045 
L 190.833231 173.89119 
L 192.206769 179.668919 
L 193.580308 187.457052 
L 194.953846 189.299457 
L 196.327385 187.972716 
L 197.700923 187.981217 
L 199.074462 189.366747 
L 200.448 191.908235 
L 201.821538 195.20571 
L 204.568615 202.48157 
L 205.942154 205.606571 
L 207.315692 212.346568 
L 208.689231 212.725565 
L 210.062769 211.37161 
L 211.436308 211.780513 
L 212.809846 213.42561 
L 214.183385 216.169726 
L 215.556923 219.727853 
L 221.051077 235.702661 
L 223.798154 235.083 
L 225.171692 234.353223 
L 226.545231 235.297184 
L 227.918769 237.146928 
L 229.292308 239.897483 
L 230.665846 243.280532 
L 234.786462 254.717206 
L 236.16 251.220378 
L 237.533538 251.679914 
L 238.907077 252.620032 
L 240.280615 252.900806 
L 241.654154 254.727325 
L 243.027692 257.416199 
L 244.401231 260.714014 
L 245.774769 264.561029 
L 248.521846 273.09034 
L 249.895385 272.262041 
L 251.268923 270.582571 
L 254.016 270.980805 
L 255.389538 271.204569 
L 256.763077 271.761951 
L 258.136615 272.96245 
L 259.510154 274.68934 
L 260.883692 276.85786 
L 262.257231 279.335619 
L 263.630769 280.543226 
L 265.004308 279.824151 
L 266.377846 278.938757 
L 270.498462 282.134954 
L 271.872 283.928007 
L 273.245538 286.204622 
L 274.619077 288.928769 
L 275.992615 292.014908 
L 277.366154 291.432642 
L 280.113231 291.827538 
L 281.486769 291.854781 
L 282.860308 292.442167 
L 285.607385 294.646395 
L 286.980923 296.209906 
L 288.354462 298.113028 
L 289.728 300.307899 
L 291.101538 301.1134 
L 292.475077 300.253405 
L 295.222154 298.933881 
L 296.595692 298.362004 
L 297.969231 298.580051 
L 299.342769 298.973824 
L 300.716308 301.284964 
L 302.089846 302.053188 
L 303.463385 302.418324 
L 304.836923 299.704877 
L 306.210462 299.475522 
L 308.957538 298.638027 
L 311.704615 298.062688 
L 313.078154 297.929277 
L 318.572308 297.928544 
L 332.307692 298.082869 
L 346.043077 298.414632 
L 359.778462 298.946212 
L 359.778462 298.946212 
" clip-path="url(#p5434e1c146)" style="fill: none; stroke: #000000; stroke-width: 1.5; stroke-linecap: square"/>
   </g>
   <g id="patch_3">
    <path d="M 57.6 307.584 
L 57.6 41.472 
" style="fill: none; stroke: #000000; stroke-width: 0.8; stroke-linejoin: miter; stroke-linecap: square"/>
   </g>
   <g id="patch_4">
    <path d="M 414.72 307.584 
L 414.72 41.472 
" style="fill: none; stroke: #000000; stroke-width: 0.8; stroke-linejoin: miter; stroke-linecap: square"/>
   </g>
   <g id="patch_5">
    <path d="M 57.6 307.584 
L 414.72 307.584 
" style="fill: none; stroke: #000000; stroke-width: 0.8; stroke-linejoin: miter; stroke-linecap: square"/>
   </g>
   <g id="patch_6">
    <path d="M 57.6 41.472 
L 414.72 41.472 
" style="fill: none; stroke: #000000; stroke-width: 0.8; stroke-linejoin: miter; stroke-linecap: square"/>
   </g>
   <g id="text_14">
    <!-- WRN learning curves -->
    <g transform="translate(173.340937 35.472) scale(0.12 -0.12)">
     <defs>
      <path id="DejaVuSans-57" d="M 213 4666 
L 850 4666 
L 1831 722 
L 2809 4666 
L 3519 4666 
L 4500 722 
L 5478 4666 
L 6119 4666 
L 4947 0 
L 4153 0 
L 3169 4050 
L 2175 0 
L 1381 0 
L 213 4666 
z
" transform="scale(0.015625)"/>
      <path id="DejaVuSans-52" d="M 2841 2188 
Q 3044 2119 3236 1894 
Q 3428 1669 3622 1275 
L 4263 0 
L 3584 0 
L 2988 1197 
Q 2756 1666 2539 1819 
Q 2322 1972 1947 1972 
L 1259 1972 
L 1259 0 
L 628 0 
L 628 4666 
L 2053 4666 
Q 2853 4666 3247 4331 
Q 3641 3997 3641 3322 
Q 3641 2881 3436 2590 
Q 3231 2300 2841 2188 
z
M 1259 4147 
L 1259 2491 
L 2053 2491 
Q 2509 2491 2742 2702 
Q 2975 2913 2975 3322 
Q 2975 3731 2742 3939 
Q 2509 4147 2053 4147 
L 1259 4147 
z
" transform="scale(0.015625)"/>
      <path id="DejaVuSans-4e" d="M 628 4666 
L 1478 4666 
L 3547 763 
L 3547 4666 
L 4159 4666 
L 4159 0 
L 3309 0 
L 1241 3903 
L 1241 0 
L 628 0 
L 628 4666 
z
" transform="scale(0.015625)"/>
      <path id="DejaVuSans-63" d="M 3122 3366 
L 3122 2828 
Q 2878 2963 2633 3030 
Q 2388 3097 2138 3097 
Q 1578 3097 1268 2742 
Q 959 2388 959 1747 
Q 959 1106 1268 751 
Q 1578 397 2138 397 
Q 2388 397 2633 464 
Q 2878 531 3122 666 
L 3122 134 
Q 2881 22 2623 -34 
Q 2366 -91 2075 -91 
Q 1284 -91 818 406 
Q 353 903 353 1747 
Q 353 2603 823 3093 
Q 1294 3584 2113 3584 
Q 2378 3584 2631 3529 
Q 2884 3475 3122 3366 
z
" transform="scale(0.015625)"/>
      <path id="DejaVuSans-75" d="M 544 1381 
L 544 3500 
L 1119 3500 
L 1119 1403 
Q 1119 906 1312 657 
Q 1506 409 1894 409 
Q 2359 409 2629 706 
Q 2900 1003 2900 1516 
L 2900 3500 
L 3475 3500 
L 3475 0 
L 2900 0 
L 2900 538 
Q 2691 219 2414 64 
Q 2138 -91 1772 -91 
Q 1169 -91 856 284 
Q 544 659 544 1381 
z
M 1991 3584 
L 1991 3584 
z
" transform="scale(0.015625)"/>
      <path id="DejaVuSans-76" d="M 191 3500 
L 800 3500 
L 1894 563 
L 2988 3500 
L 3597 3500 
L 2284 0 
L 1503 0 
L 191 3500 
z
" transform="scale(0.015625)"/>
     </defs>
     <use xlink:href="#DejaVuSans-57"/>
     <use xlink:href="#DejaVuSans-52" transform="translate(98.876953 0)"/>
     <use xlink:href="#DejaVuSans-4e" transform="translate(168.359375 0)"/>
     <use xlink:href="#DejaVuSans-20" transform="translate(243.164062 0)"/>
     <use xlink:href="#DejaVuSans-6c" transform="translate(274.951172 0)"/>
     <use xlink:href="#DejaVuSans-65" transform="translate(302.734375 0)"/>
     <use xlink:href="#DejaVuSans-61" transform="translate(364.257812 0)"/>
     <use xlink:href="#DejaVuSans-72" transform="translate(425.537109 0)"/>
     <use xlink:href="#DejaVuSans-6e" transform="translate(464.900391 0)"/>
     <use xlink:href="#DejaVuSans-69" transform="translate(528.279297 0)"/>
     <use xlink:href="#DejaVuSans-6e" transform="translate(556.0625 0)"/>
     <use xlink:href="#DejaVuSans-67" transform="translate(619.441406 0)"/>
     <use xlink:href="#DejaVuSans-20" transform="translate(682.917969 0)"/>
     <use xlink:href="#DejaVuSans-63" transform="translate(714.705078 0)"/>
     <use xlink:href="#DejaVuSans-75" transform="translate(769.685547 0)"/>
     <use xlink:href="#DejaVuSans-72" transform="translate(833.064453 0)"/>
     <use xlink:href="#DejaVuSans-76" transform="translate(874.177734 0)"/>
     <use xlink:href="#DejaVuSans-65" transform="translate(933.357422 0)"/>
     <use xlink:href="#DejaVuSans-73" transform="translate(994.880859 0)"/>
    </g>
   </g>
   <g id="legend_1">
    <g id="patch_7">
     <path d="M 303.46375 122.862625 
L 407.72 122.862625 
Q 409.72 122.862625 409.72 120.862625 
L 409.72 48.472 
Q 409.72 46.472 407.72 46.472 
L 303.46375 46.472 
Q 301.46375 46.472 301.46375 48.472 
L 301.46375 120.862625 
Q 301.46375 122.862625 303.46375 122.862625 
z
" style="fill: #ffffff; opacity: 0.8; stroke: #cccccc; stroke-linejoin: miter"/>
    </g>
    <g id="line2d_28">
     <path d="M 305.46375 54.570438 
L 315.46375 54.570438 
L 325.46375 54.570438 
" style="fill: none; stroke: #0000ff; stroke-width: 1.5; stroke-linecap: square"/>
    </g>
    <g id="text_15">
     <!-- true labels -->
     <g transform="translate(333.46375 58.070438) scale(0.1 -0.1)">
      <defs>
       <path id="DejaVuSans-62" d="M 3116 1747 
Q 3116 2381 2855 2742 
Q 2594 3103 2138 3103 
Q 1681 3103 1420 2742 
Q 1159 2381 1159 1747 
Q 1159 1113 1420 752 
Q 1681 391 2138 391 
Q 2594 391 2855 752 
Q 3116 1113 3116 1747 
z
M 1159 2969 
Q 1341 3281 1617 3432 
Q 1894 3584 2278 3584 
Q 2916 3584 3314 3078 
Q 3713 2572 3713 1747 
Q 3713 922 3314 415 
Q 2916 -91 2278 -91 
Q 1894 -91 1617 61 
Q 1341 213 1159 525 
L 1159 0 
L 581 0 
L 581 4863 
L 1159 4863 
L 1159 2969 
z
" transform="scale(0.015625)"/>
      </defs>
      <use xlink:href="#DejaVuSans-74"/>
      <use xlink:href="#DejaVuSans-72" transform="translate(39.208984 0)"/>
      <use xlink:href="#DejaVuSans-75" transform="translate(80.322266 0)"/>
      <use xlink:href="#DejaVuSans-65" transform="translate(143.701172 0)"/>
      <use xlink:href="#DejaVuSans-20" transform="translate(205.224609 0)"/>
      <use xlink:href="#DejaVuSans-6c" transform="translate(237.011719 0)"/>
      <use xlink:href="#DejaVuSans-61" transform="translate(264.794922 0)"/>
      <use xlink:href="#DejaVuSans-62" transform="translate(326.074219 0)"/>
      <use xlink:href="#DejaVuSans-65" transform="translate(389.550781 0)"/>
      <use xlink:href="#DejaVuSans-6c" transform="translate(451.074219 0)"/>
      <use xlink:href="#DejaVuSans-73" transform="translate(478.857422 0)"/>
     </g>
    </g>
    <g id="line2d_29">
     <path d="M 305.46375 69.248563 
L 315.46375 69.248563 
L 325.46375 69.248563 
" style="fill: none; stroke: #ff0000; stroke-width: 1.5; stroke-linecap: square"/>
    </g>
    <g id="text_16">
     <!-- random labels -->
     <g transform="translate(333.46375 72.748563) scale(0.1 -0.1)">
      <defs>
       <path id="DejaVuSans-64" d="M 2906 2969 
L 2906 4863 
L 3481 4863 
L 3481 0 
L 2906 0 
L 2906 525 
Q 2725 213 2448 61 
Q 2172 -91 1784 -91 
Q 1150 -91 751 415 
Q 353 922 353 1747 
Q 353 2572 751 3078 
Q 1150 3584 1784 3584 
Q 2172 3584 2448 3432 
Q 2725 3281 2906 2969 
z
M 947 1747 
Q 947 1113 1208 752 
Q 1469 391 1925 391 
Q 2381 391 2643 752 
Q 2906 1113 2906 1747 
Q 2906 2381 2643 2742 
Q 2381 3103 1925 3103 
Q 1469 3103 1208 2742 
Q 947 2381 947 1747 
z
" transform="scale(0.015625)"/>
       <path id="DejaVuSans-6d" d="M 3328 2828 
Q 3544 3216 3844 3400 
Q 4144 3584 4550 3584 
Q 5097 3584 5394 3201 
Q 5691 2819 5691 2113 
L 5691 0 
L 5113 0 
L 5113 2094 
Q 5113 2597 4934 2840 
Q 4756 3084 4391 3084 
Q 3944 3084 3684 2787 
Q 3425 2491 3425 1978 
L 3425 0 
L 2847 0 
L 2847 2094 
Q 2847 2600 2669 2842 
Q 2491 3084 2119 3084 
Q 1678 3084 1418 2786 
Q 1159 2488 1159 1978 
L 1159 0 
L 581 0 
L 581 3500 
L 1159 3500 
L 1159 2956 
Q 1356 3278 1631 3431 
Q 1906 3584 2284 3584 
Q 2666 3584 2933 3390 
Q 3200 3197 3328 2828 
z
" transform="scale(0.015625)"/>
      </defs>
      <use xlink:href="#DejaVuSans-72"/>
      <use xlink:href="#DejaVuSans-61" transform="translate(41.113281 0)"/>
      <use xlink:href="#DejaVuSans-6e" transform="translate(102.392578 0)"/>
      <use xlink:href="#DejaVuSans-64" transform="translate(165.771484 0)"/>
      <use xlink:href="#DejaVuSans-6f" transform="translate(229.248047 0)"/>
      <use xlink:href="#DejaVuSans-6d" transform="translate(290.429688 0)"/>
      <use xlink:href="#DejaVuSans-20" transform="translate(387.841797 0)"/>
      <use xlink:href="#DejaVuSans-6c" transform="translate(419.628906 0)"/>
      <use xlink:href="#DejaVuSans-61" transform="translate(447.412109 0)"/>
      <use xlink:href="#DejaVuSans-62" transform="translate(508.691406 0)"/>
      <use xlink:href="#DejaVuSans-65" transform="translate(572.167969 0)"/>
      <use xlink:href="#DejaVuSans-6c" transform="translate(633.691406 0)"/>
      <use xlink:href="#DejaVuSans-73" transform="translate(661.474609 0)"/>
     </g>
    </g>
    <g id="line2d_30">
     <path d="M 305.46375 83.926688 
L 315.46375 83.926688 
L 325.46375 83.926688 
" style="fill: none; stroke: #008000; stroke-width: 1.5; stroke-linecap: square"/>
    </g>
    <g id="text_17">
     <!-- shuffled pixels -->
     <g transform="translate(333.46375 87.426688) scale(0.1 -0.1)">
      <defs>
       <path id="DejaVuSans-68" d="M 3513 2113 
L 3513 0 
L 2938 0 
L 2938 2094 
Q 2938 2591 2744 2837 
Q 2550 3084 2163 3084 
Q 1697 3084 1428 2787 
Q 1159 2491 1159 1978 
L 1159 0 
L 581 0 
L 581 4863 
L 1159 4863 
L 1159 2956 
Q 1366 3272 1645 3428 
Q 1925 3584 2291 3584 
Q 2894 3584 3203 3211 
Q 3513 2838 3513 2113 
z
" transform="scale(0.015625)"/>
       <path id="DejaVuSans-66" d="M 2375 4863 
L 2375 4384 
L 1825 4384 
Q 1516 4384 1395 4259 
Q 1275 4134 1275 3809 
L 1275 3500 
L 2222 3500 
L 2222 3053 
L 1275 3053 
L 1275 0 
L 697 0 
L 697 3053 
L 147 3053 
L 147 3500 
L 697 3500 
L 697 3744 
Q 697 4328 969 4595 
Q 1241 4863 1831 4863 
L 2375 4863 
z
" transform="scale(0.015625)"/>
       <path id="DejaVuSans-78" d="M 3513 3500 
L 2247 1797 
L 3578 0 
L 2900 0 
L 1881 1375 
L 863 0 
L 184 0 
L 1544 1831 
L 300 3500 
L 978 3500 
L 1906 2253 
L 2834 3500 
L 3513 3500 
z
" transform="scale(0.015625)"/>
      </defs>
      <use xlink:href="#DejaVuSans-73"/>
      <use xlink:href="#DejaVuSans-68" transform="translate(52.099609 0)"/>
      <use xlink:href="#DejaVuSans-75" transform="translate(115.478516 0)"/>
      <use xlink:href="#DejaVuSans-66" transform="translate(178.857422 0)"/>
      <use xlink:href="#DejaVuSans-66" transform="translate(214.0625 0)"/>
      <use xlink:href="#DejaVuSans-6c" transform="translate(249.267578 0)"/>
      <use xlink:href="#DejaVuSans-65" transform="translate(277.050781 0)"/>
      <use xlink:href="#DejaVuSans-64" transform="translate(338.574219 0)"/>
      <use xlink:href="#DejaVuSans-20" transform="translate(402.050781 0)"/>
      <use xlink:href="#DejaVuSans-70" transform="translate(433.837891 0)"/>
      <use xlink:href="#DejaVuSans-69" transform="translate(497.314453 0)"/>
      <use xlink:href="#DejaVuSans-78" transform="translate(525.097656 0)"/>
      <use xlink:href="#DejaVuSans-65" transform="translate(581.152344 0)"/>
      <use xlink:href="#DejaVuSans-6c" transform="translate(642.675781 0)"/>
      <use xlink:href="#DejaVuSans-73" transform="translate(670.458984 0)"/>
     </g>
    </g>
    <g id="line2d_31">
     <path d="M 305.46375 98.604813 
L 315.46375 98.604813 
L 325.46375 98.604813 
" style="fill: none; stroke: #bf00bf; stroke-width: 1.5; stroke-linecap: square"/>
    </g>
    <g id="text_18">
     <!-- random pixels -->
     <g transform="translate(333.46375 102.104813) scale(0.1 -0.1)">
      <use xlink:href="#DejaVuSans-72"/>
      <use xlink:href="#DejaVuSans-61" transform="translate(41.113281 0)"/>
      <use xlink:href="#DejaVuSans-6e" transform="translate(102.392578 0)"/>
      <use xlink:href="#DejaVuSans-64" transform="translate(165.771484 0)"/>
      <use xlink:href="#DejaVuSans-6f" transform="translate(229.248047 0)"/>
      <use xlink:href="#DejaVuSans-6d" transform="translate(290.429688 0)"/>
      <use xlink:href="#DejaVuSans-20" transform="translate(387.841797 0)"/>
      <use xlink:href="#DejaVuSans-70" transform="translate(419.628906 0)"/>
      <use xlink:href="#DejaVuSans-69" transform="translate(483.105469 0)"/>
      <use xlink:href="#DejaVuSans-78" transform="translate(510.888672 0)"/>
      <use xlink:href="#DejaVuSans-65" transform="translate(566.943359 0)"/>
      <use xlink:href="#DejaVuSans-6c" transform="translate(628.466797 0)"/>
      <use xlink:href="#DejaVuSans-73" transform="translate(656.25 0)"/>
     </g>
    </g>
    <g id="line2d_32">
     <path d="M 305.46375 113.282938 
L 315.46375 113.282938 
L 325.46375 113.282938 
" style="fill: none; stroke: #000000; stroke-width: 1.5; stroke-linecap: square"/>
    </g>
    <g id="text_19">
     <!-- gaussian -->
     <g transform="translate(333.46375 116.782938) scale(0.1 -0.1)">
      <use xlink:href="#DejaVuSans-67"/>
      <use xlink:href="#DejaVuSans-61" transform="translate(63.476562 0)"/>
      <use xlink:href="#DejaVuSans-75" transform="translate(124.755859 0)"/>
      <use xlink:href="#DejaVuSans-73" transform="translate(188.134766 0)"/>
      <use xlink:href="#DejaVuSans-73" transform="translate(240.234375 0)"/>
      <use xlink:href="#DejaVuSans-69" transform="translate(292.333984 0)"/>
      <use xlink:href="#DejaVuSans-61" transform="translate(320.117188 0)"/>
      <use xlink:href="#DejaVuSans-6e" transform="translate(381.396484 0)"/>
     </g>
    </g>
   </g>
  </g>
 </g>
 <defs>
  <clipPath id="p5434e1c146">
   <rect x="57.6" y="41.472" width="357.12" height="266.112"/>
  </clipPath>
 </defs>
</svg>
